G04 #@! TF.GenerationSoftware,KiCad,Pcbnew,(6.0.0)*
G04 #@! TF.CreationDate,2022-06-18T15:13:31-07:00*
G04 #@! TF.ProjectId,max86141_Rev_A,6d617838-3631-4343-915f-5265765f412e,A*
G04 #@! TF.SameCoordinates,Original*
G04 #@! TF.FileFunction,Copper,L4,Bot*
G04 #@! TF.FilePolarity,Positive*
%FSLAX46Y46*%
G04 Gerber Fmt 4.6, Leading zero omitted, Abs format (unit mm)*
G04 Created by KiCad (PCBNEW (6.0.0)) date 2022-06-18 15:13:31*
%MOMM*%
%LPD*%
G01*
G04 APERTURE LIST*
G04 #@! TA.AperFunction,ComponentPad*
%ADD10R,1.700000X1.700000*%
G04 #@! TD*
G04 #@! TA.AperFunction,ComponentPad*
%ADD11O,1.700000X1.700000*%
G04 #@! TD*
G04 #@! TA.AperFunction,SMDPad,CuDef*
%ADD12C,1.000000*%
G04 #@! TD*
G04 #@! TA.AperFunction,SMDPad,CuDef*
%ADD13R,0.900000X0.300000*%
G04 #@! TD*
G04 #@! TA.AperFunction,SMDPad,CuDef*
%ADD14R,0.850000X0.300000*%
G04 #@! TD*
G04 #@! TA.AperFunction,ViaPad*
%ADD15C,0.450000*%
G04 #@! TD*
G04 #@! TA.AperFunction,Conductor*
%ADD16C,0.152400*%
G04 #@! TD*
G04 #@! TA.AperFunction,Conductor*
%ADD17C,0.381000*%
G04 #@! TD*
G04 #@! TA.AperFunction,Conductor*
%ADD18C,0.177800*%
G04 #@! TD*
G04 #@! TA.AperFunction,Conductor*
%ADD19C,0.254000*%
G04 #@! TD*
G04 #@! TA.AperFunction,Conductor*
%ADD20C,0.635000*%
G04 #@! TD*
G04 APERTURE END LIST*
D10*
X136477000Y-98743000D03*
D11*
X136477000Y-96203000D03*
X136477000Y-93663000D03*
D12*
X165506400Y-115925600D03*
D13*
X151150000Y-107500000D03*
X151150000Y-108050000D03*
X151150000Y-108550000D03*
X151150000Y-109050000D03*
X151150000Y-109550000D03*
X151150000Y-110050000D03*
X151150000Y-110550000D03*
X151150000Y-111050000D03*
X151150000Y-111550000D03*
X151150000Y-112500000D03*
D14*
X150000000Y-112500000D03*
D13*
X148850000Y-112500000D03*
X148850000Y-111550000D03*
X148850000Y-111050000D03*
X148850000Y-110550000D03*
X148850000Y-110050000D03*
X148850000Y-109550000D03*
X148850000Y-109050000D03*
X148850000Y-108550000D03*
X148850000Y-108050000D03*
X148850000Y-107500000D03*
D14*
X150000000Y-107500000D03*
D12*
X151841200Y-121107200D03*
X154533600Y-121005600D03*
X138379200Y-122021600D03*
X141173200Y-121920000D03*
X144830800Y-121056400D03*
X132435600Y-109423200D03*
X151841200Y-125628400D03*
D15*
X150368000Y-129133600D03*
X169243000Y-98123000D03*
X131524000Y-118316000D03*
X163782000Y-92662000D03*
X161696400Y-121361200D03*
X160985200Y-91490800D03*
X143462000Y-115903000D03*
X133858000Y-112826800D03*
X149148800Y-114046000D03*
X158038800Y-121666000D03*
X165179000Y-118443000D03*
X144170400Y-107797600D03*
X132794000Y-118824000D03*
X151993600Y-113944400D03*
X163401000Y-125936000D03*
X168227000Y-97361000D03*
X159718000Y-97361000D03*
X157813000Y-99266000D03*
X144068800Y-122275600D03*
X141833600Y-120751600D03*
X161623000Y-99266000D03*
X130708400Y-92151200D03*
X130708400Y-100025200D03*
X137112000Y-120094000D03*
X169214800Y-96062800D03*
X138277600Y-129336800D03*
X148031200Y-116738400D03*
X153495000Y-92408000D03*
X161623000Y-97361000D03*
X132892800Y-126339600D03*
X138379200Y-99822000D03*
X130860800Y-103733600D03*
X134569200Y-100634800D03*
X156159200Y-125628400D03*
X144170400Y-113639600D03*
X137871200Y-90779600D03*
X169011600Y-128930400D03*
X144729200Y-115773200D03*
X156210000Y-121208800D03*
X169011600Y-91287600D03*
X157937200Y-104648000D03*
X134315200Y-122377200D03*
X161086800Y-119989600D03*
X141224000Y-126441200D03*
X159010900Y-93014800D03*
X156362400Y-93726000D03*
X166370000Y-103378000D03*
X158194000Y-119078000D03*
X132232400Y-92151200D03*
X146710400Y-115011200D03*
X156260800Y-115671600D03*
X137112000Y-124920000D03*
X156289000Y-119078000D03*
X147066000Y-94945200D03*
X136477000Y-118443000D03*
X140160000Y-116919000D03*
X169214800Y-116586000D03*
X157813000Y-97361000D03*
X159718000Y-95456000D03*
X151209000Y-117935000D03*
X135334000Y-124920000D03*
X141122400Y-116179600D03*
X169214800Y-124307600D03*
X158089600Y-125984000D03*
X143713200Y-119837200D03*
X135991600Y-108966000D03*
X134467600Y-102311200D03*
X147929600Y-99110800D03*
X165150800Y-122072400D03*
X135331200Y-107696000D03*
X153924000Y-100076000D03*
X165941000Y-94440000D03*
X153622000Y-119586000D03*
X166195000Y-99012000D03*
X140106400Y-118008400D03*
X144170400Y-105308400D03*
X142494000Y-95656400D03*
X135026400Y-98907600D03*
X136093200Y-111556800D03*
X166928800Y-95351600D03*
X164490400Y-128219200D03*
X133502400Y-125069600D03*
X165052000Y-99012000D03*
X135334000Y-123904000D03*
X133502400Y-120650000D03*
X144170400Y-111099600D03*
X130962400Y-129082800D03*
X149961600Y-95046800D03*
X140258800Y-124663200D03*
X159591000Y-118062000D03*
X150447000Y-106251000D03*
X130810000Y-112115600D03*
X165941000Y-97361000D03*
X131778000Y-119459000D03*
X138887200Y-109778800D03*
X139852400Y-96062800D03*
X155448000Y-129082800D03*
X149431000Y-119332000D03*
X136477000Y-119459000D03*
X164036000Y-99647000D03*
X150774400Y-91440000D03*
X133350000Y-111607600D03*
X156819600Y-106019600D03*
X138226800Y-95961200D03*
X163982400Y-125425200D03*
X151082000Y-105616000D03*
X139144000Y-116538000D03*
X167973000Y-99393000D03*
X164798000Y-91011000D03*
X137112000Y-123904000D03*
X140360400Y-115570000D03*
X135461000Y-118443000D03*
X155448000Y-104851200D03*
X136753600Y-127406400D03*
X169243000Y-103203000D03*
X139903200Y-92202000D03*
X149352000Y-103530400D03*
X144018000Y-92252800D03*
X167084000Y-97361000D03*
X163017200Y-103428800D03*
X153876000Y-117173000D03*
X137972800Y-92100400D03*
X164541200Y-119888000D03*
X163401000Y-123142000D03*
X169113200Y-93878400D03*
X155019000Y-93043000D03*
X145694400Y-104292400D03*
X142951200Y-91795600D03*
X145846800Y-119634000D03*
X152860000Y-117173000D03*
X155346400Y-111912400D03*
X169214800Y-118160800D03*
X139903200Y-123342400D03*
X138430000Y-98044000D03*
X135461000Y-119459000D03*
X157813000Y-95456000D03*
X144830800Y-129184400D03*
X141376400Y-119837200D03*
X144605000Y-125682000D03*
X137566400Y-126339600D03*
X134569200Y-128828800D03*
X164671000Y-97361000D03*
X131978400Y-90830400D03*
X159664400Y-129235200D03*
X160226000Y-118316000D03*
X166217600Y-126441200D03*
X161623000Y-95456000D03*
X159105600Y-111963200D03*
X159718000Y-99266000D03*
X164541200Y-93370400D03*
X139090400Y-113436400D03*
X163401000Y-128730000D03*
X167084000Y-116284000D03*
X152987000Y-96472000D03*
X130860800Y-107594400D03*
X156289000Y-91900000D03*
X144830800Y-106629200D03*
X157175200Y-120446800D03*
X145084800Y-92202000D03*
X158445200Y-114909600D03*
X156870400Y-100126800D03*
X147933450Y-110240986D03*
X155702000Y-128219200D03*
X135432800Y-127863600D03*
X160685276Y-92752673D03*
X169265600Y-123545600D03*
X157175200Y-116027200D03*
X132740400Y-127914400D03*
X159161247Y-105300761D03*
X148894800Y-92303600D03*
X167592000Y-123523000D03*
X144830800Y-109880400D03*
X144678400Y-114757200D03*
X151079200Y-120345200D03*
X160629600Y-101701600D03*
X143611600Y-114960400D03*
X148336000Y-103530400D03*
X149957500Y-97383600D03*
X155978433Y-98922233D03*
X138074400Y-114452400D03*
X144221200Y-103530400D03*
X130708400Y-117449600D03*
X131876800Y-110642400D03*
X148539200Y-90830400D03*
X138938000Y-90830400D03*
X162204400Y-91135200D03*
X163364200Y-101142800D03*
X131368800Y-91490800D03*
X144678400Y-120396000D03*
X146637000Y-110569000D03*
X164185600Y-115722400D03*
X166674800Y-108356400D03*
X147780000Y-110823000D03*
X152098000Y-108791000D03*
X151971000Y-109807000D03*
X148796000Y-107013000D03*
X146383000Y-108156000D03*
X149685000Y-108283000D03*
X146129000Y-116919000D03*
X146129000Y-118697000D03*
X159207200Y-110642400D03*
X150012400Y-109474000D03*
X153771600Y-110540800D03*
X155803600Y-110490000D03*
X153060400Y-107797600D03*
X155400000Y-103965000D03*
X155527000Y-98504000D03*
X147653000Y-94313000D03*
X152244799Y-103711000D03*
X136469100Y-122126000D03*
X141630400Y-100634800D03*
X142192000Y-103203000D03*
X148161000Y-95583000D03*
X153035000Y-100203000D03*
X153876000Y-96980000D03*
X164287200Y-102920800D03*
X164388800Y-100431600D03*
X151434800Y-102646280D03*
X151717000Y-100028000D03*
X155865800Y-102229200D03*
X163779200Y-102311200D03*
X155854400Y-99669600D03*
X162687000Y-100028000D03*
X152109923Y-103064189D03*
X161290000Y-101396800D03*
X161696400Y-103530400D03*
X152400000Y-98631000D03*
X160375600Y-93268800D03*
X143713200Y-102819200D03*
X150317200Y-102768400D03*
X142951200Y-127203200D03*
X154686000Y-102362000D03*
X142189200Y-129032000D03*
X154638000Y-98250000D03*
X143002000Y-102463600D03*
X148669000Y-96091000D03*
X148796000Y-93297000D03*
X153009600Y-103835200D03*
X159562800Y-91143800D03*
X149177000Y-100028000D03*
X139652000Y-105870000D03*
X137263688Y-117529312D03*
X140106400Y-99822000D03*
X141557000Y-104854000D03*
X140922000Y-100224300D03*
X150574000Y-100536000D03*
X160020000Y-91694000D03*
X138255000Y-118697000D03*
X161899600Y-101650800D03*
X169062400Y-114808000D03*
X169164000Y-104444800D03*
X162306000Y-103479600D03*
X158902400Y-101650800D03*
X159315255Y-104440573D03*
X165100000Y-129336800D03*
X168046400Y-105206800D03*
X167436800Y-104961400D03*
X159587371Y-101677029D03*
X160274000Y-104859811D03*
X165252400Y-124206000D03*
X168503600Y-104546400D03*
X159983800Y-101193600D03*
X160883600Y-104343200D03*
X167699400Y-121310400D03*
X163909000Y-113871000D03*
X153466800Y-106426000D03*
X163982400Y-108000800D03*
X153114000Y-104727000D03*
X163677600Y-106832400D03*
X164671000Y-113236000D03*
X165100000Y-108762800D03*
X165100000Y-112623600D03*
X159232600Y-107209300D03*
X161738600Y-92913200D03*
X152044400Y-91998800D03*
D16*
X155041600Y-106654600D02*
X153114000Y-104727000D01*
X163499800Y-106654600D02*
X155041600Y-106654600D01*
X163677600Y-106832400D02*
X163499800Y-106654600D01*
X163969686Y-107321889D02*
X165100000Y-108452203D01*
X159232600Y-107209300D02*
X159345189Y-107321889D01*
X159345189Y-107321889D02*
X163969686Y-107321889D01*
X165100000Y-108452203D02*
X165100000Y-108762800D01*
D17*
X132791200Y-127863600D02*
X132740400Y-127914400D01*
X160934400Y-99771200D02*
X160872189Y-99833411D01*
X145084800Y-92202000D02*
X145186400Y-92303600D01*
D18*
X148242464Y-110550000D02*
X148850000Y-110550000D01*
D17*
X165746411Y-105243611D02*
X163169600Y-102666800D01*
X165506400Y-105562400D02*
X159422886Y-105562400D01*
X159422886Y-105562400D02*
X159161247Y-105300761D01*
X157175200Y-119989600D02*
X157175200Y-116027200D01*
X165746411Y-112963030D02*
X165746411Y-106236789D01*
X160934400Y-93980000D02*
X161137600Y-93776800D01*
X163799841Y-114909600D02*
X165746411Y-112963030D01*
X161137600Y-93065600D02*
X160832800Y-92760800D01*
D18*
X147933450Y-110240986D02*
X148242464Y-110550000D01*
D17*
X144830800Y-109880400D02*
X144830800Y-106629200D01*
X160832800Y-92760800D02*
X160693403Y-92760800D01*
X160872189Y-99833411D02*
X157163789Y-99833411D01*
X135432800Y-127863600D02*
X132791200Y-127863600D01*
X163169600Y-102666800D02*
X163169600Y-102006400D01*
X169265600Y-123545600D02*
X169243000Y-123523000D01*
X157175200Y-120446800D02*
X157175200Y-126746000D01*
X144830800Y-106629200D02*
X144830800Y-92456000D01*
X157175200Y-126746000D02*
X155702000Y-128219200D01*
X165746411Y-106236789D02*
X165746411Y-105243611D01*
X144678400Y-114757200D02*
X144830800Y-114604800D01*
X157175200Y-120446800D02*
X157175200Y-119989600D01*
X158445200Y-114909600D02*
X163799841Y-114909600D01*
X165746411Y-105802411D02*
X165506400Y-105562400D01*
X145186400Y-92303600D02*
X148894800Y-92303600D01*
X160934400Y-99771200D02*
X160934400Y-93980000D01*
X163169600Y-102006400D02*
X160934400Y-99771200D01*
X144830800Y-114604800D02*
X144830800Y-109880400D01*
X144830800Y-92456000D02*
X145084800Y-92202000D01*
X165746411Y-106236789D02*
X165746411Y-105802411D01*
D18*
X154533600Y-121005600D02*
X155549600Y-119989600D01*
D17*
X157163789Y-99833411D02*
X156870400Y-100126800D01*
X169243000Y-123523000D02*
X167592000Y-123523000D01*
X160693403Y-92760800D02*
X160685276Y-92752673D01*
X161137600Y-93776800D02*
X161137600Y-93065600D01*
D18*
X155549600Y-119989600D02*
X157175200Y-119989600D01*
D19*
X151079200Y-120345200D02*
X151841200Y-121107200D01*
D18*
X144221200Y-103530400D02*
X143611600Y-104140000D01*
X143611600Y-104140000D02*
X143611600Y-114960400D01*
X149957500Y-97383600D02*
X149957500Y-101908900D01*
X157276800Y-100482400D02*
X157166589Y-100592611D01*
X156320211Y-99264011D02*
X155978433Y-98922233D01*
X160629600Y-101701600D02*
X160629600Y-100888800D01*
X130708400Y-117449600D02*
X135077200Y-117449600D01*
X160223200Y-100482400D02*
X157276800Y-100482400D01*
X149957500Y-101908900D02*
X148336000Y-103530400D01*
X156677454Y-100592611D02*
X156311600Y-100226757D01*
X157166589Y-100592611D02*
X156677454Y-100592611D01*
X160629600Y-100888800D02*
X160223200Y-100482400D01*
X156311600Y-100226757D02*
X156320211Y-100218146D01*
X135077200Y-117449600D02*
X138074400Y-114452400D01*
X156320211Y-100218146D02*
X156320211Y-99264011D01*
X131876800Y-110642400D02*
X131876800Y-109982000D01*
X131876800Y-109982000D02*
X132435600Y-109423200D01*
X163364200Y-101142800D02*
X163143043Y-101142800D01*
X148539200Y-90830400D02*
X148380989Y-90672189D01*
X139096211Y-90672189D02*
X138938000Y-90830400D01*
X162204400Y-100204157D02*
X162204400Y-91135200D01*
X131419600Y-91541600D02*
X138226800Y-91541600D01*
X131368800Y-91490800D02*
X131419600Y-91541600D01*
X163143043Y-101142800D02*
X162204400Y-100204157D01*
X138226800Y-91541600D02*
X138938000Y-90830400D01*
X148380989Y-90672189D02*
X139096211Y-90672189D01*
X144678400Y-120396000D02*
X144678400Y-120904000D01*
X144678400Y-120904000D02*
X144830800Y-121056400D01*
D20*
X166674800Y-113233200D02*
X166674800Y-108356400D01*
D18*
X164820600Y-115239800D02*
X164820600Y-115087400D01*
X165506400Y-115925600D02*
X164820600Y-115239800D01*
D20*
X164185600Y-115722400D02*
X164820600Y-115087400D01*
D16*
X147618000Y-111550000D02*
X146637000Y-110569000D01*
D20*
X164820600Y-115087400D02*
X166674800Y-113233200D01*
D16*
X148850000Y-111550000D02*
X147618000Y-111550000D01*
X148850000Y-111050000D02*
X148007000Y-111050000D01*
X148007000Y-111050000D02*
X147780000Y-110823000D01*
D19*
X151150000Y-109050000D02*
X151839000Y-109050000D01*
X151839000Y-109050000D02*
X152098000Y-108791000D01*
X151150000Y-109550000D02*
X151714000Y-109550000D01*
X151714000Y-109550000D02*
X151971000Y-109807000D01*
D16*
X148796000Y-107446000D02*
X148850000Y-107500000D01*
X148796000Y-107013000D02*
X148796000Y-107446000D01*
X146383000Y-108156000D02*
X148141600Y-108156000D01*
X148141600Y-108156000D02*
X148247600Y-108050000D01*
X148247600Y-108050000D02*
X148850000Y-108050000D01*
X149685000Y-108283000D02*
X149418000Y-108550000D01*
X149418000Y-108550000D02*
X148850000Y-108550000D01*
D20*
X146129000Y-116919000D02*
X146129000Y-118697000D01*
D19*
X150012400Y-109474000D02*
X149588400Y-109050000D01*
X149588400Y-109050000D02*
X148850000Y-109050000D01*
D18*
X155273000Y-103838000D02*
X155273000Y-98758000D01*
X155273000Y-98758000D02*
X155527000Y-98504000D01*
X155400000Y-103965000D02*
X155273000Y-103838000D01*
D16*
X141684000Y-104142800D02*
X141684000Y-103203000D01*
X141579600Y-118547400D02*
X141579600Y-105472197D01*
X138001000Y-122126000D02*
X141579600Y-118547400D01*
D18*
X148161000Y-95583000D02*
X148161000Y-94821000D01*
D16*
X142010111Y-104468911D02*
X141684000Y-104142800D01*
D18*
X153035000Y-102920799D02*
X153035000Y-100203000D01*
D16*
X141684000Y-103203000D02*
X141684000Y-100688400D01*
X141684000Y-100688400D02*
X141630400Y-100634800D01*
X153162000Y-100076000D02*
X153162000Y-97694000D01*
D18*
X152244799Y-103711000D02*
X153035000Y-102920799D01*
D16*
X141579600Y-105472197D02*
X142010111Y-105041686D01*
X153162000Y-97694000D02*
X153876000Y-96980000D01*
D18*
X148161000Y-94821000D02*
X147653000Y-94313000D01*
D16*
X153035000Y-100203000D02*
X153162000Y-100076000D01*
X141684000Y-103203000D02*
X142192000Y-103203000D01*
X142010111Y-105041686D02*
X142010111Y-104468911D01*
X136469100Y-122126000D02*
X138001000Y-122126000D01*
D18*
X151717000Y-102364080D02*
X151717000Y-100028000D01*
X164388800Y-100431600D02*
X164338000Y-100482400D01*
X151434800Y-102646280D02*
X151717000Y-102364080D01*
X164338000Y-100482400D02*
X164338000Y-102870000D01*
X164338000Y-102870000D02*
X164287200Y-102920800D01*
X155854400Y-99669600D02*
X155865800Y-99681000D01*
X162918400Y-100028000D02*
X162687000Y-100028000D01*
X163830000Y-102260400D02*
X163830000Y-100939600D01*
X163779200Y-102311200D02*
X163830000Y-102260400D01*
X155865800Y-99681000D02*
X155865800Y-102229200D01*
X163830000Y-100939600D02*
X162918400Y-100028000D01*
X152400000Y-98631000D02*
X152400000Y-102774112D01*
X161340800Y-101447600D02*
X161290000Y-101396800D01*
X152400000Y-102774112D02*
X152109923Y-103064189D01*
X161340800Y-103174800D02*
X161340800Y-101447600D01*
X161696400Y-103530400D02*
X161340800Y-103174800D01*
X142951200Y-127203200D02*
X142849600Y-127101600D01*
X151790400Y-94284800D02*
X151251189Y-94824011D01*
X142849600Y-104190800D02*
X143408400Y-103632000D01*
X143408400Y-103124000D02*
X143713200Y-102819200D01*
X142849600Y-127101600D02*
X142849600Y-104190800D01*
X151251189Y-101834411D02*
X150317200Y-102768400D01*
X160375600Y-93268800D02*
X160375600Y-93726000D01*
X151251189Y-94824011D02*
X151251189Y-101834411D01*
X159816800Y-94284800D02*
X151790400Y-94284800D01*
X160375600Y-93726000D02*
X159816800Y-94284800D01*
X143408400Y-103632000D02*
X143408400Y-103124000D01*
X154482800Y-102362000D02*
X154686000Y-102362000D01*
D16*
X142341600Y-122377200D02*
X142341600Y-104089200D01*
X142189200Y-129032000D02*
X142341600Y-128879600D01*
D18*
X141884400Y-121920000D02*
X141173200Y-121920000D01*
D16*
X154638000Y-102314000D02*
X154638000Y-98250000D01*
D18*
X142341600Y-122377200D02*
X141884400Y-121920000D01*
D16*
X143002000Y-103428800D02*
X143002000Y-102463600D01*
X142341600Y-104089200D02*
X143002000Y-103428800D01*
D18*
X148796000Y-93297000D02*
X148796000Y-95964000D01*
D16*
X142341600Y-128879600D02*
X142341600Y-122377200D01*
D18*
X148796000Y-95964000D02*
X148669000Y-96091000D01*
D16*
X154686000Y-102362000D02*
X154638000Y-102314000D01*
D18*
X153009600Y-103835200D02*
X154482800Y-102362000D01*
D16*
X140160000Y-106505000D02*
X140160000Y-105997000D01*
X140160000Y-105997000D02*
X139779000Y-105997000D01*
X137263688Y-117529312D02*
X137263688Y-116386312D01*
X159562800Y-91143800D02*
X159176000Y-90757000D01*
X137263688Y-116386312D02*
X140160000Y-113490000D01*
X149504400Y-93376197D02*
X149504400Y-99700600D01*
X140160000Y-113490000D02*
X140160000Y-106505000D01*
X149485889Y-93357686D02*
X149504400Y-93376197D01*
X149485889Y-91972111D02*
X149485889Y-93357686D01*
X149504400Y-99700600D02*
X149177000Y-100028000D01*
X140160000Y-99875600D02*
X140106400Y-99822000D01*
X140160000Y-105997000D02*
X140160000Y-99875600D01*
X139779000Y-105997000D02*
X139652000Y-105870000D01*
X159176000Y-90757000D02*
X150701000Y-90757000D01*
X150701000Y-90757000D02*
X149485889Y-91972111D01*
X160020000Y-91694000D02*
X158902400Y-91694000D01*
X138255000Y-118697000D02*
X138255000Y-116786203D01*
X141176000Y-104854000D02*
X141557000Y-104854000D01*
X158600400Y-91392000D02*
X151590000Y-91392000D01*
X140922000Y-105108000D02*
X141176000Y-104854000D01*
X150418800Y-100380800D02*
X150574000Y-100536000D01*
X140922000Y-100224300D02*
X140922000Y-105108000D01*
X158902400Y-91694000D02*
X158600400Y-91392000D01*
X140922000Y-114119203D02*
X140922000Y-105108000D01*
X138255000Y-116786203D02*
X140922000Y-114119203D01*
X151590000Y-91392000D02*
X150418800Y-92563200D01*
X150418800Y-92563200D02*
X150418800Y-100380800D01*
D18*
X161899600Y-101650800D02*
X161950400Y-101701600D01*
X169164000Y-104444800D02*
X169164000Y-114706400D01*
X161950400Y-101701600D02*
X161950400Y-103124000D01*
X161950400Y-103124000D02*
X162306000Y-103479600D01*
X169164000Y-114706400D02*
X169062400Y-114808000D01*
X158953200Y-101701600D02*
X158902400Y-101650800D01*
X158953200Y-103938443D02*
X158953200Y-101701600D01*
X168046400Y-105206800D02*
X168097200Y-105257600D01*
X168097200Y-115929557D02*
X167233600Y-116793157D01*
X168097200Y-105257600D02*
X168097200Y-115929557D01*
X167233600Y-116793157D02*
X167233600Y-123190000D01*
X159315255Y-104300498D02*
X158953200Y-103938443D01*
X159315255Y-104440573D02*
X159315255Y-104300498D01*
X165100000Y-125323600D02*
X165100000Y-129336800D01*
X167233600Y-123190000D02*
X165100000Y-125323600D01*
X160274000Y-104546400D02*
X159587371Y-103859771D01*
X160274000Y-104859811D02*
X160274000Y-104546400D01*
X166618189Y-116091054D02*
X166618189Y-122840211D01*
X167487600Y-115221643D02*
X166618189Y-116091054D01*
X166618189Y-122840211D02*
X165252400Y-124206000D01*
X159587371Y-103859771D02*
X159587371Y-101677029D01*
X167436800Y-104961400D02*
X167487600Y-105012200D01*
X167487600Y-105012200D02*
X167487600Y-115221643D01*
X168656000Y-114555643D02*
X168596589Y-114615054D01*
X160121600Y-103581200D02*
X160883600Y-104343200D01*
X168596589Y-114615054D02*
X168596589Y-115000946D01*
X159983800Y-101193600D02*
X160121600Y-101331400D01*
X168503600Y-104546400D02*
X168656000Y-104698800D01*
X168656000Y-115060357D02*
X168656000Y-120353800D01*
X168656000Y-120353800D02*
X167699400Y-121310400D01*
X168656000Y-104698800D02*
X168656000Y-114555643D01*
X168596589Y-115000946D02*
X168656000Y-115060357D01*
X160121600Y-101331400D02*
X160121600Y-103581200D01*
D16*
X163982400Y-108000800D02*
X163756600Y-107775000D01*
X151377200Y-111550000D02*
X153825200Y-113998000D01*
X154815800Y-107775000D02*
X153466800Y-106426000D01*
X163756600Y-107775000D02*
X154815800Y-107775000D01*
X151150000Y-111550000D02*
X151377200Y-111550000D01*
X163782000Y-113998000D02*
X163909000Y-113871000D01*
X153825200Y-113998000D02*
X163782000Y-113998000D01*
X153774400Y-113236000D02*
X164671000Y-113236000D01*
X151588400Y-111050000D02*
X153774400Y-113236000D01*
X151150000Y-111050000D02*
X151588400Y-111050000D01*
X165100000Y-112623600D02*
X165077400Y-112601000D01*
X153850600Y-112601000D02*
X151799600Y-110550000D01*
X151799600Y-110550000D02*
X151150000Y-110550000D01*
X165077400Y-112601000D02*
X153850600Y-112601000D01*
D18*
X161027400Y-92202000D02*
X157276800Y-92202000D01*
X152101011Y-91942189D02*
X152044400Y-91998800D01*
X154984989Y-91942189D02*
X152101011Y-91942189D01*
X155600400Y-92557600D02*
X154984989Y-91942189D01*
X156921200Y-92557600D02*
X155600400Y-92557600D01*
X157276800Y-92202000D02*
X156921200Y-92557600D01*
X161738600Y-92913200D02*
X161027400Y-92202000D01*
G04 #@! TA.AperFunction,Conductor*
G36*
X138724080Y-90398593D02*
G01*
X138749800Y-90443142D01*
X138740867Y-90493800D01*
X138719946Y-90517036D01*
X138718378Y-90518175D01*
X138713107Y-90520861D01*
X138628461Y-90605507D01*
X138574115Y-90712167D01*
X138555389Y-90830400D01*
X138556315Y-90836246D01*
X138556315Y-90838980D01*
X138538722Y-90887318D01*
X138534289Y-90892154D01*
X138148669Y-91277774D01*
X138102049Y-91299514D01*
X138095495Y-91299800D01*
X131740135Y-91299800D01*
X131691797Y-91282207D01*
X131680437Y-91270024D01*
X131678339Y-91265907D01*
X131593693Y-91181261D01*
X131586593Y-91177643D01*
X131531647Y-91149647D01*
X131487033Y-91126915D01*
X131368800Y-91108189D01*
X131250567Y-91126915D01*
X131205953Y-91149647D01*
X131151008Y-91177643D01*
X131143907Y-91181261D01*
X131059261Y-91265907D01*
X131004915Y-91372567D01*
X131003989Y-91378414D01*
X130993078Y-91447307D01*
X130986189Y-91490800D01*
X131004915Y-91609033D01*
X131011901Y-91622743D01*
X131055518Y-91708346D01*
X131059261Y-91715693D01*
X131143907Y-91800339D01*
X131149181Y-91803026D01*
X131149184Y-91803028D01*
X131167250Y-91812233D01*
X131250567Y-91854685D01*
X131368800Y-91873411D01*
X131487033Y-91854685D01*
X131570350Y-91812233D01*
X131588420Y-91803026D01*
X131588421Y-91803025D01*
X131593693Y-91800339D01*
X131596561Y-91797471D01*
X131639866Y-91783400D01*
X138218490Y-91783400D01*
X138222426Y-91783503D01*
X138223807Y-91783575D01*
X138265471Y-91785759D01*
X138277337Y-91781204D01*
X138290160Y-91776282D01*
X138301473Y-91772931D01*
X138319610Y-91769075D01*
X138319613Y-91769074D01*
X138327346Y-91767430D01*
X138333742Y-91762783D01*
X138333744Y-91762782D01*
X138335163Y-91761751D01*
X138352413Y-91752385D01*
X138354056Y-91751754D01*
X138354057Y-91751754D01*
X138361436Y-91748921D01*
X138380138Y-91730219D01*
X138389111Y-91722555D01*
X138404112Y-91711656D01*
X138410507Y-91707010D01*
X138415341Y-91698637D01*
X138427290Y-91683067D01*
X138876246Y-91234111D01*
X138922866Y-91212371D01*
X138929420Y-91212085D01*
X138932154Y-91212085D01*
X138938000Y-91213011D01*
X139056233Y-91194285D01*
X139119647Y-91161974D01*
X139157616Y-91142628D01*
X139157617Y-91142627D01*
X139162893Y-91139939D01*
X139247539Y-91055293D01*
X139278692Y-90994153D01*
X139298616Y-90955049D01*
X139336237Y-90919967D01*
X139365620Y-90913989D01*
X148111580Y-90913989D01*
X148159918Y-90931582D01*
X148178584Y-90955049D01*
X148198509Y-90994153D01*
X148229661Y-91055293D01*
X148314307Y-91139939D01*
X148319583Y-91142627D01*
X148319584Y-91142628D01*
X148357553Y-91161974D01*
X148420967Y-91194285D01*
X148539200Y-91213011D01*
X148657433Y-91194285D01*
X148720847Y-91161974D01*
X148758816Y-91142628D01*
X148758817Y-91142627D01*
X148764093Y-91139939D01*
X148848739Y-91055293D01*
X148903085Y-90948633D01*
X148921811Y-90830400D01*
X148903085Y-90712167D01*
X148848739Y-90605507D01*
X148764093Y-90520861D01*
X148758822Y-90518175D01*
X148757254Y-90517036D01*
X148728491Y-90474389D01*
X148733870Y-90423231D01*
X148770875Y-90387500D01*
X148801458Y-90381000D01*
X150635486Y-90381000D01*
X150683824Y-90398593D01*
X150709544Y-90443142D01*
X150700611Y-90493800D01*
X150662435Y-90526405D01*
X150641257Y-90534534D01*
X150629948Y-90537884D01*
X150625064Y-90538923D01*
X150613463Y-90541388D01*
X150613461Y-90541389D01*
X150605735Y-90543031D01*
X150598747Y-90548108D01*
X150581497Y-90557473D01*
X150573435Y-90560568D01*
X150555936Y-90578067D01*
X150546963Y-90585731D01*
X150526942Y-90600278D01*
X150522991Y-90607121D01*
X150522625Y-90607756D01*
X150510674Y-90623329D01*
X149329522Y-91804481D01*
X149326667Y-91807191D01*
X149296403Y-91834441D01*
X149286333Y-91857058D01*
X149280711Y-91867412D01*
X149267228Y-91888175D01*
X149265992Y-91895982D01*
X149265878Y-91896699D01*
X149260302Y-91915524D01*
X149256789Y-91923414D01*
X149256789Y-91948165D01*
X149255868Y-91959896D01*
X149255670Y-91961149D01*
X149230750Y-92006147D01*
X149182734Y-92024600D01*
X149134090Y-92007872D01*
X149128218Y-92002586D01*
X149119693Y-91994061D01*
X149114179Y-91991251D01*
X149052648Y-91959900D01*
X149013033Y-91939715D01*
X148894800Y-91920989D01*
X148776567Y-91939715D01*
X148771292Y-91942403D01*
X148771291Y-91942403D01*
X148752450Y-91952003D01*
X148718309Y-91960200D01*
X145408580Y-91960200D01*
X145360242Y-91942607D01*
X145355406Y-91938174D01*
X145309693Y-91892461D01*
X145301282Y-91888175D01*
X145228048Y-91850861D01*
X145203033Y-91838115D01*
X145084800Y-91819389D01*
X144966567Y-91838115D01*
X144941552Y-91850861D01*
X144868319Y-91888175D01*
X144859907Y-91892461D01*
X144775261Y-91977107D01*
X144772573Y-91982383D01*
X144772572Y-91982384D01*
X144729980Y-92065975D01*
X144716150Y-92085009D01*
X144600905Y-92200254D01*
X144596070Y-92204686D01*
X144563683Y-92231862D01*
X144560394Y-92237558D01*
X144560391Y-92237562D01*
X144542545Y-92268471D01*
X144539022Y-92274000D01*
X144518547Y-92303243D01*
X144518546Y-92303246D01*
X144514773Y-92308634D01*
X144513071Y-92314985D01*
X144511635Y-92318065D01*
X144507587Y-92327840D01*
X144506422Y-92331040D01*
X144503132Y-92336739D01*
X144501990Y-92343218D01*
X144495792Y-92378363D01*
X144494373Y-92384765D01*
X144485133Y-92419253D01*
X144483430Y-92425609D01*
X144484003Y-92432161D01*
X144484003Y-92432163D01*
X144487114Y-92467716D01*
X144487400Y-92474270D01*
X144487400Y-103119192D01*
X144469807Y-103167530D01*
X144425258Y-103193250D01*
X144378061Y-103186196D01*
X144344709Y-103169203D01*
X144344708Y-103169203D01*
X144339433Y-103166515D01*
X144235697Y-103150085D01*
X144227047Y-103148715D01*
X144221200Y-103147789D01*
X144215353Y-103148715D01*
X144206703Y-103150085D01*
X144102967Y-103166515D01*
X144098692Y-103168693D01*
X144047797Y-103166915D01*
X144009570Y-103132495D01*
X144002411Y-103081555D01*
X144015132Y-103052987D01*
X144018551Y-103048281D01*
X144022739Y-103044093D01*
X144077085Y-102937433D01*
X144092657Y-102839115D01*
X144094885Y-102825047D01*
X144095811Y-102819200D01*
X144092667Y-102799346D01*
X144079245Y-102714607D01*
X144077085Y-102700967D01*
X144031658Y-102611811D01*
X144025428Y-102599584D01*
X144025427Y-102599583D01*
X144022739Y-102594307D01*
X143938093Y-102509661D01*
X143923372Y-102502160D01*
X143879511Y-102479812D01*
X143831433Y-102455315D01*
X143713200Y-102436589D01*
X143594967Y-102455315D01*
X143546889Y-102479812D01*
X143491327Y-102508122D01*
X143440271Y-102514391D01*
X143397130Y-102486374D01*
X143382913Y-102452881D01*
X143382880Y-102452669D01*
X143365885Y-102345367D01*
X143311539Y-102238707D01*
X143226893Y-102154061D01*
X143220884Y-102150999D01*
X143163691Y-102121858D01*
X143120233Y-102099715D01*
X143031612Y-102085679D01*
X143007847Y-102081915D01*
X143002000Y-102080989D01*
X142996153Y-102081915D01*
X142972388Y-102085679D01*
X142883767Y-102099715D01*
X142840309Y-102121858D01*
X142783117Y-102150999D01*
X142777107Y-102154061D01*
X142692461Y-102238707D01*
X142638115Y-102345367D01*
X142637189Y-102351214D01*
X142621731Y-102448816D01*
X142619389Y-102463600D01*
X142638115Y-102581833D01*
X142652918Y-102610885D01*
X142689419Y-102682522D01*
X142692461Y-102688493D01*
X142750874Y-102746906D01*
X142772614Y-102793526D01*
X142772900Y-102800080D01*
X142772900Y-103302756D01*
X142755307Y-103351094D01*
X142750874Y-103355930D01*
X142653007Y-103453797D01*
X142606387Y-103475537D01*
X142556700Y-103462223D01*
X142527195Y-103420086D01*
X142532829Y-103366483D01*
X142550234Y-103332324D01*
X142555885Y-103321233D01*
X142570702Y-103227678D01*
X142573685Y-103208847D01*
X142574611Y-103203000D01*
X142571604Y-103184011D01*
X142556811Y-103090614D01*
X142555885Y-103084767D01*
X142517873Y-103010165D01*
X142504228Y-102983384D01*
X142504227Y-102983383D01*
X142501539Y-102978107D01*
X142416893Y-102893461D01*
X142409795Y-102889844D01*
X142334520Y-102851490D01*
X142310233Y-102839115D01*
X142192000Y-102820389D01*
X142073767Y-102839115D01*
X142068494Y-102841802D01*
X142068493Y-102841802D01*
X142022440Y-102865267D01*
X141971383Y-102871536D01*
X141928242Y-102843519D01*
X141913100Y-102798263D01*
X141913100Y-100917680D01*
X141930693Y-100869342D01*
X141935126Y-100864506D01*
X141939939Y-100859693D01*
X141948573Y-100842749D01*
X141973237Y-100794342D01*
X141994285Y-100753033D01*
X142013011Y-100634800D01*
X141994285Y-100516567D01*
X141959956Y-100449193D01*
X141942628Y-100415184D01*
X141942627Y-100415183D01*
X141939939Y-100409907D01*
X141855293Y-100325261D01*
X141835913Y-100315386D01*
X141771191Y-100282409D01*
X141748633Y-100270915D01*
X141650731Y-100255409D01*
X141636247Y-100253115D01*
X141630400Y-100252189D01*
X141624553Y-100253115D01*
X141610069Y-100255409D01*
X141512167Y-100270915D01*
X141506894Y-100273602D01*
X141506893Y-100273602D01*
X141409861Y-100323042D01*
X141358804Y-100329311D01*
X141315663Y-100301294D01*
X141300624Y-100252102D01*
X141301446Y-100244285D01*
X141304611Y-100224300D01*
X141301238Y-100203000D01*
X141291878Y-100143906D01*
X141285885Y-100106067D01*
X141253046Y-100041616D01*
X141234228Y-100004684D01*
X141234227Y-100004683D01*
X141231539Y-99999407D01*
X141146893Y-99914761D01*
X141040233Y-99860415D01*
X140922000Y-99841689D01*
X140803767Y-99860415D01*
X140697107Y-99914761D01*
X140612461Y-99999407D01*
X140609773Y-100004683D01*
X140609772Y-100004684D01*
X140590954Y-100041616D01*
X140558115Y-100106067D01*
X140552122Y-100143906D01*
X140542763Y-100203000D01*
X140539389Y-100224300D01*
X140540315Y-100230145D01*
X140540315Y-100230147D01*
X140543792Y-100252102D01*
X140558115Y-100342533D01*
X140569417Y-100364714D01*
X140595133Y-100415184D01*
X140612461Y-100449193D01*
X140670874Y-100507606D01*
X140692614Y-100554226D01*
X140692900Y-100560780D01*
X140692900Y-105084054D01*
X140691974Y-105095818D01*
X140689560Y-105111062D01*
X140688103Y-105120258D01*
X140690148Y-105127890D01*
X140690148Y-105127891D01*
X140690338Y-105128599D01*
X140692900Y-105148062D01*
X140692900Y-113993159D01*
X140675307Y-114041497D01*
X140670874Y-114046333D01*
X139379831Y-115337375D01*
X138098633Y-116618573D01*
X138095778Y-116621283D01*
X138065514Y-116648533D01*
X138055444Y-116671150D01*
X138049822Y-116681504D01*
X138036339Y-116702267D01*
X138035103Y-116710074D01*
X138034989Y-116710791D01*
X138029413Y-116729616D01*
X138025900Y-116737506D01*
X138025900Y-116762257D01*
X138024974Y-116774021D01*
X138023910Y-116780742D01*
X138021103Y-116798461D01*
X138023148Y-116806093D01*
X138023148Y-116806094D01*
X138023338Y-116806802D01*
X138025900Y-116826265D01*
X138025900Y-118360520D01*
X138008307Y-118408858D01*
X138003874Y-118413694D01*
X137945461Y-118472107D01*
X137891115Y-118578767D01*
X137872389Y-118697000D01*
X137891115Y-118815233D01*
X137945461Y-118921893D01*
X138030107Y-119006539D01*
X138136767Y-119060885D01*
X138255000Y-119079611D01*
X138373233Y-119060885D01*
X138479893Y-119006539D01*
X138564539Y-118921893D01*
X138618885Y-118815233D01*
X138637611Y-118697000D01*
X138618885Y-118578767D01*
X138564539Y-118472107D01*
X138506126Y-118413694D01*
X138484386Y-118367074D01*
X138484100Y-118360520D01*
X138484100Y-116912247D01*
X138501693Y-116863909D01*
X138506126Y-116859073D01*
X141078357Y-114286842D01*
X141081212Y-114284132D01*
X141105613Y-114262161D01*
X141111486Y-114256873D01*
X141121552Y-114234265D01*
X141127183Y-114223894D01*
X141129997Y-114219561D01*
X141140662Y-114203139D01*
X141141898Y-114195331D01*
X141141900Y-114195327D01*
X141142014Y-114194607D01*
X141147589Y-114175787D01*
X141147883Y-114175126D01*
X141147883Y-114175124D01*
X141151100Y-114167900D01*
X141151100Y-114143149D01*
X141152026Y-114131386D01*
X141154661Y-114114751D01*
X141154661Y-114114749D01*
X141155897Y-114106944D01*
X141153662Y-114098602D01*
X141151100Y-114079140D01*
X141151100Y-105234044D01*
X141168693Y-105185706D01*
X141173126Y-105180870D01*
X141208108Y-105145888D01*
X141254728Y-105124148D01*
X141304415Y-105137462D01*
X141314456Y-105145888D01*
X141332107Y-105163539D01*
X141337383Y-105166227D01*
X141337384Y-105166228D01*
X141392934Y-105194532D01*
X141428016Y-105232153D01*
X141430708Y-105283522D01*
X141409113Y-105317420D01*
X141390114Y-105334527D01*
X141380044Y-105357144D01*
X141374422Y-105367498D01*
X141360939Y-105388261D01*
X141359703Y-105396068D01*
X141359589Y-105396785D01*
X141354013Y-105415610D01*
X141350500Y-105423500D01*
X141350500Y-105448251D01*
X141349574Y-105460015D01*
X141345703Y-105484455D01*
X141347748Y-105492087D01*
X141347748Y-105492088D01*
X141347938Y-105492796D01*
X141350500Y-105512259D01*
X141350500Y-118421356D01*
X141332907Y-118469694D01*
X141328474Y-118474530D01*
X138456245Y-121346758D01*
X138409625Y-121368498D01*
X138402683Y-121368783D01*
X138303606Y-121368264D01*
X138149946Y-121405154D01*
X138145922Y-121407231D01*
X138145919Y-121407232D01*
X138016944Y-121473802D01*
X138009521Y-121477633D01*
X137986295Y-121497894D01*
X137920462Y-121555324D01*
X137890437Y-121581516D01*
X137799571Y-121710806D01*
X137756745Y-121820651D01*
X137745686Y-121849016D01*
X137711736Y-121887661D01*
X137675623Y-121896900D01*
X136805580Y-121896900D01*
X136757242Y-121879307D01*
X136752406Y-121874874D01*
X136693993Y-121816461D01*
X136587333Y-121762115D01*
X136469100Y-121743389D01*
X136350867Y-121762115D01*
X136244207Y-121816461D01*
X136159561Y-121901107D01*
X136156873Y-121906383D01*
X136156872Y-121906384D01*
X136151148Y-121917619D01*
X136105215Y-122007767D01*
X136086489Y-122126000D01*
X136105215Y-122244233D01*
X136107902Y-122249506D01*
X136155096Y-122342129D01*
X136159561Y-122350893D01*
X136244207Y-122435539D01*
X136350867Y-122489885D01*
X136469100Y-122508611D01*
X136587333Y-122489885D01*
X136693993Y-122435539D01*
X136752406Y-122377126D01*
X136799026Y-122355386D01*
X136805580Y-122355100D01*
X137776581Y-122355100D01*
X137824919Y-122372693D01*
X137838997Y-122388356D01*
X137881328Y-122451351D01*
X137884682Y-122454402D01*
X137884682Y-122454403D01*
X137994852Y-122554650D01*
X137994855Y-122554652D01*
X137998210Y-122557705D01*
X138002196Y-122559869D01*
X138002197Y-122559870D01*
X138049370Y-122585483D01*
X138137086Y-122633109D01*
X138141468Y-122634259D01*
X138141469Y-122634259D01*
X138164927Y-122640413D01*
X138289941Y-122673210D01*
X138349462Y-122674145D01*
X138443416Y-122675621D01*
X138443418Y-122675621D01*
X138447948Y-122675692D01*
X138452366Y-122674680D01*
X138452368Y-122674680D01*
X138597564Y-122641426D01*
X138597566Y-122641425D01*
X138601986Y-122640413D01*
X138743163Y-122569408D01*
X138778985Y-122538813D01*
X138859878Y-122469724D01*
X138859879Y-122469723D01*
X138863327Y-122466778D01*
X138955543Y-122338447D01*
X139014485Y-122191824D01*
X139036751Y-122035374D01*
X139036895Y-122021600D01*
X139024312Y-121917619D01*
X139018455Y-121869220D01*
X139018455Y-121869218D01*
X139017910Y-121864718D01*
X139001259Y-121820651D01*
X138963656Y-121721137D01*
X138963655Y-121721135D01*
X138962052Y-121716893D01*
X138904626Y-121633337D01*
X138891746Y-121583537D01*
X138913426Y-121537570D01*
X141735957Y-118715039D01*
X141738812Y-118712329D01*
X141763213Y-118690358D01*
X141769086Y-118685070D01*
X141779152Y-118662462D01*
X141784783Y-118652091D01*
X141798262Y-118631336D01*
X141799498Y-118623528D01*
X141799500Y-118623524D01*
X141799614Y-118622804D01*
X141805189Y-118603984D01*
X141805483Y-118603323D01*
X141805483Y-118603321D01*
X141808700Y-118596097D01*
X141808700Y-118571346D01*
X141809626Y-118559583D01*
X141812261Y-118542948D01*
X141812261Y-118542946D01*
X141813497Y-118535141D01*
X141811262Y-118526799D01*
X141808700Y-118507337D01*
X141808700Y-105598241D01*
X141826293Y-105549903D01*
X141830726Y-105545067D01*
X141984126Y-105391667D01*
X142030746Y-105369927D01*
X142080433Y-105383241D01*
X142109938Y-105425378D01*
X142112500Y-105444841D01*
X142112500Y-121641075D01*
X142094907Y-121689413D01*
X142050358Y-121715133D01*
X142006720Y-121709777D01*
X142005545Y-121709254D01*
X141995169Y-121703620D01*
X141979622Y-121693524D01*
X141979620Y-121693523D01*
X141972989Y-121689217D01*
X141965181Y-121687980D01*
X141965180Y-121687980D01*
X141963448Y-121687706D01*
X141944624Y-121682130D01*
X141943018Y-121681415D01*
X141943016Y-121681415D01*
X141935796Y-121678200D01*
X141909346Y-121678200D01*
X141897582Y-121677274D01*
X141879269Y-121674373D01*
X141879267Y-121674373D01*
X141871462Y-121673137D01*
X141863830Y-121675182D01*
X141863829Y-121675182D01*
X141862128Y-121675638D01*
X141842665Y-121678200D01*
X141831797Y-121678200D01*
X141783459Y-121660607D01*
X141761452Y-121629581D01*
X141757656Y-121619536D01*
X141757653Y-121619531D01*
X141756052Y-121615293D01*
X141751869Y-121609206D01*
X141669112Y-121488794D01*
X141669111Y-121488792D01*
X141666544Y-121485058D01*
X141658211Y-121477633D01*
X141602199Y-121427729D01*
X141548555Y-121379934D01*
X141408897Y-121305989D01*
X141332638Y-121286834D01*
X141260032Y-121268596D01*
X141260028Y-121268596D01*
X141255631Y-121267491D01*
X141251097Y-121267467D01*
X141251095Y-121267467D01*
X141175099Y-121267070D01*
X141097606Y-121266664D01*
X140943946Y-121303554D01*
X140939922Y-121305631D01*
X140939919Y-121305632D01*
X140837012Y-121358747D01*
X140803521Y-121376033D01*
X140795591Y-121382951D01*
X140714462Y-121453724D01*
X140684437Y-121479916D01*
X140593571Y-121609206D01*
X140536168Y-121756438D01*
X140535577Y-121760929D01*
X140535576Y-121760932D01*
X140535067Y-121764802D01*
X140515541Y-121913113D01*
X140532882Y-122070185D01*
X140534438Y-122074437D01*
X140534439Y-122074441D01*
X140553307Y-122126000D01*
X140587189Y-122218587D01*
X140589713Y-122222343D01*
X140589715Y-122222347D01*
X140672802Y-122345993D01*
X140672805Y-122345997D01*
X140675328Y-122349751D01*
X140681521Y-122355386D01*
X140788852Y-122453050D01*
X140788855Y-122453052D01*
X140792210Y-122456105D01*
X140931086Y-122531509D01*
X140935468Y-122532659D01*
X140935469Y-122532659D01*
X140958927Y-122538813D01*
X141083941Y-122571610D01*
X141143462Y-122572545D01*
X141237416Y-122574021D01*
X141237418Y-122574021D01*
X141241948Y-122574092D01*
X141246366Y-122573080D01*
X141246368Y-122573080D01*
X141391564Y-122539826D01*
X141391566Y-122539825D01*
X141395986Y-122538813D01*
X141537163Y-122467808D01*
X141657327Y-122365178D01*
X141743779Y-122244869D01*
X141786273Y-122215882D01*
X141837459Y-122220991D01*
X141858021Y-122235578D01*
X142090474Y-122468031D01*
X142112214Y-122514651D01*
X142112500Y-122521205D01*
X142112500Y-128600957D01*
X142094907Y-128649295D01*
X142069958Y-128666134D01*
X142070967Y-128668115D01*
X141964307Y-128722461D01*
X141879661Y-128807107D01*
X141876973Y-128812383D01*
X141876972Y-128812384D01*
X141858092Y-128849439D01*
X141825315Y-128913767D01*
X141806589Y-129032000D01*
X141825315Y-129150233D01*
X141879661Y-129256893D01*
X141964307Y-129341539D01*
X142070967Y-129395885D01*
X142189200Y-129414611D01*
X142307433Y-129395885D01*
X142414093Y-129341539D01*
X142498739Y-129256893D01*
X142553085Y-129150233D01*
X142571811Y-129032000D01*
X142562889Y-128975669D01*
X142567121Y-128943521D01*
X142565841Y-128943249D01*
X142567484Y-128935520D01*
X142570700Y-128928297D01*
X142570700Y-128903546D01*
X142571626Y-128891782D01*
X142574261Y-128875148D01*
X142574261Y-128875146D01*
X142575497Y-128867342D01*
X142573262Y-128859000D01*
X142570700Y-128839538D01*
X142570700Y-127538680D01*
X142588293Y-127490342D01*
X142632842Y-127464622D01*
X142683500Y-127473555D01*
X142699074Y-127485506D01*
X142726307Y-127512739D01*
X142731583Y-127515427D01*
X142731584Y-127515428D01*
X142757422Y-127528593D01*
X142832967Y-127567085D01*
X142951200Y-127585811D01*
X143069433Y-127567085D01*
X143144978Y-127528593D01*
X143170816Y-127515428D01*
X143170817Y-127515427D01*
X143176093Y-127512739D01*
X143260739Y-127428093D01*
X143315085Y-127321433D01*
X143333811Y-127203200D01*
X143315085Y-127084967D01*
X143260739Y-126978307D01*
X143176093Y-126893661D01*
X143132460Y-126871429D01*
X143097378Y-126833808D01*
X143091400Y-126804425D01*
X143091400Y-126173177D01*
X151481258Y-126173177D01*
X151481675Y-126174736D01*
X151484125Y-126176922D01*
X151595288Y-126237279D01*
X151603654Y-126240592D01*
X151747630Y-126278363D01*
X151756536Y-126279583D01*
X151905363Y-126281921D01*
X151914314Y-126280980D01*
X152059401Y-126247750D01*
X152067864Y-126244703D01*
X152199200Y-126178648D01*
X152202335Y-126173104D01*
X152201432Y-126168237D01*
X151850577Y-125817382D01*
X151840778Y-125812813D01*
X151834787Y-125814418D01*
X151485827Y-126163378D01*
X151481258Y-126173177D01*
X143091400Y-126173177D01*
X143091400Y-125626024D01*
X151184541Y-125626024D01*
X151200875Y-125773966D01*
X151202929Y-125782726D01*
X151254080Y-125922503D01*
X151258166Y-125930521D01*
X151291487Y-125980108D01*
X151300220Y-125986476D01*
X151303743Y-125986236D01*
X151303793Y-125986202D01*
X151652218Y-125637777D01*
X151656393Y-125628822D01*
X152025613Y-125628822D01*
X152027218Y-125634813D01*
X152374404Y-125981999D01*
X152384203Y-125986568D01*
X152387959Y-125985562D01*
X152414456Y-125948688D01*
X152418794Y-125940797D01*
X152474308Y-125802700D01*
X152476637Y-125794008D01*
X152497902Y-125644591D01*
X152498274Y-125639710D01*
X152498366Y-125630859D01*
X152498096Y-125625955D01*
X152479967Y-125476140D01*
X152477819Y-125467395D01*
X152425210Y-125328170D01*
X152421037Y-125320188D01*
X152391066Y-125276580D01*
X152382263Y-125270302D01*
X152378616Y-125270589D01*
X152030182Y-125619023D01*
X152025613Y-125628822D01*
X151656393Y-125628822D01*
X151656787Y-125627978D01*
X151655182Y-125621987D01*
X151308135Y-125274940D01*
X151298336Y-125270371D01*
X151294693Y-125271347D01*
X151264623Y-125314131D01*
X151260366Y-125322070D01*
X151206303Y-125460737D01*
X151204063Y-125469457D01*
X151184636Y-125617025D01*
X151184541Y-125626024D01*
X143091400Y-125626024D01*
X143091400Y-125086040D01*
X151479795Y-125086040D01*
X151481858Y-125089453D01*
X151831823Y-125439418D01*
X151841622Y-125443987D01*
X151847613Y-125442382D01*
X152197071Y-125092924D01*
X152201640Y-125083125D01*
X152201278Y-125081773D01*
X152198554Y-125079367D01*
X152080723Y-125016979D01*
X152072320Y-125013754D01*
X151927969Y-124977495D01*
X151919032Y-124976366D01*
X151770202Y-124975587D01*
X151761251Y-124976623D01*
X151616532Y-125011367D01*
X151608090Y-125014507D01*
X151487182Y-125076911D01*
X151479851Y-125084856D01*
X151479795Y-125086040D01*
X143091400Y-125086040D01*
X143091400Y-121049513D01*
X144173141Y-121049513D01*
X144173638Y-121054015D01*
X144173638Y-121054019D01*
X144179247Y-121104819D01*
X144190482Y-121206585D01*
X144192038Y-121210837D01*
X144192039Y-121210841D01*
X144215630Y-121275305D01*
X144244789Y-121354987D01*
X144247313Y-121358743D01*
X144247315Y-121358747D01*
X144330402Y-121482393D01*
X144330405Y-121482397D01*
X144332928Y-121486151D01*
X144336280Y-121489201D01*
X144446452Y-121589450D01*
X144446455Y-121589452D01*
X144449810Y-121592505D01*
X144588686Y-121667909D01*
X144593068Y-121669059D01*
X144593069Y-121669059D01*
X144613325Y-121674373D01*
X144741541Y-121708010D01*
X144801062Y-121708945D01*
X144895016Y-121710421D01*
X144895018Y-121710421D01*
X144899548Y-121710492D01*
X144903966Y-121709480D01*
X144903968Y-121709480D01*
X145049164Y-121676226D01*
X145049166Y-121676225D01*
X145053586Y-121675213D01*
X145194763Y-121604208D01*
X145257689Y-121550464D01*
X145311478Y-121504524D01*
X145311479Y-121504523D01*
X145314927Y-121501578D01*
X145407143Y-121373247D01*
X145414484Y-121354987D01*
X145443973Y-121281630D01*
X145466085Y-121226624D01*
X145488351Y-121070174D01*
X145488495Y-121056400D01*
X145482645Y-121008060D01*
X145470055Y-120904020D01*
X145470055Y-120904018D01*
X145469510Y-120899518D01*
X145465076Y-120887783D01*
X145415256Y-120755937D01*
X145415255Y-120755935D01*
X145413652Y-120751693D01*
X145411083Y-120747955D01*
X145326712Y-120625194D01*
X145326711Y-120625192D01*
X145324144Y-120621458D01*
X145206155Y-120516334D01*
X145136114Y-120479249D01*
X145100097Y-120460179D01*
X145065610Y-120422012D01*
X145060796Y-120397359D01*
X145061011Y-120396000D01*
X145059824Y-120388502D01*
X145052965Y-120345200D01*
X150696589Y-120345200D01*
X150715315Y-120463433D01*
X150731557Y-120495310D01*
X150764104Y-120559186D01*
X150769661Y-120570093D01*
X150854307Y-120654739D01*
X150960967Y-120709085D01*
X150966814Y-120710011D01*
X151039352Y-120721500D01*
X151080762Y-120742600D01*
X151191215Y-120853053D01*
X151212955Y-120899673D01*
X151208103Y-120933544D01*
X151204168Y-120943638D01*
X151183541Y-121100313D01*
X151184038Y-121104815D01*
X151184038Y-121104819D01*
X151192342Y-121180030D01*
X151200882Y-121257385D01*
X151202438Y-121261637D01*
X151202439Y-121261641D01*
X151235042Y-121350732D01*
X151255189Y-121405787D01*
X151257713Y-121409543D01*
X151257715Y-121409547D01*
X151340802Y-121533193D01*
X151340805Y-121533197D01*
X151343328Y-121536951D01*
X151346680Y-121540001D01*
X151456852Y-121640250D01*
X151456855Y-121640252D01*
X151460210Y-121643305D01*
X151464196Y-121645469D01*
X151464197Y-121645470D01*
X151485950Y-121657281D01*
X151599086Y-121718709D01*
X151603468Y-121719859D01*
X151603469Y-121719859D01*
X151626927Y-121726013D01*
X151751941Y-121758810D01*
X151811462Y-121759745D01*
X151905416Y-121761221D01*
X151905418Y-121761221D01*
X151909948Y-121761292D01*
X151914366Y-121760280D01*
X151914368Y-121760280D01*
X152059564Y-121727026D01*
X152059566Y-121727025D01*
X152063986Y-121726013D01*
X152205163Y-121655008D01*
X152243075Y-121622628D01*
X152321878Y-121555324D01*
X152321879Y-121555323D01*
X152325327Y-121552378D01*
X152417543Y-121424047D01*
X152424884Y-121405787D01*
X152474794Y-121281630D01*
X152476485Y-121277424D01*
X152498751Y-121120974D01*
X152498895Y-121107200D01*
X152493045Y-121058860D01*
X152485767Y-120998713D01*
X153875941Y-120998713D01*
X153876438Y-121003215D01*
X153876438Y-121003219D01*
X153882047Y-121054019D01*
X153893282Y-121155785D01*
X153894838Y-121160037D01*
X153894839Y-121160041D01*
X153919205Y-121226624D01*
X153947589Y-121304187D01*
X153950113Y-121307943D01*
X153950115Y-121307947D01*
X154033202Y-121431593D01*
X154033205Y-121431597D01*
X154035728Y-121435351D01*
X154039080Y-121438401D01*
X154149252Y-121538650D01*
X154149255Y-121538652D01*
X154152610Y-121541705D01*
X154291486Y-121617109D01*
X154295868Y-121618259D01*
X154295869Y-121618259D01*
X154312523Y-121622628D01*
X154444341Y-121657210D01*
X154503862Y-121658145D01*
X154597816Y-121659621D01*
X154597818Y-121659621D01*
X154602348Y-121659692D01*
X154606766Y-121658680D01*
X154606768Y-121658680D01*
X154751964Y-121625426D01*
X154751966Y-121625425D01*
X154756386Y-121624413D01*
X154897563Y-121553408D01*
X154921232Y-121533193D01*
X155014278Y-121453724D01*
X155014279Y-121453723D01*
X155017727Y-121450778D01*
X155109943Y-121322447D01*
X155112436Y-121316247D01*
X155146773Y-121230830D01*
X155168885Y-121175824D01*
X155191151Y-121019374D01*
X155191295Y-121005600D01*
X155182576Y-120933547D01*
X155172855Y-120853219D01*
X155172854Y-120853216D01*
X155172310Y-120848718D01*
X155168189Y-120837812D01*
X155151115Y-120792624D01*
X155150487Y-120741188D01*
X155168287Y-120712870D01*
X155627731Y-120253426D01*
X155674351Y-120231686D01*
X155680905Y-120231400D01*
X156740356Y-120231400D01*
X156788694Y-120248993D01*
X156814414Y-120293542D01*
X156812068Y-120327089D01*
X156811315Y-120328567D01*
X156792589Y-120446800D01*
X156793515Y-120452647D01*
X156796189Y-120469532D01*
X156811315Y-120565033D01*
X156814003Y-120570308D01*
X156814003Y-120570309D01*
X156823603Y-120589150D01*
X156831800Y-120623291D01*
X156831800Y-126572611D01*
X156814207Y-126620949D01*
X156809774Y-126625785D01*
X155585008Y-127850551D01*
X155565974Y-127864381D01*
X155556032Y-127869447D01*
X155477107Y-127909661D01*
X155392461Y-127994307D01*
X155338115Y-128100967D01*
X155319389Y-128219200D01*
X155338115Y-128337433D01*
X155392461Y-128444093D01*
X155477107Y-128528739D01*
X155583767Y-128583085D01*
X155702000Y-128601811D01*
X155820233Y-128583085D01*
X155926893Y-128528739D01*
X156011539Y-128444093D01*
X156056819Y-128355226D01*
X156070649Y-128336192D01*
X157405101Y-127001740D01*
X157409938Y-126997307D01*
X157426293Y-126983584D01*
X157442317Y-126970138D01*
X157463450Y-126933535D01*
X157466974Y-126928003D01*
X157487453Y-126898755D01*
X157487454Y-126898753D01*
X157491226Y-126893366D01*
X157492928Y-126887015D01*
X157494369Y-126883924D01*
X157498420Y-126874143D01*
X157499580Y-126870956D01*
X157502868Y-126865261D01*
X157510210Y-126823626D01*
X157511629Y-126817224D01*
X157520866Y-126782747D01*
X157522569Y-126776391D01*
X157518886Y-126734292D01*
X157518600Y-126727738D01*
X157518600Y-120623291D01*
X157526797Y-120589150D01*
X157536397Y-120570309D01*
X157536397Y-120570308D01*
X157539085Y-120565033D01*
X157554211Y-120469532D01*
X157556885Y-120452647D01*
X157557811Y-120446800D01*
X157539085Y-120328567D01*
X157526797Y-120304450D01*
X157518600Y-120270309D01*
X157518600Y-116203691D01*
X157526797Y-116169550D01*
X157536397Y-116150709D01*
X157536397Y-116150708D01*
X157539085Y-116145433D01*
X157549584Y-116079147D01*
X157556885Y-116033047D01*
X157557811Y-116027200D01*
X157554912Y-116008893D01*
X157540629Y-115918713D01*
X157539085Y-115908967D01*
X157484739Y-115802307D01*
X157400093Y-115717661D01*
X157293433Y-115663315D01*
X157175200Y-115644589D01*
X157056967Y-115663315D01*
X156950307Y-115717661D01*
X156865661Y-115802307D01*
X156811315Y-115908967D01*
X156809771Y-115918713D01*
X156795489Y-116008893D01*
X156792589Y-116027200D01*
X156793515Y-116033047D01*
X156800816Y-116079147D01*
X156811315Y-116145433D01*
X156814003Y-116150708D01*
X156814003Y-116150709D01*
X156823603Y-116169550D01*
X156831800Y-116203691D01*
X156831800Y-119672600D01*
X156814207Y-119720938D01*
X156769658Y-119746658D01*
X156756600Y-119747800D01*
X155557910Y-119747800D01*
X155553974Y-119747697D01*
X155552593Y-119747625D01*
X155510929Y-119745441D01*
X155503549Y-119748274D01*
X155486240Y-119754918D01*
X155474927Y-119758269D01*
X155456790Y-119762125D01*
X155456787Y-119762126D01*
X155449054Y-119763770D01*
X155442658Y-119768417D01*
X155442656Y-119768418D01*
X155441237Y-119769449D01*
X155423987Y-119778815D01*
X155422344Y-119779446D01*
X155422343Y-119779446D01*
X155414964Y-119782279D01*
X155396262Y-119800981D01*
X155387289Y-119808645D01*
X155365893Y-119824190D01*
X155361942Y-119831034D01*
X155361061Y-119832560D01*
X155349110Y-119848133D01*
X154828501Y-120368742D01*
X154781881Y-120390482D01*
X154757007Y-120388502D01*
X154620432Y-120354196D01*
X154620428Y-120354196D01*
X154616031Y-120353091D01*
X154611497Y-120353067D01*
X154611495Y-120353067D01*
X154535499Y-120352670D01*
X154458006Y-120352264D01*
X154304346Y-120389154D01*
X154300322Y-120391231D01*
X154300319Y-120391232D01*
X154201205Y-120442389D01*
X154163921Y-120461633D01*
X154125316Y-120495310D01*
X154086401Y-120529258D01*
X154044837Y-120565516D01*
X153953971Y-120694806D01*
X153896568Y-120842038D01*
X153895977Y-120846529D01*
X153895976Y-120846532D01*
X153895118Y-120853053D01*
X153875941Y-120998713D01*
X152485767Y-120998713D01*
X152480455Y-120954820D01*
X152480455Y-120954818D01*
X152479910Y-120950318D01*
X152477386Y-120943638D01*
X152425656Y-120806737D01*
X152425655Y-120806735D01*
X152424052Y-120802493D01*
X152360491Y-120710011D01*
X152337112Y-120675994D01*
X152337111Y-120675992D01*
X152334544Y-120672258D01*
X152216555Y-120567134D01*
X152076897Y-120493189D01*
X151998218Y-120473426D01*
X151928032Y-120455796D01*
X151928028Y-120455796D01*
X151923631Y-120454691D01*
X151919097Y-120454667D01*
X151919095Y-120454667D01*
X151843099Y-120454270D01*
X151765606Y-120453864D01*
X151659869Y-120479249D01*
X151608761Y-120473426D01*
X151589141Y-120459302D01*
X151476600Y-120346762D01*
X151455500Y-120305351D01*
X151444011Y-120232814D01*
X151443085Y-120226967D01*
X151388739Y-120120307D01*
X151304093Y-120035661D01*
X151295317Y-120031189D01*
X151254387Y-120010335D01*
X151197433Y-119981315D01*
X151079200Y-119962589D01*
X150960967Y-119981315D01*
X150904013Y-120010335D01*
X150863084Y-120031189D01*
X150854307Y-120035661D01*
X150769661Y-120120307D01*
X150715315Y-120226967D01*
X150696589Y-120345200D01*
X145052965Y-120345200D01*
X145043211Y-120283614D01*
X145042285Y-120277767D01*
X144987939Y-120171107D01*
X144903293Y-120086461D01*
X144796633Y-120032115D01*
X144678400Y-120013389D01*
X144560167Y-120032115D01*
X144453507Y-120086461D01*
X144368861Y-120171107D01*
X144314515Y-120277767D01*
X144313589Y-120283614D01*
X144296977Y-120388502D01*
X144295789Y-120396000D01*
X144314515Y-120514233D01*
X144317202Y-120519506D01*
X144317203Y-120519510D01*
X144335681Y-120555776D01*
X144341949Y-120606832D01*
X144330202Y-120633155D01*
X144254276Y-120741188D01*
X144251171Y-120745606D01*
X144193768Y-120892838D01*
X144193177Y-120897329D01*
X144193176Y-120897332D01*
X144186259Y-120949870D01*
X144173141Y-121049513D01*
X143091400Y-121049513D01*
X143091400Y-118730775D01*
X145658600Y-118730775D01*
X145658978Y-118733413D01*
X145658978Y-118733416D01*
X145671451Y-118820506D01*
X145672865Y-118830383D01*
X145675080Y-118835255D01*
X145675081Y-118835258D01*
X145710202Y-118912502D01*
X145728635Y-118953044D01*
X145732132Y-118957102D01*
X145732133Y-118957104D01*
X145771119Y-119002349D01*
X145816591Y-119055121D01*
X145821082Y-119058032D01*
X145854375Y-119079611D01*
X145929661Y-119128409D01*
X146000688Y-119149651D01*
X146053621Y-119165482D01*
X146053624Y-119165482D01*
X146058755Y-119167017D01*
X146064110Y-119167050D01*
X146064112Y-119167050D01*
X146124160Y-119167416D01*
X146193497Y-119167840D01*
X146323054Y-119130813D01*
X146437011Y-119058911D01*
X146526207Y-118957916D01*
X146528495Y-118953044D01*
X146581193Y-118840797D01*
X146583471Y-118835946D01*
X146599400Y-118733646D01*
X146599400Y-116885225D01*
X146597404Y-116871288D01*
X146585894Y-116790915D01*
X146585893Y-116790913D01*
X146585135Y-116785617D01*
X146582920Y-116780745D01*
X146582919Y-116780742D01*
X146537799Y-116681506D01*
X146529365Y-116662956D01*
X146521708Y-116654069D01*
X146444903Y-116564934D01*
X146441409Y-116560879D01*
X146412859Y-116542374D01*
X146332832Y-116490503D01*
X146332831Y-116490502D01*
X146328339Y-116487591D01*
X146231569Y-116458650D01*
X146204379Y-116450518D01*
X146204376Y-116450518D01*
X146199245Y-116448983D01*
X146193890Y-116448950D01*
X146193888Y-116448950D01*
X146133840Y-116448584D01*
X146064503Y-116448160D01*
X145934946Y-116485187D01*
X145820989Y-116557089D01*
X145731793Y-116658084D01*
X145729518Y-116662931D01*
X145729516Y-116662933D01*
X145720382Y-116682388D01*
X145674529Y-116780054D01*
X145658600Y-116882354D01*
X145658600Y-118730775D01*
X143091400Y-118730775D01*
X143091400Y-115047204D01*
X143108993Y-114998866D01*
X143153542Y-114973146D01*
X143204200Y-114982079D01*
X143237265Y-115021484D01*
X143240874Y-115035440D01*
X143247715Y-115078633D01*
X143267539Y-115117539D01*
X143298616Y-115178531D01*
X143302061Y-115185293D01*
X143386707Y-115269939D01*
X143391983Y-115272627D01*
X143391984Y-115272628D01*
X143408810Y-115281201D01*
X143493367Y-115324285D01*
X143611600Y-115343011D01*
X143729833Y-115324285D01*
X143814390Y-115281201D01*
X143831216Y-115272628D01*
X143831217Y-115272627D01*
X143836493Y-115269939D01*
X143921139Y-115185293D01*
X143924585Y-115178531D01*
X143955661Y-115117539D01*
X143975485Y-115078633D01*
X143994211Y-114960400D01*
X143987874Y-114920386D01*
X143976411Y-114848014D01*
X143975485Y-114842167D01*
X143921139Y-114735507D01*
X143875426Y-114689794D01*
X143853686Y-114643174D01*
X143853400Y-114636620D01*
X143853400Y-104271305D01*
X143870993Y-104222967D01*
X143875426Y-104218131D01*
X144159446Y-103934111D01*
X144206066Y-103912371D01*
X144212620Y-103912085D01*
X144215354Y-103912085D01*
X144221200Y-103913011D01*
X144339433Y-103894285D01*
X144344708Y-103891597D01*
X144344709Y-103891597D01*
X144378061Y-103874604D01*
X144429117Y-103868336D01*
X144472258Y-103896352D01*
X144487400Y-103941608D01*
X144487400Y-106452709D01*
X144479203Y-106486850D01*
X144466915Y-106510967D01*
X144448189Y-106629200D01*
X144449115Y-106635047D01*
X144451211Y-106648283D01*
X144466915Y-106747433D01*
X144469603Y-106752708D01*
X144469603Y-106752709D01*
X144479203Y-106771550D01*
X144487400Y-106805691D01*
X144487400Y-109703909D01*
X144479203Y-109738050D01*
X144476310Y-109743729D01*
X144466915Y-109762167D01*
X144448189Y-109880400D01*
X144449115Y-109886247D01*
X144451761Y-109902952D01*
X144466915Y-109998633D01*
X144469603Y-110003908D01*
X144469603Y-110003909D01*
X144479203Y-110022750D01*
X144487400Y-110056891D01*
X144487400Y-114385865D01*
X144469807Y-114434203D01*
X144457624Y-114445563D01*
X144453507Y-114447661D01*
X144368861Y-114532307D01*
X144366173Y-114537583D01*
X144366172Y-114537584D01*
X144355768Y-114558003D01*
X144314515Y-114638967D01*
X144295789Y-114757200D01*
X144296715Y-114763047D01*
X144302909Y-114802153D01*
X144314515Y-114875433D01*
X144368861Y-114982093D01*
X144453507Y-115066739D01*
X144560167Y-115121085D01*
X144566014Y-115122011D01*
X144671234Y-115138676D01*
X144678400Y-115139811D01*
X144685567Y-115138676D01*
X144790786Y-115122011D01*
X144796633Y-115121085D01*
X144903293Y-115066739D01*
X144987939Y-114982093D01*
X145001972Y-114954553D01*
X145033219Y-114893226D01*
X145047049Y-114874192D01*
X145060701Y-114860540D01*
X145065538Y-114856107D01*
X145092877Y-114833167D01*
X145097917Y-114828938D01*
X145119056Y-114792324D01*
X145122577Y-114786798D01*
X145143052Y-114757557D01*
X145143053Y-114757554D01*
X145146826Y-114752166D01*
X145148528Y-114745812D01*
X145149973Y-114742714D01*
X145154020Y-114732943D01*
X145155180Y-114729756D01*
X145158468Y-114724061D01*
X145165813Y-114682406D01*
X145167223Y-114676046D01*
X145178170Y-114635191D01*
X145177541Y-114627992D01*
X145174486Y-114593084D01*
X145174200Y-114586530D01*
X145174200Y-110056891D01*
X145182397Y-110022750D01*
X145191997Y-110003909D01*
X145191997Y-110003908D01*
X145194685Y-109998633D01*
X145209839Y-109902952D01*
X145212485Y-109886247D01*
X145213411Y-109880400D01*
X145194685Y-109762167D01*
X145185291Y-109743729D01*
X145182397Y-109738050D01*
X145174200Y-109703909D01*
X145174200Y-106805691D01*
X145182397Y-106771550D01*
X145191997Y-106752709D01*
X145191997Y-106752708D01*
X145194685Y-106747433D01*
X145210389Y-106648283D01*
X145212485Y-106635047D01*
X145213411Y-106629200D01*
X145194685Y-106510967D01*
X145182397Y-106486850D01*
X145174200Y-106452709D01*
X145174200Y-92722200D01*
X145191793Y-92673862D01*
X145236342Y-92648142D01*
X145249400Y-92647000D01*
X148718309Y-92647000D01*
X148752450Y-92655197D01*
X148771291Y-92664797D01*
X148771292Y-92664797D01*
X148776567Y-92667485D01*
X148894800Y-92686211D01*
X149013033Y-92667485D01*
X149074688Y-92636070D01*
X149114416Y-92615828D01*
X149114417Y-92615827D01*
X149119693Y-92613139D01*
X149128415Y-92604417D01*
X149175035Y-92582677D01*
X149224722Y-92595991D01*
X149254227Y-92638128D01*
X149256789Y-92657591D01*
X149256789Y-93055721D01*
X149239196Y-93104059D01*
X149194647Y-93129779D01*
X149143989Y-93120846D01*
X149114585Y-93089861D01*
X149108228Y-93077384D01*
X149108227Y-93077383D01*
X149105539Y-93072107D01*
X149020893Y-92987461D01*
X148914233Y-92933115D01*
X148796000Y-92914389D01*
X148677767Y-92933115D01*
X148571107Y-92987461D01*
X148486461Y-93072107D01*
X148432115Y-93178767D01*
X148431189Y-93184614D01*
X148416397Y-93278011D01*
X148413389Y-93297000D01*
X148432115Y-93415233D01*
X148458904Y-93467809D01*
X148477640Y-93504580D01*
X148486461Y-93521893D01*
X148532174Y-93567606D01*
X148553914Y-93614226D01*
X148554200Y-93620780D01*
X148554200Y-94778336D01*
X148550699Y-94787955D01*
X148550914Y-94788240D01*
X148554200Y-94810226D01*
X148554200Y-95260220D01*
X148536607Y-95308558D01*
X148492058Y-95334278D01*
X148441400Y-95325345D01*
X148425826Y-95313394D01*
X148424826Y-95312394D01*
X148403086Y-95265774D01*
X148402800Y-95259220D01*
X148402800Y-94829303D01*
X148402903Y-94825366D01*
X148403903Y-94806289D01*
X148407016Y-94798956D01*
X148404747Y-94790182D01*
X148405159Y-94782329D01*
X148398658Y-94765393D01*
X148395682Y-94757640D01*
X148392331Y-94746327D01*
X148388475Y-94728190D01*
X148388474Y-94728187D01*
X148386830Y-94720454D01*
X148382183Y-94714058D01*
X148382182Y-94714056D01*
X148381151Y-94712637D01*
X148371785Y-94695387D01*
X148371154Y-94693744D01*
X148371154Y-94693743D01*
X148368321Y-94686364D01*
X148349619Y-94667662D01*
X148341955Y-94658689D01*
X148326410Y-94637293D01*
X148318037Y-94632459D01*
X148302467Y-94620510D01*
X148056711Y-94374754D01*
X148034971Y-94328134D01*
X148034685Y-94321580D01*
X148034685Y-94318846D01*
X148035611Y-94313000D01*
X148016885Y-94194767D01*
X147979931Y-94122241D01*
X147965228Y-94093384D01*
X147965227Y-94093383D01*
X147962539Y-94088107D01*
X147877893Y-94003461D01*
X147861761Y-93995241D01*
X147790237Y-93958798D01*
X147771233Y-93949115D01*
X147653000Y-93930389D01*
X147534767Y-93949115D01*
X147515763Y-93958798D01*
X147444240Y-93995241D01*
X147428107Y-94003461D01*
X147343461Y-94088107D01*
X147340773Y-94093383D01*
X147340772Y-94093384D01*
X147326069Y-94122241D01*
X147289115Y-94194767D01*
X147270389Y-94313000D01*
X147289115Y-94431233D01*
X147291802Y-94436506D01*
X147337853Y-94526886D01*
X147343461Y-94537893D01*
X147428107Y-94622539D01*
X147534767Y-94676885D01*
X147559322Y-94680774D01*
X147647153Y-94694685D01*
X147653000Y-94695611D01*
X147658846Y-94694685D01*
X147661581Y-94694685D01*
X147709919Y-94712278D01*
X147714755Y-94716711D01*
X147897174Y-94899130D01*
X147918914Y-94945750D01*
X147919200Y-94952304D01*
X147919200Y-95259220D01*
X147901607Y-95307558D01*
X147897174Y-95312394D01*
X147851461Y-95358107D01*
X147797115Y-95464767D01*
X147778389Y-95583000D01*
X147797115Y-95701233D01*
X147851461Y-95807893D01*
X147936107Y-95892539D01*
X148042767Y-95946885D01*
X148161000Y-95965611D01*
X148166847Y-95964685D01*
X148166848Y-95964685D01*
X148207757Y-95958206D01*
X148258251Y-95968021D01*
X148290623Y-96007998D01*
X148293794Y-96044243D01*
X148286389Y-96091000D01*
X148305115Y-96209233D01*
X148359461Y-96315893D01*
X148444107Y-96400539D01*
X148550767Y-96454885D01*
X148669000Y-96473611D01*
X148787233Y-96454885D01*
X148893893Y-96400539D01*
X148978539Y-96315893D01*
X149032885Y-96209233D01*
X149051611Y-96091000D01*
X149038726Y-96009646D01*
X149037800Y-95997883D01*
X149037800Y-95988946D01*
X149038726Y-95977182D01*
X149041627Y-95958869D01*
X149041627Y-95958867D01*
X149042863Y-95951062D01*
X149040362Y-95941728D01*
X149037800Y-95922265D01*
X149037800Y-93620780D01*
X149055393Y-93572442D01*
X149059826Y-93567606D01*
X149105539Y-93521893D01*
X149114361Y-93504580D01*
X149122596Y-93488416D01*
X149133096Y-93467809D01*
X149170717Y-93432727D01*
X149222086Y-93430035D01*
X149263168Y-93460992D01*
X149275300Y-93501949D01*
X149275300Y-99572910D01*
X149257707Y-99621248D01*
X149213158Y-99646968D01*
X149188340Y-99647185D01*
X149177000Y-99645389D01*
X149058767Y-99664115D01*
X149001813Y-99693135D01*
X148980946Y-99703767D01*
X148952107Y-99718461D01*
X148867461Y-99803107D01*
X148864773Y-99808383D01*
X148864772Y-99808384D01*
X148849114Y-99839115D01*
X148813115Y-99909767D01*
X148794389Y-100028000D01*
X148795315Y-100033847D01*
X148797214Y-100045839D01*
X148813115Y-100146233D01*
X148830600Y-100180549D01*
X148862333Y-100242828D01*
X148867461Y-100252893D01*
X148952107Y-100337539D01*
X148957383Y-100340227D01*
X148957384Y-100340228D01*
X148999488Y-100361681D01*
X149058767Y-100391885D01*
X149177000Y-100410611D01*
X149295233Y-100391885D01*
X149354512Y-100361681D01*
X149396616Y-100340228D01*
X149396617Y-100340227D01*
X149401893Y-100337539D01*
X149486539Y-100252893D01*
X149491668Y-100242828D01*
X149523400Y-100180549D01*
X149540885Y-100146233D01*
X149556786Y-100045839D01*
X149558685Y-100033847D01*
X149559611Y-100028000D01*
X149557590Y-100015239D01*
X149567408Y-99964745D01*
X149578691Y-99950305D01*
X149587326Y-99941670D01*
X149633946Y-99919930D01*
X149683633Y-99933244D01*
X149713138Y-99975381D01*
X149715700Y-99994844D01*
X149715700Y-101777595D01*
X149698107Y-101825933D01*
X149693674Y-101830769D01*
X148397754Y-103126689D01*
X148351134Y-103148429D01*
X148344580Y-103148715D01*
X148341846Y-103148715D01*
X148336000Y-103147789D01*
X148330153Y-103148715D01*
X148321503Y-103150085D01*
X148217767Y-103166515D01*
X148186548Y-103182422D01*
X148118479Y-103217105D01*
X148111107Y-103220861D01*
X148026461Y-103305507D01*
X147972115Y-103412167D01*
X147953389Y-103530400D01*
X147972115Y-103648633D01*
X147986011Y-103675905D01*
X148018019Y-103738724D01*
X148026461Y-103755293D01*
X148111107Y-103839939D01*
X148116383Y-103842627D01*
X148116384Y-103842628D01*
X148151091Y-103860312D01*
X148217767Y-103894285D01*
X148336000Y-103913011D01*
X148454233Y-103894285D01*
X148520909Y-103860312D01*
X148555616Y-103842628D01*
X148555617Y-103842627D01*
X148560893Y-103839939D01*
X148645539Y-103755293D01*
X148653982Y-103738724D01*
X148685989Y-103675905D01*
X148699885Y-103648633D01*
X148718611Y-103530400D01*
X148717685Y-103524553D01*
X148717685Y-103521820D01*
X148735278Y-103473482D01*
X148739711Y-103468646D01*
X150122599Y-102085758D01*
X150125455Y-102083047D01*
X150151615Y-102059493D01*
X150151616Y-102059492D01*
X150157491Y-102054202D01*
X150162493Y-102042968D01*
X150168249Y-102030038D01*
X150173879Y-102019668D01*
X150183978Y-102004117D01*
X150183978Y-102004116D01*
X150188282Y-101997489D01*
X150189518Y-101989686D01*
X150189519Y-101989683D01*
X150189793Y-101987950D01*
X150195369Y-101969126D01*
X150196085Y-101967517D01*
X150199300Y-101960296D01*
X150199300Y-101933845D01*
X150200226Y-101922081D01*
X150203127Y-101903768D01*
X150203127Y-101903766D01*
X150204363Y-101895962D01*
X150201862Y-101886628D01*
X150199300Y-101867165D01*
X150199300Y-100877280D01*
X150216893Y-100828942D01*
X150261442Y-100803222D01*
X150312100Y-100812155D01*
X150327674Y-100824106D01*
X150349107Y-100845539D01*
X150455767Y-100899885D01*
X150461614Y-100900811D01*
X150568122Y-100917680D01*
X150574000Y-100918611D01*
X150579879Y-100917680D01*
X150686386Y-100900811D01*
X150692233Y-100899885D01*
X150798893Y-100845539D01*
X150881015Y-100763417D01*
X150927635Y-100741677D01*
X150977322Y-100754991D01*
X151006827Y-100797128D01*
X151009389Y-100816591D01*
X151009389Y-101703106D01*
X150991796Y-101751444D01*
X150987363Y-101756280D01*
X150378954Y-102364689D01*
X150332334Y-102386429D01*
X150325780Y-102386715D01*
X150323046Y-102386715D01*
X150317200Y-102385789D01*
X150198967Y-102404515D01*
X150177455Y-102415476D01*
X150101084Y-102454389D01*
X150092307Y-102458861D01*
X150007661Y-102543507D01*
X149953315Y-102650167D01*
X149934589Y-102768400D01*
X149935515Y-102774247D01*
X149941204Y-102810167D01*
X149953315Y-102886633D01*
X149970724Y-102920800D01*
X149998764Y-102975831D01*
X150007661Y-102993293D01*
X150092307Y-103077939D01*
X150097583Y-103080627D01*
X150097584Y-103080628D01*
X150117183Y-103090614D01*
X150198967Y-103132285D01*
X150204814Y-103133211D01*
X150300898Y-103148429D01*
X150317200Y-103151011D01*
X150333503Y-103148429D01*
X150429586Y-103133211D01*
X150435433Y-103132285D01*
X150517217Y-103090614D01*
X150536816Y-103080628D01*
X150536817Y-103080627D01*
X150542093Y-103077939D01*
X150626739Y-102993293D01*
X150635637Y-102975831D01*
X150663676Y-102920800D01*
X150681085Y-102886633D01*
X150693196Y-102810167D01*
X150698885Y-102774247D01*
X150699811Y-102768400D01*
X150698885Y-102762553D01*
X150698885Y-102759820D01*
X150716478Y-102711482D01*
X150720911Y-102706646D01*
X150939519Y-102488038D01*
X150986139Y-102466298D01*
X151035826Y-102479612D01*
X151065331Y-102521749D01*
X151066967Y-102552975D01*
X151052189Y-102646280D01*
X151070915Y-102764513D01*
X151097672Y-102817027D01*
X151116679Y-102854329D01*
X151125261Y-102871173D01*
X151209907Y-102955819D01*
X151316567Y-103010165D01*
X151434800Y-103028891D01*
X151553033Y-103010165D01*
X151620417Y-102975831D01*
X151671473Y-102969562D01*
X151714614Y-102997578D01*
X151729654Y-103046771D01*
X151728832Y-103054595D01*
X151727312Y-103064189D01*
X151746038Y-103182422D01*
X151753085Y-103196252D01*
X151793727Y-103276016D01*
X151800384Y-103289082D01*
X151885030Y-103373728D01*
X151890308Y-103376417D01*
X151890309Y-103376418D01*
X151903661Y-103383221D01*
X151938743Y-103420841D01*
X151941437Y-103472210D01*
X151934660Y-103485801D01*
X151935260Y-103486107D01*
X151880914Y-103592767D01*
X151862188Y-103711000D01*
X151880914Y-103829233D01*
X151887739Y-103842628D01*
X151927963Y-103921571D01*
X151935260Y-103935893D01*
X152019906Y-104020539D01*
X152025182Y-104023227D01*
X152025183Y-104023228D01*
X152064926Y-104043478D01*
X152126566Y-104074885D01*
X152179274Y-104083233D01*
X152233245Y-104091781D01*
X152244799Y-104093611D01*
X152256354Y-104091781D01*
X152310324Y-104083233D01*
X152363032Y-104074885D01*
X152424672Y-104043478D01*
X152464415Y-104023228D01*
X152464416Y-104023227D01*
X152469692Y-104020539D01*
X152535763Y-103954468D01*
X152582383Y-103932728D01*
X152632070Y-103946042D01*
X152655940Y-103973501D01*
X152700061Y-104060093D01*
X152784707Y-104144739D01*
X152891367Y-104199085D01*
X152948072Y-104208066D01*
X152993588Y-104215275D01*
X153038578Y-104240213D01*
X153057013Y-104288236D01*
X153040265Y-104336874D01*
X153005061Y-104361069D01*
X153001614Y-104362189D01*
X152995767Y-104363115D01*
X152889107Y-104417461D01*
X152804461Y-104502107D01*
X152750115Y-104608767D01*
X152749189Y-104614614D01*
X152734397Y-104708011D01*
X152731389Y-104727000D01*
X152732315Y-104732847D01*
X152735475Y-104752801D01*
X152750115Y-104845233D01*
X152752802Y-104850506D01*
X152798179Y-104939563D01*
X152804461Y-104951893D01*
X152889107Y-105036539D01*
X152995767Y-105090885D01*
X153014469Y-105093847D01*
X153101240Y-105107590D01*
X153114000Y-105109611D01*
X153126760Y-105107590D01*
X153177253Y-105117408D01*
X153191694Y-105128691D01*
X154873970Y-106810967D01*
X154876680Y-106813822D01*
X154903930Y-106844086D01*
X154926547Y-106854156D01*
X154936901Y-106859778D01*
X154957664Y-106873261D01*
X154966129Y-106874602D01*
X154966188Y-106874611D01*
X154985014Y-106880187D01*
X154992903Y-106883700D01*
X155017654Y-106883700D01*
X155029418Y-106884626D01*
X155046052Y-106887261D01*
X155046054Y-106887261D01*
X155053858Y-106888497D01*
X155061490Y-106886452D01*
X155061491Y-106886452D01*
X155062199Y-106886262D01*
X155081662Y-106883700D01*
X158851658Y-106883700D01*
X158899996Y-106901293D01*
X158925716Y-106945842D01*
X158918662Y-106993040D01*
X158868715Y-107091067D01*
X158849989Y-107209300D01*
X158868715Y-107327533D01*
X158917306Y-107422899D01*
X158923061Y-107434193D01*
X158921106Y-107435189D01*
X158932794Y-107475940D01*
X158911875Y-107522934D01*
X158865643Y-107545487D01*
X158857777Y-107545900D01*
X154941844Y-107545900D01*
X154893506Y-107528307D01*
X154888670Y-107523874D01*
X153868491Y-106503694D01*
X153846751Y-106457074D01*
X153847391Y-106438758D01*
X153848485Y-106431850D01*
X153848485Y-106431847D01*
X153849411Y-106426000D01*
X153830685Y-106307767D01*
X153776339Y-106201107D01*
X153691693Y-106116461D01*
X153649364Y-106094893D01*
X153639007Y-106089616D01*
X153585033Y-106062115D01*
X153466800Y-106043389D01*
X153348567Y-106062115D01*
X153294593Y-106089616D01*
X153284237Y-106094893D01*
X153241907Y-106116461D01*
X153157261Y-106201107D01*
X153102915Y-106307767D01*
X153084189Y-106426000D01*
X153085115Y-106431847D01*
X153085304Y-106433040D01*
X153102915Y-106544233D01*
X153105602Y-106549506D01*
X153147880Y-106632481D01*
X153157261Y-106650893D01*
X153241907Y-106735539D01*
X153348567Y-106789885D01*
X153370659Y-106793384D01*
X153454040Y-106806590D01*
X153466800Y-106808611D01*
X153479560Y-106806590D01*
X153530053Y-106816408D01*
X153544494Y-106827691D01*
X154338029Y-107621226D01*
X154359769Y-107667846D01*
X154346455Y-107717533D01*
X154304318Y-107747038D01*
X154284855Y-107749600D01*
X154075938Y-107749600D01*
X154032229Y-107735593D01*
X154008249Y-107718464D01*
X153611664Y-107435189D01*
X153224566Y-107158690D01*
X153224562Y-107158688D01*
X153222191Y-107156994D01*
X153180118Y-107135877D01*
X153158264Y-107128874D01*
X153139181Y-107122758D01*
X153139177Y-107122757D01*
X153136409Y-107121870D01*
X153133538Y-107121421D01*
X153133533Y-107121420D01*
X153108811Y-107117556D01*
X153089901Y-107114600D01*
X151828099Y-107114600D01*
X151827328Y-107114634D01*
X151827310Y-107114634D01*
X151820341Y-107114938D01*
X151814822Y-107115179D01*
X151814050Y-107115246D01*
X151814027Y-107115248D01*
X151805855Y-107115963D01*
X151805854Y-107115963D01*
X151801763Y-107116321D01*
X151738837Y-107136161D01*
X151735279Y-107138215D01*
X151735275Y-107138217D01*
X151705025Y-107155683D01*
X151694289Y-107161882D01*
X151672531Y-107177118D01*
X151672487Y-107177181D01*
X151628861Y-107197527D01*
X151616875Y-107197462D01*
X151615057Y-107197100D01*
X151150315Y-107197100D01*
X150684944Y-107197101D01*
X150640342Y-107205972D01*
X150634184Y-107210087D01*
X150634182Y-107210088D01*
X150604279Y-107230069D01*
X150554314Y-107242296D01*
X150520721Y-107230069D01*
X150490818Y-107210088D01*
X150484658Y-107205972D01*
X150471995Y-107203453D01*
X150443682Y-107197821D01*
X150443681Y-107197821D01*
X150440057Y-107197100D01*
X150000060Y-107197100D01*
X149559944Y-107197101D01*
X149515342Y-107205972D01*
X149509184Y-107210087D01*
X149509182Y-107210088D01*
X149479279Y-107230069D01*
X149429314Y-107242296D01*
X149395721Y-107230069D01*
X149365818Y-107210088D01*
X149359658Y-107205972D01*
X149346995Y-107203453D01*
X149318682Y-107197821D01*
X149318681Y-107197821D01*
X149315057Y-107197100D01*
X149237500Y-107197100D01*
X149189162Y-107179507D01*
X149163442Y-107134958D01*
X149163226Y-107110136D01*
X149163639Y-107107532D01*
X149178611Y-107013000D01*
X149173931Y-106983448D01*
X149160811Y-106900614D01*
X149159885Y-106894767D01*
X149119959Y-106816408D01*
X149108228Y-106793384D01*
X149108227Y-106793383D01*
X149105539Y-106788107D01*
X149020893Y-106703461D01*
X148914233Y-106649115D01*
X148796000Y-106630389D01*
X148677767Y-106649115D01*
X148571107Y-106703461D01*
X148486461Y-106788107D01*
X148483773Y-106793383D01*
X148483772Y-106793384D01*
X148472041Y-106816408D01*
X148432115Y-106894767D01*
X148431189Y-106900614D01*
X148418070Y-106983448D01*
X148413389Y-107013000D01*
X148414315Y-107018846D01*
X148414315Y-107018848D01*
X148429477Y-107114581D01*
X148419662Y-107165075D01*
X148379685Y-107197447D01*
X148369876Y-107200098D01*
X148340342Y-107205972D01*
X148334184Y-107210087D01*
X148334182Y-107210088D01*
X148295923Y-107235652D01*
X148289766Y-107239766D01*
X148255972Y-107290342D01*
X148247100Y-107334943D01*
X148247101Y-107665056D01*
X148255972Y-107709658D01*
X148260088Y-107715818D01*
X148261184Y-107718464D01*
X148263427Y-107769855D01*
X148232112Y-107810664D01*
X148210989Y-107818667D01*
X148210961Y-107818666D01*
X148187850Y-107827537D01*
X148176558Y-107830882D01*
X148152335Y-107836031D01*
X148145942Y-107840676D01*
X148145940Y-107840677D01*
X148145348Y-107841107D01*
X148128098Y-107850473D01*
X148127416Y-107850735D01*
X148127415Y-107850736D01*
X148120036Y-107853568D01*
X148102536Y-107871068D01*
X148093563Y-107878732D01*
X148073542Y-107893278D01*
X148069589Y-107900124D01*
X148067881Y-107902021D01*
X148022461Y-107926169D01*
X148011998Y-107926900D01*
X146719480Y-107926900D01*
X146671142Y-107909307D01*
X146666306Y-107904874D01*
X146607893Y-107846461D01*
X146597386Y-107841107D01*
X146537637Y-107810664D01*
X146501233Y-107792115D01*
X146383000Y-107773389D01*
X146264767Y-107792115D01*
X146228363Y-107810664D01*
X146168615Y-107841107D01*
X146158107Y-107846461D01*
X146073461Y-107931107D01*
X146019115Y-108037767D01*
X146000389Y-108156000D01*
X146019115Y-108274233D01*
X146021802Y-108279506D01*
X146067640Y-108369468D01*
X146073461Y-108380893D01*
X146158107Y-108465539D01*
X146264767Y-108519885D01*
X146383000Y-108538611D01*
X146501233Y-108519885D01*
X146607893Y-108465539D01*
X146666306Y-108407126D01*
X146712926Y-108385386D01*
X146719480Y-108385100D01*
X148133640Y-108385100D01*
X148137575Y-108385203D01*
X148175835Y-108387208D01*
X148223186Y-108407307D01*
X148246539Y-108453140D01*
X148247100Y-108462305D01*
X148247101Y-108715056D01*
X148255972Y-108759658D01*
X148260089Y-108765820D01*
X148262327Y-108771222D01*
X148264570Y-108822613D01*
X148262326Y-108828779D01*
X148260088Y-108834183D01*
X148255972Y-108840342D01*
X148247100Y-108884943D01*
X148247101Y-109215056D01*
X148255972Y-109259658D01*
X148260089Y-109265819D01*
X148262602Y-109271887D01*
X148264845Y-109323277D01*
X148262601Y-109329443D01*
X148254997Y-109347799D01*
X148248321Y-109381363D01*
X148247600Y-109388684D01*
X148247600Y-109409741D01*
X148251297Y-109419898D01*
X148256669Y-109423000D01*
X148901800Y-109423000D01*
X148950138Y-109440593D01*
X148975858Y-109485142D01*
X148977000Y-109498200D01*
X148977000Y-110101800D01*
X148959407Y-110150138D01*
X148914858Y-110175858D01*
X148901800Y-110177000D01*
X148798200Y-110177000D01*
X148749862Y-110159407D01*
X148724142Y-110114858D01*
X148723000Y-110101800D01*
X148723000Y-109690259D01*
X148719303Y-109680102D01*
X148713931Y-109677000D01*
X148260859Y-109677000D01*
X148250702Y-109680697D01*
X148247600Y-109686069D01*
X148247600Y-109711316D01*
X148248321Y-109718637D01*
X148254997Y-109752201D01*
X148262876Y-109771221D01*
X148265121Y-109822612D01*
X148262876Y-109828779D01*
X148254997Y-109847799D01*
X148250376Y-109871032D01*
X148223691Y-109915008D01*
X148174981Y-109931543D01*
X148142481Y-109923365D01*
X148051683Y-109877101D01*
X147973347Y-109864694D01*
X147939297Y-109859301D01*
X147933450Y-109858375D01*
X147927603Y-109859301D01*
X147893553Y-109864694D01*
X147815217Y-109877101D01*
X147767881Y-109901220D01*
X147724419Y-109923365D01*
X147708557Y-109931447D01*
X147623911Y-110016093D01*
X147621223Y-110021369D01*
X147621222Y-110021370D01*
X147599008Y-110064967D01*
X147569565Y-110122753D01*
X147550839Y-110240986D01*
X147551765Y-110246833D01*
X147553339Y-110256772D01*
X147569565Y-110359219D01*
X147594837Y-110408818D01*
X147601106Y-110459874D01*
X147573090Y-110503015D01*
X147561978Y-110509959D01*
X147560388Y-110510769D01*
X147560383Y-110510773D01*
X147555107Y-110513461D01*
X147470461Y-110598107D01*
X147416115Y-110704767D01*
X147415189Y-110710614D01*
X147402331Y-110791800D01*
X147397389Y-110823000D01*
X147397865Y-110826006D01*
X147380722Y-110873108D01*
X147336173Y-110898828D01*
X147285515Y-110889895D01*
X147269941Y-110877944D01*
X147038691Y-110646694D01*
X147016951Y-110600074D01*
X147017591Y-110581758D01*
X147018685Y-110574850D01*
X147018685Y-110574847D01*
X147019611Y-110569000D01*
X147000885Y-110450767D01*
X146951260Y-110353372D01*
X146949228Y-110349384D01*
X146949227Y-110349383D01*
X146946539Y-110344107D01*
X146861893Y-110259461D01*
X146855046Y-110255972D01*
X146782684Y-110219102D01*
X146755233Y-110205115D01*
X146637000Y-110186389D01*
X146518767Y-110205115D01*
X146491316Y-110219102D01*
X146418955Y-110255972D01*
X146412107Y-110259461D01*
X146327461Y-110344107D01*
X146324773Y-110349383D01*
X146324772Y-110349384D01*
X146322740Y-110353372D01*
X146273115Y-110450767D01*
X146254389Y-110569000D01*
X146255315Y-110574847D01*
X146256410Y-110581758D01*
X146273115Y-110687233D01*
X146327461Y-110793893D01*
X146412107Y-110878539D01*
X146417383Y-110881227D01*
X146417384Y-110881228D01*
X146434394Y-110889895D01*
X146518767Y-110932885D01*
X146524614Y-110933811D01*
X146624240Y-110949590D01*
X146637000Y-110951611D01*
X146649761Y-110949590D01*
X146700255Y-110959408D01*
X146714695Y-110970691D01*
X147450361Y-111706357D01*
X147453071Y-111709212D01*
X147480330Y-111739486D01*
X147487549Y-111742700D01*
X147502937Y-111749551D01*
X147513308Y-111755183D01*
X147534064Y-111768662D01*
X147541872Y-111769898D01*
X147541876Y-111769900D01*
X147542596Y-111770014D01*
X147561416Y-111775589D01*
X147562077Y-111775883D01*
X147562079Y-111775883D01*
X147569303Y-111779100D01*
X147594054Y-111779100D01*
X147605817Y-111780026D01*
X147622452Y-111782661D01*
X147622454Y-111782661D01*
X147630259Y-111783897D01*
X147637891Y-111781852D01*
X147637892Y-111781852D01*
X147638600Y-111781662D01*
X147658063Y-111779100D01*
X148229526Y-111779100D01*
X148277864Y-111796693D01*
X148282699Y-111801124D01*
X148285652Y-111804076D01*
X148289766Y-111810234D01*
X148315054Y-111827131D01*
X148334183Y-111839913D01*
X148334184Y-111839914D01*
X148340342Y-111844028D01*
X148384943Y-111852900D01*
X148410570Y-111852900D01*
X148944656Y-111852899D01*
X148992994Y-111870492D01*
X149018714Y-111915041D01*
X149019084Y-111919270D01*
X149018713Y-111921372D01*
X149019813Y-111927608D01*
X149019813Y-111927612D01*
X149031556Y-111994205D01*
X149031557Y-111994209D01*
X149032413Y-111999062D01*
X149054153Y-112045682D01*
X149077321Y-112078769D01*
X149090634Y-112128453D01*
X149068895Y-112175074D01*
X149022275Y-112196814D01*
X149015720Y-112197100D01*
X148404049Y-112197101D01*
X148384944Y-112197101D01*
X148340342Y-112205972D01*
X148289766Y-112239766D01*
X148255972Y-112290342D01*
X148247100Y-112334943D01*
X148247101Y-112665056D01*
X148255972Y-112709658D01*
X148289766Y-112760234D01*
X148295923Y-112764348D01*
X148334183Y-112789913D01*
X148334184Y-112789914D01*
X148340342Y-112794028D01*
X148384943Y-112802900D01*
X148416270Y-112802900D01*
X149076400Y-112802899D01*
X149124738Y-112820492D01*
X149150458Y-112865041D01*
X149151600Y-112878099D01*
X149151600Y-112950852D01*
X149151608Y-112951212D01*
X149151608Y-112951225D01*
X149151713Y-112956007D01*
X149151745Y-112957496D01*
X149152031Y-112964050D01*
X149166166Y-113021815D01*
X149187906Y-113068435D01*
X149218263Y-113111789D01*
X149301211Y-113194737D01*
X149305994Y-113199316D01*
X149310830Y-113203749D01*
X149313986Y-113205665D01*
X149313988Y-113205666D01*
X149331746Y-113216444D01*
X149361688Y-113234617D01*
X149410026Y-113252210D01*
X149413256Y-113252780D01*
X149413258Y-113252780D01*
X149458918Y-113260831D01*
X149458924Y-113260831D01*
X149462148Y-113261400D01*
X150542852Y-113261400D01*
X150543212Y-113261392D01*
X150543225Y-113261392D01*
X150549056Y-113261265D01*
X150549092Y-113261264D01*
X150549496Y-113261255D01*
X150550311Y-113261219D01*
X150552363Y-113261130D01*
X150552364Y-113261130D01*
X150556050Y-113260969D01*
X150596439Y-113251086D01*
X150610228Y-113247712D01*
X150610230Y-113247711D01*
X150613815Y-113246834D01*
X150660435Y-113225094D01*
X150703789Y-113194737D01*
X150859489Y-113039037D01*
X150871658Y-113025162D01*
X150871816Y-113024982D01*
X150871825Y-113024971D01*
X150872631Y-113024052D01*
X150884582Y-113008478D01*
X150913761Y-112942166D01*
X150914546Y-112937715D01*
X150922410Y-112893120D01*
X150922411Y-112893114D01*
X150922694Y-112891508D01*
X150924441Y-112871544D01*
X150946182Y-112824925D01*
X150992802Y-112803186D01*
X150999355Y-112802900D01*
X151587465Y-112802899D01*
X151615056Y-112802899D01*
X151659658Y-112794028D01*
X151710234Y-112760234D01*
X151744028Y-112709658D01*
X151752900Y-112665057D01*
X151752899Y-112431243D01*
X151770492Y-112382907D01*
X151815040Y-112357187D01*
X151865699Y-112366119D01*
X151881273Y-112378070D01*
X153657570Y-114154367D01*
X153660280Y-114157222D01*
X153687530Y-114187486D01*
X153694750Y-114190700D01*
X153694749Y-114190700D01*
X153710134Y-114197550D01*
X153720502Y-114203179D01*
X153741264Y-114216662D01*
X153749068Y-114217898D01*
X153749071Y-114217899D01*
X153749796Y-114218014D01*
X153768616Y-114223589D01*
X153769277Y-114223883D01*
X153769279Y-114223883D01*
X153776503Y-114227100D01*
X153801254Y-114227100D01*
X153813017Y-114228026D01*
X153829652Y-114230661D01*
X153829654Y-114230661D01*
X153837459Y-114231897D01*
X153845091Y-114229852D01*
X153845092Y-114229852D01*
X153845800Y-114229662D01*
X153865263Y-114227100D01*
X163757892Y-114227100D01*
X163781129Y-114230780D01*
X163785494Y-114232198D01*
X163790767Y-114234885D01*
X163796612Y-114235811D01*
X163796613Y-114235811D01*
X163816053Y-114238890D01*
X163861043Y-114263829D01*
X163879477Y-114311852D01*
X163862729Y-114360489D01*
X163857462Y-114366338D01*
X163679626Y-114544174D01*
X163633006Y-114565914D01*
X163626452Y-114566200D01*
X158621691Y-114566200D01*
X158587550Y-114558003D01*
X158568709Y-114548403D01*
X158568708Y-114548403D01*
X158563433Y-114545715D01*
X158445200Y-114526989D01*
X158326967Y-114545715D01*
X158220307Y-114600061D01*
X158135661Y-114684707D01*
X158132973Y-114689983D01*
X158132972Y-114689984D01*
X158118907Y-114717588D01*
X158081315Y-114791367D01*
X158080389Y-114797214D01*
X158068927Y-114869586D01*
X158062589Y-114909600D01*
X158063515Y-114915447D01*
X158066143Y-114932037D01*
X158081315Y-115027833D01*
X158084002Y-115033106D01*
X158129034Y-115121486D01*
X158135661Y-115134493D01*
X158220307Y-115219139D01*
X158326967Y-115273485D01*
X158445200Y-115292211D01*
X158563433Y-115273485D01*
X158568708Y-115270797D01*
X158568709Y-115270797D01*
X158587550Y-115261197D01*
X158621691Y-115253000D01*
X163781571Y-115253000D01*
X163788124Y-115253286D01*
X163802324Y-115254528D01*
X163812618Y-115255429D01*
X163859238Y-115277169D01*
X163880977Y-115323790D01*
X163867663Y-115373477D01*
X163859237Y-115383517D01*
X163829094Y-115413660D01*
X163768748Y-115494180D01*
X163721449Y-115620350D01*
X163721052Y-115625693D01*
X163717968Y-115667202D01*
X163711464Y-115754723D01*
X163739594Y-115886498D01*
X163803577Y-116005081D01*
X163898272Y-116100940D01*
X164016065Y-116166369D01*
X164021289Y-116167551D01*
X164142262Y-116194924D01*
X164142264Y-116194924D01*
X164147487Y-116196106D01*
X164281972Y-116187763D01*
X164408710Y-116142009D01*
X164492310Y-116080936D01*
X164721540Y-115851707D01*
X164768159Y-115829968D01*
X164817846Y-115843282D01*
X164847351Y-115885419D01*
X164848940Y-115909679D01*
X164849380Y-115909684D01*
X164849332Y-115914221D01*
X164848741Y-115918713D01*
X164849238Y-115923215D01*
X164849238Y-115923219D01*
X164855612Y-115980953D01*
X164866082Y-116075785D01*
X164867638Y-116080037D01*
X164867639Y-116080041D01*
X164907060Y-116187763D01*
X164920389Y-116224187D01*
X164922913Y-116227943D01*
X164922915Y-116227947D01*
X165006002Y-116351593D01*
X165006005Y-116351597D01*
X165008528Y-116355351D01*
X165011880Y-116358401D01*
X165122052Y-116458650D01*
X165122055Y-116458652D01*
X165125410Y-116461705D01*
X165129396Y-116463869D01*
X165129397Y-116463870D01*
X165173086Y-116487591D01*
X165264286Y-116537109D01*
X165268668Y-116538259D01*
X165268669Y-116538259D01*
X165292127Y-116544413D01*
X165417141Y-116577210D01*
X165476662Y-116578145D01*
X165570616Y-116579621D01*
X165570618Y-116579621D01*
X165575148Y-116579692D01*
X165579566Y-116578680D01*
X165579568Y-116578680D01*
X165724764Y-116545426D01*
X165724766Y-116545425D01*
X165729186Y-116544413D01*
X165870363Y-116473408D01*
X165884065Y-116461705D01*
X165987078Y-116373724D01*
X165987079Y-116373723D01*
X165990527Y-116370778D01*
X166082743Y-116242447D01*
X166090084Y-116224187D01*
X166124390Y-116138846D01*
X166141685Y-116095824D01*
X166163951Y-115939374D01*
X166164095Y-115925600D01*
X166161444Y-115903694D01*
X166145655Y-115773220D01*
X166145655Y-115773218D01*
X166145110Y-115768718D01*
X166127401Y-115721851D01*
X166090856Y-115625137D01*
X166090855Y-115625135D01*
X166089252Y-115620893D01*
X165999744Y-115490658D01*
X165881755Y-115385534D01*
X165742097Y-115311589D01*
X165659775Y-115290911D01*
X165593232Y-115274196D01*
X165593228Y-115274196D01*
X165588831Y-115273091D01*
X165584297Y-115273067D01*
X165584295Y-115273067D01*
X165481868Y-115272531D01*
X165433623Y-115254685D01*
X165408137Y-115210002D01*
X165417335Y-115159392D01*
X165429088Y-115144158D01*
X166964197Y-113609049D01*
X166977238Y-113598627D01*
X166982811Y-113595111D01*
X167016626Y-113556823D01*
X167019816Y-113553430D01*
X167031306Y-113541940D01*
X167038111Y-113532860D01*
X167041909Y-113528195D01*
X167068460Y-113498133D01*
X167068462Y-113498130D01*
X167072007Y-113494116D01*
X167076884Y-113483728D01*
X167084772Y-113470600D01*
X167091652Y-113461420D01*
X167093533Y-113456403D01*
X167093535Y-113456399D01*
X167100186Y-113438659D01*
X167133628Y-113399573D01*
X167184370Y-113391128D01*
X167228669Y-113417275D01*
X167245800Y-113465057D01*
X167245800Y-115090338D01*
X167228207Y-115138676D01*
X167223774Y-115143512D01*
X166453090Y-115914196D01*
X166450234Y-115916907D01*
X166425282Y-115939374D01*
X166418198Y-115945752D01*
X166414983Y-115952974D01*
X166407440Y-115969915D01*
X166401809Y-115980285D01*
X166391713Y-115995832D01*
X166391712Y-115995834D01*
X166387406Y-116002465D01*
X166386169Y-116010273D01*
X166386169Y-116010274D01*
X166385895Y-116012006D01*
X166380319Y-116030830D01*
X166376389Y-116039658D01*
X166376389Y-116066108D01*
X166375463Y-116077872D01*
X166372620Y-116095824D01*
X166371326Y-116103992D01*
X166373371Y-116111624D01*
X166373371Y-116111625D01*
X166373827Y-116113326D01*
X166376389Y-116132789D01*
X166376389Y-122708906D01*
X166358796Y-122757244D01*
X166354363Y-122762080D01*
X165314154Y-123802289D01*
X165267534Y-123824029D01*
X165260980Y-123824315D01*
X165258246Y-123824315D01*
X165252400Y-123823389D01*
X165134167Y-123842115D01*
X165118649Y-123850022D01*
X165044484Y-123887811D01*
X165027507Y-123896461D01*
X164942861Y-123981107D01*
X164888515Y-124087767D01*
X164869789Y-124206000D01*
X164888515Y-124324233D01*
X164942861Y-124430893D01*
X165027507Y-124515539D01*
X165134167Y-124569885D01*
X165252400Y-124588611D01*
X165258247Y-124587685D01*
X165258248Y-124587685D01*
X165309726Y-124579532D01*
X165360220Y-124589347D01*
X165392592Y-124629324D01*
X165391694Y-124680756D01*
X165374663Y-124706980D01*
X164934901Y-125146742D01*
X164932046Y-125149452D01*
X164900009Y-125178298D01*
X164896794Y-125185520D01*
X164889251Y-125202461D01*
X164883620Y-125212831D01*
X164873524Y-125228378D01*
X164873523Y-125228380D01*
X164869217Y-125235011D01*
X164867980Y-125242819D01*
X164867980Y-125242820D01*
X164867706Y-125244552D01*
X164862130Y-125263376D01*
X164858200Y-125272204D01*
X164858200Y-125298654D01*
X164857274Y-125310418D01*
X164855727Y-125320188D01*
X164853137Y-125336538D01*
X164855182Y-125344170D01*
X164855182Y-125344171D01*
X164855638Y-125345872D01*
X164858200Y-125365335D01*
X164858200Y-129013020D01*
X164840607Y-129061358D01*
X164836174Y-129066194D01*
X164790461Y-129111907D01*
X164736115Y-129218567D01*
X164717389Y-129336800D01*
X164736115Y-129455033D01*
X164738802Y-129460306D01*
X164763949Y-129509660D01*
X164770218Y-129560716D01*
X164742202Y-129603857D01*
X164696945Y-129619000D01*
X131035901Y-129619000D01*
X131024137Y-129618074D01*
X131000000Y-129614251D01*
X130992543Y-129615432D01*
X130972360Y-129615886D01*
X130870676Y-129604429D01*
X130854265Y-129600684D01*
X130739425Y-129560499D01*
X130724253Y-129553193D01*
X130621231Y-129488460D01*
X130608066Y-129477960D01*
X130522040Y-129391934D01*
X130511540Y-129378769D01*
X130489837Y-129344228D01*
X130446807Y-129275746D01*
X130439501Y-129260575D01*
X130436366Y-129251616D01*
X130399316Y-129145735D01*
X130395570Y-129129321D01*
X130393136Y-129107717D01*
X130384114Y-129027640D01*
X130384568Y-129007456D01*
X130384823Y-129005847D01*
X130385749Y-129000000D01*
X130381926Y-128975862D01*
X130381000Y-128964099D01*
X130381000Y-127914400D01*
X132357789Y-127914400D01*
X132376515Y-128032633D01*
X132430861Y-128139293D01*
X132515507Y-128223939D01*
X132520781Y-128226626D01*
X132520784Y-128226628D01*
X132557401Y-128245285D01*
X132622167Y-128278285D01*
X132740400Y-128297011D01*
X132858633Y-128278285D01*
X132923399Y-128245285D01*
X132960020Y-128226626D01*
X132960021Y-128226625D01*
X132965293Y-128223939D01*
X132968161Y-128221071D01*
X133011466Y-128207000D01*
X135256309Y-128207000D01*
X135290450Y-128215197D01*
X135309291Y-128224797D01*
X135309292Y-128224797D01*
X135314567Y-128227485D01*
X135432800Y-128246211D01*
X135551033Y-128227485D01*
X135657693Y-128173139D01*
X135742339Y-128088493D01*
X135796685Y-127981833D01*
X135815411Y-127863600D01*
X135796685Y-127745367D01*
X135742339Y-127638707D01*
X135657693Y-127554061D01*
X135648917Y-127549589D01*
X135584570Y-127516803D01*
X135551033Y-127499715D01*
X135432800Y-127480989D01*
X135314567Y-127499715D01*
X135309292Y-127502403D01*
X135309291Y-127502403D01*
X135290450Y-127512003D01*
X135256309Y-127520200D01*
X132809470Y-127520200D01*
X132802916Y-127519914D01*
X132767363Y-127516803D01*
X132767361Y-127516803D01*
X132760809Y-127516230D01*
X132719954Y-127527177D01*
X132713594Y-127528587D01*
X132671939Y-127535932D01*
X132666244Y-127539220D01*
X132660056Y-127541472D01*
X132659909Y-127541068D01*
X132642181Y-127547345D01*
X132622167Y-127550515D01*
X132515507Y-127604861D01*
X132430861Y-127689507D01*
X132376515Y-127796167D01*
X132357789Y-127914400D01*
X130381000Y-127914400D01*
X130381000Y-123068953D01*
X130596630Y-123068953D01*
X130598102Y-123074103D01*
X130598102Y-123074104D01*
X130607513Y-123107033D01*
X130636215Y-123207461D01*
X130639071Y-123211987D01*
X130639072Y-123211990D01*
X130667521Y-123257078D01*
X130713084Y-123329291D01*
X130717097Y-123332835D01*
X130817041Y-123421103D01*
X130817044Y-123421105D01*
X130821057Y-123424649D01*
X130951454Y-123485871D01*
X130956744Y-123486695D01*
X130956745Y-123486695D01*
X130987089Y-123491419D01*
X131060825Y-123502900D01*
X131136107Y-123502900D01*
X131176743Y-123497080D01*
X131237296Y-123488409D01*
X131237300Y-123488408D01*
X131242599Y-123487649D01*
X131247473Y-123485433D01*
X131247476Y-123485432D01*
X131324872Y-123450242D01*
X131373734Y-123428026D01*
X131377794Y-123424528D01*
X131478810Y-123337487D01*
X131478813Y-123337484D01*
X131482864Y-123333993D01*
X131488847Y-123324763D01*
X131558303Y-123217604D01*
X131558303Y-123217603D01*
X131561215Y-123213111D01*
X131591493Y-123111869D01*
X131600955Y-123080232D01*
X131600955Y-123080229D01*
X131602490Y-123075098D01*
X131602528Y-123068953D01*
X132396630Y-123068953D01*
X132398102Y-123074103D01*
X132398102Y-123074104D01*
X132407513Y-123107033D01*
X132436215Y-123207461D01*
X132439071Y-123211987D01*
X132439072Y-123211990D01*
X132467521Y-123257078D01*
X132513084Y-123329291D01*
X132517097Y-123332835D01*
X132617041Y-123421103D01*
X132617044Y-123421105D01*
X132621057Y-123424649D01*
X132751454Y-123485871D01*
X132756744Y-123486695D01*
X132756745Y-123486695D01*
X132787089Y-123491419D01*
X132860825Y-123502900D01*
X132936107Y-123502900D01*
X132976743Y-123497080D01*
X133037296Y-123488409D01*
X133037300Y-123488408D01*
X133042599Y-123487649D01*
X133047473Y-123485433D01*
X133047476Y-123485432D01*
X133124872Y-123450242D01*
X133173734Y-123428026D01*
X133177794Y-123424528D01*
X133278810Y-123337487D01*
X133278813Y-123337484D01*
X133282864Y-123333993D01*
X133288847Y-123324763D01*
X133358303Y-123217604D01*
X133358303Y-123217603D01*
X133361215Y-123213111D01*
X133391493Y-123111869D01*
X133400955Y-123080232D01*
X133400955Y-123080229D01*
X133402490Y-123075098D01*
X133402561Y-123063598D01*
X133403337Y-122936402D01*
X133403370Y-122931047D01*
X133389941Y-122884057D01*
X133365257Y-122797690D01*
X133363785Y-122792539D01*
X133360929Y-122788013D01*
X133360928Y-122788010D01*
X133289773Y-122675237D01*
X133286916Y-122670709D01*
X133252612Y-122640413D01*
X133182959Y-122578897D01*
X133182956Y-122578895D01*
X133178943Y-122575351D01*
X133080957Y-122529346D01*
X133053392Y-122516404D01*
X133053391Y-122516404D01*
X133048546Y-122514129D01*
X133043256Y-122513305D01*
X133043255Y-122513305D01*
X133012911Y-122508581D01*
X132939175Y-122497100D01*
X132863893Y-122497100D01*
X132823257Y-122502920D01*
X132762704Y-122511591D01*
X132762700Y-122511592D01*
X132757401Y-122512351D01*
X132752527Y-122514567D01*
X132752524Y-122514568D01*
X132703685Y-122536774D01*
X132626266Y-122571974D01*
X132622208Y-122575471D01*
X132622206Y-122575472D01*
X132521190Y-122662513D01*
X132521187Y-122662516D01*
X132517136Y-122666007D01*
X132514225Y-122670498D01*
X132469142Y-122740054D01*
X132438785Y-122786889D01*
X132397510Y-122924902D01*
X132397477Y-122930257D01*
X132397477Y-122930259D01*
X132397287Y-122961349D01*
X132396630Y-123068953D01*
X131602528Y-123068953D01*
X131602561Y-123063598D01*
X131603337Y-122936402D01*
X131603370Y-122931047D01*
X131589941Y-122884057D01*
X131565257Y-122797690D01*
X131563785Y-122792539D01*
X131560929Y-122788013D01*
X131560928Y-122788010D01*
X131489773Y-122675237D01*
X131486916Y-122670709D01*
X131452612Y-122640413D01*
X131382959Y-122578897D01*
X131382956Y-122578895D01*
X131378943Y-122575351D01*
X131280957Y-122529346D01*
X131253392Y-122516404D01*
X131253391Y-122516404D01*
X131248546Y-122514129D01*
X131243256Y-122513305D01*
X131243255Y-122513305D01*
X131212911Y-122508581D01*
X131139175Y-122497100D01*
X131063893Y-122497100D01*
X131023257Y-122502920D01*
X130962704Y-122511591D01*
X130962700Y-122511592D01*
X130957401Y-122512351D01*
X130952527Y-122514567D01*
X130952524Y-122514568D01*
X130903685Y-122536774D01*
X130826266Y-122571974D01*
X130822208Y-122575471D01*
X130822206Y-122575472D01*
X130721190Y-122662513D01*
X130721187Y-122662516D01*
X130717136Y-122666007D01*
X130714225Y-122670498D01*
X130669142Y-122740054D01*
X130638785Y-122786889D01*
X130597510Y-122924902D01*
X130597477Y-122930257D01*
X130597477Y-122930259D01*
X130597287Y-122961349D01*
X130596630Y-123068953D01*
X130381000Y-123068953D01*
X130381000Y-117829625D01*
X130398593Y-117781287D01*
X130443142Y-117755567D01*
X130490340Y-117762621D01*
X130584893Y-117810798D01*
X130590167Y-117813485D01*
X130708400Y-117832211D01*
X130826633Y-117813485D01*
X130889825Y-117781287D01*
X130928016Y-117761828D01*
X130928017Y-117761827D01*
X130933293Y-117759139D01*
X130979006Y-117713426D01*
X131025626Y-117691686D01*
X131032180Y-117691400D01*
X135068890Y-117691400D01*
X135072827Y-117691503D01*
X135115871Y-117693759D01*
X135127737Y-117689204D01*
X135140560Y-117684282D01*
X135151873Y-117680931D01*
X135170010Y-117677075D01*
X135170013Y-117677074D01*
X135177746Y-117675430D01*
X135184142Y-117670783D01*
X135184144Y-117670782D01*
X135185563Y-117669751D01*
X135202813Y-117660385D01*
X135204456Y-117659754D01*
X135204457Y-117659754D01*
X135211836Y-117656921D01*
X135230538Y-117638219D01*
X135239511Y-117630555D01*
X135254512Y-117619656D01*
X135260907Y-117615010D01*
X135265741Y-117606637D01*
X135277690Y-117591067D01*
X135339445Y-117529312D01*
X136881077Y-117529312D01*
X136899803Y-117647545D01*
X136954149Y-117754205D01*
X137038795Y-117838851D01*
X137145455Y-117893197D01*
X137263688Y-117911923D01*
X137381921Y-117893197D01*
X137488581Y-117838851D01*
X137573227Y-117754205D01*
X137627573Y-117647545D01*
X137646299Y-117529312D01*
X137627573Y-117411079D01*
X137573227Y-117304419D01*
X137514814Y-117246006D01*
X137493074Y-117199386D01*
X137492788Y-117192832D01*
X137492788Y-116512356D01*
X137510381Y-116464018D01*
X137514814Y-116459182D01*
X138907258Y-115066739D01*
X140316367Y-113657630D01*
X140319222Y-113654920D01*
X140343613Y-113632958D01*
X140349486Y-113627670D01*
X140359551Y-113605064D01*
X140365179Y-113594698D01*
X140367520Y-113591094D01*
X140378662Y-113573936D01*
X140379898Y-113566132D01*
X140379899Y-113566129D01*
X140380014Y-113565404D01*
X140385589Y-113546584D01*
X140385883Y-113545923D01*
X140385883Y-113545921D01*
X140389100Y-113538697D01*
X140389100Y-113513946D01*
X140390026Y-113502183D01*
X140392661Y-113485548D01*
X140392661Y-113485546D01*
X140393897Y-113477741D01*
X140391662Y-113469399D01*
X140389100Y-113449937D01*
X140389100Y-106012947D01*
X140389512Y-106005087D01*
X140392109Y-105980378D01*
X140392935Y-105972518D01*
X140390492Y-105965000D01*
X140389666Y-105957142D01*
X140390408Y-105957064D01*
X140389100Y-105948806D01*
X140389100Y-100104880D01*
X140406693Y-100056542D01*
X140411126Y-100051706D01*
X140415939Y-100046893D01*
X140425566Y-100028000D01*
X140453267Y-99973632D01*
X140470285Y-99940233D01*
X140489011Y-99822000D01*
X140486855Y-99808384D01*
X140471211Y-99709614D01*
X140470285Y-99703767D01*
X140433340Y-99631258D01*
X140418628Y-99602384D01*
X140418627Y-99602383D01*
X140415939Y-99597107D01*
X140331293Y-99512461D01*
X140318109Y-99505743D01*
X140279441Y-99486041D01*
X140224633Y-99458115D01*
X140106400Y-99439389D01*
X139988167Y-99458115D01*
X139933359Y-99486041D01*
X139894692Y-99505743D01*
X139881507Y-99512461D01*
X139796861Y-99597107D01*
X139794173Y-99602383D01*
X139794172Y-99602384D01*
X139779460Y-99631258D01*
X139742515Y-99703767D01*
X139741589Y-99709614D01*
X139725946Y-99808384D01*
X139723789Y-99822000D01*
X139742515Y-99940233D01*
X139759533Y-99973632D01*
X139787235Y-100028000D01*
X139796861Y-100046893D01*
X139881507Y-100131539D01*
X139886784Y-100134228D01*
X139886787Y-100134230D01*
X139889841Y-100135786D01*
X139924922Y-100173407D01*
X139930900Y-100202789D01*
X139930900Y-105465263D01*
X139913307Y-105513601D01*
X139868758Y-105539321D01*
X139821560Y-105532267D01*
X139775507Y-105508802D01*
X139775506Y-105508802D01*
X139770233Y-105506115D01*
X139652000Y-105487389D01*
X139533767Y-105506115D01*
X139495420Y-105525654D01*
X139468597Y-105539321D01*
X139427107Y-105560461D01*
X139342461Y-105645107D01*
X139288115Y-105751767D01*
X139269389Y-105870000D01*
X139270315Y-105875847D01*
X139271221Y-105881569D01*
X139288115Y-105988233D01*
X139342461Y-106094893D01*
X139427107Y-106179539D01*
X139432383Y-106182227D01*
X139432384Y-106182228D01*
X139476813Y-106204865D01*
X139533767Y-106233885D01*
X139652000Y-106252611D01*
X139770233Y-106233885D01*
X139773224Y-106232361D01*
X139785794Y-106230032D01*
X139791258Y-106230897D01*
X139798890Y-106228852D01*
X139798891Y-106228852D01*
X139799599Y-106228662D01*
X139819062Y-106226100D01*
X139855700Y-106226100D01*
X139904038Y-106243693D01*
X139929758Y-106288242D01*
X139930900Y-106301300D01*
X139930900Y-113363956D01*
X139913307Y-113412294D01*
X139908874Y-113417130D01*
X138502762Y-114823241D01*
X137107321Y-116218682D01*
X137104466Y-116221392D01*
X137074202Y-116248642D01*
X137064132Y-116271259D01*
X137058510Y-116281613D01*
X137045027Y-116302376D01*
X137043791Y-116310183D01*
X137043677Y-116310900D01*
X137038101Y-116329725D01*
X137034588Y-116337615D01*
X137034588Y-116362366D01*
X137033662Y-116374130D01*
X137029791Y-116398570D01*
X137031836Y-116406202D01*
X137031836Y-116406203D01*
X137032026Y-116406911D01*
X137034588Y-116426374D01*
X137034588Y-117192832D01*
X137016995Y-117241170D01*
X137012562Y-117246006D01*
X136954149Y-117304419D01*
X136899803Y-117411079D01*
X136881077Y-117529312D01*
X135339445Y-117529312D01*
X138012646Y-114856111D01*
X138059266Y-114834371D01*
X138065820Y-114834085D01*
X138068554Y-114834085D01*
X138074400Y-114835011D01*
X138192633Y-114816285D01*
X138299293Y-114761939D01*
X138383939Y-114677293D01*
X138389872Y-114665650D01*
X138425347Y-114596025D01*
X138438285Y-114570633D01*
X138457011Y-114452400D01*
X138438285Y-114334167D01*
X138397240Y-114253611D01*
X138386628Y-114232784D01*
X138386627Y-114232783D01*
X138383939Y-114227507D01*
X138299293Y-114142861D01*
X138288248Y-114137233D01*
X138213821Y-114099311D01*
X138192633Y-114088515D01*
X138074400Y-114069789D01*
X137956167Y-114088515D01*
X137934979Y-114099311D01*
X137860553Y-114137233D01*
X137849507Y-114142861D01*
X137764861Y-114227507D01*
X137762173Y-114232783D01*
X137762172Y-114232784D01*
X137751560Y-114253611D01*
X137710515Y-114334167D01*
X137691789Y-114452400D01*
X137692715Y-114458246D01*
X137692715Y-114460980D01*
X137675122Y-114509318D01*
X137670689Y-114514154D01*
X134999069Y-117185774D01*
X134952449Y-117207514D01*
X134945895Y-117207800D01*
X131032180Y-117207800D01*
X130983842Y-117190207D01*
X130979006Y-117185774D01*
X130933293Y-117140061D01*
X130926460Y-117136579D01*
X130883587Y-117114735D01*
X130826633Y-117085715D01*
X130708400Y-117066989D01*
X130590167Y-117085715D01*
X130584894Y-117088402D01*
X130584893Y-117088402D01*
X130490340Y-117136579D01*
X130439283Y-117142848D01*
X130396142Y-117114831D01*
X130381000Y-117069575D01*
X130381000Y-112955525D01*
X135521653Y-112955525D01*
X135559271Y-113087148D01*
X135632319Y-113202921D01*
X135734924Y-113293539D01*
X135739771Y-113295815D01*
X135739773Y-113295816D01*
X135746485Y-113298967D01*
X135858839Y-113351717D01*
X135904890Y-113358887D01*
X135959906Y-113367454D01*
X135959911Y-113367454D01*
X135962773Y-113367900D01*
X136034312Y-113367900D01*
X136072981Y-113362362D01*
X136130207Y-113354167D01*
X136130211Y-113354166D01*
X136135510Y-113353407D01*
X136140384Y-113351191D01*
X136140387Y-113351190D01*
X136213652Y-113317878D01*
X136260126Y-113296748D01*
X136311815Y-113252210D01*
X136359777Y-113210884D01*
X136359780Y-113210881D01*
X136363831Y-113207390D01*
X136425797Y-113111789D01*
X136435376Y-113097010D01*
X136435377Y-113097009D01*
X136438288Y-113092517D01*
X136463893Y-113006900D01*
X136475976Y-112966498D01*
X136475976Y-112966495D01*
X136477511Y-112961364D01*
X136477578Y-112950483D01*
X136477948Y-112889886D01*
X136478347Y-112824475D01*
X136440729Y-112692852D01*
X136367681Y-112577079D01*
X136265076Y-112486461D01*
X136260229Y-112484185D01*
X136260227Y-112484184D01*
X136207183Y-112459280D01*
X136141161Y-112428283D01*
X136095110Y-112421113D01*
X136040094Y-112412546D01*
X136040089Y-112412546D01*
X136037227Y-112412100D01*
X135965688Y-112412100D01*
X135927019Y-112417638D01*
X135869793Y-112425833D01*
X135869789Y-112425834D01*
X135864490Y-112426593D01*
X135859616Y-112428809D01*
X135859613Y-112428810D01*
X135786348Y-112462122D01*
X135739874Y-112483252D01*
X135693341Y-112523347D01*
X135640223Y-112569116D01*
X135640220Y-112569119D01*
X135636169Y-112572610D01*
X135561712Y-112687483D01*
X135558567Y-112698000D01*
X135527110Y-112803186D01*
X135522489Y-112818636D01*
X135522456Y-112823991D01*
X135522456Y-112823993D01*
X135522201Y-112865765D01*
X135521653Y-112955525D01*
X130381000Y-112955525D01*
X130381000Y-110642400D01*
X131494189Y-110642400D01*
X131512915Y-110760633D01*
X131567261Y-110867293D01*
X131651907Y-110951939D01*
X131657183Y-110954627D01*
X131657184Y-110954628D01*
X131688710Y-110970691D01*
X131758567Y-111006285D01*
X131876800Y-111025011D01*
X131995033Y-111006285D01*
X132064890Y-110970691D01*
X132096416Y-110954628D01*
X132096417Y-110954627D01*
X132101693Y-110951939D01*
X132186339Y-110867293D01*
X132240685Y-110760633D01*
X132259411Y-110642400D01*
X132240685Y-110524167D01*
X132186339Y-110417507D01*
X132140626Y-110371794D01*
X132118886Y-110325174D01*
X132118600Y-110318620D01*
X132118600Y-110113305D01*
X132136193Y-110064967D01*
X132140626Y-110060131D01*
X132141235Y-110059522D01*
X132187855Y-110037782D01*
X132213492Y-110039958D01*
X132341954Y-110073660D01*
X132341961Y-110073661D01*
X132346341Y-110074810D01*
X132405862Y-110075745D01*
X132499816Y-110077221D01*
X132499818Y-110077221D01*
X132504348Y-110077292D01*
X132508766Y-110076280D01*
X132508768Y-110076280D01*
X132653964Y-110043026D01*
X132653966Y-110043025D01*
X132658386Y-110042013D01*
X132799563Y-109971008D01*
X132840977Y-109935637D01*
X132916278Y-109871324D01*
X132916279Y-109871323D01*
X132919727Y-109868378D01*
X133011943Y-109740047D01*
X133022853Y-109712909D01*
X133069194Y-109597630D01*
X133070885Y-109593424D01*
X133093151Y-109436974D01*
X133093295Y-109423200D01*
X133081203Y-109323277D01*
X133074855Y-109270820D01*
X133074855Y-109270818D01*
X133074310Y-109266318D01*
X133072707Y-109262075D01*
X133020056Y-109122737D01*
X133020055Y-109122735D01*
X133018452Y-109118493D01*
X132983852Y-109068149D01*
X132931512Y-108991994D01*
X132931511Y-108991992D01*
X132928944Y-108988258D01*
X132810955Y-108883134D01*
X132671297Y-108809189D01*
X132595038Y-108790034D01*
X132522432Y-108771796D01*
X132522428Y-108771796D01*
X132518031Y-108770691D01*
X132513497Y-108770667D01*
X132513495Y-108770667D01*
X132437499Y-108770270D01*
X132360006Y-108769864D01*
X132206346Y-108806754D01*
X132202322Y-108808831D01*
X132202319Y-108808832D01*
X132127197Y-108847606D01*
X132065921Y-108879233D01*
X131946837Y-108983116D01*
X131855971Y-109112406D01*
X131798568Y-109259638D01*
X131797977Y-109264129D01*
X131797976Y-109264132D01*
X131797096Y-109270820D01*
X131777941Y-109416313D01*
X131778438Y-109420815D01*
X131778438Y-109420819D01*
X131785540Y-109485142D01*
X131795282Y-109573385D01*
X131796838Y-109577638D01*
X131796839Y-109577641D01*
X131818484Y-109636788D01*
X131818574Y-109688228D01*
X131801038Y-109715805D01*
X131711701Y-109805142D01*
X131708846Y-109807852D01*
X131676809Y-109836698D01*
X131673594Y-109843920D01*
X131666051Y-109860861D01*
X131660420Y-109871231D01*
X131650324Y-109886778D01*
X131650323Y-109886780D01*
X131646017Y-109893411D01*
X131644780Y-109901219D01*
X131644780Y-109901220D01*
X131644506Y-109902952D01*
X131638930Y-109921776D01*
X131635000Y-109930604D01*
X131635000Y-109957054D01*
X131634074Y-109968817D01*
X131629937Y-109994938D01*
X131631982Y-110002570D01*
X131631982Y-110002571D01*
X131632438Y-110004272D01*
X131635000Y-110023735D01*
X131635000Y-110318620D01*
X131617407Y-110366958D01*
X131612974Y-110371794D01*
X131567261Y-110417507D01*
X131512915Y-110524167D01*
X131494189Y-110642400D01*
X130381000Y-110642400D01*
X130381000Y-107175525D01*
X135521653Y-107175525D01*
X135559271Y-107307148D01*
X135632319Y-107422921D01*
X135734924Y-107513539D01*
X135739771Y-107515815D01*
X135739773Y-107515816D01*
X135792817Y-107540720D01*
X135858839Y-107571717D01*
X135904890Y-107578887D01*
X135959906Y-107587454D01*
X135959911Y-107587454D01*
X135962773Y-107587900D01*
X136034312Y-107587900D01*
X136072981Y-107582362D01*
X136130207Y-107574167D01*
X136130211Y-107574166D01*
X136135510Y-107573407D01*
X136140384Y-107571191D01*
X136140387Y-107571190D01*
X136246520Y-107522934D01*
X136260126Y-107516748D01*
X136307486Y-107475940D01*
X136359777Y-107430884D01*
X136359780Y-107430881D01*
X136363831Y-107427390D01*
X136423752Y-107334943D01*
X136435376Y-107317010D01*
X136435377Y-107317009D01*
X136438288Y-107312517D01*
X136458204Y-107245923D01*
X136475976Y-107186498D01*
X136475976Y-107186495D01*
X136477511Y-107181364D01*
X136477580Y-107170171D01*
X136478179Y-107072025D01*
X136478347Y-107044475D01*
X136440729Y-106912852D01*
X136367681Y-106797079D01*
X136265076Y-106706461D01*
X136260229Y-106704185D01*
X136260227Y-106704184D01*
X136207183Y-106679280D01*
X136141161Y-106648283D01*
X136095110Y-106641113D01*
X136040094Y-106632546D01*
X136040089Y-106632546D01*
X136037227Y-106632100D01*
X135965688Y-106632100D01*
X135927019Y-106637638D01*
X135869793Y-106645833D01*
X135869789Y-106645834D01*
X135864490Y-106646593D01*
X135859616Y-106648809D01*
X135859613Y-106648810D01*
X135786348Y-106682122D01*
X135739874Y-106703252D01*
X135727207Y-106714167D01*
X135640223Y-106789116D01*
X135640220Y-106789119D01*
X135636169Y-106792610D01*
X135633258Y-106797101D01*
X135575344Y-106886452D01*
X135561712Y-106907483D01*
X135558567Y-106918000D01*
X135527698Y-107021219D01*
X135522489Y-107038636D01*
X135522456Y-107043991D01*
X135522456Y-107043993D01*
X135522185Y-107088354D01*
X135521653Y-107175525D01*
X130381000Y-107175525D01*
X130381000Y-97877943D01*
X135474100Y-97877943D01*
X135474101Y-99608056D01*
X135482972Y-99652658D01*
X135516766Y-99703234D01*
X135522923Y-99707348D01*
X135561183Y-99732913D01*
X135561184Y-99732914D01*
X135567342Y-99737028D01*
X135611943Y-99745900D01*
X136476882Y-99745900D01*
X137342056Y-99745899D01*
X137386658Y-99737028D01*
X137437234Y-99703234D01*
X137461577Y-99666802D01*
X137466913Y-99658817D01*
X137466914Y-99658816D01*
X137471028Y-99652658D01*
X137479900Y-99608057D01*
X137479899Y-97877944D01*
X137471028Y-97833342D01*
X137437234Y-97782766D01*
X137392818Y-97753088D01*
X137392816Y-97753086D01*
X137386658Y-97748972D01*
X137342057Y-97740100D01*
X136477118Y-97740100D01*
X135611944Y-97740101D01*
X135567342Y-97748972D01*
X135516766Y-97782766D01*
X135482972Y-97833342D01*
X135474100Y-97877943D01*
X130381000Y-97877943D01*
X130381000Y-97068953D01*
X130596630Y-97068953D01*
X130636215Y-97207461D01*
X130639071Y-97211987D01*
X130639072Y-97211990D01*
X130688002Y-97289539D01*
X130713084Y-97329291D01*
X130717097Y-97332835D01*
X130817041Y-97421103D01*
X130817044Y-97421105D01*
X130821057Y-97424649D01*
X130951454Y-97485871D01*
X130956744Y-97486695D01*
X130956745Y-97486695D01*
X130987089Y-97491419D01*
X131060825Y-97502900D01*
X131136107Y-97502900D01*
X131176743Y-97497080D01*
X131237296Y-97488409D01*
X131237300Y-97488408D01*
X131242599Y-97487649D01*
X131247473Y-97485433D01*
X131247476Y-97485432D01*
X131324872Y-97450242D01*
X131373734Y-97428026D01*
X131377794Y-97424528D01*
X131478810Y-97337487D01*
X131478813Y-97337484D01*
X131482864Y-97333993D01*
X131488847Y-97324763D01*
X131558303Y-97217604D01*
X131558303Y-97217603D01*
X131561215Y-97213111D01*
X131602490Y-97075098D01*
X131602528Y-97068953D01*
X132396630Y-97068953D01*
X132436215Y-97207461D01*
X132439071Y-97211987D01*
X132439072Y-97211990D01*
X132488002Y-97289539D01*
X132513084Y-97329291D01*
X132517097Y-97332835D01*
X132617041Y-97421103D01*
X132617044Y-97421105D01*
X132621057Y-97424649D01*
X132751454Y-97485871D01*
X132756744Y-97486695D01*
X132756745Y-97486695D01*
X132787089Y-97491419D01*
X132860825Y-97502900D01*
X132936107Y-97502900D01*
X132976743Y-97497080D01*
X133037296Y-97488409D01*
X133037300Y-97488408D01*
X133042599Y-97487649D01*
X133047473Y-97485433D01*
X133047476Y-97485432D01*
X133124872Y-97450242D01*
X133173734Y-97428026D01*
X133177794Y-97424528D01*
X133278810Y-97337487D01*
X133278813Y-97337484D01*
X133282864Y-97333993D01*
X133288847Y-97324763D01*
X133358303Y-97217604D01*
X133358303Y-97217603D01*
X133361215Y-97213111D01*
X133402490Y-97075098D01*
X133402561Y-97063598D01*
X133403337Y-96936402D01*
X133403370Y-96931047D01*
X133363785Y-96792539D01*
X133360929Y-96788013D01*
X133360928Y-96788010D01*
X133289773Y-96675237D01*
X133286916Y-96670709D01*
X133267693Y-96653732D01*
X133182959Y-96578897D01*
X133182956Y-96578895D01*
X133178943Y-96575351D01*
X133048546Y-96514129D01*
X133043256Y-96513305D01*
X133043255Y-96513305D01*
X133012911Y-96508581D01*
X132939175Y-96497100D01*
X132863893Y-96497100D01*
X132823257Y-96502920D01*
X132762704Y-96511591D01*
X132762700Y-96511592D01*
X132757401Y-96512351D01*
X132752527Y-96514567D01*
X132752524Y-96514568D01*
X132675128Y-96549758D01*
X132626266Y-96571974D01*
X132622208Y-96575471D01*
X132622206Y-96575472D01*
X132521190Y-96662513D01*
X132521187Y-96662516D01*
X132517136Y-96666007D01*
X132514225Y-96670498D01*
X132455965Y-96760384D01*
X132438785Y-96786889D01*
X132435555Y-96797690D01*
X132403336Y-96905423D01*
X132397510Y-96924902D01*
X132397477Y-96930257D01*
X132397477Y-96930259D01*
X132397347Y-96951550D01*
X132396630Y-97068953D01*
X131602528Y-97068953D01*
X131602561Y-97063598D01*
X131603337Y-96936402D01*
X131603370Y-96931047D01*
X131563785Y-96792539D01*
X131560929Y-96788013D01*
X131560928Y-96788010D01*
X131489773Y-96675237D01*
X131486916Y-96670709D01*
X131467693Y-96653732D01*
X131382959Y-96578897D01*
X131382956Y-96578895D01*
X131378943Y-96575351D01*
X131248546Y-96514129D01*
X131243256Y-96513305D01*
X131243255Y-96513305D01*
X131212911Y-96508581D01*
X131139175Y-96497100D01*
X131063893Y-96497100D01*
X131023257Y-96502920D01*
X130962704Y-96511591D01*
X130962700Y-96511592D01*
X130957401Y-96512351D01*
X130952527Y-96514567D01*
X130952524Y-96514568D01*
X130875128Y-96549758D01*
X130826266Y-96571974D01*
X130822208Y-96575471D01*
X130822206Y-96575472D01*
X130721190Y-96662513D01*
X130721187Y-96662516D01*
X130717136Y-96666007D01*
X130714225Y-96670498D01*
X130655965Y-96760384D01*
X130638785Y-96786889D01*
X130635555Y-96797690D01*
X130603336Y-96905423D01*
X130597510Y-96924902D01*
X130597477Y-96930257D01*
X130597477Y-96930259D01*
X130597347Y-96951550D01*
X130596630Y-97068953D01*
X130381000Y-97068953D01*
X130381000Y-96188930D01*
X135469345Y-96188930D01*
X135469653Y-96192598D01*
X135469653Y-96192601D01*
X135480358Y-96320083D01*
X135485803Y-96384919D01*
X135540015Y-96573979D01*
X135541697Y-96577251D01*
X135541697Y-96577252D01*
X135552046Y-96597389D01*
X135629916Y-96748908D01*
X135752083Y-96903044D01*
X135754877Y-96905422D01*
X135754878Y-96905423D01*
X135789691Y-96935051D01*
X135901862Y-97030516D01*
X135905063Y-97032305D01*
X135905066Y-97032307D01*
X135970637Y-97068953D01*
X136073547Y-97126467D01*
X136077044Y-97127603D01*
X136077048Y-97127605D01*
X136169615Y-97157681D01*
X136260600Y-97187244D01*
X136364353Y-97199616D01*
X136452237Y-97210096D01*
X136452239Y-97210096D01*
X136455895Y-97210532D01*
X136651994Y-97195443D01*
X136766061Y-97163595D01*
X136837883Y-97143542D01*
X136837885Y-97143541D01*
X136841428Y-97142552D01*
X136976932Y-97074104D01*
X137013697Y-97055533D01*
X137013698Y-97055532D01*
X137016981Y-97053874D01*
X137171966Y-96932786D01*
X137300480Y-96783901D01*
X137366451Y-96667772D01*
X137395810Y-96616091D01*
X137395812Y-96616088D01*
X137397628Y-96612890D01*
X137436020Y-96497481D01*
X137458548Y-96429760D01*
X137458549Y-96429757D01*
X137459710Y-96426266D01*
X137484360Y-96231138D01*
X137484753Y-96203000D01*
X137484548Y-96200907D01*
X137465921Y-96010927D01*
X137465920Y-96010922D01*
X137465561Y-96007260D01*
X137408714Y-95818975D01*
X137316379Y-95645318D01*
X137192072Y-95492903D01*
X137040528Y-95367535D01*
X136867520Y-95273990D01*
X136679637Y-95215830D01*
X136556766Y-95202916D01*
X136487690Y-95195656D01*
X136487689Y-95195656D01*
X136484035Y-95195272D01*
X136386100Y-95204185D01*
X136291824Y-95212764D01*
X136291823Y-95212764D01*
X136288166Y-95213097D01*
X136284641Y-95214134D01*
X136284638Y-95214135D01*
X136109186Y-95265774D01*
X136099489Y-95268628D01*
X135925192Y-95359748D01*
X135922328Y-95362051D01*
X135801133Y-95459494D01*
X135771912Y-95482988D01*
X135645489Y-95633653D01*
X135550739Y-95806004D01*
X135491269Y-95993476D01*
X135469345Y-96188930D01*
X130381000Y-96188930D01*
X130381000Y-93797918D01*
X135482359Y-93797918D01*
X135485990Y-93841161D01*
X135487312Y-93848363D01*
X135539470Y-94030261D01*
X135542164Y-94037063D01*
X135628657Y-94205363D01*
X135632623Y-94211518D01*
X135750164Y-94359817D01*
X135755240Y-94365074D01*
X135899355Y-94487725D01*
X135905353Y-94491894D01*
X136070537Y-94584211D01*
X136077250Y-94587144D01*
X136257210Y-94645616D01*
X136264358Y-94647188D01*
X136336833Y-94655830D01*
X136347357Y-94653361D01*
X136350000Y-94649829D01*
X136350000Y-94645375D01*
X136604000Y-94645375D01*
X136607697Y-94655532D01*
X136612003Y-94658018D01*
X136648239Y-94655230D01*
X136655447Y-94653959D01*
X136837701Y-94603073D01*
X136844534Y-94600422D01*
X137013428Y-94515108D01*
X137019611Y-94511184D01*
X137168720Y-94394687D01*
X137174023Y-94389637D01*
X137297664Y-94246397D01*
X137301886Y-94240412D01*
X137395354Y-94075880D01*
X137398328Y-94069200D01*
X137458059Y-93889641D01*
X137459680Y-93882507D01*
X137469704Y-93803154D01*
X137467310Y-93792615D01*
X137463865Y-93790000D01*
X136617259Y-93790000D01*
X136607102Y-93793697D01*
X136604000Y-93799069D01*
X136604000Y-94645375D01*
X136350000Y-94645375D01*
X136350000Y-93803259D01*
X136346303Y-93793102D01*
X136340931Y-93790000D01*
X135494953Y-93790000D01*
X135484796Y-93793697D01*
X135482359Y-93797918D01*
X130381000Y-93797918D01*
X130381000Y-93522821D01*
X135483994Y-93522821D01*
X135486537Y-93533330D01*
X135490158Y-93536000D01*
X136336741Y-93536000D01*
X136346898Y-93532303D01*
X136350000Y-93526931D01*
X136350000Y-93522741D01*
X136604000Y-93522741D01*
X136607697Y-93532898D01*
X136613069Y-93536000D01*
X137458539Y-93536000D01*
X137468696Y-93532303D01*
X137471038Y-93528247D01*
X137465426Y-93471015D01*
X137464004Y-93463836D01*
X137409312Y-93282688D01*
X137406524Y-93275922D01*
X137317684Y-93108839D01*
X137313639Y-93102751D01*
X137194041Y-92956109D01*
X137188878Y-92950910D01*
X137043078Y-92830294D01*
X137037016Y-92826205D01*
X136870557Y-92736201D01*
X136863813Y-92733366D01*
X136683047Y-92677410D01*
X136675880Y-92675939D01*
X136617186Y-92669770D01*
X136606700Y-92672384D01*
X136604000Y-92676100D01*
X136604000Y-93522741D01*
X136350000Y-93522741D01*
X136350000Y-92681231D01*
X136346303Y-92671074D01*
X136342166Y-92668685D01*
X136291927Y-92673257D01*
X136284728Y-92674631D01*
X136103208Y-92728055D01*
X136096421Y-92730797D01*
X135928721Y-92818468D01*
X135922603Y-92822472D01*
X135775128Y-92941044D01*
X135769903Y-92946161D01*
X135648266Y-93091122D01*
X135644132Y-93097160D01*
X135552975Y-93262975D01*
X135550088Y-93269711D01*
X135492874Y-93450074D01*
X135491351Y-93457239D01*
X135483994Y-93522821D01*
X130381000Y-93522821D01*
X130381000Y-91035901D01*
X130381926Y-91024137D01*
X130384823Y-91005846D01*
X130385749Y-91000000D01*
X130384568Y-90992543D01*
X130384114Y-90972360D01*
X130395571Y-90870676D01*
X130399317Y-90854262D01*
X130424393Y-90782602D01*
X130439501Y-90739425D01*
X130446807Y-90724253D01*
X130511540Y-90621231D01*
X130522040Y-90608066D01*
X130608066Y-90522040D01*
X130621231Y-90511540D01*
X130680357Y-90474389D01*
X130724254Y-90446807D01*
X130739425Y-90439501D01*
X130835504Y-90405881D01*
X130854265Y-90399316D01*
X130870676Y-90395571D01*
X130972360Y-90384114D01*
X130992543Y-90384568D01*
X131000000Y-90385749D01*
X131024138Y-90381926D01*
X131035901Y-90381000D01*
X138675742Y-90381000D01*
X138724080Y-90398593D01*
G37*
G04 #@! TD.AperFunction*
G04 #@! TA.AperFunction,Conductor*
G36*
X167216200Y-123637238D02*
G01*
X167240071Y-123664698D01*
X167282461Y-123747893D01*
X167367107Y-123832539D01*
X167372383Y-123835227D01*
X167372384Y-123835228D01*
X167401419Y-123850022D01*
X167473767Y-123886885D01*
X167592000Y-123905611D01*
X167710233Y-123886885D01*
X167715508Y-123884197D01*
X167715509Y-123884197D01*
X167734350Y-123874597D01*
X167768491Y-123866400D01*
X169044754Y-123866400D01*
X169078893Y-123874596D01*
X169147367Y-123909485D01*
X169265600Y-123928211D01*
X169383833Y-123909485D01*
X169452305Y-123874597D01*
X169485216Y-123857828D01*
X169485217Y-123857827D01*
X169490493Y-123855139D01*
X169494682Y-123850950D01*
X169499463Y-123847476D01*
X169501313Y-123850022D01*
X169537246Y-123833266D01*
X169586933Y-123846580D01*
X169616438Y-123888717D01*
X169619000Y-123908180D01*
X169619000Y-128964099D01*
X169618074Y-128975862D01*
X169614251Y-129000000D01*
X169615177Y-129005847D01*
X169615432Y-129007456D01*
X169615886Y-129027640D01*
X169606864Y-129107717D01*
X169604430Y-129129321D01*
X169600684Y-129145735D01*
X169563634Y-129251616D01*
X169560499Y-129260575D01*
X169553193Y-129275746D01*
X169510164Y-129344228D01*
X169488460Y-129378769D01*
X169477960Y-129391934D01*
X169391934Y-129477960D01*
X169378769Y-129488460D01*
X169275747Y-129553193D01*
X169260575Y-129560499D01*
X169145735Y-129600684D01*
X169129324Y-129604429D01*
X169027640Y-129615886D01*
X169007457Y-129615432D01*
X169000000Y-129614251D01*
X168975863Y-129618074D01*
X168964099Y-129619000D01*
X165503055Y-129619000D01*
X165454717Y-129601407D01*
X165428997Y-129556858D01*
X165436051Y-129509660D01*
X165461198Y-129460306D01*
X165463885Y-129455033D01*
X165482611Y-129336800D01*
X165463885Y-129218567D01*
X165409539Y-129111907D01*
X165363826Y-129066194D01*
X165342086Y-129019574D01*
X165341800Y-129013020D01*
X165341800Y-125454905D01*
X165359393Y-125406567D01*
X165363826Y-125401731D01*
X167119893Y-123645664D01*
X167166513Y-123623924D01*
X167216200Y-123637238D01*
G37*
G04 #@! TD.AperFunction*
G04 #@! TA.AperFunction,Conductor*
G36*
X169606869Y-104656485D02*
G01*
X169619000Y-104697441D01*
X169619000Y-123183020D01*
X169601407Y-123231358D01*
X169556858Y-123257078D01*
X169506200Y-123248145D01*
X169499812Y-123243243D01*
X169499463Y-123243724D01*
X169494682Y-123240250D01*
X169490493Y-123236061D01*
X169383833Y-123181715D01*
X169265600Y-123162989D01*
X169259753Y-123163915D01*
X169166568Y-123178674D01*
X169154804Y-123179600D01*
X167768491Y-123179600D01*
X167734350Y-123171403D01*
X167715509Y-123161803D01*
X167715508Y-123161803D01*
X167710233Y-123159115D01*
X167592000Y-123140389D01*
X167562363Y-123145083D01*
X167511869Y-123135268D01*
X167479497Y-123095292D01*
X167475400Y-123070809D01*
X167475400Y-121742450D01*
X167492993Y-121694112D01*
X167537542Y-121668392D01*
X167573836Y-121670930D01*
X167575896Y-121671599D01*
X167581167Y-121674285D01*
X167587010Y-121675211D01*
X167587012Y-121675211D01*
X167693553Y-121692085D01*
X167699400Y-121693011D01*
X167817633Y-121674285D01*
X167882811Y-121641075D01*
X167919016Y-121622628D01*
X167919017Y-121622627D01*
X167924293Y-121619939D01*
X168008939Y-121535293D01*
X168063285Y-121428633D01*
X168082011Y-121310400D01*
X168081085Y-121304554D01*
X168081085Y-121301820D01*
X168098678Y-121253482D01*
X168103111Y-121248646D01*
X168821099Y-120530658D01*
X168823955Y-120527947D01*
X168850116Y-120504392D01*
X168850116Y-120504391D01*
X168855991Y-120499102D01*
X168866749Y-120474939D01*
X168872380Y-120464569D01*
X168882476Y-120449022D01*
X168882477Y-120449020D01*
X168886783Y-120442389D01*
X168888294Y-120432847D01*
X168893870Y-120414024D01*
X168894585Y-120412418D01*
X168894585Y-120412416D01*
X168897800Y-120405196D01*
X168897800Y-120378746D01*
X168898726Y-120366982D01*
X168901627Y-120348669D01*
X168901627Y-120348667D01*
X168902863Y-120340862D01*
X168900362Y-120331528D01*
X168897800Y-120312065D01*
X168897800Y-115252589D01*
X168915393Y-115204251D01*
X168959942Y-115178531D01*
X168984764Y-115178315D01*
X169056553Y-115189685D01*
X169062400Y-115190611D01*
X169180633Y-115171885D01*
X169264376Y-115129216D01*
X169282016Y-115120228D01*
X169282017Y-115120227D01*
X169287293Y-115117539D01*
X169371939Y-115032893D01*
X169377497Y-115021986D01*
X169414794Y-114948785D01*
X169426285Y-114926233D01*
X169437392Y-114856107D01*
X169444085Y-114813847D01*
X169445011Y-114808000D01*
X169441542Y-114786094D01*
X169427211Y-114695614D01*
X169426285Y-114689767D01*
X169420898Y-114679193D01*
X169413997Y-114665650D01*
X169405800Y-114631509D01*
X169405800Y-104768580D01*
X169423393Y-104720242D01*
X169427826Y-104715406D01*
X169473539Y-104669693D01*
X169476228Y-104664416D01*
X169476230Y-104664413D01*
X169476797Y-104663300D01*
X169477546Y-104662601D01*
X169479706Y-104659629D01*
X169480284Y-104660049D01*
X169514418Y-104628219D01*
X169565787Y-104625527D01*
X169606869Y-104656485D01*
G37*
G04 #@! TD.AperFunction*
G04 #@! TA.AperFunction,Conductor*
G36*
X167809582Y-115283893D02*
G01*
X167847203Y-115318974D01*
X167855400Y-115353115D01*
X167855400Y-115798252D01*
X167837807Y-115846590D01*
X167833374Y-115851426D01*
X167068501Y-116616299D01*
X167065646Y-116619009D01*
X167033609Y-116647855D01*
X167026896Y-116662933D01*
X167022851Y-116672018D01*
X167017220Y-116682388D01*
X167007124Y-116697935D01*
X167007123Y-116697937D01*
X167002817Y-116704568D01*
X167002655Y-116705591D01*
X166971648Y-116741262D01*
X166920842Y-116749310D01*
X166876749Y-116722817D01*
X166859989Y-116675491D01*
X166859989Y-116222359D01*
X166877582Y-116174021D01*
X166882015Y-116169185D01*
X167652699Y-115398501D01*
X167655555Y-115395790D01*
X167681716Y-115372235D01*
X167681716Y-115372234D01*
X167687591Y-115366945D01*
X167698349Y-115342782D01*
X167703979Y-115332412D01*
X167710040Y-115323079D01*
X167717132Y-115312158D01*
X167758213Y-115281201D01*
X167809582Y-115283893D01*
G37*
G04 #@! TD.AperFunction*
G04 #@! TA.AperFunction,Conductor*
G36*
X164452063Y-108128262D02*
G01*
X164775876Y-108452075D01*
X164797616Y-108498695D01*
X164789706Y-108539389D01*
X164736115Y-108644567D01*
X164717389Y-108762800D01*
X164736115Y-108881033D01*
X164790461Y-108987693D01*
X164875107Y-109072339D01*
X164880383Y-109075027D01*
X164880384Y-109075028D01*
X164906328Y-109088247D01*
X164981767Y-109126685D01*
X165100000Y-109145411D01*
X165218233Y-109126685D01*
X165293672Y-109088247D01*
X165344727Y-109081978D01*
X165387868Y-109109994D01*
X165403011Y-109155251D01*
X165403011Y-112231149D01*
X165385418Y-112279487D01*
X165340869Y-112305207D01*
X165293672Y-112298153D01*
X165218233Y-112259715D01*
X165159117Y-112250352D01*
X165105847Y-112241915D01*
X165100000Y-112240989D01*
X165094153Y-112241915D01*
X165040883Y-112250352D01*
X164981767Y-112259715D01*
X164875107Y-112314061D01*
X164839294Y-112349874D01*
X164792674Y-112371614D01*
X164786120Y-112371900D01*
X153976644Y-112371900D01*
X153928306Y-112354307D01*
X153923470Y-112349874D01*
X153337951Y-111764355D01*
X152789234Y-111215637D01*
X152767495Y-111169019D01*
X152780809Y-111119332D01*
X152789235Y-111109291D01*
X152901100Y-110997426D01*
X152947720Y-110975686D01*
X152954274Y-110975400D01*
X158607726Y-110975400D01*
X158656064Y-110992993D01*
X158660900Y-110997426D01*
X159715211Y-112051737D01*
X159715554Y-112052065D01*
X159719541Y-112055882D01*
X159719994Y-112056316D01*
X159724830Y-112060749D01*
X159727986Y-112062665D01*
X159727988Y-112062666D01*
X159751798Y-112077117D01*
X159775688Y-112091617D01*
X159824026Y-112109210D01*
X159827256Y-112109780D01*
X159827258Y-112109780D01*
X159872918Y-112117831D01*
X159872924Y-112117831D01*
X159876148Y-112118400D01*
X163579800Y-112118400D01*
X163580571Y-112118366D01*
X163580589Y-112118366D01*
X163590700Y-112117925D01*
X163593078Y-112117821D01*
X163606136Y-112116679D01*
X163610052Y-112115444D01*
X163610054Y-112115444D01*
X163665144Y-112098075D01*
X163665146Y-112098074D01*
X163669057Y-112096841D01*
X163672609Y-112094790D01*
X163672612Y-112094789D01*
X163712189Y-112071939D01*
X163713606Y-112071121D01*
X163725885Y-112062523D01*
X163729981Y-112059655D01*
X163729982Y-112059654D01*
X163735369Y-112055882D01*
X163739141Y-112050495D01*
X163739143Y-112050493D01*
X163765223Y-112013246D01*
X163780617Y-111991260D01*
X163798210Y-111942922D01*
X163798780Y-111939690D01*
X163806831Y-111894030D01*
X163806831Y-111894024D01*
X163807400Y-111890800D01*
X163807400Y-108443742D01*
X163824993Y-108395404D01*
X163869542Y-108369684D01*
X163894363Y-108369468D01*
X163976552Y-108382485D01*
X163976553Y-108382485D01*
X163982400Y-108383411D01*
X163998299Y-108380893D01*
X164065907Y-108370185D01*
X164100633Y-108364685D01*
X164181336Y-108323565D01*
X164202016Y-108313028D01*
X164202017Y-108313027D01*
X164207293Y-108310339D01*
X164291939Y-108225693D01*
X164294626Y-108220420D01*
X164294630Y-108220414D01*
X164331886Y-108147295D01*
X164369507Y-108112214D01*
X164420876Y-108109522D01*
X164452063Y-108128262D01*
G37*
G04 #@! TD.AperFunction*
G04 #@! TA.AperFunction,Conductor*
G36*
X156220400Y-100481137D02*
G01*
X156235974Y-100493088D01*
X156500596Y-100757710D01*
X156503307Y-100760566D01*
X156526516Y-100786342D01*
X156532152Y-100792602D01*
X156542318Y-100797128D01*
X156556315Y-100803360D01*
X156566685Y-100808991D01*
X156582232Y-100819087D01*
X156582234Y-100819088D01*
X156588865Y-100823394D01*
X156596673Y-100824631D01*
X156596674Y-100824631D01*
X156598406Y-100824905D01*
X156617230Y-100830481D01*
X156618836Y-100831196D01*
X156618838Y-100831196D01*
X156626058Y-100834411D01*
X156652508Y-100834411D01*
X156664272Y-100835337D01*
X156682585Y-100838238D01*
X156682587Y-100838238D01*
X156690392Y-100839474D01*
X156698024Y-100837429D01*
X156698025Y-100837429D01*
X156699726Y-100836973D01*
X156719189Y-100834411D01*
X157158279Y-100834411D01*
X157162216Y-100834514D01*
X157205260Y-100836770D01*
X157219781Y-100831196D01*
X157229949Y-100827293D01*
X157241262Y-100823942D01*
X157259399Y-100820086D01*
X157259402Y-100820085D01*
X157267135Y-100818441D01*
X157273531Y-100813794D01*
X157273533Y-100813793D01*
X157274952Y-100812762D01*
X157292202Y-100803396D01*
X157293845Y-100802765D01*
X157293846Y-100802765D01*
X157301225Y-100799932D01*
X157319927Y-100781230D01*
X157328900Y-100773566D01*
X157342869Y-100763417D01*
X157350296Y-100758021D01*
X157354249Y-100751175D01*
X157356134Y-100749081D01*
X157401552Y-100724932D01*
X157412018Y-100724200D01*
X159759421Y-100724200D01*
X159807759Y-100741793D01*
X159833479Y-100786342D01*
X159824546Y-100837000D01*
X159793561Y-100866404D01*
X159758907Y-100884061D01*
X159674261Y-100968707D01*
X159619915Y-101075367D01*
X159601189Y-101193600D01*
X159602115Y-101199447D01*
X159602115Y-101199448D01*
X159604664Y-101215543D01*
X159594849Y-101266038D01*
X159554872Y-101298409D01*
X159542156Y-101301579D01*
X159469138Y-101313144D01*
X159420868Y-101337739D01*
X159385115Y-101355956D01*
X159362478Y-101367490D01*
X159311174Y-101418794D01*
X159264554Y-101440534D01*
X159214867Y-101427220D01*
X159204826Y-101418794D01*
X159127293Y-101341261D01*
X159020633Y-101286915D01*
X158957229Y-101276873D01*
X158908247Y-101269115D01*
X158902400Y-101268189D01*
X158896553Y-101269115D01*
X158847571Y-101276873D01*
X158784167Y-101286915D01*
X158677507Y-101341261D01*
X158592861Y-101425907D01*
X158538515Y-101532567D01*
X158519789Y-101650800D01*
X158538515Y-101769033D01*
X158555103Y-101801588D01*
X158583213Y-101856757D01*
X158592861Y-101875693D01*
X158677507Y-101960339D01*
X158680933Y-101962085D01*
X158709166Y-102003943D01*
X158711400Y-102022135D01*
X158711400Y-103930133D01*
X158711297Y-103934069D01*
X158709041Y-103977114D01*
X158711874Y-103984494D01*
X158718518Y-104001803D01*
X158721869Y-104013116D01*
X158725725Y-104031253D01*
X158725726Y-104031256D01*
X158727370Y-104038989D01*
X158732017Y-104045385D01*
X158732018Y-104045387D01*
X158733049Y-104046806D01*
X158742415Y-104064056D01*
X158742875Y-104065254D01*
X158745879Y-104073079D01*
X158764581Y-104091781D01*
X158772245Y-104100754D01*
X158787790Y-104122150D01*
X158796163Y-104126984D01*
X158811733Y-104138933D01*
X158930261Y-104257461D01*
X158952001Y-104304081D01*
X158951361Y-104322396D01*
X158932644Y-104440573D01*
X158951370Y-104558806D01*
X159005716Y-104665466D01*
X159090362Y-104750112D01*
X159095638Y-104752800D01*
X159095639Y-104752801D01*
X159152543Y-104781795D01*
X159187625Y-104819416D01*
X159190317Y-104870786D01*
X159159360Y-104911867D01*
X159130167Y-104923072D01*
X159043014Y-104936876D01*
X159005318Y-104956083D01*
X158942933Y-104987870D01*
X158936354Y-104991222D01*
X158851708Y-105075868D01*
X158849020Y-105081144D01*
X158849019Y-105081145D01*
X158832643Y-105113286D01*
X158797362Y-105182528D01*
X158778636Y-105300761D01*
X158797362Y-105418994D01*
X158810532Y-105444841D01*
X158845567Y-105513601D01*
X158851708Y-105525654D01*
X158936354Y-105610300D01*
X158941630Y-105612988D01*
X158941631Y-105612989D01*
X159025221Y-105655580D01*
X159044255Y-105669410D01*
X159167146Y-105792301D01*
X159171579Y-105797138D01*
X159198748Y-105829517D01*
X159204445Y-105832806D01*
X159204446Y-105832807D01*
X159235351Y-105850650D01*
X159240883Y-105854174D01*
X159270131Y-105874653D01*
X159270133Y-105874654D01*
X159275520Y-105878426D01*
X159281871Y-105880128D01*
X159284962Y-105881569D01*
X159294743Y-105885620D01*
X159297930Y-105886780D01*
X159303625Y-105890068D01*
X159319451Y-105892859D01*
X159345260Y-105897410D01*
X159351662Y-105898829D01*
X159378749Y-105906086D01*
X159392495Y-105909769D01*
X159399047Y-105909196D01*
X159399049Y-105909196D01*
X159434594Y-105906086D01*
X159441148Y-105905800D01*
X165327811Y-105905800D01*
X165376149Y-105923393D01*
X165401869Y-105967942D01*
X165403011Y-105981000D01*
X165403011Y-108248052D01*
X165385418Y-108296390D01*
X165340869Y-108322110D01*
X165290211Y-108313177D01*
X165266973Y-108292254D01*
X165261367Y-108284538D01*
X165256722Y-108278145D01*
X165249243Y-108273827D01*
X165233669Y-108261876D01*
X164137316Y-107165522D01*
X164134606Y-107162667D01*
X164112644Y-107138276D01*
X164107356Y-107132403D01*
X164084739Y-107122333D01*
X164074383Y-107116710D01*
X164072132Y-107115248D01*
X164053622Y-107103228D01*
X164052539Y-107103057D01*
X164016839Y-107072025D01*
X164008790Y-107021219D01*
X164015605Y-107001425D01*
X164041485Y-106950633D01*
X164060211Y-106832400D01*
X164041485Y-106714167D01*
X163987139Y-106607507D01*
X163902493Y-106522861D01*
X163795833Y-106468515D01*
X163723596Y-106457074D01*
X163683447Y-106450715D01*
X163677600Y-106449789D01*
X163671753Y-106450715D01*
X163647797Y-106454509D01*
X163595079Y-106443305D01*
X163583736Y-106435939D01*
X163575212Y-106434589D01*
X163556387Y-106429013D01*
X163555720Y-106428716D01*
X163548497Y-106425500D01*
X163523746Y-106425500D01*
X163511982Y-106424574D01*
X163495348Y-106421939D01*
X163495346Y-106421939D01*
X163487542Y-106420703D01*
X163479910Y-106422748D01*
X163479909Y-106422748D01*
X163479201Y-106422938D01*
X163459738Y-106425500D01*
X155167644Y-106425500D01*
X155119306Y-106407907D01*
X155114470Y-106403474D01*
X153515691Y-104804694D01*
X153493951Y-104758074D01*
X153494591Y-104739758D01*
X153495685Y-104732850D01*
X153495685Y-104732847D01*
X153496611Y-104727000D01*
X153493604Y-104708011D01*
X153478811Y-104614614D01*
X153477885Y-104608767D01*
X153423539Y-104502107D01*
X153338893Y-104417461D01*
X153232233Y-104363115D01*
X153130012Y-104346925D01*
X153085022Y-104321987D01*
X153066587Y-104273964D01*
X153083335Y-104225326D01*
X153118539Y-104201131D01*
X153121986Y-104200011D01*
X153127833Y-104199085D01*
X153234493Y-104144739D01*
X153319139Y-104060093D01*
X153373485Y-103953433D01*
X153392211Y-103835200D01*
X153391285Y-103829354D01*
X153391285Y-103826620D01*
X153408878Y-103778282D01*
X153413311Y-103773446D01*
X154458319Y-102728438D01*
X154504939Y-102706698D01*
X154545631Y-102714607D01*
X154562492Y-102723198D01*
X154562496Y-102723199D01*
X154567767Y-102725885D01*
X154614616Y-102733305D01*
X154671270Y-102742278D01*
X154686000Y-102744611D01*
X154700731Y-102742278D01*
X154757384Y-102733305D01*
X154804233Y-102725885D01*
X154910893Y-102671539D01*
X154913054Y-102669378D01*
X154961241Y-102655557D01*
X155008235Y-102676477D01*
X155030788Y-102722709D01*
X155031200Y-102730574D01*
X155031200Y-103829690D01*
X155031097Y-103833626D01*
X155031015Y-103835200D01*
X155028841Y-103876671D01*
X155029078Y-103877289D01*
X155029079Y-103891194D01*
X155017389Y-103965000D01*
X155018315Y-103970847D01*
X155023218Y-104001803D01*
X155036115Y-104083233D01*
X155062410Y-104134840D01*
X155086702Y-104182515D01*
X155090461Y-104189893D01*
X155175107Y-104274539D01*
X155281767Y-104328885D01*
X155332208Y-104336874D01*
X155372150Y-104343200D01*
X155400000Y-104347611D01*
X155427851Y-104343200D01*
X155467792Y-104336874D01*
X155518233Y-104328885D01*
X155624893Y-104274539D01*
X155709539Y-104189893D01*
X155713299Y-104182515D01*
X155737590Y-104134840D01*
X155763885Y-104083233D01*
X155776782Y-104001803D01*
X155781685Y-103970847D01*
X155782611Y-103965000D01*
X155781621Y-103958746D01*
X155764811Y-103852614D01*
X155763885Y-103846767D01*
X155709539Y-103740107D01*
X155624893Y-103655461D01*
X155611493Y-103648633D01*
X155555860Y-103620287D01*
X155520778Y-103582666D01*
X155514800Y-103553283D01*
X155514800Y-102593560D01*
X155532393Y-102545222D01*
X155576942Y-102519502D01*
X155627600Y-102528435D01*
X155634204Y-102532724D01*
X155636720Y-102534552D01*
X155640907Y-102538739D01*
X155747567Y-102593085D01*
X155865800Y-102611811D01*
X155984033Y-102593085D01*
X156040987Y-102564065D01*
X156085416Y-102541428D01*
X156085417Y-102541427D01*
X156090693Y-102538739D01*
X156175339Y-102454093D01*
X156180044Y-102444860D01*
X156209670Y-102386715D01*
X156229685Y-102347433D01*
X156242374Y-102267317D01*
X156247485Y-102235047D01*
X156248411Y-102229200D01*
X156229685Y-102110967D01*
X156199875Y-102052461D01*
X156178028Y-102009584D01*
X156178027Y-102009583D01*
X156175339Y-102004307D01*
X156129626Y-101958594D01*
X156107886Y-101911974D01*
X156107600Y-101905420D01*
X156107600Y-100546262D01*
X156125193Y-100497924D01*
X156169742Y-100472204D01*
X156220400Y-100481137D01*
G37*
G04 #@! TD.AperFunction*
G04 #@! TA.AperFunction,Conductor*
G36*
X168975862Y-90381926D02*
G01*
X169000000Y-90385749D01*
X169007457Y-90384568D01*
X169027640Y-90384114D01*
X169129324Y-90395571D01*
X169145735Y-90399316D01*
X169164496Y-90405881D01*
X169260575Y-90439501D01*
X169275746Y-90446807D01*
X169319644Y-90474389D01*
X169378769Y-90511540D01*
X169391934Y-90522040D01*
X169477960Y-90608066D01*
X169488460Y-90621231D01*
X169553193Y-90724253D01*
X169560499Y-90739425D01*
X169575608Y-90782602D01*
X169600683Y-90854262D01*
X169604429Y-90870676D01*
X169615886Y-90972360D01*
X169615432Y-90992543D01*
X169614251Y-91000000D01*
X169615177Y-91005846D01*
X169618074Y-91024137D01*
X169619000Y-91035901D01*
X169619000Y-104192159D01*
X169601407Y-104240497D01*
X169556858Y-104266217D01*
X169506200Y-104257284D01*
X169480046Y-104229724D01*
X169479706Y-104229971D01*
X169477828Y-104227387D01*
X169476797Y-104226300D01*
X169476230Y-104225187D01*
X169476228Y-104225184D01*
X169473539Y-104219907D01*
X169388893Y-104135261D01*
X169383485Y-104132505D01*
X169305333Y-104092685D01*
X169282233Y-104080915D01*
X169183352Y-104065254D01*
X169169847Y-104063115D01*
X169164000Y-104062189D01*
X169158153Y-104063115D01*
X169144648Y-104065254D01*
X169045767Y-104080915D01*
X169022667Y-104092685D01*
X168944516Y-104132505D01*
X168939107Y-104135261D01*
X168854461Y-104219907D01*
X168851772Y-104225184D01*
X168848294Y-104229971D01*
X168846470Y-104228646D01*
X168815597Y-104257443D01*
X168764228Y-104260142D01*
X168737697Y-104244202D01*
X168737463Y-104244524D01*
X168733788Y-104241854D01*
X168733031Y-104241399D01*
X168728493Y-104236861D01*
X168712371Y-104228646D01*
X168649080Y-104196398D01*
X168621833Y-104182515D01*
X168503600Y-104163789D01*
X168385367Y-104182515D01*
X168358120Y-104196398D01*
X168294830Y-104228646D01*
X168278707Y-104236861D01*
X168194061Y-104321507D01*
X168191373Y-104326783D01*
X168191372Y-104326784D01*
X168189830Y-104329811D01*
X168139715Y-104428167D01*
X168120989Y-104546400D01*
X168121915Y-104552247D01*
X168128938Y-104596589D01*
X168139715Y-104664633D01*
X168169338Y-104722771D01*
X168175607Y-104773827D01*
X168147591Y-104816968D01*
X168098399Y-104832008D01*
X168090575Y-104831186D01*
X168046400Y-104824189D01*
X168040553Y-104825115D01*
X168002228Y-104831185D01*
X167928167Y-104842915D01*
X167922894Y-104845602D01*
X167922893Y-104845602D01*
X167893862Y-104860394D01*
X167842805Y-104866663D01*
X167799664Y-104838646D01*
X167792718Y-104827530D01*
X167749028Y-104741784D01*
X167749027Y-104741783D01*
X167746339Y-104736507D01*
X167661693Y-104651861D01*
X167628441Y-104634918D01*
X167596874Y-104618834D01*
X167555033Y-104597515D01*
X167436800Y-104578789D01*
X167318567Y-104597515D01*
X167276726Y-104618834D01*
X167245160Y-104634918D01*
X167211907Y-104651861D01*
X167127261Y-104736507D01*
X167124573Y-104741783D01*
X167124572Y-104741784D01*
X167106323Y-104777600D01*
X167072915Y-104843167D01*
X167071989Y-104849014D01*
X167056531Y-104946616D01*
X167054189Y-104961400D01*
X167072915Y-105079633D01*
X167097504Y-105127891D01*
X167116277Y-105164735D01*
X167127261Y-105186293D01*
X167211907Y-105270939D01*
X167215333Y-105272685D01*
X167243566Y-105314543D01*
X167245800Y-105332735D01*
X167245800Y-108128569D01*
X167228207Y-108176907D01*
X167183658Y-108202627D01*
X167133000Y-108193694D01*
X167102144Y-108159694D01*
X167101525Y-108158332D01*
X167075165Y-108100356D01*
X167067508Y-108091469D01*
X166990703Y-108002334D01*
X166987209Y-107998279D01*
X166960040Y-107980669D01*
X166878632Y-107927903D01*
X166878631Y-107927902D01*
X166874139Y-107924991D01*
X166797334Y-107902021D01*
X166750179Y-107887918D01*
X166750176Y-107887918D01*
X166745045Y-107886383D01*
X166739690Y-107886350D01*
X166739688Y-107886350D01*
X166679640Y-107885984D01*
X166610303Y-107885560D01*
X166480746Y-107922587D01*
X166366789Y-107994489D01*
X166277593Y-108095484D01*
X166275318Y-108100331D01*
X166275316Y-108100333D01*
X166233082Y-108190291D01*
X166196614Y-108226569D01*
X166145358Y-108230919D01*
X166103298Y-108201304D01*
X166089811Y-108158332D01*
X166089811Y-105820681D01*
X166090097Y-105814127D01*
X166093208Y-105778574D01*
X166093208Y-105778572D01*
X166093781Y-105772020D01*
X166092078Y-105765665D01*
X166091781Y-105762269D01*
X166089811Y-105747302D01*
X166089811Y-105261881D01*
X166090097Y-105255327D01*
X166093208Y-105219774D01*
X166093208Y-105219772D01*
X166093781Y-105213220D01*
X166082834Y-105172365D01*
X166081424Y-105166005D01*
X166074079Y-105124350D01*
X166070791Y-105118655D01*
X166069631Y-105115468D01*
X166065584Y-105105697D01*
X166064139Y-105102599D01*
X166062437Y-105096245D01*
X166058664Y-105090857D01*
X166058663Y-105090854D01*
X166038188Y-105061613D01*
X166034663Y-105056080D01*
X166013528Y-105019473D01*
X165981147Y-104992302D01*
X165976311Y-104987870D01*
X164390973Y-103402532D01*
X164369233Y-103355912D01*
X164382547Y-103306225D01*
X164410006Y-103282355D01*
X164487523Y-103242858D01*
X164506816Y-103233028D01*
X164506817Y-103233027D01*
X164512093Y-103230339D01*
X164596739Y-103145693D01*
X164605378Y-103128739D01*
X164640859Y-103059103D01*
X164651085Y-103039033D01*
X164665860Y-102945745D01*
X164668885Y-102926647D01*
X164669811Y-102920800D01*
X164663474Y-102880786D01*
X164652011Y-102808414D01*
X164651085Y-102802567D01*
X164617223Y-102736109D01*
X164599426Y-102701180D01*
X164599425Y-102701179D01*
X164596739Y-102695907D01*
X164593871Y-102693039D01*
X164579800Y-102649734D01*
X164579800Y-100802935D01*
X164597393Y-100754597D01*
X164609576Y-100743237D01*
X164613693Y-100741139D01*
X164698339Y-100656493D01*
X164752685Y-100549833D01*
X164771411Y-100431600D01*
X164752685Y-100313367D01*
X164715608Y-100240600D01*
X164701028Y-100211984D01*
X164701027Y-100211983D01*
X164698339Y-100206707D01*
X164613693Y-100122061D01*
X164593779Y-100111914D01*
X164518842Y-100073732D01*
X164507033Y-100067715D01*
X164447917Y-100058352D01*
X164394647Y-100049915D01*
X164388800Y-100048989D01*
X164382953Y-100049915D01*
X164329683Y-100058352D01*
X164270567Y-100067715D01*
X164258758Y-100073732D01*
X164183822Y-100111914D01*
X164163907Y-100122061D01*
X164079261Y-100206707D01*
X164076573Y-100211983D01*
X164076572Y-100211984D01*
X164061992Y-100240600D01*
X164024915Y-100313367D01*
X164006189Y-100431600D01*
X164024915Y-100549833D01*
X164027602Y-100555106D01*
X164061517Y-100621668D01*
X164067786Y-100672724D01*
X164039770Y-100715865D01*
X163990578Y-100730905D01*
X163941339Y-100708982D01*
X163095258Y-99862901D01*
X163092547Y-99860045D01*
X163068992Y-99833884D01*
X163068991Y-99833884D01*
X163063702Y-99828009D01*
X163039561Y-99817261D01*
X163039539Y-99817251D01*
X163029169Y-99811620D01*
X163013622Y-99801524D01*
X163013620Y-99801523D01*
X163006989Y-99797217D01*
X162999179Y-99795980D01*
X162998249Y-99795623D01*
X162972023Y-99778591D01*
X162911893Y-99718461D01*
X162883055Y-99703767D01*
X162862187Y-99693135D01*
X162805233Y-99664115D01*
X162687000Y-99645389D01*
X162568767Y-99664115D01*
X162563496Y-99666801D01*
X162563492Y-99666802D01*
X162555538Y-99670855D01*
X162504482Y-99677122D01*
X162461341Y-99649105D01*
X162446200Y-99603850D01*
X162446200Y-91458980D01*
X162463793Y-91410642D01*
X162468226Y-91405806D01*
X162513939Y-91360093D01*
X162527845Y-91332802D01*
X162544660Y-91299800D01*
X162568285Y-91253433D01*
X162579423Y-91183107D01*
X162586085Y-91141047D01*
X162587011Y-91135200D01*
X162568285Y-91016967D01*
X162513939Y-90910307D01*
X162429293Y-90825661D01*
X162322633Y-90771315D01*
X162204400Y-90752589D01*
X162086167Y-90771315D01*
X161979507Y-90825661D01*
X161894861Y-90910307D01*
X161840515Y-91016967D01*
X161821789Y-91135200D01*
X161822715Y-91141047D01*
X161829377Y-91183107D01*
X161840515Y-91253433D01*
X161864140Y-91299800D01*
X161880956Y-91332802D01*
X161894861Y-91360093D01*
X161940574Y-91405806D01*
X161962314Y-91452426D01*
X161962600Y-91458980D01*
X161962600Y-92481150D01*
X161945007Y-92529488D01*
X161900458Y-92555208D01*
X161864164Y-92552670D01*
X161862104Y-92552001D01*
X161856833Y-92549315D01*
X161850990Y-92548389D01*
X161850988Y-92548389D01*
X161744447Y-92531515D01*
X161738600Y-92530589D01*
X161732754Y-92531515D01*
X161730020Y-92531515D01*
X161681682Y-92513922D01*
X161676846Y-92509489D01*
X161204258Y-92036901D01*
X161201547Y-92034045D01*
X161177992Y-92007884D01*
X161177991Y-92007884D01*
X161172702Y-92002009D01*
X161154850Y-91994061D01*
X161148539Y-91991251D01*
X161138169Y-91985620D01*
X161122622Y-91975524D01*
X161122620Y-91975523D01*
X161115989Y-91971217D01*
X161108181Y-91969980D01*
X161108180Y-91969980D01*
X161106448Y-91969706D01*
X161087624Y-91964130D01*
X161086018Y-91963415D01*
X161086016Y-91963415D01*
X161078796Y-91960200D01*
X161052346Y-91960200D01*
X161040582Y-91959274D01*
X161022269Y-91956373D01*
X161022267Y-91956373D01*
X161014462Y-91955137D01*
X161006830Y-91957182D01*
X161006829Y-91957182D01*
X161005128Y-91957638D01*
X160985665Y-91960200D01*
X160431208Y-91960200D01*
X160382870Y-91942607D01*
X160357150Y-91898058D01*
X160364204Y-91850861D01*
X160381197Y-91817509D01*
X160381197Y-91817508D01*
X160383885Y-91812233D01*
X160396875Y-91730219D01*
X160401685Y-91699847D01*
X160402611Y-91694000D01*
X160383885Y-91575767D01*
X160329539Y-91469107D01*
X160244893Y-91384461D01*
X160205292Y-91364283D01*
X160186711Y-91354816D01*
X160138233Y-91330115D01*
X160020000Y-91311389D01*
X160014153Y-91312315D01*
X160008236Y-91312315D01*
X160008236Y-91309637D01*
X159967985Y-91301803D01*
X159935622Y-91261819D01*
X159932457Y-91225589D01*
X159936327Y-91201158D01*
X159945411Y-91143800D01*
X159926685Y-91025567D01*
X159872339Y-90918907D01*
X159787693Y-90834261D01*
X159780116Y-90830400D01*
X159737987Y-90808935D01*
X159681033Y-90779915D01*
X159562800Y-90761189D01*
X159556953Y-90762115D01*
X159556950Y-90762115D01*
X159550042Y-90763209D01*
X159499547Y-90753393D01*
X159485106Y-90742109D01*
X159343631Y-90600634D01*
X159340921Y-90597779D01*
X159318958Y-90573387D01*
X159313670Y-90567514D01*
X159291053Y-90557444D01*
X159280697Y-90551821D01*
X159259936Y-90538339D01*
X159251412Y-90536989D01*
X159232587Y-90531413D01*
X159232454Y-90531354D01*
X159224697Y-90527900D01*
X159222555Y-90527900D01*
X159181903Y-90502497D01*
X159166008Y-90453575D01*
X159185278Y-90405881D01*
X159230697Y-90381732D01*
X159241162Y-90381000D01*
X168964099Y-90381000D01*
X168975862Y-90381926D01*
G37*
G04 #@! TD.AperFunction*
G04 #@! TA.AperFunction,Conductor*
G36*
X162387031Y-101710054D02*
G01*
X162392881Y-101715322D01*
X162804174Y-102126615D01*
X162825914Y-102173235D01*
X162826200Y-102179789D01*
X162826200Y-102648530D01*
X162825914Y-102655084D01*
X162823110Y-102687137D01*
X162822230Y-102697191D01*
X162823933Y-102703547D01*
X162833173Y-102738035D01*
X162834592Y-102744437D01*
X162835898Y-102751840D01*
X162841932Y-102786061D01*
X162845222Y-102791760D01*
X162846387Y-102794960D01*
X162850435Y-102804735D01*
X162851871Y-102807815D01*
X162853573Y-102814166D01*
X162857346Y-102819554D01*
X162857347Y-102819557D01*
X162877822Y-102848800D01*
X162881345Y-102854329D01*
X162899193Y-102885241D01*
X162899195Y-102885244D01*
X162902483Y-102890938D01*
X162907519Y-102895164D01*
X162907521Y-102895166D01*
X162934864Y-102918109D01*
X162939700Y-102922541D01*
X165107785Y-105090626D01*
X165129525Y-105137246D01*
X165116211Y-105186933D01*
X165074074Y-105216438D01*
X165054611Y-105219000D01*
X160630791Y-105219000D01*
X160582453Y-105201407D01*
X160556733Y-105156858D01*
X160565666Y-105106200D01*
X160577617Y-105090626D01*
X160583539Y-105084704D01*
X160595305Y-105061613D01*
X160618932Y-105015242D01*
X160637885Y-104978044D01*
X160654873Y-104870786D01*
X160655685Y-104865658D01*
X160656611Y-104859811D01*
X160643839Y-104779171D01*
X160653654Y-104728676D01*
X160693630Y-104696304D01*
X160745062Y-104697202D01*
X160752252Y-104700402D01*
X160765367Y-104707085D01*
X160883600Y-104725811D01*
X161001833Y-104707085D01*
X161085150Y-104664633D01*
X161103216Y-104655428D01*
X161103217Y-104655427D01*
X161108493Y-104652739D01*
X161193139Y-104568093D01*
X161247485Y-104461433D01*
X161263124Y-104362693D01*
X161265285Y-104349047D01*
X161266211Y-104343200D01*
X161262917Y-104322399D01*
X161250160Y-104241854D01*
X161247485Y-104224967D01*
X161204472Y-104140549D01*
X161195828Y-104123584D01*
X161195827Y-104123583D01*
X161193139Y-104118307D01*
X161108493Y-104033661D01*
X161090059Y-104024268D01*
X161045968Y-104001803D01*
X161001833Y-103979315D01*
X160918699Y-103966148D01*
X160889447Y-103961515D01*
X160883600Y-103960589D01*
X160877754Y-103961515D01*
X160875020Y-103961515D01*
X160826682Y-103943922D01*
X160821846Y-103939489D01*
X160385426Y-103503069D01*
X160363686Y-103456449D01*
X160363400Y-103449895D01*
X160363400Y-102112808D01*
X160380993Y-102064470D01*
X160425542Y-102038750D01*
X160472739Y-102045804D01*
X160506091Y-102062797D01*
X160506092Y-102062797D01*
X160511367Y-102065485D01*
X160562099Y-102073520D01*
X160622251Y-102083047D01*
X160629600Y-102084211D01*
X160636950Y-102083047D01*
X160697101Y-102073520D01*
X160747833Y-102065485D01*
X160817402Y-102030038D01*
X160849216Y-102013828D01*
X160849217Y-102013827D01*
X160854493Y-102011139D01*
X160939139Y-101926493D01*
X160956796Y-101891839D01*
X160994417Y-101856757D01*
X161045786Y-101854065D01*
X161086868Y-101885022D01*
X161099000Y-101925979D01*
X161099000Y-103166490D01*
X161098897Y-103170426D01*
X161096641Y-103213471D01*
X161099474Y-103220851D01*
X161106118Y-103238160D01*
X161109469Y-103249473D01*
X161113325Y-103267610D01*
X161113326Y-103267613D01*
X161114970Y-103275346D01*
X161119617Y-103281742D01*
X161119618Y-103281744D01*
X161120649Y-103283163D01*
X161130015Y-103300413D01*
X161130646Y-103302056D01*
X161133479Y-103309436D01*
X161152181Y-103328138D01*
X161159845Y-103337111D01*
X161175390Y-103358507D01*
X161183763Y-103363341D01*
X161199333Y-103375290D01*
X161292689Y-103468646D01*
X161314429Y-103515266D01*
X161314715Y-103521820D01*
X161314715Y-103524553D01*
X161313789Y-103530400D01*
X161332515Y-103648633D01*
X161346411Y-103675905D01*
X161378419Y-103738724D01*
X161386861Y-103755293D01*
X161471507Y-103839939D01*
X161476783Y-103842627D01*
X161476784Y-103842628D01*
X161511491Y-103860312D01*
X161578167Y-103894285D01*
X161696400Y-103913011D01*
X161814633Y-103894285D01*
X161881309Y-103860312D01*
X161916016Y-103842628D01*
X161916017Y-103842627D01*
X161921293Y-103839939D01*
X161973426Y-103787806D01*
X162020046Y-103766066D01*
X162069733Y-103779380D01*
X162072836Y-103781984D01*
X162076917Y-103784949D01*
X162081107Y-103789139D01*
X162086383Y-103791827D01*
X162086384Y-103791828D01*
X162117060Y-103807458D01*
X162187767Y-103843485D01*
X162193614Y-103844411D01*
X162295090Y-103860483D01*
X162306000Y-103862211D01*
X162316911Y-103860483D01*
X162418386Y-103844411D01*
X162424233Y-103843485D01*
X162494940Y-103807458D01*
X162525616Y-103791828D01*
X162525617Y-103791827D01*
X162530893Y-103789139D01*
X162615539Y-103704493D01*
X162626289Y-103683396D01*
X162663529Y-103610307D01*
X162669885Y-103597833D01*
X162688611Y-103479600D01*
X162669885Y-103361367D01*
X162629315Y-103281744D01*
X162618228Y-103259984D01*
X162618227Y-103259983D01*
X162615539Y-103254707D01*
X162530893Y-103170061D01*
X162522117Y-103165589D01*
X162458571Y-103133211D01*
X162424233Y-103115715D01*
X162306000Y-103096989D01*
X162300154Y-103097915D01*
X162297420Y-103097915D01*
X162249082Y-103080322D01*
X162244246Y-103075889D01*
X162214226Y-103045869D01*
X162192486Y-102999249D01*
X162192200Y-102992695D01*
X162192200Y-101921866D01*
X162206271Y-101878561D01*
X162209139Y-101875693D01*
X162218788Y-101856757D01*
X162246897Y-101801588D01*
X162263485Y-101769033D01*
X162265433Y-101756734D01*
X162290370Y-101711743D01*
X162338393Y-101693307D01*
X162387031Y-101710054D01*
G37*
G04 #@! TD.AperFunction*
G04 #@! TA.AperFunction,Conductor*
G36*
X160558933Y-93972505D02*
G01*
X160588438Y-94014642D01*
X160591000Y-94034105D01*
X160591000Y-99414811D01*
X160573407Y-99463149D01*
X160528858Y-99488869D01*
X160515800Y-99490011D01*
X157182059Y-99490011D01*
X157175505Y-99489725D01*
X157139952Y-99486614D01*
X157139950Y-99486614D01*
X157133398Y-99486041D01*
X157127042Y-99487744D01*
X157092554Y-99496984D01*
X157086152Y-99498403D01*
X157071787Y-99500936D01*
X157044528Y-99505743D01*
X157038829Y-99509033D01*
X157035629Y-99510198D01*
X157025854Y-99514246D01*
X157022774Y-99515682D01*
X157016423Y-99517384D01*
X157011035Y-99521157D01*
X157011032Y-99521158D01*
X156981789Y-99541633D01*
X156976260Y-99545156D01*
X156945348Y-99563004D01*
X156945345Y-99563006D01*
X156939651Y-99566294D01*
X156935425Y-99571330D01*
X156935423Y-99571332D01*
X156912480Y-99598675D01*
X156908048Y-99603511D01*
X156753408Y-99758151D01*
X156734374Y-99771981D01*
X156687486Y-99795872D01*
X156671351Y-99804093D01*
X156620295Y-99810362D01*
X156577154Y-99782346D01*
X156562011Y-99737089D01*
X156562011Y-99272321D01*
X156562114Y-99268385D01*
X156563956Y-99233233D01*
X156564370Y-99225340D01*
X156554893Y-99200651D01*
X156551542Y-99189338D01*
X156547686Y-99171201D01*
X156547685Y-99171198D01*
X156546041Y-99163465D01*
X156541394Y-99157069D01*
X156541393Y-99157067D01*
X156540362Y-99155648D01*
X156530996Y-99138398D01*
X156530365Y-99136755D01*
X156530365Y-99136754D01*
X156527532Y-99129375D01*
X156508830Y-99110673D01*
X156501166Y-99101700D01*
X156490267Y-99086699D01*
X156485621Y-99080304D01*
X156477248Y-99075470D01*
X156461678Y-99063521D01*
X156382144Y-98983987D01*
X156360404Y-98937367D01*
X156360118Y-98930813D01*
X156360118Y-98928079D01*
X156361044Y-98922233D01*
X156342318Y-98804000D01*
X156287972Y-98697340D01*
X156203326Y-98612694D01*
X156096666Y-98558348D01*
X155978433Y-98539622D01*
X155977491Y-98539771D01*
X155931288Y-98522955D01*
X155905352Y-98477111D01*
X155891811Y-98391615D01*
X155891811Y-98391614D01*
X155890885Y-98385767D01*
X155836539Y-98279107D01*
X155751893Y-98194461D01*
X155645233Y-98140115D01*
X155527000Y-98121389D01*
X155408767Y-98140115D01*
X155302107Y-98194461D01*
X155217461Y-98279107D01*
X155163115Y-98385767D01*
X155144389Y-98504000D01*
X155145315Y-98509846D01*
X155145315Y-98512580D01*
X155127722Y-98560918D01*
X155123289Y-98565754D01*
X155107901Y-98581142D01*
X155105046Y-98583852D01*
X155073009Y-98612698D01*
X155069794Y-98619920D01*
X155062251Y-98636861D01*
X155056620Y-98647231D01*
X155046524Y-98662778D01*
X155046523Y-98662780D01*
X155042217Y-98669411D01*
X155040980Y-98677219D01*
X155040980Y-98677220D01*
X155040706Y-98678952D01*
X155035130Y-98697776D01*
X155031200Y-98706604D01*
X155031200Y-98733054D01*
X155030274Y-98744818D01*
X155028740Y-98754506D01*
X155026137Y-98770938D01*
X155028182Y-98778570D01*
X155028182Y-98778571D01*
X155028638Y-98780272D01*
X155031200Y-98799735D01*
X155031200Y-101993426D01*
X155013607Y-102041764D01*
X154969058Y-102067484D01*
X154918400Y-102058551D01*
X154914358Y-102055926D01*
X154910893Y-102052461D01*
X154905619Y-102049774D01*
X154900830Y-102046294D01*
X154902090Y-102044559D01*
X154873078Y-102013449D01*
X154867100Y-101984065D01*
X154867100Y-98586480D01*
X154884693Y-98538142D01*
X154889126Y-98533306D01*
X154947539Y-98474893D01*
X155001885Y-98368233D01*
X155020611Y-98250000D01*
X155001885Y-98131767D01*
X154947539Y-98025107D01*
X154862893Y-97940461D01*
X154756233Y-97886115D01*
X154638000Y-97867389D01*
X154519767Y-97886115D01*
X154413107Y-97940461D01*
X154328461Y-98025107D01*
X154274115Y-98131767D01*
X154255389Y-98250000D01*
X154274115Y-98368233D01*
X154328461Y-98474893D01*
X154386874Y-98533306D01*
X154408614Y-98579926D01*
X154408900Y-98586480D01*
X154408900Y-102073520D01*
X154391307Y-102121858D01*
X154386874Y-102126694D01*
X154376875Y-102136693D01*
X154361580Y-102146626D01*
X154362174Y-102147540D01*
X154355542Y-102151847D01*
X154348164Y-102154679D01*
X154329462Y-102173381D01*
X154320489Y-102181045D01*
X154299093Y-102196590D01*
X154295142Y-102203434D01*
X154294261Y-102204960D01*
X154282310Y-102220533D01*
X153359979Y-103142864D01*
X153313359Y-103164604D01*
X153263672Y-103151290D01*
X153234167Y-103109153D01*
X153238107Y-103059103D01*
X153245750Y-103041937D01*
X153251380Y-103031568D01*
X153261476Y-103016021D01*
X153261477Y-103016019D01*
X153265783Y-103009388D01*
X153267294Y-102999846D01*
X153272870Y-102981023D01*
X153273585Y-102979417D01*
X153273585Y-102979415D01*
X153276800Y-102972195D01*
X153276800Y-102945745D01*
X153277726Y-102933981D01*
X153280627Y-102915668D01*
X153280627Y-102915666D01*
X153281863Y-102907861D01*
X153279362Y-102898527D01*
X153276800Y-102879064D01*
X153276800Y-100526780D01*
X153294393Y-100478442D01*
X153298826Y-100473606D01*
X153344539Y-100427893D01*
X153349699Y-100417767D01*
X153378276Y-100361681D01*
X153398885Y-100321233D01*
X153413895Y-100226461D01*
X153416685Y-100208847D01*
X153417611Y-100203000D01*
X153398885Y-100084767D01*
X153397361Y-100081776D01*
X153395032Y-100069206D01*
X153395897Y-100063742D01*
X153393662Y-100055400D01*
X153391100Y-100035938D01*
X153391100Y-97820044D01*
X153408693Y-97771706D01*
X153413126Y-97766870D01*
X153798305Y-97381691D01*
X153844925Y-97359951D01*
X153863239Y-97360590D01*
X153876000Y-97362611D01*
X153888761Y-97360590D01*
X153988386Y-97344811D01*
X153994233Y-97343885D01*
X154100893Y-97289539D01*
X154185539Y-97204893D01*
X154190211Y-97195725D01*
X154225499Y-97126467D01*
X154239885Y-97098233D01*
X154257526Y-96986853D01*
X154257685Y-96985847D01*
X154258611Y-96980000D01*
X154239885Y-96861767D01*
X154200210Y-96783901D01*
X154188228Y-96760384D01*
X154188227Y-96760383D01*
X154185539Y-96755107D01*
X154100893Y-96670461D01*
X154094425Y-96667165D01*
X154051187Y-96645135D01*
X153994233Y-96616115D01*
X153876000Y-96597389D01*
X153757767Y-96616115D01*
X153700813Y-96645135D01*
X153657576Y-96667165D01*
X153651107Y-96670461D01*
X153566461Y-96755107D01*
X153563773Y-96760383D01*
X153563772Y-96760384D01*
X153551790Y-96783901D01*
X153512115Y-96861767D01*
X153493389Y-96980000D01*
X153494315Y-96985847D01*
X153494315Y-96985850D01*
X153495409Y-96992758D01*
X153485593Y-97043253D01*
X153474309Y-97057694D01*
X153005633Y-97526370D01*
X153002778Y-97529080D01*
X152972514Y-97556330D01*
X152962444Y-97578947D01*
X152956822Y-97589301D01*
X152943339Y-97610064D01*
X152942103Y-97617871D01*
X152941989Y-97618588D01*
X152936413Y-97637413D01*
X152932900Y-97645303D01*
X152932900Y-97670054D01*
X152931974Y-97681818D01*
X152928103Y-97706258D01*
X152930148Y-97713890D01*
X152930148Y-97713891D01*
X152930338Y-97714599D01*
X152932900Y-97734062D01*
X152932900Y-99784812D01*
X152915307Y-99833150D01*
X152891840Y-99851816D01*
X152810107Y-99893461D01*
X152770174Y-99933394D01*
X152723554Y-99955134D01*
X152673867Y-99941820D01*
X152644362Y-99899683D01*
X152641800Y-99880220D01*
X152641800Y-98954780D01*
X152659393Y-98906442D01*
X152663826Y-98901606D01*
X152709539Y-98855893D01*
X152763885Y-98749233D01*
X152782611Y-98631000D01*
X152763885Y-98512767D01*
X152709539Y-98406107D01*
X152624893Y-98321461D01*
X152518233Y-98267115D01*
X152400000Y-98248389D01*
X152281767Y-98267115D01*
X152175107Y-98321461D01*
X152090461Y-98406107D01*
X152036115Y-98512767D01*
X152017389Y-98631000D01*
X152036115Y-98749233D01*
X152090461Y-98855893D01*
X152136174Y-98901606D01*
X152157914Y-98948226D01*
X152158200Y-98954780D01*
X152158200Y-99754457D01*
X152140607Y-99802795D01*
X152096058Y-99828515D01*
X152045400Y-99819582D01*
X152026806Y-99802840D01*
X152026539Y-99803107D01*
X151941893Y-99718461D01*
X151913055Y-99703767D01*
X151892187Y-99693135D01*
X151835233Y-99664115D01*
X151717000Y-99645389D01*
X151598767Y-99664115D01*
X151593496Y-99666801D01*
X151591427Y-99667473D01*
X151540018Y-99665678D01*
X151501791Y-99631258D01*
X151492989Y-99595954D01*
X151492989Y-94955316D01*
X151510582Y-94906978D01*
X151515015Y-94902142D01*
X151868531Y-94548626D01*
X151915151Y-94526886D01*
X151921705Y-94526600D01*
X159808490Y-94526600D01*
X159812427Y-94526703D01*
X159855471Y-94528959D01*
X159867337Y-94524404D01*
X159880160Y-94519482D01*
X159891473Y-94516131D01*
X159909610Y-94512275D01*
X159909613Y-94512274D01*
X159917346Y-94510630D01*
X159923742Y-94505983D01*
X159923744Y-94505982D01*
X159925163Y-94504951D01*
X159942413Y-94495585D01*
X159944056Y-94494954D01*
X159944057Y-94494954D01*
X159951436Y-94492121D01*
X159970138Y-94473419D01*
X159979111Y-94465755D01*
X159994112Y-94454856D01*
X160000507Y-94450210D01*
X160005341Y-94441837D01*
X160017290Y-94426267D01*
X160462626Y-93980931D01*
X160509246Y-93959191D01*
X160558933Y-93972505D01*
G37*
G04 #@! TD.AperFunction*
G04 #@! TA.AperFunction,Conductor*
G36*
X151706086Y-91687792D02*
G01*
X151735591Y-91729929D01*
X151729957Y-91783532D01*
X151680515Y-91880567D01*
X151679589Y-91886414D01*
X151665476Y-91975524D01*
X151661789Y-91998800D01*
X151662715Y-92004647D01*
X151668858Y-92043434D01*
X151680515Y-92117033D01*
X151683202Y-92122306D01*
X151725854Y-92206015D01*
X151734861Y-92223693D01*
X151819507Y-92308339D01*
X151824783Y-92311027D01*
X151824784Y-92311028D01*
X151834150Y-92315800D01*
X151926167Y-92362685D01*
X152044400Y-92381411D01*
X152162633Y-92362685D01*
X152254650Y-92315800D01*
X152264016Y-92311028D01*
X152264017Y-92311027D01*
X152269293Y-92308339D01*
X152353939Y-92223693D01*
X152356625Y-92218422D01*
X152359122Y-92214985D01*
X152401769Y-92186222D01*
X152419958Y-92183989D01*
X154853684Y-92183989D01*
X154902022Y-92201582D01*
X154906858Y-92206015D01*
X155423542Y-92722699D01*
X155426252Y-92725554D01*
X155455098Y-92757591D01*
X155471562Y-92764921D01*
X155479261Y-92768349D01*
X155489631Y-92773980D01*
X155505178Y-92784076D01*
X155505180Y-92784077D01*
X155511811Y-92788383D01*
X155519619Y-92789620D01*
X155519620Y-92789620D01*
X155521352Y-92789894D01*
X155540176Y-92795470D01*
X155541782Y-92796185D01*
X155541784Y-92796185D01*
X155549004Y-92799400D01*
X155575454Y-92799400D01*
X155587218Y-92800326D01*
X155605531Y-92803227D01*
X155605533Y-92803227D01*
X155613338Y-92804463D01*
X155620970Y-92802418D01*
X155620971Y-92802418D01*
X155622672Y-92801962D01*
X155642135Y-92799400D01*
X156912890Y-92799400D01*
X156916827Y-92799503D01*
X156959871Y-92801759D01*
X156974392Y-92796185D01*
X156984560Y-92792282D01*
X156995873Y-92788931D01*
X157014010Y-92785075D01*
X157014013Y-92785074D01*
X157021746Y-92783430D01*
X157028142Y-92778783D01*
X157028144Y-92778782D01*
X157029563Y-92777751D01*
X157046813Y-92768385D01*
X157048456Y-92767754D01*
X157048457Y-92767754D01*
X157055836Y-92764921D01*
X157074538Y-92746219D01*
X157083511Y-92738555D01*
X157098512Y-92727656D01*
X157104907Y-92723010D01*
X157109741Y-92714637D01*
X157121690Y-92699067D01*
X157354931Y-92465826D01*
X157401551Y-92444086D01*
X157408105Y-92443800D01*
X160295811Y-92443800D01*
X160344149Y-92461393D01*
X160369869Y-92505942D01*
X160362815Y-92553140D01*
X160337277Y-92603262D01*
X160321391Y-92634440D01*
X160302665Y-92752673D01*
X160310472Y-92801962D01*
X160313480Y-92820955D01*
X160303665Y-92871450D01*
X160262645Y-92904079D01*
X160257367Y-92904915D01*
X160236956Y-92915315D01*
X160167097Y-92950910D01*
X160150707Y-92959261D01*
X160066061Y-93043907D01*
X160011715Y-93150567D01*
X159992989Y-93268800D01*
X160011715Y-93387033D01*
X160066061Y-93493693D01*
X160111774Y-93539406D01*
X160133514Y-93586026D01*
X160133800Y-93592580D01*
X160133800Y-93594695D01*
X160116207Y-93643033D01*
X160111774Y-93647869D01*
X159738669Y-94020974D01*
X159692049Y-94042714D01*
X159685495Y-94043000D01*
X151798710Y-94043000D01*
X151794774Y-94042897D01*
X151791282Y-94042714D01*
X151751729Y-94040641D01*
X151744349Y-94043474D01*
X151727040Y-94050118D01*
X151715727Y-94053469D01*
X151697590Y-94057325D01*
X151697587Y-94057326D01*
X151689854Y-94058970D01*
X151683458Y-94063617D01*
X151683456Y-94063618D01*
X151682037Y-94064649D01*
X151664787Y-94074015D01*
X151663144Y-94074646D01*
X151663143Y-94074646D01*
X151655764Y-94077479D01*
X151637062Y-94096181D01*
X151628089Y-94103845D01*
X151606693Y-94119390D01*
X151602742Y-94126234D01*
X151601861Y-94127760D01*
X151589910Y-94143333D01*
X151086090Y-94647153D01*
X151083235Y-94649863D01*
X151051198Y-94678709D01*
X151047983Y-94685931D01*
X151040440Y-94702872D01*
X151034809Y-94713242D01*
X151024713Y-94728789D01*
X151024712Y-94728791D01*
X151020406Y-94735422D01*
X151019169Y-94743230D01*
X151019169Y-94743231D01*
X151018895Y-94744963D01*
X151013319Y-94763787D01*
X151009389Y-94772615D01*
X151009389Y-94799065D01*
X151008463Y-94810829D01*
X151006161Y-94825366D01*
X151004326Y-94836949D01*
X151006371Y-94844581D01*
X151006371Y-94844582D01*
X151006827Y-94846283D01*
X151009389Y-94865746D01*
X151009389Y-100255409D01*
X150991796Y-100303747D01*
X150947247Y-100329467D01*
X150896589Y-100320534D01*
X150881015Y-100308583D01*
X150798893Y-100226461D01*
X150783177Y-100218453D01*
X150692233Y-100172115D01*
X150693148Y-100170319D01*
X150659332Y-100143906D01*
X150647900Y-100104048D01*
X150647900Y-92689244D01*
X150665493Y-92640906D01*
X150669926Y-92636070D01*
X151609779Y-91696218D01*
X151656399Y-91674478D01*
X151706086Y-91687792D01*
G37*
G04 #@! TD.AperFunction*
G04 #@! TA.AperFunction,Conductor*
G36*
X161590341Y-93261786D02*
G01*
X161615091Y-93274397D01*
X161615092Y-93274397D01*
X161620367Y-93277085D01*
X161738600Y-93295811D01*
X161744447Y-93294885D01*
X161850988Y-93278011D01*
X161850990Y-93278011D01*
X161856833Y-93277085D01*
X161862104Y-93274399D01*
X161864164Y-93273730D01*
X161915572Y-93275526D01*
X161953798Y-93309947D01*
X161962600Y-93345250D01*
X161962600Y-100132211D01*
X161945007Y-100180549D01*
X161900458Y-100206269D01*
X161849800Y-100197336D01*
X161834226Y-100185385D01*
X161299826Y-99650985D01*
X161278086Y-99604365D01*
X161277800Y-99597811D01*
X161277800Y-94153389D01*
X161295393Y-94105051D01*
X161299826Y-94100215D01*
X161367501Y-94032540D01*
X161372338Y-94028107D01*
X161399677Y-94005167D01*
X161404717Y-94000938D01*
X161425856Y-93964324D01*
X161429377Y-93958798D01*
X161449852Y-93929557D01*
X161449853Y-93929554D01*
X161453626Y-93924166D01*
X161455328Y-93917812D01*
X161456773Y-93914714D01*
X161460820Y-93904943D01*
X161461980Y-93901756D01*
X161465268Y-93896061D01*
X161472613Y-93854406D01*
X161474023Y-93848046D01*
X161484970Y-93807191D01*
X161484260Y-93799069D01*
X161481286Y-93765084D01*
X161481000Y-93758530D01*
X161481000Y-93328789D01*
X161498593Y-93280451D01*
X161543142Y-93254731D01*
X161590341Y-93261786D01*
G37*
G04 #@! TD.AperFunction*
G04 #@! TA.AperFunction,Conductor*
G36*
X159098293Y-91003693D02*
G01*
X159103130Y-91008126D01*
X159161110Y-91066107D01*
X159182849Y-91112728D01*
X159182209Y-91131044D01*
X159180189Y-91143800D01*
X159198915Y-91262033D01*
X159201602Y-91267306D01*
X159201602Y-91267307D01*
X159246569Y-91355560D01*
X159252838Y-91406617D01*
X159224821Y-91449758D01*
X159179565Y-91464900D01*
X159028445Y-91464900D01*
X158980107Y-91447307D01*
X158975271Y-91442874D01*
X158768030Y-91235633D01*
X158765320Y-91232778D01*
X158743358Y-91208387D01*
X158738070Y-91202514D01*
X158715453Y-91192444D01*
X158705097Y-91186821D01*
X158684336Y-91173339D01*
X158675812Y-91171989D01*
X158656987Y-91166413D01*
X158656320Y-91166116D01*
X158649097Y-91162900D01*
X158624346Y-91162900D01*
X158612582Y-91161974D01*
X158595948Y-91159339D01*
X158595946Y-91159339D01*
X158588142Y-91158103D01*
X158580510Y-91160148D01*
X158580509Y-91160148D01*
X158579801Y-91160338D01*
X158560338Y-91162900D01*
X151597960Y-91162900D01*
X151594024Y-91162797D01*
X151592618Y-91162723D01*
X151553361Y-91160666D01*
X151530250Y-91169537D01*
X151518958Y-91172882D01*
X151494735Y-91178031D01*
X151488342Y-91182676D01*
X151488340Y-91182677D01*
X151487748Y-91183107D01*
X151470498Y-91192473D01*
X151469816Y-91192735D01*
X151469815Y-91192736D01*
X151462436Y-91195568D01*
X151444940Y-91213064D01*
X151435968Y-91220728D01*
X151429278Y-91225589D01*
X151415942Y-91235278D01*
X151411990Y-91242123D01*
X151411624Y-91242757D01*
X151399673Y-91258331D01*
X150262433Y-92395570D01*
X150259578Y-92398280D01*
X150229314Y-92425530D01*
X150219244Y-92448147D01*
X150213622Y-92458501D01*
X150200139Y-92479264D01*
X150198903Y-92487071D01*
X150198789Y-92487788D01*
X150193213Y-92506613D01*
X150189700Y-92514503D01*
X150189700Y-92539254D01*
X150188774Y-92551018D01*
X150184903Y-92575458D01*
X150186948Y-92583090D01*
X150186948Y-92583091D01*
X150187138Y-92583799D01*
X150189700Y-92603262D01*
X150189700Y-96955069D01*
X150172107Y-97003407D01*
X150127558Y-97029127D01*
X150087015Y-97023066D01*
X150086636Y-97024231D01*
X150081007Y-97022402D01*
X150075733Y-97019715D01*
X149957500Y-97000989D01*
X149951653Y-97001915D01*
X149845112Y-97018789D01*
X149845110Y-97018789D01*
X149839267Y-97019715D01*
X149833996Y-97022401D01*
X149831936Y-97023070D01*
X149780528Y-97021274D01*
X149742302Y-96986853D01*
X149733500Y-96951550D01*
X149733500Y-93384177D01*
X149733603Y-93380242D01*
X149735322Y-93347449D01*
X149735322Y-93347446D01*
X149735735Y-93339558D01*
X149732903Y-93332179D01*
X149726867Y-93316454D01*
X149723515Y-93305141D01*
X149718369Y-93280932D01*
X149719108Y-93280775D01*
X149714989Y-93261395D01*
X149714989Y-92098155D01*
X149732582Y-92049817D01*
X149737015Y-92044981D01*
X150773870Y-91008126D01*
X150820490Y-90986386D01*
X150827044Y-90986100D01*
X159049955Y-90986100D01*
X159098293Y-91003693D01*
G37*
G04 #@! TD.AperFunction*
G04 #@! TA.AperFunction,Conductor*
G36*
X158522694Y-91638693D02*
G01*
X158527530Y-91643126D01*
X158716230Y-91831826D01*
X158737970Y-91878446D01*
X158724656Y-91928133D01*
X158682519Y-91957638D01*
X158663056Y-91960200D01*
X157285103Y-91960200D01*
X157281166Y-91960097D01*
X157238129Y-91957841D01*
X157230749Y-91960674D01*
X157213440Y-91967318D01*
X157202127Y-91970669D01*
X157183990Y-91974525D01*
X157183987Y-91974526D01*
X157176254Y-91976170D01*
X157169858Y-91980817D01*
X157169856Y-91980818D01*
X157168437Y-91981849D01*
X157151187Y-91991215D01*
X157149544Y-91991846D01*
X157149543Y-91991846D01*
X157142164Y-91994679D01*
X157123462Y-92013381D01*
X157114489Y-92021045D01*
X157093093Y-92036590D01*
X157089142Y-92043434D01*
X157088261Y-92044960D01*
X157076310Y-92060533D01*
X156843069Y-92293774D01*
X156796449Y-92315514D01*
X156789895Y-92315800D01*
X155731705Y-92315800D01*
X155683367Y-92298207D01*
X155678531Y-92293774D01*
X155161847Y-91777090D01*
X155159136Y-91774234D01*
X155134271Y-91746618D01*
X155115002Y-91698924D01*
X155130898Y-91650002D01*
X155174522Y-91622743D01*
X155190156Y-91621100D01*
X158474356Y-91621100D01*
X158522694Y-91638693D01*
G37*
G04 #@! TD.AperFunction*
G04 #@! TA.AperFunction,Conductor*
G36*
X150509247Y-107807075D02*
G01*
X150543163Y-107845750D01*
X150547914Y-107880376D01*
X150547821Y-107881316D01*
X150547100Y-107884943D01*
X150547101Y-108215056D01*
X150555972Y-108259658D01*
X150560089Y-108265820D01*
X150562327Y-108271222D01*
X150564570Y-108322613D01*
X150562326Y-108328779D01*
X150560088Y-108334183D01*
X150555972Y-108340342D01*
X150547100Y-108384943D01*
X150547101Y-108715056D01*
X150555972Y-108759658D01*
X150560089Y-108765820D01*
X150562327Y-108771222D01*
X150564570Y-108822613D01*
X150562326Y-108828779D01*
X150560088Y-108834183D01*
X150555972Y-108840342D01*
X150547100Y-108884943D01*
X150547101Y-109215056D01*
X150551741Y-109238387D01*
X150553475Y-109247101D01*
X150555972Y-109259658D01*
X150560089Y-109265820D01*
X150562327Y-109271222D01*
X150564570Y-109322613D01*
X150562326Y-109328779D01*
X150560088Y-109334182D01*
X150555972Y-109340342D01*
X150547100Y-109384943D01*
X150547101Y-109715056D01*
X150555972Y-109759658D01*
X150560089Y-109765820D01*
X150562327Y-109771222D01*
X150564570Y-109822613D01*
X150562326Y-109828779D01*
X150560088Y-109834183D01*
X150555972Y-109840342D01*
X150547100Y-109884943D01*
X150547101Y-110215056D01*
X150555972Y-110259658D01*
X150560089Y-110265820D01*
X150562327Y-110271222D01*
X150564570Y-110322613D01*
X150562326Y-110328779D01*
X150560088Y-110334183D01*
X150555972Y-110340342D01*
X150554527Y-110347606D01*
X150554441Y-110348041D01*
X150547100Y-110384943D01*
X150547101Y-110715056D01*
X150555972Y-110759658D01*
X150560089Y-110765820D01*
X150562327Y-110771222D01*
X150564570Y-110822613D01*
X150562326Y-110828779D01*
X150560088Y-110834183D01*
X150555972Y-110840342D01*
X150547100Y-110884943D01*
X150547101Y-111215056D01*
X150555972Y-111259658D01*
X150560089Y-111265820D01*
X150562327Y-111271222D01*
X150564570Y-111322613D01*
X150562326Y-111328779D01*
X150560088Y-111334183D01*
X150555972Y-111340342D01*
X150547100Y-111384943D01*
X150547101Y-111715056D01*
X150555972Y-111759658D01*
X150589766Y-111810234D01*
X150595923Y-111814348D01*
X150634183Y-111839913D01*
X150634184Y-111839914D01*
X150640342Y-111844028D01*
X150684943Y-111852900D01*
X150756135Y-111852900D01*
X151324955Y-111852899D01*
X151373293Y-111870492D01*
X151378129Y-111874925D01*
X151539928Y-112036724D01*
X151561668Y-112083344D01*
X151548354Y-112133031D01*
X151539928Y-112143072D01*
X151507926Y-112175074D01*
X151461306Y-112196814D01*
X151454752Y-112197100D01*
X150705911Y-112197101D01*
X150684944Y-112197101D01*
X150640342Y-112205972D01*
X150634184Y-112210087D01*
X150634182Y-112210088D01*
X150604279Y-112230069D01*
X150554314Y-112242296D01*
X150520721Y-112230069D01*
X150490818Y-112210088D01*
X150484658Y-112205972D01*
X150440057Y-112197100D01*
X150000060Y-112197100D01*
X149559944Y-112197101D01*
X149515342Y-112205972D01*
X149509184Y-112210087D01*
X149509182Y-112210088D01*
X149479279Y-112230069D01*
X149429314Y-112242296D01*
X149395721Y-112230069D01*
X149365819Y-112210089D01*
X149359658Y-112205972D01*
X149352390Y-112204526D01*
X149350422Y-112203711D01*
X149312497Y-112168958D01*
X149304000Y-112134235D01*
X149304000Y-112093000D01*
X149192273Y-111981273D01*
X149170533Y-111934653D01*
X149183847Y-111884966D01*
X149225984Y-111855461D01*
X149245446Y-111852899D01*
X149315056Y-111852899D01*
X149359658Y-111844028D01*
X149410234Y-111810234D01*
X149444028Y-111759658D01*
X149452900Y-111715057D01*
X149452899Y-111384944D01*
X149444028Y-111340342D01*
X149439911Y-111334180D01*
X149437673Y-111328778D01*
X149435430Y-111277387D01*
X149437674Y-111271221D01*
X149439912Y-111265817D01*
X149444028Y-111259658D01*
X149452900Y-111215057D01*
X149452899Y-110884944D01*
X149444028Y-110840342D01*
X149439911Y-110834180D01*
X149437673Y-110828778D01*
X149435430Y-110777387D01*
X149437674Y-110771221D01*
X149439912Y-110765817D01*
X149444028Y-110759658D01*
X149452900Y-110715057D01*
X149452899Y-110384944D01*
X149446039Y-110350451D01*
X149445474Y-110347611D01*
X149445474Y-110347610D01*
X149444028Y-110340342D01*
X149439911Y-110334180D01*
X149437673Y-110328778D01*
X149435430Y-110277387D01*
X149437674Y-110271221D01*
X149439912Y-110265817D01*
X149444028Y-110259658D01*
X149452900Y-110215057D01*
X149452899Y-109884944D01*
X149444028Y-109840342D01*
X149439911Y-109834180D01*
X149437673Y-109828778D01*
X149435430Y-109777387D01*
X149437674Y-109771221D01*
X149439912Y-109765817D01*
X149444028Y-109759658D01*
X149452900Y-109715057D01*
X149452899Y-109384944D01*
X149444028Y-109340342D01*
X149410234Y-109289766D01*
X149382432Y-109271189D01*
X149365817Y-109260087D01*
X149365816Y-109260086D01*
X149359658Y-109255972D01*
X149315057Y-109247100D01*
X149305586Y-109247100D01*
X148744199Y-109247101D01*
X148695862Y-109229508D01*
X148670142Y-109184959D01*
X148669000Y-109171901D01*
X148669000Y-108928100D01*
X148686593Y-108879762D01*
X148731142Y-108854042D01*
X148744200Y-108852900D01*
X149305582Y-108852899D01*
X149315056Y-108852899D01*
X149359658Y-108844028D01*
X149410234Y-108810234D01*
X149414348Y-108804077D01*
X149418487Y-108799938D01*
X149454697Y-108781488D01*
X149454638Y-108781334D01*
X149454639Y-108781334D01*
X149477750Y-108772463D01*
X149489042Y-108769118D01*
X149513265Y-108763969D01*
X149519658Y-108759324D01*
X149519660Y-108759323D01*
X149520252Y-108758893D01*
X149537502Y-108749527D01*
X149538184Y-108749265D01*
X149538185Y-108749264D01*
X149545564Y-108746432D01*
X149563060Y-108728936D01*
X149572032Y-108721272D01*
X149585665Y-108711367D01*
X149592058Y-108706722D01*
X149596010Y-108699878D01*
X149601298Y-108694004D01*
X149602257Y-108694867D01*
X149635154Y-108667263D01*
X149672638Y-108663653D01*
X149685000Y-108665611D01*
X149803233Y-108646885D01*
X149909893Y-108592539D01*
X149994539Y-108507893D01*
X150048885Y-108401233D01*
X150067611Y-108283000D01*
X150048885Y-108164767D01*
X150019865Y-108107813D01*
X149997228Y-108063384D01*
X149997227Y-108063383D01*
X149994539Y-108058107D01*
X149909893Y-107973461D01*
X149898583Y-107967698D01*
X149854239Y-107945104D01*
X149819157Y-107907483D01*
X149816465Y-107856114D01*
X149847422Y-107815032D01*
X149888379Y-107802900D01*
X150430259Y-107802899D01*
X150440056Y-107802899D01*
X150443680Y-107802178D01*
X150443682Y-107802178D01*
X150449014Y-107801117D01*
X150458407Y-107799249D01*
X150509247Y-107807075D01*
G37*
G04 #@! TD.AperFunction*
G04 #@! TA.AperFunction,Conductor*
G36*
X153133610Y-107281007D02*
G01*
X154003000Y-107902000D01*
X154587655Y-107902000D01*
X154635993Y-107919593D01*
X154640829Y-107924026D01*
X154648170Y-107931367D01*
X154650880Y-107934222D01*
X154678130Y-107964486D01*
X154700747Y-107974556D01*
X154711101Y-107980178D01*
X154731864Y-107993661D01*
X154740329Y-107995002D01*
X154740388Y-107995011D01*
X154759214Y-108000587D01*
X154767103Y-108004100D01*
X154791854Y-108004100D01*
X154803618Y-108005026D01*
X154820252Y-108007661D01*
X154820254Y-108007661D01*
X154828058Y-108008897D01*
X154835690Y-108006852D01*
X154835691Y-108006852D01*
X154836399Y-108006662D01*
X154855862Y-108004100D01*
X163217952Y-108004100D01*
X163266290Y-108021693D01*
X163271126Y-108026126D01*
X163632974Y-108387974D01*
X163654714Y-108434594D01*
X163655000Y-108441148D01*
X163655000Y-111890800D01*
X163637407Y-111939138D01*
X163592858Y-111964858D01*
X163579800Y-111966000D01*
X159876148Y-111966000D01*
X159827810Y-111948407D01*
X159822974Y-111943974D01*
X158702000Y-110823000D01*
X152860000Y-110823000D01*
X152681472Y-111001528D01*
X152634852Y-111023268D01*
X152585165Y-111009954D01*
X152575128Y-111001532D01*
X151967230Y-110393633D01*
X151964520Y-110390778D01*
X151942558Y-110366387D01*
X151937270Y-110360514D01*
X151914653Y-110350444D01*
X151904297Y-110344821D01*
X151883536Y-110331339D01*
X151875012Y-110329989D01*
X151856187Y-110324413D01*
X151856054Y-110324354D01*
X151848297Y-110320900D01*
X151823546Y-110320900D01*
X151812281Y-110320051D01*
X151812215Y-110320041D01*
X151767058Y-110295405D01*
X151748302Y-110247507D01*
X151749725Y-110231017D01*
X151750888Y-110225171D01*
X151777575Y-110181195D01*
X151826285Y-110164662D01*
X151847672Y-110168289D01*
X151852767Y-110170885D01*
X151858609Y-110171810D01*
X151864238Y-110173639D01*
X151864194Y-110173773D01*
X151871396Y-110173836D01*
X151965152Y-110188685D01*
X151965153Y-110188685D01*
X151971000Y-110189611D01*
X152089233Y-110170885D01*
X152146187Y-110141865D01*
X152190616Y-110119228D01*
X152190617Y-110119227D01*
X152195893Y-110116539D01*
X152280539Y-110031893D01*
X152286229Y-110020727D01*
X152332198Y-109930506D01*
X152334885Y-109925233D01*
X152353611Y-109807000D01*
X152334885Y-109688767D01*
X152280539Y-109582107D01*
X152195893Y-109497461D01*
X152089233Y-109443115D01*
X152072662Y-109440490D01*
X152012908Y-109431026D01*
X151967918Y-109406087D01*
X151949483Y-109358064D01*
X151966231Y-109309427D01*
X151988610Y-109292489D01*
X151987994Y-109291476D01*
X151992531Y-109288715D01*
X151997404Y-109286621D01*
X152001957Y-109282881D01*
X152007425Y-109277413D01*
X152021137Y-109266573D01*
X152030271Y-109260943D01*
X152040798Y-109247100D01*
X152047423Y-109238387D01*
X152054108Y-109230730D01*
X152096440Y-109188399D01*
X152137850Y-109167300D01*
X152210386Y-109155811D01*
X152216233Y-109154885D01*
X152322893Y-109100539D01*
X152407539Y-109015893D01*
X152461885Y-108909233D01*
X152472864Y-108839912D01*
X152479685Y-108796847D01*
X152480611Y-108791000D01*
X152479105Y-108781488D01*
X152462811Y-108678614D01*
X152461885Y-108672767D01*
X152407539Y-108566107D01*
X152322893Y-108481461D01*
X152313061Y-108476451D01*
X152230911Y-108434594D01*
X152216233Y-108427115D01*
X152098000Y-108408389D01*
X151979767Y-108427115D01*
X151873107Y-108481461D01*
X151871006Y-108483562D01*
X151822858Y-108497371D01*
X151775864Y-108476451D01*
X151753311Y-108430219D01*
X151752899Y-108422354D01*
X151752899Y-108384944D01*
X151744028Y-108340342D01*
X151739911Y-108334180D01*
X151737673Y-108328778D01*
X151735430Y-108277387D01*
X151737674Y-108271221D01*
X151739912Y-108265817D01*
X151744028Y-108259658D01*
X151752900Y-108215057D01*
X151752899Y-107884944D01*
X151744028Y-107840342D01*
X151728283Y-107816778D01*
X151716057Y-107766813D01*
X151728283Y-107733222D01*
X151739913Y-107715816D01*
X151744028Y-107709658D01*
X151752900Y-107665057D01*
X151752899Y-107342200D01*
X151770492Y-107293863D01*
X151815040Y-107268142D01*
X151828099Y-107267000D01*
X153089901Y-107267000D01*
X153133610Y-107281007D01*
G37*
G04 #@! TD.AperFunction*
M02*
