G04 #@! TF.GenerationSoftware,KiCad,Pcbnew,(6.0.0)*
G04 #@! TF.CreationDate,2022-06-18T15:13:31-07:00*
G04 #@! TF.ProjectId,max86141_Rev_A,6d617838-3631-4343-915f-5265765f412e,A*
G04 #@! TF.SameCoordinates,Original*
G04 #@! TF.FileFunction,Legend,Bot*
G04 #@! TF.FilePolarity,Positive*
%FSLAX46Y46*%
G04 Gerber Fmt 4.6, Leading zero omitted, Abs format (unit mm)*
G04 Created by KiCad (PCBNEW (6.0.0)) date 2022-06-18 15:13:31*
%MOMM*%
%LPD*%
G01*
G04 APERTURE LIST*
%ADD10C,0.177800*%
%ADD11C,0.254000*%
%ADD12C,0.127000*%
%ADD13C,0.120000*%
%ADD14C,0.100000*%
%ADD15C,0.200000*%
%ADD16C,0.700000*%
%ADD17C,0.650000*%
%ADD18R,1.700000X1.700000*%
%ADD19O,1.700000X1.700000*%
%ADD20C,1.000000*%
%ADD21R,0.900000X0.300000*%
%ADD22R,0.850000X0.300000*%
G04 APERTURE END LIST*
D10*
X169004575Y-97629133D02*
X168520766Y-97629133D01*
X169101337Y-97919419D02*
X168762670Y-96903419D01*
X168424004Y-97919419D01*
X167649908Y-97919419D02*
X167649908Y-97387228D01*
X167698289Y-97290466D01*
X167795051Y-97242085D01*
X167988575Y-97242085D01*
X168085337Y-97290466D01*
X167649908Y-97871038D02*
X167746670Y-97919419D01*
X167988575Y-97919419D01*
X168085337Y-97871038D01*
X168133718Y-97774276D01*
X168133718Y-97677514D01*
X168085337Y-97580752D01*
X167988575Y-97532371D01*
X167746670Y-97532371D01*
X167649908Y-97483990D01*
X167166099Y-97919419D02*
X167166099Y-97242085D01*
X167166099Y-97435609D02*
X167117718Y-97338847D01*
X167069337Y-97290466D01*
X166972575Y-97242085D01*
X166875813Y-97242085D01*
X166392004Y-97919419D02*
X166488766Y-97871038D01*
X166537146Y-97822657D01*
X166585527Y-97725895D01*
X166585527Y-97435609D01*
X166537146Y-97338847D01*
X166488766Y-97290466D01*
X166392004Y-97242085D01*
X166246861Y-97242085D01*
X166150099Y-97290466D01*
X166101718Y-97338847D01*
X166053337Y-97435609D01*
X166053337Y-97725895D01*
X166101718Y-97822657D01*
X166150099Y-97871038D01*
X166246861Y-97919419D01*
X166392004Y-97919419D01*
X165617908Y-97242085D02*
X165617908Y-97919419D01*
X165617908Y-97338847D02*
X165569527Y-97290466D01*
X165472766Y-97242085D01*
X165327623Y-97242085D01*
X165230861Y-97290466D01*
X165182480Y-97387228D01*
X165182480Y-97919419D01*
X163924575Y-97919419D02*
X163924575Y-96903419D01*
X163344004Y-97919419D01*
X163344004Y-96903419D01*
X162424766Y-97242085D02*
X162424766Y-98064561D01*
X162473146Y-98161323D01*
X162521527Y-98209704D01*
X162618289Y-98258085D01*
X162763432Y-98258085D01*
X162860194Y-98209704D01*
X162424766Y-97871038D02*
X162521527Y-97919419D01*
X162715051Y-97919419D01*
X162811813Y-97871038D01*
X162860194Y-97822657D01*
X162908575Y-97725895D01*
X162908575Y-97435609D01*
X162860194Y-97338847D01*
X162811813Y-97290466D01*
X162715051Y-97242085D01*
X162521527Y-97242085D01*
X162424766Y-97290466D01*
X161505527Y-97242085D02*
X161505527Y-97919419D01*
X161940956Y-97242085D02*
X161940956Y-97774276D01*
X161892575Y-97871038D01*
X161795813Y-97919419D01*
X161650670Y-97919419D01*
X161553908Y-97871038D01*
X161505527Y-97822657D01*
X161118480Y-97242085D02*
X160876575Y-97919419D01*
X160634670Y-97242085D02*
X160876575Y-97919419D01*
X160973337Y-98161323D01*
X161021718Y-98209704D01*
X161118480Y-98258085D01*
X159860575Y-97871038D02*
X159957337Y-97919419D01*
X160150861Y-97919419D01*
X160247623Y-97871038D01*
X160296004Y-97774276D01*
X160296004Y-97387228D01*
X160247623Y-97290466D01*
X160150861Y-97242085D01*
X159957337Y-97242085D01*
X159860575Y-97290466D01*
X159812194Y-97387228D01*
X159812194Y-97483990D01*
X160296004Y-97580752D01*
X159376766Y-97242085D02*
X159376766Y-97919419D01*
X159376766Y-97338847D02*
X159328385Y-97290466D01*
X159231623Y-97242085D01*
X159086480Y-97242085D01*
X158989718Y-97290466D01*
X158941337Y-97387228D01*
X158941337Y-97919419D01*
X168956195Y-95918919D02*
X168956195Y-94902919D01*
X168617528Y-95628633D01*
X168278862Y-94902919D01*
X168278862Y-95918919D01*
X167843433Y-95628633D02*
X167359623Y-95628633D01*
X167940195Y-95918919D02*
X167601528Y-94902919D01*
X167262862Y-95918919D01*
X167020957Y-94902919D02*
X166343623Y-95918919D01*
X166343623Y-94902919D02*
X167020957Y-95918919D01*
X165811433Y-95338347D02*
X165908195Y-95289966D01*
X165956576Y-95241585D01*
X166004957Y-95144823D01*
X166004957Y-95096442D01*
X165956576Y-94999680D01*
X165908195Y-94951300D01*
X165811433Y-94902919D01*
X165617909Y-94902919D01*
X165521147Y-94951300D01*
X165472766Y-94999680D01*
X165424385Y-95096442D01*
X165424385Y-95144823D01*
X165472766Y-95241585D01*
X165521147Y-95289966D01*
X165617909Y-95338347D01*
X165811433Y-95338347D01*
X165908195Y-95386728D01*
X165956576Y-95435109D01*
X166004957Y-95531871D01*
X166004957Y-95725395D01*
X165956576Y-95822157D01*
X165908195Y-95870538D01*
X165811433Y-95918919D01*
X165617909Y-95918919D01*
X165521147Y-95870538D01*
X165472766Y-95822157D01*
X165424385Y-95725395D01*
X165424385Y-95531871D01*
X165472766Y-95435109D01*
X165521147Y-95386728D01*
X165617909Y-95338347D01*
X164553528Y-94902919D02*
X164747052Y-94902919D01*
X164843814Y-94951300D01*
X164892195Y-94999680D01*
X164988957Y-95144823D01*
X165037338Y-95338347D01*
X165037338Y-95725395D01*
X164988957Y-95822157D01*
X164940576Y-95870538D01*
X164843814Y-95918919D01*
X164650290Y-95918919D01*
X164553528Y-95870538D01*
X164505147Y-95822157D01*
X164456766Y-95725395D01*
X164456766Y-95483490D01*
X164505147Y-95386728D01*
X164553528Y-95338347D01*
X164650290Y-95289966D01*
X164843814Y-95289966D01*
X164940576Y-95338347D01*
X164988957Y-95386728D01*
X165037338Y-95483490D01*
X163489147Y-95918919D02*
X164069719Y-95918919D01*
X163779433Y-95918919D02*
X163779433Y-94902919D01*
X163876195Y-95048061D01*
X163972957Y-95144823D01*
X164069719Y-95193204D01*
X162618290Y-95241585D02*
X162618290Y-95918919D01*
X162860195Y-94854538D02*
X163102100Y-95580252D01*
X162473147Y-95580252D01*
X161553909Y-95918919D02*
X162134481Y-95918919D01*
X161844195Y-95918919D02*
X161844195Y-94902919D01*
X161940957Y-95048061D01*
X162037719Y-95144823D01*
X162134481Y-95193204D01*
X161360385Y-96015680D02*
X160586290Y-96015680D01*
X159763814Y-95918919D02*
X160102481Y-95435109D01*
X160344385Y-95918919D02*
X160344385Y-94902919D01*
X159957338Y-94902919D01*
X159860576Y-94951300D01*
X159812195Y-94999680D01*
X159763814Y-95096442D01*
X159763814Y-95241585D01*
X159812195Y-95338347D01*
X159860576Y-95386728D01*
X159957338Y-95435109D01*
X160344385Y-95435109D01*
X158941338Y-95870538D02*
X159038100Y-95918919D01*
X159231623Y-95918919D01*
X159328385Y-95870538D01*
X159376766Y-95773776D01*
X159376766Y-95386728D01*
X159328385Y-95289966D01*
X159231623Y-95241585D01*
X159038100Y-95241585D01*
X158941338Y-95289966D01*
X158892957Y-95386728D01*
X158892957Y-95483490D01*
X159376766Y-95580252D01*
X158554290Y-95241585D02*
X158312385Y-95918919D01*
X158070481Y-95241585D01*
X157925338Y-96015680D02*
X157151243Y-96015680D01*
X156957719Y-95628633D02*
X156473909Y-95628633D01*
X157054481Y-95918919D02*
X156715814Y-94902919D01*
X156377147Y-95918919D01*
D11*
X166702619Y-92947066D02*
X166097857Y-92947066D01*
X166823571Y-93309923D02*
X166400238Y-92039923D01*
X165976904Y-93309923D01*
X165553571Y-93309923D02*
X165553571Y-92039923D01*
X164827857Y-93309923D01*
X164827857Y-92039923D01*
D12*
X166307709Y-114129861D02*
X165944852Y-114129861D01*
X166126280Y-114764861D02*
X166126280Y-114129861D01*
X165733185Y-114764861D02*
X165733185Y-114129861D01*
X165491280Y-114129861D01*
X165430804Y-114160100D01*
X165400566Y-114190338D01*
X165370328Y-114250814D01*
X165370328Y-114341528D01*
X165400566Y-114402004D01*
X165430804Y-114432242D01*
X165491280Y-114462480D01*
X165733185Y-114462480D01*
X165158661Y-114129861D02*
X164765566Y-114129861D01*
X164977233Y-114371766D01*
X164886519Y-114371766D01*
X164826042Y-114402004D01*
X164795804Y-114432242D01*
X164765566Y-114492719D01*
X164765566Y-114643909D01*
X164795804Y-114704385D01*
X164826042Y-114734623D01*
X164886519Y-114764861D01*
X165067947Y-114764861D01*
X165128423Y-114734623D01*
X165158661Y-114704385D01*
X150422809Y-106030261D02*
X150422809Y-106544309D01*
X150392571Y-106604785D01*
X150362333Y-106635023D01*
X150301857Y-106665261D01*
X150180904Y-106665261D01*
X150120428Y-106635023D01*
X150090190Y-106604785D01*
X150059952Y-106544309D01*
X150059952Y-106030261D01*
X149666857Y-106302404D02*
X149727333Y-106272166D01*
X149757571Y-106241928D01*
X149787809Y-106181452D01*
X149787809Y-106151214D01*
X149757571Y-106090738D01*
X149727333Y-106060500D01*
X149666857Y-106030261D01*
X149545904Y-106030261D01*
X149485428Y-106060500D01*
X149455190Y-106090738D01*
X149424952Y-106151214D01*
X149424952Y-106181452D01*
X149455190Y-106241928D01*
X149485428Y-106272166D01*
X149545904Y-106302404D01*
X149666857Y-106302404D01*
X149727333Y-106332642D01*
X149757571Y-106362880D01*
X149787809Y-106423357D01*
X149787809Y-106544309D01*
X149757571Y-106604785D01*
X149727333Y-106635023D01*
X149666857Y-106665261D01*
X149545904Y-106665261D01*
X149485428Y-106635023D01*
X149455190Y-106604785D01*
X149424952Y-106544309D01*
X149424952Y-106423357D01*
X149455190Y-106362880D01*
X149485428Y-106332642D01*
X149545904Y-106302404D01*
X152642509Y-119311461D02*
X152279652Y-119311461D01*
X152461080Y-119946461D02*
X152461080Y-119311461D01*
X152067985Y-119946461D02*
X152067985Y-119311461D01*
X151826080Y-119311461D01*
X151765604Y-119341700D01*
X151735366Y-119371938D01*
X151705128Y-119432414D01*
X151705128Y-119523128D01*
X151735366Y-119583604D01*
X151765604Y-119613842D01*
X151826080Y-119644080D01*
X152067985Y-119644080D01*
X151100366Y-119946461D02*
X151463223Y-119946461D01*
X151281795Y-119946461D02*
X151281795Y-119311461D01*
X151342271Y-119402176D01*
X151402747Y-119462652D01*
X151463223Y-119492890D01*
X155334909Y-119209861D02*
X154972052Y-119209861D01*
X155153480Y-119844861D02*
X155153480Y-119209861D01*
X154760385Y-119844861D02*
X154760385Y-119209861D01*
X154518480Y-119209861D01*
X154458004Y-119240100D01*
X154427766Y-119270338D01*
X154397528Y-119330814D01*
X154397528Y-119421528D01*
X154427766Y-119482004D01*
X154458004Y-119512242D01*
X154518480Y-119542480D01*
X154760385Y-119542480D01*
X154155623Y-119270338D02*
X154125385Y-119240100D01*
X154064909Y-119209861D01*
X153913719Y-119209861D01*
X153853242Y-119240100D01*
X153823004Y-119270338D01*
X153792766Y-119330814D01*
X153792766Y-119391290D01*
X153823004Y-119482004D01*
X154185861Y-119844861D01*
X153792766Y-119844861D01*
X139180509Y-120225861D02*
X138817652Y-120225861D01*
X138999080Y-120860861D02*
X138999080Y-120225861D01*
X138605985Y-120860861D02*
X138605985Y-120225861D01*
X138364080Y-120225861D01*
X138303604Y-120256100D01*
X138273366Y-120286338D01*
X138243128Y-120346814D01*
X138243128Y-120437528D01*
X138273366Y-120498004D01*
X138303604Y-120528242D01*
X138364080Y-120558480D01*
X138605985Y-120558480D01*
X138031461Y-120225861D02*
X137608128Y-120225861D01*
X137880271Y-120860861D01*
X141974509Y-120124261D02*
X141611652Y-120124261D01*
X141793080Y-120759261D02*
X141793080Y-120124261D01*
X141399985Y-120759261D02*
X141399985Y-120124261D01*
X141158080Y-120124261D01*
X141097604Y-120154500D01*
X141067366Y-120184738D01*
X141037128Y-120245214D01*
X141037128Y-120335928D01*
X141067366Y-120396404D01*
X141097604Y-120426642D01*
X141158080Y-120456880D01*
X141399985Y-120456880D01*
X140674271Y-120396404D02*
X140734747Y-120366166D01*
X140764985Y-120335928D01*
X140795223Y-120275452D01*
X140795223Y-120245214D01*
X140764985Y-120184738D01*
X140734747Y-120154500D01*
X140674271Y-120124261D01*
X140553319Y-120124261D01*
X140492842Y-120154500D01*
X140462604Y-120184738D01*
X140432366Y-120245214D01*
X140432366Y-120275452D01*
X140462604Y-120335928D01*
X140492842Y-120366166D01*
X140553319Y-120396404D01*
X140674271Y-120396404D01*
X140734747Y-120426642D01*
X140764985Y-120456880D01*
X140795223Y-120517357D01*
X140795223Y-120638309D01*
X140764985Y-120698785D01*
X140734747Y-120729023D01*
X140674271Y-120759261D01*
X140553319Y-120759261D01*
X140492842Y-120729023D01*
X140462604Y-120698785D01*
X140432366Y-120638309D01*
X140432366Y-120517357D01*
X140462604Y-120456880D01*
X140492842Y-120426642D01*
X140553319Y-120396404D01*
X145632109Y-119260661D02*
X145269252Y-119260661D01*
X145450680Y-119895661D02*
X145450680Y-119260661D01*
X145057585Y-119895661D02*
X145057585Y-119260661D01*
X144815680Y-119260661D01*
X144755204Y-119290900D01*
X144724966Y-119321138D01*
X144694728Y-119381614D01*
X144694728Y-119472328D01*
X144724966Y-119532804D01*
X144755204Y-119563042D01*
X144815680Y-119593280D01*
X145057585Y-119593280D01*
X144150442Y-119472328D02*
X144150442Y-119895661D01*
X144301633Y-119230423D02*
X144452823Y-119683995D01*
X144059728Y-119683995D01*
X133236909Y-107627461D02*
X132874052Y-107627461D01*
X133055480Y-108262461D02*
X133055480Y-107627461D01*
X132662385Y-108262461D02*
X132662385Y-107627461D01*
X132420480Y-107627461D01*
X132360004Y-107657700D01*
X132329766Y-107687938D01*
X132299528Y-107748414D01*
X132299528Y-107839128D01*
X132329766Y-107899604D01*
X132360004Y-107929842D01*
X132420480Y-107960080D01*
X132662385Y-107960080D01*
X131725004Y-107627461D02*
X132027385Y-107627461D01*
X132057623Y-107929842D01*
X132027385Y-107899604D01*
X131966909Y-107869366D01*
X131815719Y-107869366D01*
X131755242Y-107899604D01*
X131725004Y-107929842D01*
X131694766Y-107990319D01*
X131694766Y-108141509D01*
X131725004Y-108201985D01*
X131755242Y-108232223D01*
X131815719Y-108262461D01*
X131966909Y-108262461D01*
X132027385Y-108232223D01*
X132057623Y-108201985D01*
X152642509Y-123832661D02*
X152279652Y-123832661D01*
X152461080Y-124467661D02*
X152461080Y-123832661D01*
X152067985Y-124467661D02*
X152067985Y-123832661D01*
X151826080Y-123832661D01*
X151765604Y-123862900D01*
X151735366Y-123893138D01*
X151705128Y-123953614D01*
X151705128Y-124044328D01*
X151735366Y-124104804D01*
X151765604Y-124135042D01*
X151826080Y-124165280D01*
X152067985Y-124165280D01*
X151160842Y-123832661D02*
X151281795Y-123832661D01*
X151342271Y-123862900D01*
X151372509Y-123893138D01*
X151432985Y-123983852D01*
X151463223Y-124104804D01*
X151463223Y-124346709D01*
X151432985Y-124407185D01*
X151402747Y-124437423D01*
X151342271Y-124467661D01*
X151221319Y-124467661D01*
X151160842Y-124437423D01*
X151130604Y-124407185D01*
X151100366Y-124346709D01*
X151100366Y-124195519D01*
X151130604Y-124135042D01*
X151160842Y-124104804D01*
X151221319Y-124074566D01*
X151342271Y-124074566D01*
X151402747Y-124104804D01*
X151432985Y-124135042D01*
X151463223Y-124195519D01*
D13*
X169037000Y-94259400D02*
X162687000Y-94259400D01*
X162687000Y-94259400D02*
X162687000Y-91084400D01*
X162687000Y-91084400D02*
X168656000Y-91084400D01*
X169037000Y-91465400D02*
X169037000Y-94259400D01*
X165608000Y-91211400D02*
X165652155Y-91228291D01*
X165570832Y-91197519D02*
G75*
G03*
X165558283Y-91193625I-42745J-115581D01*
G01*
X165570832Y-91197519D02*
X165608000Y-91211400D01*
X165652155Y-91228291D02*
X165700901Y-91247403D01*
X165700901Y-91247403D02*
X165748911Y-91266176D01*
X165748911Y-91266176D02*
X165790747Y-91281998D01*
X165440678Y-91249161D02*
X165485744Y-91261917D01*
X164530048Y-91520712D02*
G75*
G03*
X164533022Y-91519382I-5926J17241D01*
G01*
X164507833Y-91430084D02*
X164524288Y-91427278D01*
X165241101Y-91199893D02*
X165341303Y-91224293D01*
X165493970Y-91262111D02*
G75*
G03*
X165500499Y-91257839I-3109J11878D01*
G01*
X165526374Y-91194283D02*
G75*
G03*
X165518174Y-91205540I15021J-19556D01*
G01*
X165558283Y-91193625D02*
G75*
G03*
X165538323Y-91190585I-25707J-101716D01*
G01*
X164477164Y-91538744D02*
X164505436Y-91529153D01*
X164496241Y-91432299D02*
X164507833Y-91430084D01*
X165201116Y-91191703D02*
X165241101Y-91199893D01*
X164505436Y-91529153D02*
X164530048Y-91520712D01*
X165176587Y-91276387D02*
X165169752Y-91230803D01*
X164716815Y-91393813D02*
X164801219Y-91376285D01*
X164827702Y-91362980D02*
G75*
G03*
X164833701Y-91343294I-12535J14577D01*
G01*
X165162916Y-91185218D02*
X165201116Y-91191703D01*
X164533544Y-91517340D02*
X164526303Y-91506132D01*
X164526303Y-91506132D02*
X164516868Y-91492720D01*
X164533022Y-91519382D02*
G75*
G03*
X164533544Y-91517340I-710J1269D01*
G01*
X164504947Y-91477184D02*
X164473166Y-91437057D01*
X164366660Y-91576658D02*
X164407386Y-91562289D01*
X164542311Y-91424401D02*
X164559316Y-91421889D01*
X164559316Y-91421889D02*
X164581846Y-91418359D01*
X164516868Y-91492720D02*
X164504947Y-91477184D01*
X164524288Y-91427278D02*
X164542311Y-91424401D01*
X164581846Y-91418359D02*
X164622082Y-91411310D01*
X164668897Y-91402812D02*
X164716815Y-91393813D01*
X164833702Y-91343295D02*
G75*
G03*
X164819060Y-91305891I-186245J-51335D01*
G01*
X164803803Y-91276387D02*
X164990195Y-91276387D01*
X165169752Y-91230803D02*
X165162916Y-91185218D01*
X164622082Y-91411310D02*
X164668897Y-91402812D01*
X165485744Y-91261916D02*
G75*
G03*
X165493970Y-91262110I4450J14228D01*
G01*
X164407386Y-91562289D02*
X164444316Y-91549732D01*
X164444316Y-91549732D02*
X164477164Y-91538744D01*
X164990195Y-91276387D02*
X165176587Y-91276387D01*
X164473166Y-91437057D02*
X164496241Y-91432299D01*
X164801219Y-91376285D02*
G75*
G03*
X164827702Y-91362980I-13406J59693D01*
G01*
X165341303Y-91224293D02*
X165440678Y-91249161D01*
X165500499Y-91257839D02*
G75*
G03*
X165505878Y-91247850I-25711J20289D01*
G01*
X165505878Y-91247850D02*
G75*
G03*
X165510938Y-91229990I-201047J66603D01*
G01*
X164328295Y-91590619D02*
X164366660Y-91576658D01*
X164819060Y-91305891D02*
X164803803Y-91276387D01*
X165518174Y-91205540D02*
G75*
G03*
X165510938Y-91229990I216398J-77338D01*
G01*
X165538323Y-91190585D02*
G75*
G03*
X165526374Y-91194282I-986J-17970D01*
G01*
X165790747Y-91281998D02*
X165826880Y-91295285D01*
X166235385Y-91276013D02*
X166270928Y-91299414D01*
X166815172Y-91522947D02*
X166822185Y-91514062D01*
X166468098Y-91428083D02*
G75*
G03*
X166480760Y-91402510I-243085J136280D01*
G01*
X166381418Y-91391038D02*
X166399717Y-91405615D01*
X166448518Y-91444396D02*
G75*
G03*
X166456072Y-91443530I3201J5458D01*
G01*
X166629535Y-91477319D02*
X166679674Y-91522833D01*
X166875931Y-91536428D02*
X166887810Y-91551018D01*
X166270928Y-91299414D02*
X166292635Y-91315558D01*
X166764660Y-91596197D02*
G75*
G03*
X166767565Y-91594890I129J3597D01*
G01*
X166499754Y-91358632D02*
X166629535Y-91477319D01*
X166767565Y-91594890D02*
X166773908Y-91586785D01*
X166905560Y-91577456D02*
G75*
G03*
X166898353Y-91565522I-106869J-56396D01*
G01*
X166722763Y-91561198D02*
X166760963Y-91594731D01*
X166905560Y-91577456D02*
G75*
G03*
X166913607Y-91590602I107001J56466D01*
G01*
X166788636Y-91563887D02*
X166796863Y-91550175D01*
X166864452Y-91524062D02*
X166875931Y-91536428D01*
X166913607Y-91590602D02*
X166927638Y-91609782D01*
X166927638Y-91609782D02*
X166944281Y-91630846D01*
X165826879Y-91295284D02*
G75*
G03*
X165833118Y-91296387I6239J17095D01*
G01*
X165840776Y-91284395D02*
G75*
G03*
X165844440Y-91271207I-107528J36980D01*
G01*
X166363240Y-91374888D02*
X166381418Y-91391038D01*
X166838944Y-91503356D02*
G75*
G03*
X166831729Y-91504942I-1960J-8284D01*
G01*
X165833118Y-91296388D02*
G75*
G03*
X165836764Y-91294106I0J4054D01*
G01*
X166292635Y-91315558D02*
X166318005Y-91335782D01*
X165836764Y-91294106D02*
G75*
G03*
X165840776Y-91284395I-78107J37953D01*
G01*
X166399717Y-91405615D02*
X166415911Y-91417107D01*
X166088282Y-91326969D02*
X166106210Y-91336967D01*
X165881755Y-91218289D02*
G75*
G03*
X165904691Y-91234470I95293J110733D01*
G01*
X166442989Y-91433063D02*
G75*
G03*
X166438860Y-91428743I-19753J-14746D01*
G01*
X166152272Y-91367057D02*
X166173292Y-91334222D01*
X166480760Y-91402510D02*
X166499754Y-91358632D01*
X165881755Y-91218289D02*
G75*
G03*
X165867545Y-91209074I-40961J-47599D01*
G01*
X166444316Y-91437061D02*
G75*
G03*
X166442988Y-91433062I-6684J0D01*
G01*
X166173292Y-91334222D02*
X166205763Y-91285225D01*
X166009682Y-91290333D02*
X166054316Y-91310549D01*
X166781109Y-91576327D02*
X166788636Y-91563887D01*
X165904691Y-91234470D02*
X165955361Y-91262452D01*
X166847372Y-91507793D02*
G75*
G03*
X166838944Y-91503355I-12818J-14119D01*
G01*
X166847372Y-91507794D02*
X166864452Y-91524062D01*
X165858638Y-91210799D02*
G75*
G03*
X165852464Y-91222988I18163J-16858D01*
G01*
X166054316Y-91310549D02*
X166069999Y-91317623D01*
X166432848Y-91424784D02*
G75*
G03*
X166425740Y-91421839I-20747J-40026D01*
G01*
X166679674Y-91522833D02*
X166722763Y-91561198D01*
X166760963Y-91594731D02*
G75*
G03*
X166764660Y-91596197I3909J4463D01*
G01*
X166773908Y-91586785D02*
X166781109Y-91576327D01*
X166831730Y-91504943D02*
G75*
G03*
X166822185Y-91514062I41917J-53424D01*
G01*
X166219798Y-91274419D02*
G75*
G03*
X166205763Y-91285225I9641J-27040D01*
G01*
X166806177Y-91535845D02*
X166815172Y-91522947D01*
X165844440Y-91271207D02*
X165847159Y-91255562D01*
X166318005Y-91335782D02*
X166342921Y-91356673D01*
X166069999Y-91317623D02*
X166088282Y-91326969D01*
X166342921Y-91356673D02*
X166363240Y-91374888D01*
X166796863Y-91550175D02*
X166806177Y-91535845D01*
X165847159Y-91255562D02*
X165852464Y-91222988D01*
X166887810Y-91551018D02*
X166898353Y-91565522D01*
X165955361Y-91262452D02*
X166009682Y-91290333D01*
X166106210Y-91336967D02*
X166120794Y-91346061D01*
X166120794Y-91346061D02*
X166152272Y-91367057D01*
X166438860Y-91428743D02*
G75*
G03*
X166432848Y-91424784I-21945J-26781D01*
G01*
X165867544Y-91209074D02*
G75*
G03*
X165858638Y-91210799I-3273J-6953D01*
G01*
X166235385Y-91276014D02*
G75*
G03*
X166219799Y-91274420I-9467J-15572D01*
G01*
X166415912Y-91417107D02*
G75*
G03*
X166425740Y-91421839I21538J32163D01*
G01*
X166444317Y-91437061D02*
G75*
G03*
X166448518Y-91444396I8503J0D01*
G01*
X166456072Y-91443530D02*
G75*
G03*
X166468098Y-91428083I-44905J47365D01*
G01*
X167410972Y-92065641D02*
X167425827Y-92060794D01*
X167443715Y-92175073D02*
X167442299Y-92248887D01*
X167394316Y-92071387D02*
X167410972Y-92065641D01*
X167188329Y-91863418D02*
G75*
G03*
X167189766Y-91863558I790J667D01*
G01*
X167455636Y-92505541D02*
X167487113Y-92621387D01*
X166944281Y-91630846D02*
X166961403Y-91650894D01*
X167503258Y-92668340D02*
X167527270Y-92722346D01*
X167003489Y-91698263D02*
X167058784Y-91671210D01*
X167262467Y-91799101D02*
X167292885Y-91915244D01*
X167146703Y-91697740D02*
X167164237Y-91773806D01*
X167527270Y-92722346D02*
X167553152Y-92771786D01*
X167581545Y-92810622D02*
G75*
G03*
X167574270Y-92801387I-82393J-57424D01*
G01*
X167344044Y-92084534D02*
G75*
G03*
X167357324Y-92083769I5136J26471D01*
G01*
X167617611Y-92874060D02*
X167674532Y-92924833D01*
X167598563Y-92843014D02*
G75*
G03*
X167617611Y-92874060I68735J20804D01*
G01*
X167444092Y-92112934D02*
X167443715Y-92175073D01*
X167806620Y-93004694D02*
X167831398Y-93010821D01*
X166961403Y-91650894D02*
X167003489Y-91698263D01*
X167425827Y-92060794D02*
X167438411Y-92056903D01*
X167212248Y-91844850D02*
X167226256Y-91832275D01*
X167357324Y-92083769D02*
X167394316Y-92071387D01*
X167873743Y-93016388D02*
G75*
G03*
X167894966Y-93015024I0J165842D01*
G01*
X167855181Y-93015057D02*
G75*
G03*
X167873743Y-93016387I18562J128891D01*
G01*
X167144317Y-91676339D02*
G75*
G03*
X167146703Y-91697740I97169J0D01*
G01*
X167553151Y-92771786D02*
G75*
G03*
X167574270Y-92801387I149524J84342D01*
G01*
X167921598Y-93001729D02*
G75*
G03*
X167934478Y-92986161I-100856J96554D01*
G01*
X167894966Y-93015024D02*
G75*
G03*
X167909561Y-93010588I-5881J45579D01*
G01*
X167973994Y-92948592D02*
G75*
G03*
X167934478Y-92986161I76934J-120489D01*
G01*
X168217309Y-93036166D02*
G75*
G03*
X168192989Y-92990043I-396433J-179553D01*
G01*
X167164237Y-91773806D02*
X167183090Y-91853072D01*
X167292885Y-91915244D02*
X167305015Y-91961729D01*
X167325732Y-92042082D02*
X167329894Y-92058887D01*
X167784655Y-92997436D02*
G75*
G03*
X167806620Y-93004694I93450J245942D01*
G01*
X168087452Y-92916400D02*
G75*
G03*
X168028639Y-92924034I-3693J-201911D01*
G01*
X168139095Y-92928106D02*
G75*
G03*
X168087451Y-92916400I-54026J-118575D01*
G01*
X167183090Y-91853072D02*
G75*
G03*
X167188329Y-91863418I24438J5875D01*
G01*
X167226256Y-91832275D02*
X167262467Y-91799101D01*
X167443900Y-92058393D02*
X167444092Y-92112934D01*
X167443901Y-92058393D02*
G75*
G03*
X167441885Y-92056387I-2016J-10D01*
G01*
X167674532Y-92924833D02*
X167736794Y-92972186D01*
X167588727Y-92821865D02*
X167594787Y-92833291D01*
X167440337Y-92379802D02*
G75*
G03*
X167443994Y-92443969I512043J-3006D01*
G01*
X167736794Y-92972187D02*
G75*
G03*
X167784655Y-92997436I126619J182024D01*
G01*
X168028638Y-92924035D02*
G75*
G03*
X167973993Y-92948593I56238J-198212D01*
G01*
X167487112Y-92621388D02*
G75*
G03*
X167503258Y-92668340I437575J124216D01*
G01*
X167200178Y-91855108D02*
X167212248Y-91844850D01*
X167329893Y-92058887D02*
G75*
G03*
X167336208Y-92078168I121525J29125D01*
G01*
X167138446Y-91658509D02*
G75*
G03*
X167123869Y-91650597I-15749J-11631D01*
G01*
X167144316Y-91676339D02*
G75*
G03*
X167138446Y-91658509I-30012J0D01*
G01*
X167598564Y-92843015D02*
G75*
G03*
X167594787Y-92833291I-65271J-19756D01*
G01*
X168163572Y-92947409D02*
G75*
G03*
X168139095Y-92928106I-51636J-40307D01*
G01*
X167336208Y-92078169D02*
G75*
G03*
X167344044Y-92084535I9876J4150D01*
G01*
X167098163Y-91654385D02*
G75*
G03*
X167058784Y-91671210I144352J-392357D01*
G01*
X167442299Y-92248887D02*
X167440337Y-92379802D01*
X168192989Y-92990043D02*
G75*
G03*
X168163572Y-92947409I-376758J-228493D01*
G01*
X167441885Y-92056388D02*
G75*
G03*
X167438411Y-92056903I0J-11976D01*
G01*
X167831398Y-93010821D02*
X167855181Y-93015058D01*
X167305015Y-91961729D02*
X167316304Y-92005349D01*
X167123870Y-91650597D02*
G75*
G03*
X167098163Y-91654385I-3799J-63337D01*
G01*
X167581545Y-92810623D02*
X167588727Y-92821865D01*
X167909561Y-93010588D02*
G75*
G03*
X167921598Y-93001729I-19376J38933D01*
G01*
X167316304Y-92005349D02*
X167325732Y-92042082D01*
X167443994Y-92443969D02*
G75*
G03*
X167455636Y-92505541I463660J55781D01*
G01*
X167189766Y-91863558D02*
X167200178Y-91855108D01*
X167514316Y-93735116D02*
X167380227Y-93788538D01*
X167758343Y-93578292D02*
X167620939Y-93677504D01*
X166950010Y-94038505D02*
G75*
G03*
X166954374Y-94008789I-56614J23492D01*
G01*
X166898128Y-93886110D02*
G75*
G03*
X166895293Y-93898527I4896J-7650D01*
G01*
X167167257Y-93845295D02*
G75*
G03*
X167275122Y-93822067I-186137J1126421D01*
G01*
X166274704Y-93996542D02*
G75*
G03*
X166322369Y-94044315I327944J279538D01*
G01*
X166235713Y-93942946D02*
G75*
G03*
X166274704Y-93996543I367100J226082D01*
G01*
X165159665Y-94075766D02*
G75*
G03*
X165208665Y-94066635I-722J139910D01*
G01*
X164488754Y-93952225D02*
G75*
G03*
X164499787Y-93994578I238066J39404D01*
G01*
X166463892Y-94073400D02*
X166388219Y-94070333D01*
X165225322Y-93982623D02*
G75*
G03*
X165199993Y-93937392I-288286J-131726D01*
G01*
X164499786Y-93994578D02*
G75*
G03*
X164517404Y-94027829I125452J45176D01*
G01*
X165694993Y-93886387D02*
X165165669Y-93886387D01*
X164420023Y-93866731D02*
X164284432Y-93830882D01*
X164019829Y-93744146D02*
X163904316Y-93700166D01*
X164488754Y-93952226D02*
G75*
G03*
X164476645Y-93905469I-266935J-44183D01*
G01*
X167885799Y-93472022D02*
X167758343Y-93578292D01*
X163803346Y-93653196D02*
G75*
G03*
X163904316Y-93700166I421134J773294D01*
G01*
X166866920Y-94073509D02*
X166794544Y-94075809D01*
X168054959Y-93251262D02*
G75*
G03*
X168008549Y-93310967I615846J-526607D01*
G01*
X166363873Y-94066430D02*
G75*
G03*
X166388219Y-94070333I29525J106280D01*
G01*
X166554226Y-94075593D02*
X166463892Y-94073400D01*
X168224316Y-93068626D02*
G75*
G03*
X168217308Y-93036167I-78674J0D01*
G01*
X168197310Y-93132062D02*
G75*
G03*
X168217562Y-93099313I-125029J99956D01*
G01*
X167885799Y-93472022D02*
G75*
G03*
X167952027Y-93394650I-253998J284443D01*
G01*
X166895293Y-93898527D02*
G75*
G03*
X166919054Y-93933082I358907J221348D01*
G01*
X166011807Y-93886807D02*
X165694993Y-93886387D01*
X166224316Y-93902707D02*
G75*
G03*
X166235713Y-93942946I76736J0D01*
G01*
X165159665Y-94075766D02*
X164895016Y-94076259D01*
X168008549Y-93310967D02*
X167952027Y-93394650D01*
X166954375Y-94008789D02*
G75*
G03*
X166943929Y-93972898I-103011J-10514D01*
G01*
X167275122Y-93822067D02*
G75*
G03*
X167380227Y-93788538I-293904J1102822D01*
G01*
X168131019Y-93185326D02*
G75*
G03*
X168095002Y-93209945I69853J-140849D01*
G01*
X166322370Y-94044316D02*
G75*
G03*
X166363873Y-94066429I70527J82363D01*
G01*
X164457972Y-93882791D02*
G75*
G03*
X164420023Y-93866731I-77840J-131069D01*
G01*
X166910635Y-94069256D02*
X166866920Y-94073509D01*
X164895016Y-94076259D02*
X164635375Y-94074776D01*
X165228767Y-94049106D02*
G75*
G03*
X165234986Y-94020824I-45440J24816D01*
G01*
X167167257Y-93845296D02*
X167024316Y-93865702D01*
X164284432Y-93830882D02*
X164211382Y-93810046D01*
X164517404Y-94027829D02*
G75*
G03*
X164541409Y-94051525I84014J61103D01*
G01*
X166224317Y-93902707D02*
G75*
G03*
X166214775Y-93892522I-10207J0D01*
G01*
X168167197Y-93162226D02*
G75*
G03*
X168197310Y-93132062I-121324J151232D01*
G01*
X166794544Y-94075809D02*
X166654591Y-94076332D01*
X166140730Y-93888965D02*
X166011807Y-93886807D01*
X164122476Y-93780843D02*
X164019829Y-93744146D01*
X166932092Y-94060820D02*
G75*
G03*
X166950010Y-94038505I-29377J41940D01*
G01*
X164541409Y-94051525D02*
G75*
G03*
X164571296Y-94065718I55676J78676D01*
G01*
X165165669Y-93886387D02*
X165199993Y-93937392D01*
X166654591Y-94076332D02*
X166554226Y-94075593D01*
X164571296Y-94065718D02*
G75*
G03*
X164635375Y-94074776I66562J239697D01*
G01*
X167514316Y-93735116D02*
G75*
G03*
X167620939Y-93677504I-251351J592648D01*
G01*
X166917638Y-93879012D02*
G75*
G03*
X166898127Y-93886111I6081J-47078D01*
G01*
X165234986Y-94020824D02*
G75*
G03*
X165225321Y-93982624I-109322J-7336D01*
G01*
X168095002Y-93209945D02*
G75*
G03*
X168054960Y-93251262I311236J-341694D01*
G01*
X166943929Y-93972898D02*
G75*
G03*
X166919054Y-93933082I-224259J-112426D01*
G01*
X168217562Y-93099313D02*
G75*
G03*
X168224316Y-93068626I-66336J30687D01*
G01*
X166910635Y-94069255D02*
G75*
G03*
X166932091Y-94060820I-6776J48741D01*
G01*
X165208665Y-94066635D02*
G75*
G03*
X165228767Y-94049106I-13678J35977D01*
G01*
X167024316Y-93865702D02*
X166917639Y-93879012D01*
X164476645Y-93905468D02*
G75*
G03*
X164457972Y-93882791I-40784J-14555D01*
G01*
X168131019Y-93185326D02*
G75*
G03*
X168167197Y-93162226I-88582J178615D01*
G01*
X164211382Y-93810046D02*
X164122476Y-93780843D01*
X166214775Y-93892522D02*
X166140730Y-93888965D01*
X164045813Y-93528271D02*
G75*
G03*
X164064096Y-93516723I-2716J24546D01*
G01*
X163651200Y-93492370D02*
G75*
G03*
X163637616Y-93502071I108J-14513D01*
G01*
X164067966Y-93502648D02*
G75*
G03*
X164066482Y-93495758I-21374J-999D01*
G01*
X163931031Y-93330229D02*
X163920597Y-93297766D01*
X163712997Y-92544703D02*
X163696319Y-92539585D01*
X163740319Y-92481170D02*
X163760030Y-92459186D01*
X163760030Y-92459186D02*
X163781236Y-92434261D01*
X163815012Y-92391387D02*
X163828549Y-92373570D01*
X163714381Y-93493549D02*
X163787777Y-93499827D01*
X163938999Y-93525247D02*
G75*
G03*
X164000439Y-93530258I73380J520527D01*
G01*
X163637616Y-93502070D02*
G75*
G03*
X163646096Y-93538408I32757J-11514D01*
G01*
X164041318Y-93485295D02*
G75*
G03*
X164028839Y-93492620I68107J-130314D01*
G01*
X163920597Y-93297766D02*
X163914016Y-93274493D01*
X163853873Y-93233304D02*
X163805690Y-93239011D01*
X164049778Y-93482815D02*
G75*
G03*
X164041318Y-93485295I2003J-22500D01*
G01*
X163805690Y-93239011D02*
X163811282Y-93076585D01*
X163757909Y-92555358D02*
X163733530Y-92550089D01*
X163914016Y-93274493D02*
X163902056Y-93227598D01*
X163761349Y-92781387D02*
X163775686Y-92738945D01*
X163733530Y-92550089D02*
X163712997Y-92544703D01*
X163787777Y-93499827D02*
X163862707Y-93512148D01*
X163781236Y-92434261D02*
X163800778Y-92410231D01*
X164000439Y-93530258D02*
G75*
G03*
X164045813Y-93528271I7765J341806D01*
G01*
X164062827Y-93489594D02*
G75*
G03*
X164056489Y-93484277I-17769J-14746D01*
G01*
X163943101Y-93365466D02*
X163931031Y-93330229D01*
X163828549Y-92373570D02*
X163845647Y-92352998D01*
X163721935Y-92894892D02*
X163761349Y-92781387D01*
X163816875Y-92914159D02*
X163764580Y-92921351D01*
X163695650Y-92533034D02*
G75*
G03*
X163694316Y-92536835I4750J-3801D01*
G01*
X163845647Y-92352998D02*
X163863411Y-92332978D01*
X163695650Y-92533034D02*
X163707830Y-92518056D01*
X163863411Y-92332978D02*
X163879010Y-92316869D01*
X163988140Y-93496227D02*
G75*
G03*
X163997805Y-93501896I12198J9722D01*
G01*
X163879010Y-92316869D02*
X163892536Y-92303085D01*
X163811282Y-93076585D02*
X163816875Y-92914159D01*
X164064096Y-93516723D02*
G75*
G03*
X164067145Y-93509800I-23149J14328D01*
G01*
X163694316Y-92536835D02*
G75*
G03*
X163696319Y-92539585I2890J0D01*
G01*
X163722689Y-92500674D02*
X163740319Y-92481170D01*
X163801762Y-92653238D02*
X163808946Y-92624693D01*
X163984316Y-93485292D02*
G75*
G03*
X163983264Y-93478568I-22002J1D01*
G01*
X163984316Y-93485291D02*
G75*
G03*
X163988141Y-93496227I17546J0D01*
G01*
X163775686Y-92738945D02*
X163789786Y-92694109D01*
X163721935Y-92894893D02*
G75*
G03*
X163718692Y-92915762I56636J-19487D01*
G01*
X163955146Y-93398382D02*
X163943101Y-93365466D01*
X163997805Y-93501896D02*
G75*
G03*
X164012306Y-93500694I4856J29498D01*
G01*
X163707830Y-92518056D02*
X163722689Y-92500674D01*
X163712674Y-93595235D02*
G75*
G03*
X163803346Y-93653196I458172J616849D01*
G01*
X164056490Y-93484277D02*
G75*
G03*
X164049778Y-93482814I-5693J-9990D01*
G01*
X163975748Y-93455671D02*
X163966321Y-93428600D01*
X163800778Y-92410231D02*
X163815012Y-92391387D01*
X163966321Y-93428600D02*
X163955146Y-93398382D01*
X163808946Y-92624693D02*
X163821501Y-92567999D01*
X163651201Y-93492370D02*
X163714381Y-93493549D01*
X163646096Y-93538408D02*
G75*
G03*
X163712674Y-93595235I452370J462574D01*
G01*
X163862707Y-93512148D02*
X163938999Y-93525247D01*
X163983264Y-93478568D02*
X163975748Y-93455671D01*
X163902056Y-93227598D02*
X163853873Y-93233304D01*
X164067144Y-93509800D02*
G75*
G03*
X164067966Y-93502648I-21594J6104D01*
G01*
X163821501Y-92567999D02*
X163757909Y-92555358D01*
X164012306Y-93500694D02*
G75*
G03*
X164028839Y-93492620I-23666J69425D01*
G01*
X164066482Y-93495757D02*
G75*
G03*
X164062827Y-93489593I-21227J-8420D01*
G01*
X163718692Y-92915761D02*
G75*
G03*
X163727493Y-92924214I8651J199D01*
G01*
X163727494Y-92924214D02*
G75*
G03*
X163764580Y-92921351I-5424J311949D01*
G01*
X163789786Y-92694109D02*
X163801762Y-92653238D01*
X163815030Y-92219701D02*
X163841363Y-92193571D01*
X164027403Y-92011744D02*
X164056346Y-91982100D01*
X164234317Y-91732190D02*
G75*
G03*
X164232937Y-91725801I-15483J0D01*
G01*
X164209346Y-91753796D02*
G75*
G03*
X164222428Y-91745433I-63531J113792D01*
G01*
X164019164Y-91950429D02*
X164006899Y-91940817D01*
X164183476Y-91646212D02*
X164211396Y-91635790D01*
X163914316Y-92274647D02*
G75*
G03*
X163912182Y-92270684I-4746J0D01*
G01*
X163871088Y-92164359D02*
X163906388Y-92130148D01*
X163815030Y-92219701D02*
G75*
G03*
X163814316Y-92221416I1704J-1715D01*
G01*
X163979916Y-92058753D02*
X164010745Y-92028480D01*
X163976869Y-91911375D02*
G75*
G03*
X163974609Y-91915553I3313J-4492D01*
G01*
X164222427Y-91745433D02*
G75*
G03*
X164231959Y-91737594I-60629J83435D01*
G01*
X163892536Y-92303085D02*
X163903945Y-92290227D01*
X163974609Y-91915553D02*
G75*
G03*
X163976532Y-91919627I4714J-266D01*
G01*
X164232937Y-91725801D02*
X164226849Y-91713319D01*
X163845148Y-92237007D02*
X163829004Y-92229506D01*
X164231959Y-91737593D02*
G75*
G03*
X164234316Y-91732190I-5015J5403D01*
G01*
X163906388Y-92130148D02*
X163943760Y-92093992D01*
X164010745Y-92028480D02*
X164027403Y-92011744D01*
X164226849Y-91713319D02*
X164218630Y-91698762D01*
X163912774Y-92279195D02*
G75*
G03*
X163914316Y-92274647I-5939J4548D01*
G01*
X163995399Y-91932292D02*
X163986874Y-91926596D01*
X164193844Y-91761600D02*
X164209345Y-91753796D01*
X164211396Y-91635790D02*
X164226063Y-91630232D01*
X164226063Y-91630232D02*
X164248740Y-91621474D01*
X164248740Y-91621474D02*
X164274297Y-91611519D01*
X164208896Y-91683621D02*
X164183476Y-91646212D01*
X164274297Y-91611519D02*
X164299316Y-91601688D01*
X163912182Y-92270684D02*
X163899629Y-92262888D01*
X164048655Y-91863820D02*
X164097956Y-91829879D01*
X164056346Y-91982100D02*
X164030388Y-91959773D01*
X164299316Y-91601688D02*
X164328295Y-91590619D01*
X163883477Y-92254235D02*
X163864316Y-92245434D01*
X164218630Y-91698762D02*
X164208896Y-91683621D01*
X164097956Y-91829879D02*
X164136951Y-91801715D01*
X164136951Y-91801715D02*
G75*
G03*
X164146344Y-91791443I-21208J28824D01*
G01*
X163864316Y-92245434D02*
X163845148Y-92237007D01*
X163829004Y-92229506D02*
X163815184Y-92222807D01*
X163903945Y-92290227D02*
X163912775Y-92279196D01*
X163899629Y-92262888D02*
X163883477Y-92254235D01*
X163986874Y-91926596D02*
X163976532Y-91919627D01*
X163988170Y-91903567D02*
X164048655Y-91863820D01*
X164151460Y-91785862D02*
X164163196Y-91777895D01*
X163814316Y-92221416D02*
G75*
G03*
X163815184Y-92222807I1548J0D01*
G01*
X163841363Y-92193571D02*
X163871088Y-92164359D01*
X163943760Y-92093992D02*
X163979916Y-92058753D01*
X164151460Y-91785862D02*
G75*
G03*
X164146344Y-91791443I11426J-15609D01*
G01*
X164163196Y-91777895D02*
X164177834Y-91769438D01*
X164030388Y-91959773D02*
X164019164Y-91950429D01*
X164177834Y-91769438D02*
X164193844Y-91761600D01*
X164006899Y-91940817D02*
X163995399Y-91932292D01*
X163976869Y-91911375D02*
X163988170Y-91903567D01*
D14*
X167262467Y-91799101D02*
X167444092Y-92112934D01*
X167444092Y-92112934D02*
X167487113Y-92621387D01*
X167487113Y-92621387D02*
X167736794Y-92972186D01*
X167736794Y-92972186D02*
X167873743Y-93016387D01*
X167873743Y-93016387D02*
X168087451Y-92916400D01*
X168087451Y-92916400D02*
X168192989Y-92990043D01*
X168192989Y-92990043D02*
X168197310Y-93132062D01*
X168197310Y-93132062D02*
X167885799Y-93472022D01*
X167885799Y-93472022D02*
X167894000Y-94259400D01*
X167894000Y-94259400D02*
X169037000Y-94259400D01*
X169037000Y-94259400D02*
X169037000Y-91450160D01*
X169037000Y-91450160D02*
X168666160Y-91079320D01*
X168666160Y-91079320D02*
X167259000Y-91084400D01*
X167259000Y-91084400D02*
X167262467Y-91799101D01*
G36*
X169037000Y-91450160D02*
G01*
X169037000Y-94259400D01*
X167894000Y-94259400D01*
X167885799Y-93472022D01*
X168197310Y-93132062D01*
X168192989Y-92990043D01*
X168087451Y-92916400D01*
X167873743Y-93016387D01*
X167736794Y-92972186D01*
X167487113Y-92621387D01*
X167444092Y-92112934D01*
X167262467Y-91799101D01*
X167259000Y-91084400D01*
X168666160Y-91079320D01*
X169037000Y-91450160D01*
G37*
X169037000Y-91450160D02*
X169037000Y-94259400D01*
X167894000Y-94259400D01*
X167885799Y-93472022D01*
X168197310Y-93132062D01*
X168192989Y-92990043D01*
X168087451Y-92916400D01*
X167873743Y-93016387D01*
X167736794Y-92972186D01*
X167487113Y-92621387D01*
X167444092Y-92112934D01*
X167262467Y-91799101D01*
X167259000Y-91084400D01*
X168666160Y-91079320D01*
X169037000Y-91450160D01*
X162687000Y-92227400D02*
X163871088Y-92164359D01*
X163871088Y-92164359D02*
X164027403Y-92011744D01*
X164027403Y-92011744D02*
X163988170Y-91903567D01*
X163988170Y-91903567D02*
X164084000Y-91846400D01*
X164084000Y-91846400D02*
X164209346Y-91753796D01*
X164209346Y-91753796D02*
X164211396Y-91635790D01*
X164211396Y-91635790D02*
X164505436Y-91529153D01*
X164505436Y-91529153D02*
X164524288Y-91427278D01*
X164524288Y-91427278D02*
X164801219Y-91376285D01*
X164801219Y-91376285D02*
X164819060Y-91305891D01*
X164819060Y-91305891D02*
X165176587Y-91276387D01*
X165176587Y-91276387D02*
X165201116Y-91191703D01*
X165201116Y-91191703D02*
X165485744Y-91261916D01*
X165485744Y-91261916D02*
X165541395Y-91213839D01*
X165541395Y-91213839D02*
X165826880Y-91295285D01*
X165826880Y-91295285D02*
X165876801Y-91227657D01*
X165876801Y-91227657D02*
X166152272Y-91367057D01*
X166152272Y-91367057D02*
X166229439Y-91301459D01*
X166229439Y-91301459D02*
X166456072Y-91443530D01*
X166456072Y-91443530D02*
X166499754Y-91358632D01*
X166499754Y-91358632D02*
X166764660Y-91596197D01*
X166764660Y-91596197D02*
X166864452Y-91524062D01*
X166864452Y-91524062D02*
X167003489Y-91698263D01*
X167003489Y-91698263D02*
X167122697Y-91670140D01*
X167122697Y-91670140D02*
X167164237Y-91773806D01*
X167164237Y-91773806D02*
X167262467Y-91799101D01*
X167262467Y-91799101D02*
X167262467Y-91084400D01*
X167262467Y-91084400D02*
X162687000Y-91084400D01*
X162687000Y-91084400D02*
X162687000Y-92227400D01*
G36*
X167262467Y-91799101D02*
G01*
X167164237Y-91773806D01*
X167122697Y-91670140D01*
X167003489Y-91698263D01*
X166864452Y-91524062D01*
X166764660Y-91596197D01*
X166499754Y-91358632D01*
X166456072Y-91443530D01*
X166229439Y-91301459D01*
X166152272Y-91367057D01*
X165876801Y-91227657D01*
X165826880Y-91295285D01*
X165541395Y-91213839D01*
X165485744Y-91261916D01*
X165201116Y-91191703D01*
X165176587Y-91276387D01*
X164819060Y-91305891D01*
X164801219Y-91376285D01*
X164524288Y-91427278D01*
X164505436Y-91529153D01*
X164211396Y-91635790D01*
X164209346Y-91753796D01*
X164084000Y-91846400D01*
X163988170Y-91903567D01*
X164027403Y-92011744D01*
X163871088Y-92164359D01*
X162687000Y-92227400D01*
X162687000Y-91084400D01*
X167262467Y-91084400D01*
X167262467Y-91799101D01*
G37*
X167262467Y-91799101D02*
X167164237Y-91773806D01*
X167122697Y-91670140D01*
X167003489Y-91698263D01*
X166864452Y-91524062D01*
X166764660Y-91596197D01*
X166499754Y-91358632D01*
X166456072Y-91443530D01*
X166229439Y-91301459D01*
X166152272Y-91367057D01*
X165876801Y-91227657D01*
X165826880Y-91295285D01*
X165541395Y-91213839D01*
X165485744Y-91261916D01*
X165201116Y-91191703D01*
X165176587Y-91276387D01*
X164819060Y-91305891D01*
X164801219Y-91376285D01*
X164524288Y-91427278D01*
X164505436Y-91529153D01*
X164211396Y-91635790D01*
X164209346Y-91753796D01*
X164084000Y-91846400D01*
X163988170Y-91903567D01*
X164027403Y-92011744D01*
X163871088Y-92164359D01*
X162687000Y-92227400D01*
X162687000Y-91084400D01*
X167262467Y-91084400D01*
X167262467Y-91799101D01*
X162687000Y-94259400D02*
X164465000Y-94259400D01*
X164465000Y-94259400D02*
X164457972Y-93882791D01*
X164457972Y-93882791D02*
X164019829Y-93744146D01*
X164019829Y-93744146D02*
X163712674Y-93595235D01*
X163712674Y-93595235D02*
X163703000Y-93497400D01*
X163703000Y-93497400D02*
X163997805Y-93501896D01*
X163997805Y-93501896D02*
X163914016Y-93274493D01*
X163914016Y-93274493D02*
X163805690Y-93239011D01*
X163805690Y-93239011D02*
X163816875Y-92914159D01*
X163816875Y-92914159D02*
X163721935Y-92894892D01*
X163721935Y-92894892D02*
X163830000Y-92608400D01*
X163830000Y-92608400D02*
X163733530Y-92550089D01*
X163733530Y-92550089D02*
X163879010Y-92316869D01*
X163879010Y-92316869D02*
X163815184Y-92222807D01*
X163815184Y-92222807D02*
X163871088Y-92164359D01*
X163871088Y-92164359D02*
X162687000Y-92164359D01*
X162687000Y-92164359D02*
X162687000Y-94259400D01*
G36*
X163815184Y-92222807D02*
G01*
X163879010Y-92316869D01*
X163733530Y-92550089D01*
X163830000Y-92608400D01*
X163721935Y-92894892D01*
X163816875Y-92914159D01*
X163805690Y-93239011D01*
X163914016Y-93274493D01*
X163997805Y-93501896D01*
X163703000Y-93497400D01*
X163712674Y-93595235D01*
X164019829Y-93744146D01*
X164457972Y-93882791D01*
X164465000Y-94259400D01*
X162687000Y-94259400D01*
X162687000Y-92164359D01*
X163871088Y-92164359D01*
X163815184Y-92222807D01*
G37*
X163815184Y-92222807D02*
X163879010Y-92316869D01*
X163733530Y-92550089D01*
X163830000Y-92608400D01*
X163721935Y-92894892D01*
X163816875Y-92914159D01*
X163805690Y-93239011D01*
X163914016Y-93274493D01*
X163997805Y-93501896D01*
X163703000Y-93497400D01*
X163712674Y-93595235D01*
X164019829Y-93744146D01*
X164457972Y-93882791D01*
X164465000Y-94259400D01*
X162687000Y-94259400D01*
X162687000Y-92164359D01*
X163871088Y-92164359D01*
X163815184Y-92222807D01*
X167620939Y-93677504D02*
X166917638Y-93879012D01*
X166917638Y-93879012D02*
X166910635Y-94069256D01*
X166910635Y-94069256D02*
X166363873Y-94066430D01*
X166363873Y-94066430D02*
X166214110Y-93902707D01*
X166214110Y-93902707D02*
X165165669Y-93886387D01*
X165165669Y-93886387D02*
X165208665Y-94066635D01*
X165208665Y-94066635D02*
X164571296Y-94065718D01*
X164571296Y-94065718D02*
X164476645Y-93905469D01*
X164476645Y-93905469D02*
X164465000Y-94259400D01*
X164465000Y-94259400D02*
X167894000Y-94259400D01*
X167894000Y-94259400D02*
X167894000Y-93497400D01*
X167894000Y-93497400D02*
X167620939Y-93677504D01*
G36*
X167894000Y-94259400D02*
G01*
X164465000Y-94259400D01*
X164476645Y-93905469D01*
X164571296Y-94065718D01*
X165208665Y-94066635D01*
X165165669Y-93886387D01*
X166214110Y-93902707D01*
X166363873Y-94066430D01*
X166910635Y-94069256D01*
X166917638Y-93879012D01*
X167620939Y-93677504D01*
X167894000Y-93497400D01*
X167894000Y-94259400D01*
G37*
X167894000Y-94259400D02*
X164465000Y-94259400D01*
X164476645Y-93905469D01*
X164571296Y-94065718D01*
X165208665Y-94066635D01*
X165165669Y-93886387D01*
X166214110Y-93902707D01*
X166363873Y-94066430D01*
X166910635Y-94069256D01*
X166917638Y-93879012D01*
X167620939Y-93677504D01*
X167894000Y-93497400D01*
X167894000Y-94259400D01*
D13*
X166206400Y-115925600D02*
G75*
G03*
X166206400Y-115925600I-700000J0D01*
G01*
D12*
X148300000Y-112964000D02*
X151700000Y-112964000D01*
X151700000Y-107036000D02*
X148300000Y-107036000D01*
D15*
X152250000Y-107500000D02*
G75*
G03*
X152250000Y-107500000I-100000J0D01*
G01*
D13*
X152541200Y-121107200D02*
G75*
G03*
X152541200Y-121107200I-700000J0D01*
G01*
X155233600Y-121005600D02*
G75*
G03*
X155233600Y-121005600I-700000J0D01*
G01*
X139079200Y-122021600D02*
G75*
G03*
X139079200Y-122021600I-700000J0D01*
G01*
X141873200Y-121920000D02*
G75*
G03*
X141873200Y-121920000I-700000J0D01*
G01*
X145530800Y-121056400D02*
G75*
G03*
X145530800Y-121056400I-700000J0D01*
G01*
X133135600Y-109423200D02*
G75*
G03*
X133135600Y-109423200I-700000J0D01*
G01*
X152541200Y-125628400D02*
G75*
G03*
X152541200Y-125628400I-700000J0D01*
G01*
%LPC*%
D16*
X132900000Y-123000000D03*
X131100000Y-123000000D03*
D17*
X136000000Y-107110000D03*
X136000000Y-112890000D03*
D18*
X136477000Y-98743000D03*
D19*
X136477000Y-96203000D03*
X136477000Y-93663000D03*
D16*
X131100000Y-97000000D03*
X132900000Y-97000000D03*
D20*
X165506400Y-115925600D03*
D21*
X151150000Y-107500000D03*
X151150000Y-108050000D03*
X151150000Y-108550000D03*
X151150000Y-109050000D03*
X151150000Y-109550000D03*
X151150000Y-110050000D03*
X151150000Y-110550000D03*
X151150000Y-111050000D03*
X151150000Y-111550000D03*
X151150000Y-112500000D03*
D22*
X150000000Y-112500000D03*
D21*
X148850000Y-112500000D03*
X148850000Y-111550000D03*
X148850000Y-111050000D03*
X148850000Y-110550000D03*
X148850000Y-110050000D03*
X148850000Y-109550000D03*
X148850000Y-109050000D03*
X148850000Y-108550000D03*
X148850000Y-108050000D03*
X148850000Y-107500000D03*
D22*
X150000000Y-107500000D03*
D20*
X151841200Y-121107200D03*
X154533600Y-121005600D03*
X138379200Y-122021600D03*
X141173200Y-121920000D03*
X144830800Y-121056400D03*
X132435600Y-109423200D03*
X151841200Y-125628400D03*
M02*
