G04 #@! TF.GenerationSoftware,KiCad,Pcbnew,(6.0.0)*
G04 #@! TF.CreationDate,2022-06-18T15:13:31-07:00*
G04 #@! TF.ProjectId,max86141_Rev_A,6d617838-3631-4343-915f-5265765f412e,A*
G04 #@! TF.SameCoordinates,Original*
G04 #@! TF.FileFunction,Soldermask,Top*
G04 #@! TF.FilePolarity,Negative*
%FSLAX46Y46*%
G04 Gerber Fmt 4.6, Leading zero omitted, Abs format (unit mm)*
G04 Created by KiCad (PCBNEW (6.0.0)) date 2022-06-18 15:13:31*
%MOMM*%
%LPD*%
G01*
G04 APERTURE LIST*
G04 Aperture macros list*
%AMRoundRect*
0 Rectangle with rounded corners*
0 $1 Rounding radius*
0 $2 $3 $4 $5 $6 $7 $8 $9 X,Y pos of 4 corners*
0 Add a 4 corners polygon primitive as box body*
4,1,4,$2,$3,$4,$5,$6,$7,$8,$9,$2,$3,0*
0 Add four circle primitives for the rounded corners*
1,1,$1+$1,$2,$3*
1,1,$1+$1,$4,$5*
1,1,$1+$1,$6,$7*
1,1,$1+$1,$8,$9*
0 Add four rect primitives between the rounded corners*
20,1,$1+$1,$2,$3,$4,$5,0*
20,1,$1+$1,$4,$5,$6,$7,0*
20,1,$1+$1,$6,$7,$8,$9,0*
20,1,$1+$1,$8,$9,$2,$3,0*%
G04 Aperture macros list end*
%ADD10C,0.010000*%
%ADD11RoundRect,0.135000X-0.185000X0.135000X-0.185000X-0.135000X0.185000X-0.135000X0.185000X0.135000X0*%
%ADD12RoundRect,0.135000X-0.135000X-0.185000X0.135000X-0.185000X0.135000X0.185000X-0.135000X0.185000X0*%
%ADD13RoundRect,0.225000X0.225000X0.250000X-0.225000X0.250000X-0.225000X-0.250000X0.225000X-0.250000X0*%
%ADD14RoundRect,0.140000X-0.140000X-0.170000X0.140000X-0.170000X0.140000X0.170000X-0.140000X0.170000X0*%
%ADD15R,0.700000X0.450000*%
%ADD16R,0.600000X0.600000*%
%ADD17R,1.580000X0.580000*%
%ADD18R,0.500000X0.500000*%
%ADD19RoundRect,0.140000X0.170000X-0.140000X0.170000X0.140000X-0.170000X0.140000X-0.170000X-0.140000X0*%
%ADD20RoundRect,0.135000X0.135000X0.185000X-0.135000X0.185000X-0.135000X-0.185000X0.135000X-0.185000X0*%
%ADD21R,0.550000X0.800000*%
%ADD22R,0.450000X0.700000*%
%ADD23RoundRect,0.007800X0.122200X-0.422200X0.122200X0.422200X-0.122200X0.422200X-0.122200X-0.422200X0*%
%ADD24RoundRect,0.007800X0.422200X-0.122200X0.422200X0.122200X-0.422200X0.122200X-0.422200X-0.122200X0*%
%ADD25R,1.680000X1.680000*%
%ADD26RoundRect,0.225000X0.250000X-0.225000X0.250000X0.225000X-0.250000X0.225000X-0.250000X-0.225000X0*%
%ADD27RoundRect,0.140000X-0.170000X0.140000X-0.170000X-0.140000X0.170000X-0.140000X0.170000X0.140000X0*%
%ADD28RoundRect,0.225000X-0.225000X-0.250000X0.225000X-0.250000X0.225000X0.250000X-0.225000X0.250000X0*%
%ADD29RoundRect,0.135000X0.185000X-0.135000X0.185000X0.135000X-0.185000X0.135000X-0.185000X-0.135000X0*%
%ADD30R,0.740000X2.790000*%
%ADD31C,0.700000*%
%ADD32R,1.050000X1.400000*%
%ADD33RoundRect,0.250000X0.475000X-0.250000X0.475000X0.250000X-0.475000X0.250000X-0.475000X-0.250000X0*%
%ADD34R,3.500000X1.000000*%
%ADD35R,3.400001X1.500000*%
%ADD36RoundRect,0.140000X0.140000X0.170000X-0.140000X0.170000X-0.140000X-0.170000X0.140000X-0.170000X0*%
%ADD37RoundRect,0.225000X-0.250000X0.225000X-0.250000X-0.225000X0.250000X-0.225000X0.250000X0.225000X0*%
%ADD38R,0.700000X0.750000*%
%ADD39RoundRect,0.147500X-0.147500X-0.172500X0.147500X-0.172500X0.147500X0.172500X-0.147500X0.172500X0*%
%ADD40RoundRect,0.050000X-0.350000X-0.050000X0.350000X-0.050000X0.350000X0.050000X-0.350000X0.050000X0*%
%ADD41RoundRect,0.050000X-0.050000X-0.350000X0.050000X-0.350000X0.050000X0.350000X-0.050000X0.350000X0*%
%ADD42R,4.600000X4.600000*%
%ADD43RoundRect,0.150000X-0.512500X-0.150000X0.512500X-0.150000X0.512500X0.150000X-0.512500X0.150000X0*%
%ADD44RoundRect,0.218750X0.256250X-0.218750X0.256250X0.218750X-0.256250X0.218750X-0.256250X-0.218750X0*%
%ADD45C,0.650000*%
%ADD46R,1.150000X0.600000*%
%ADD47R,1.150000X0.300000*%
%ADD48R,2.000000X2.180000*%
%ADD49RoundRect,0.062500X-0.337500X-0.062500X0.337500X-0.062500X0.337500X0.062500X-0.337500X0.062500X0*%
%ADD50R,1.700000X1.400000*%
%ADD51R,1.500000X0.800000*%
%ADD52R,1.700000X1.700000*%
%ADD53O,1.700000X1.700000*%
%ADD54RoundRect,0.147500X0.147500X0.172500X-0.147500X0.172500X-0.147500X-0.172500X0.147500X-0.172500X0*%
%ADD55R,0.250000X0.700000*%
%ADD56R,2.380000X1.660000*%
%ADD57R,0.203200X0.660400*%
%ADD58RoundRect,0.218750X0.218750X0.256250X-0.218750X0.256250X-0.218750X-0.256250X0.218750X-0.256250X0*%
%ADD59C,0.315000*%
%ADD60RoundRect,0.200000X-0.275000X0.200000X-0.275000X-0.200000X0.275000X-0.200000X0.275000X0.200000X0*%
%ADD61RoundRect,0.135000X0.226274X0.035355X0.035355X0.226274X-0.226274X-0.035355X-0.035355X-0.226274X0*%
G04 APERTURE END LIST*
D10*
X146880000Y-93356000D02*
X146370000Y-93356000D01*
X146370000Y-93356000D02*
X146370000Y-92976000D01*
X146370000Y-92976000D02*
X146880000Y-92976000D01*
X146880000Y-92976000D02*
X146880000Y-93356000D01*
G36*
X146880000Y-93356000D02*
G01*
X146370000Y-93356000D01*
X146370000Y-92976000D01*
X146880000Y-92976000D01*
X146880000Y-93356000D01*
G37*
X146880000Y-93356000D02*
X146370000Y-93356000D01*
X146370000Y-92976000D01*
X146880000Y-92976000D01*
X146880000Y-93356000D01*
X148510000Y-92856000D02*
X148000000Y-92856000D01*
X148000000Y-92856000D02*
X148000000Y-92476000D01*
X148000000Y-92476000D02*
X148510000Y-92476000D01*
X148510000Y-92476000D02*
X148510000Y-92856000D01*
G36*
X148510000Y-92856000D02*
G01*
X148000000Y-92856000D01*
X148000000Y-92476000D01*
X148510000Y-92476000D01*
X148510000Y-92856000D01*
G37*
X148510000Y-92856000D02*
X148000000Y-92856000D01*
X148000000Y-92476000D01*
X148510000Y-92476000D01*
X148510000Y-92856000D01*
X147880000Y-92356000D02*
X147500000Y-92356000D01*
X147500000Y-92356000D02*
X147500000Y-91846000D01*
X147500000Y-91846000D02*
X147880000Y-91846000D01*
X147880000Y-91846000D02*
X147880000Y-92356000D01*
G36*
X147880000Y-92356000D02*
G01*
X147500000Y-92356000D01*
X147500000Y-91846000D01*
X147880000Y-91846000D01*
X147880000Y-92356000D01*
G37*
X147880000Y-92356000D02*
X147500000Y-92356000D01*
X147500000Y-91846000D01*
X147880000Y-91846000D01*
X147880000Y-92356000D01*
X147880000Y-93986000D02*
X147500000Y-93986000D01*
X147500000Y-93986000D02*
X147500000Y-93476000D01*
X147500000Y-93476000D02*
X147880000Y-93476000D01*
X147880000Y-93476000D02*
X147880000Y-93986000D01*
G36*
X147880000Y-93986000D02*
G01*
X147500000Y-93986000D01*
X147500000Y-93476000D01*
X147880000Y-93476000D01*
X147880000Y-93986000D01*
G37*
X147880000Y-93986000D02*
X147500000Y-93986000D01*
X147500000Y-93476000D01*
X147880000Y-93476000D01*
X147880000Y-93986000D01*
X147380000Y-92356000D02*
X147000000Y-92356000D01*
X147000000Y-92356000D02*
X147000000Y-91846000D01*
X147000000Y-91846000D02*
X147380000Y-91846000D01*
X147380000Y-91846000D02*
X147380000Y-92356000D01*
G36*
X147380000Y-92356000D02*
G01*
X147000000Y-92356000D01*
X147000000Y-91846000D01*
X147380000Y-91846000D01*
X147380000Y-92356000D01*
G37*
X147380000Y-92356000D02*
X147000000Y-92356000D01*
X147000000Y-91846000D01*
X147380000Y-91846000D01*
X147380000Y-92356000D01*
X147380000Y-93986000D02*
X147000000Y-93986000D01*
X147000000Y-93986000D02*
X147000000Y-93476000D01*
X147000000Y-93476000D02*
X147380000Y-93476000D01*
X147380000Y-93476000D02*
X147380000Y-93986000D01*
G36*
X147380000Y-93986000D02*
G01*
X147000000Y-93986000D01*
X147000000Y-93476000D01*
X147380000Y-93476000D01*
X147380000Y-93986000D01*
G37*
X147380000Y-93986000D02*
X147000000Y-93986000D01*
X147000000Y-93476000D01*
X147380000Y-93476000D01*
X147380000Y-93986000D01*
X146880000Y-92356000D02*
X146370000Y-92356000D01*
X146370000Y-92356000D02*
X146370000Y-91976000D01*
X146370000Y-91976000D02*
X146880000Y-91976000D01*
X146880000Y-91976000D02*
X146880000Y-92356000D01*
G36*
X146880000Y-92356000D02*
G01*
X146370000Y-92356000D01*
X146370000Y-91976000D01*
X146880000Y-91976000D01*
X146880000Y-92356000D01*
G37*
X146880000Y-92356000D02*
X146370000Y-92356000D01*
X146370000Y-91976000D01*
X146880000Y-91976000D01*
X146880000Y-92356000D01*
X148510000Y-93856000D02*
X148000000Y-93856000D01*
X148000000Y-93856000D02*
X148000000Y-93476000D01*
X148000000Y-93476000D02*
X148510000Y-93476000D01*
X148510000Y-93476000D02*
X148510000Y-93856000D01*
G36*
X148510000Y-93856000D02*
G01*
X148000000Y-93856000D01*
X148000000Y-93476000D01*
X148510000Y-93476000D01*
X148510000Y-93856000D01*
G37*
X148510000Y-93856000D02*
X148000000Y-93856000D01*
X148000000Y-93476000D01*
X148510000Y-93476000D01*
X148510000Y-93856000D01*
X146880000Y-93856000D02*
X146370000Y-93856000D01*
X146370000Y-93856000D02*
X146370000Y-93476000D01*
X146370000Y-93476000D02*
X146880000Y-93476000D01*
X146880000Y-93476000D02*
X146880000Y-93856000D01*
G36*
X146880000Y-93856000D02*
G01*
X146370000Y-93856000D01*
X146370000Y-93476000D01*
X146880000Y-93476000D01*
X146880000Y-93856000D01*
G37*
X146880000Y-93856000D02*
X146370000Y-93856000D01*
X146370000Y-93476000D01*
X146880000Y-93476000D01*
X146880000Y-93856000D01*
X148510000Y-93356000D02*
X148000000Y-93356000D01*
X148000000Y-93356000D02*
X148000000Y-92976000D01*
X148000000Y-92976000D02*
X148510000Y-92976000D01*
X148510000Y-92976000D02*
X148510000Y-93356000D01*
G36*
X148510000Y-93356000D02*
G01*
X148000000Y-93356000D01*
X148000000Y-92976000D01*
X148510000Y-92976000D01*
X148510000Y-93356000D01*
G37*
X148510000Y-93356000D02*
X148000000Y-93356000D01*
X148000000Y-92976000D01*
X148510000Y-92976000D01*
X148510000Y-93356000D01*
X148510000Y-92356000D02*
X148000000Y-92356000D01*
X148000000Y-92356000D02*
X148000000Y-91976000D01*
X148000000Y-91976000D02*
X148510000Y-91976000D01*
X148510000Y-91976000D02*
X148510000Y-92356000D01*
G36*
X148510000Y-92356000D02*
G01*
X148000000Y-92356000D01*
X148000000Y-91976000D01*
X148510000Y-91976000D01*
X148510000Y-92356000D01*
G37*
X148510000Y-92356000D02*
X148000000Y-92356000D01*
X148000000Y-91976000D01*
X148510000Y-91976000D01*
X148510000Y-92356000D01*
X146880000Y-92856000D02*
X146370000Y-92856000D01*
X146370000Y-92856000D02*
X146370000Y-92476000D01*
X146370000Y-92476000D02*
X146880000Y-92476000D01*
X146880000Y-92476000D02*
X146880000Y-92856000D01*
G36*
X146880000Y-92856000D02*
G01*
X146370000Y-92856000D01*
X146370000Y-92476000D01*
X146880000Y-92476000D01*
X146880000Y-92856000D01*
G37*
X146880000Y-92856000D02*
X146370000Y-92856000D01*
X146370000Y-92476000D01*
X146880000Y-92476000D01*
X146880000Y-92856000D01*
D11*
X165179000Y-114885000D03*
X165179000Y-115905000D03*
D12*
X146508000Y-95964000D03*
X147528000Y-95964000D03*
X154509000Y-97742000D03*
X155529000Y-97742000D03*
X138634000Y-104346000D03*
X139654000Y-104346000D03*
D13*
X146396000Y-112347000D03*
X144846000Y-112347000D03*
D14*
X166322000Y-93932000D03*
X167282000Y-93932000D03*
D11*
X140258800Y-112520000D03*
X140258800Y-113540000D03*
X162766000Y-124791000D03*
X162766000Y-125811000D03*
D15*
X166465000Y-115253000D03*
X166465000Y-116553000D03*
X168465000Y-115903000D03*
D16*
X168719000Y-102441000D03*
D17*
X167719000Y-103401000D03*
D18*
X166719000Y-102441000D03*
D17*
X167719000Y-101481000D03*
D19*
X146129000Y-109779000D03*
X146129000Y-108819000D03*
D20*
X154513000Y-108537000D03*
X153493000Y-108537000D03*
D21*
X167550000Y-125800000D03*
X168450000Y-125800000D03*
X168450000Y-124200000D03*
X167550000Y-124200000D03*
D22*
X156147000Y-105981000D03*
X157447000Y-105981000D03*
X156797000Y-103981000D03*
D12*
X132284000Y-119459000D03*
X133304000Y-119459000D03*
D13*
X145126000Y-91265000D03*
X143576000Y-91265000D03*
D23*
X135219000Y-120386000D03*
X135719000Y-120386000D03*
X136219000Y-120386000D03*
X136719000Y-120386000D03*
D24*
X137404000Y-119701000D03*
X137404000Y-119201000D03*
X137404000Y-118701000D03*
X137404000Y-118201000D03*
D23*
X136719000Y-117516000D03*
X136219000Y-117516000D03*
X135719000Y-117516000D03*
X135219000Y-117516000D03*
D24*
X134534000Y-118201000D03*
X134534000Y-118701000D03*
X134534000Y-119201000D03*
X134534000Y-119701000D03*
D25*
X135969000Y-118951000D03*
D19*
X163782000Y-94158000D03*
X163782000Y-93198000D03*
D26*
X156924000Y-92929000D03*
X156924000Y-91379000D03*
D20*
X154513000Y-109807000D03*
X153493000Y-109807000D03*
D19*
X153495000Y-96051000D03*
X153495000Y-95091000D03*
D27*
X149304000Y-108692000D03*
X149304000Y-109652000D03*
D19*
X143462000Y-117399000D03*
X143462000Y-116439000D03*
D11*
X162766000Y-122124000D03*
X162766000Y-123144000D03*
D12*
X138634000Y-102314000D03*
X139654000Y-102314000D03*
D28*
X148529000Y-112474000D03*
X150079000Y-112474000D03*
D29*
X161750000Y-128351000D03*
X161750000Y-127331000D03*
D15*
X164052000Y-124778000D03*
X164052000Y-126078000D03*
X166052000Y-125428000D03*
D27*
X159591000Y-116566000D03*
X159591000Y-117526000D03*
D30*
X144985994Y-93928994D03*
X144985994Y-97998994D03*
X143715994Y-93928994D03*
X143715994Y-97998994D03*
X142445994Y-93928994D03*
X142445994Y-97998994D03*
X141175994Y-93928994D03*
X141175994Y-97998994D03*
X139905994Y-93928994D03*
X139905994Y-97998994D03*
D14*
X146665000Y-91011000D03*
X147625000Y-91011000D03*
D31*
X132900000Y-123000000D03*
X131100000Y-123000000D03*
D32*
X132725000Y-121200000D03*
X131275000Y-121200000D03*
X131275000Y-124800000D03*
X132725000Y-124800000D03*
D12*
X146510000Y-98250000D03*
X147530000Y-98250000D03*
D33*
X147653000Y-109426000D03*
X147653000Y-107526000D03*
D27*
X165179000Y-91547000D03*
X165179000Y-92507000D03*
D34*
X161567000Y-111000000D03*
X161567000Y-109000000D03*
D35*
X167317001Y-106649999D03*
X167317001Y-113350001D03*
D11*
X158702000Y-105868000D03*
X158702000Y-106888000D03*
D13*
X163287000Y-115522000D03*
X161737000Y-115522000D03*
D36*
X146609000Y-111077000D03*
X145649000Y-111077000D03*
D29*
X158702000Y-104856000D03*
X158702000Y-103836000D03*
D27*
X153495000Y-93059000D03*
X153495000Y-94019000D03*
D12*
X154509000Y-96726000D03*
X155529000Y-96726000D03*
D20*
X132437600Y-127355600D03*
X131417600Y-127355600D03*
D29*
X135969000Y-127970000D03*
X135969000Y-126950000D03*
D27*
X164036000Y-98151000D03*
X164036000Y-99111000D03*
D37*
X138890000Y-107381000D03*
X138890000Y-108931000D03*
D26*
X139144000Y-118837000D03*
X139144000Y-117287000D03*
D38*
X166440500Y-91352000D03*
X166440500Y-92702000D03*
X167440500Y-92702000D03*
X167440500Y-91352000D03*
D20*
X151194000Y-103672900D03*
X150174000Y-103672900D03*
D19*
X152479000Y-108636000D03*
X152479000Y-107676000D03*
D39*
X147295000Y-113871000D03*
X148265000Y-113871000D03*
D40*
X156768000Y-95161000D03*
X156768000Y-95561000D03*
X156768000Y-95961000D03*
X156768000Y-96361000D03*
X156768000Y-96761000D03*
X156768000Y-97161000D03*
X156768000Y-97561000D03*
X156768000Y-97961000D03*
X156768000Y-98361000D03*
X156768000Y-98761000D03*
X156768000Y-99161000D03*
X156768000Y-99561000D03*
D41*
X157518000Y-100311000D03*
X157918000Y-100311000D03*
X158318000Y-100311000D03*
X158718000Y-100311000D03*
X159118000Y-100311000D03*
X159518000Y-100311000D03*
X159918000Y-100311000D03*
X160318000Y-100311000D03*
X160718000Y-100311000D03*
X161118000Y-100311000D03*
X161518000Y-100311000D03*
X161918000Y-100311000D03*
D40*
X162668000Y-99561000D03*
X162668000Y-99161000D03*
X162668000Y-98761000D03*
X162668000Y-98361000D03*
X162668000Y-97961000D03*
X162668000Y-97561000D03*
X162668000Y-97161000D03*
X162668000Y-96761000D03*
X162668000Y-96361000D03*
X162668000Y-95961000D03*
X162668000Y-95561000D03*
X162668000Y-95161000D03*
D41*
X161918000Y-94411000D03*
X161518000Y-94411000D03*
X161118000Y-94411000D03*
X160718000Y-94411000D03*
X160318000Y-94411000D03*
X159918000Y-94411000D03*
X159518000Y-94411000D03*
X159118000Y-94411000D03*
X158718000Y-94411000D03*
X158318000Y-94411000D03*
X157918000Y-94411000D03*
X157518000Y-94411000D03*
D42*
X159718000Y-97361000D03*
D43*
X161120500Y-117239000D03*
X161120500Y-118189000D03*
X161120500Y-119139000D03*
X163395500Y-119139000D03*
X163395500Y-117239000D03*
D11*
X168481000Y-126950000D03*
X168481000Y-127970000D03*
D27*
X150430000Y-104716900D03*
X150430000Y-105676900D03*
D36*
X151435000Y-107013000D03*
X150475000Y-107013000D03*
D27*
X152479000Y-109708000D03*
X152479000Y-110668000D03*
D44*
X168000000Y-119611500D03*
X168000000Y-118036500D03*
D14*
X131425000Y-100409000D03*
X132385000Y-100409000D03*
D12*
X134316000Y-121745000D03*
X135336000Y-121745000D03*
D11*
X167338000Y-126950000D03*
X167338000Y-127970000D03*
D45*
X136000000Y-107110000D03*
X136000000Y-112890000D03*
D46*
X137075000Y-106800000D03*
X137075000Y-107600000D03*
D47*
X137075000Y-108750000D03*
X137075000Y-109750000D03*
X137075000Y-110250000D03*
X137075000Y-111250000D03*
D46*
X137075000Y-113200000D03*
X137075000Y-112400000D03*
D47*
X137075000Y-111750000D03*
X137075000Y-110750000D03*
X137075000Y-109250000D03*
X137075000Y-108250000D03*
D48*
X132570000Y-115110000D03*
X136500000Y-115110000D03*
X136500000Y-104890000D03*
X132570000Y-104890000D03*
D26*
X147272000Y-118329000D03*
X147272000Y-116779000D03*
D36*
X148514000Y-106124000D03*
X147554000Y-106124000D03*
D12*
X146508000Y-97107000D03*
X147528000Y-97107000D03*
D49*
X151918000Y-116423000D03*
X151918000Y-116923000D03*
X151918000Y-117423000D03*
X151918000Y-117923000D03*
X154818000Y-117923000D03*
X154818000Y-117423000D03*
X154818000Y-116923000D03*
X154818000Y-116423000D03*
D50*
X153368000Y-117173000D03*
D11*
X162766000Y-127331000D03*
X162766000Y-128351000D03*
D36*
X165278000Y-96599000D03*
X164318000Y-96599000D03*
D15*
X164052000Y-121984000D03*
X164052000Y-123284000D03*
X166052000Y-122634000D03*
D36*
X155420000Y-100457000D03*
X154460000Y-100457000D03*
D14*
X131425000Y-126317000D03*
X132385000Y-126317000D03*
D33*
X141176000Y-118885000D03*
X141176000Y-116985000D03*
D34*
X142517000Y-125666000D03*
X142517000Y-123666000D03*
D35*
X148267001Y-128016001D03*
X148267001Y-121315999D03*
D27*
X158321000Y-92182000D03*
X158321000Y-93142000D03*
D11*
X165179000Y-116917000D03*
X165179000Y-117937000D03*
D51*
X151844000Y-95305000D03*
X151844000Y-93805000D03*
D11*
X161750000Y-122124000D03*
X161750000Y-123144000D03*
D12*
X138634000Y-103330000D03*
X139654000Y-103330000D03*
D26*
X138890000Y-112233000D03*
X138890000Y-110683000D03*
D27*
X133175000Y-117328000D03*
X133175000Y-118288000D03*
X155527000Y-93452000D03*
X155527000Y-94412000D03*
D20*
X154496000Y-105704900D03*
X153476000Y-105704900D03*
D27*
X132032000Y-117328000D03*
X132032000Y-118288000D03*
D29*
X168481000Y-122890000D03*
X168481000Y-121870000D03*
D15*
X164052000Y-127572000D03*
X164052000Y-128872000D03*
X166052000Y-128222000D03*
D52*
X136477000Y-98743000D03*
D53*
X136477000Y-96203000D03*
X136477000Y-93663000D03*
D11*
X140309600Y-107998800D03*
X140309600Y-109018800D03*
D54*
X166045000Y-98123000D03*
X165075000Y-98123000D03*
D37*
X158194000Y-116779000D03*
X158194000Y-118329000D03*
X156342000Y-116783000D03*
X156342000Y-118333000D03*
D20*
X132415000Y-101425000D03*
X131395000Y-101425000D03*
D36*
X169215000Y-100409000D03*
X168255000Y-100409000D03*
D55*
X136973000Y-123012000D03*
X136473000Y-123012000D03*
X135973000Y-123012000D03*
X135473000Y-123012000D03*
X135473000Y-125812000D03*
X135973000Y-125812000D03*
X136473000Y-125812000D03*
X136973000Y-125812000D03*
D56*
X136223000Y-124412000D03*
D37*
X149431000Y-117033000D03*
X149431000Y-118583000D03*
D57*
X151429001Y-105666794D03*
X151779000Y-105666794D03*
X152129002Y-105666794D03*
X152479001Y-105666794D03*
X152479001Y-104726994D03*
X152129002Y-104726994D03*
X151779000Y-104726994D03*
X151429001Y-104726994D03*
D11*
X161750000Y-124791000D03*
X161750000Y-125811000D03*
D31*
X131100000Y-97000000D03*
X132900000Y-97000000D03*
D32*
X132725000Y-95200000D03*
X131275000Y-95200000D03*
X131275000Y-98800000D03*
X132725000Y-98800000D03*
D58*
X145265500Y-118697000D03*
X143690500Y-118697000D03*
D29*
X166576000Y-118826000D03*
X166576000Y-117806000D03*
D59*
X145317693Y-117318994D03*
X144917693Y-117318994D03*
X144517693Y-117318994D03*
X145317693Y-116918994D03*
X144917693Y-116918994D03*
X144517693Y-116918994D03*
X145317693Y-116518994D03*
X144917693Y-116518994D03*
X144517693Y-116518994D03*
D14*
X148316000Y-111204000D03*
X149276000Y-111204000D03*
D60*
X138890000Y-123587000D03*
X138890000Y-125237000D03*
D61*
X168968624Y-98991624D03*
X168247376Y-98270376D03*
D12*
X138634000Y-105362000D03*
X139654000Y-105362000D03*
D27*
X150701000Y-116820000D03*
X150701000Y-117780000D03*
X167084000Y-98151000D03*
X167084000Y-99111000D03*
D29*
X149345000Y-92664000D03*
X149345000Y-91644000D03*
D20*
X154496000Y-104688900D03*
X153476000Y-104688900D03*
D13*
X168240000Y-96345000D03*
X166690000Y-96345000D03*
D36*
X155044000Y-119082000D03*
X154084000Y-119082000D03*
M02*
