G04 #@! TF.GenerationSoftware,KiCad,Pcbnew,(6.0.0)*
G04 #@! TF.CreationDate,2022-06-18T15:13:31-07:00*
G04 #@! TF.ProjectId,max86141_Rev_A,6d617838-3631-4343-915f-5265765f412e,A*
G04 #@! TF.SameCoordinates,Original*
G04 #@! TF.FileFunction,Legend,Top*
G04 #@! TF.FilePolarity,Positive*
%FSLAX46Y46*%
G04 Gerber Fmt 4.6, Leading zero omitted, Abs format (unit mm)*
G04 Created by KiCad (PCBNEW (6.0.0)) date 2022-06-18 15:13:31*
%MOMM*%
%LPD*%
G01*
G04 APERTURE LIST*
G04 Aperture macros list*
%AMRoundRect*
0 Rectangle with rounded corners*
0 $1 Rounding radius*
0 $2 $3 $4 $5 $6 $7 $8 $9 X,Y pos of 4 corners*
0 Add a 4 corners polygon primitive as box body*
4,1,4,$2,$3,$4,$5,$6,$7,$8,$9,$2,$3,0*
0 Add four circle primitives for the rounded corners*
1,1,$1+$1,$2,$3*
1,1,$1+$1,$4,$5*
1,1,$1+$1,$6,$7*
1,1,$1+$1,$8,$9*
0 Add four rect primitives between the rounded corners*
20,1,$1+$1,$2,$3,$4,$5,0*
20,1,$1+$1,$4,$5,$6,$7,0*
20,1,$1+$1,$6,$7,$8,$9,0*
20,1,$1+$1,$8,$9,$2,$3,0*%
G04 Aperture macros list end*
%ADD10C,0.177800*%
%ADD11C,0.127000*%
%ADD12C,0.120000*%
%ADD13C,0.153000*%
%ADD14C,0.200000*%
%ADD15C,0.161600*%
%ADD16C,0.300000*%
%ADD17C,0.150000*%
%ADD18C,0.010000*%
%ADD19RoundRect,0.135000X-0.185000X0.135000X-0.185000X-0.135000X0.185000X-0.135000X0.185000X0.135000X0*%
%ADD20RoundRect,0.135000X-0.135000X-0.185000X0.135000X-0.185000X0.135000X0.185000X-0.135000X0.185000X0*%
%ADD21RoundRect,0.225000X0.225000X0.250000X-0.225000X0.250000X-0.225000X-0.250000X0.225000X-0.250000X0*%
%ADD22RoundRect,0.140000X-0.140000X-0.170000X0.140000X-0.170000X0.140000X0.170000X-0.140000X0.170000X0*%
%ADD23R,0.700000X0.450000*%
%ADD24R,0.600000X0.600000*%
%ADD25R,1.580000X0.580000*%
%ADD26R,0.500000X0.500000*%
%ADD27RoundRect,0.140000X0.170000X-0.140000X0.170000X0.140000X-0.170000X0.140000X-0.170000X-0.140000X0*%
%ADD28RoundRect,0.135000X0.135000X0.185000X-0.135000X0.185000X-0.135000X-0.185000X0.135000X-0.185000X0*%
%ADD29R,0.550000X0.800000*%
%ADD30R,0.450000X0.700000*%
%ADD31RoundRect,0.007800X0.122200X-0.422200X0.122200X0.422200X-0.122200X0.422200X-0.122200X-0.422200X0*%
%ADD32RoundRect,0.007800X0.422200X-0.122200X0.422200X0.122200X-0.422200X0.122200X-0.422200X-0.122200X0*%
%ADD33R,1.680000X1.680000*%
%ADD34RoundRect,0.225000X0.250000X-0.225000X0.250000X0.225000X-0.250000X0.225000X-0.250000X-0.225000X0*%
%ADD35RoundRect,0.140000X-0.170000X0.140000X-0.170000X-0.140000X0.170000X-0.140000X0.170000X0.140000X0*%
%ADD36RoundRect,0.225000X-0.225000X-0.250000X0.225000X-0.250000X0.225000X0.250000X-0.225000X0.250000X0*%
%ADD37RoundRect,0.135000X0.185000X-0.135000X0.185000X0.135000X-0.185000X0.135000X-0.185000X-0.135000X0*%
%ADD38R,0.740000X2.790000*%
%ADD39C,0.700000*%
%ADD40R,1.050000X1.400000*%
%ADD41RoundRect,0.250000X0.475000X-0.250000X0.475000X0.250000X-0.475000X0.250000X-0.475000X-0.250000X0*%
%ADD42R,3.500000X1.000000*%
%ADD43R,3.400001X1.500000*%
%ADD44RoundRect,0.140000X0.140000X0.170000X-0.140000X0.170000X-0.140000X-0.170000X0.140000X-0.170000X0*%
%ADD45RoundRect,0.225000X-0.250000X0.225000X-0.250000X-0.225000X0.250000X-0.225000X0.250000X0.225000X0*%
%ADD46R,0.700000X0.750000*%
%ADD47RoundRect,0.147500X-0.147500X-0.172500X0.147500X-0.172500X0.147500X0.172500X-0.147500X0.172500X0*%
%ADD48RoundRect,0.050000X-0.350000X-0.050000X0.350000X-0.050000X0.350000X0.050000X-0.350000X0.050000X0*%
%ADD49RoundRect,0.050000X-0.050000X-0.350000X0.050000X-0.350000X0.050000X0.350000X-0.050000X0.350000X0*%
%ADD50R,4.600000X4.600000*%
%ADD51RoundRect,0.150000X-0.512500X-0.150000X0.512500X-0.150000X0.512500X0.150000X-0.512500X0.150000X0*%
%ADD52RoundRect,0.218750X0.256250X-0.218750X0.256250X0.218750X-0.256250X0.218750X-0.256250X-0.218750X0*%
%ADD53C,0.650000*%
%ADD54R,1.150000X0.600000*%
%ADD55R,1.150000X0.300000*%
%ADD56R,2.000000X2.180000*%
%ADD57RoundRect,0.062500X-0.337500X-0.062500X0.337500X-0.062500X0.337500X0.062500X-0.337500X0.062500X0*%
%ADD58R,1.700000X1.400000*%
%ADD59R,1.500000X0.800000*%
%ADD60R,1.700000X1.700000*%
%ADD61O,1.700000X1.700000*%
%ADD62RoundRect,0.147500X0.147500X0.172500X-0.147500X0.172500X-0.147500X-0.172500X0.147500X-0.172500X0*%
%ADD63R,0.250000X0.700000*%
%ADD64R,2.380000X1.660000*%
%ADD65R,0.203200X0.660400*%
%ADD66RoundRect,0.218750X0.218750X0.256250X-0.218750X0.256250X-0.218750X-0.256250X0.218750X-0.256250X0*%
%ADD67C,0.315000*%
%ADD68RoundRect,0.200000X-0.275000X0.200000X-0.275000X-0.200000X0.275000X-0.200000X0.275000X0.200000X0*%
%ADD69RoundRect,0.135000X0.226274X0.035355X0.035355X0.226274X-0.226274X-0.035355X-0.035355X-0.226274X0*%
G04 APERTURE END LIST*
D10*
X150844552Y-123389571D02*
X151618647Y-123389571D01*
X151231600Y-123776619D02*
X151231600Y-123002523D01*
X150819152Y-125523171D02*
X151593247Y-125523171D01*
X134828038Y-90807419D02*
X134828038Y-91629895D01*
X134876419Y-91726657D01*
X134924800Y-91775038D01*
X135021561Y-91823419D01*
X135215085Y-91823419D01*
X135311847Y-91775038D01*
X135360228Y-91726657D01*
X135408609Y-91629895D01*
X135408609Y-90807419D01*
X135844038Y-91533133D02*
X136327847Y-91533133D01*
X135747276Y-91823419D02*
X136085942Y-90807419D01*
X136424609Y-91823419D01*
X137343847Y-91823419D02*
X137005180Y-91339609D01*
X136763276Y-91823419D02*
X136763276Y-90807419D01*
X137150323Y-90807419D01*
X137247085Y-90855800D01*
X137295466Y-90904180D01*
X137343847Y-91000942D01*
X137343847Y-91146085D01*
X137295466Y-91242847D01*
X137247085Y-91291228D01*
X137150323Y-91339609D01*
X136763276Y-91339609D01*
X137634133Y-90807419D02*
X138214704Y-90807419D01*
X137924419Y-91823419D02*
X137924419Y-90807419D01*
D11*
X134413171Y-98483661D02*
X134776028Y-98483661D01*
X134594600Y-99118661D02*
X134594600Y-98483661D01*
D10*
X158540752Y-110994371D02*
X159314847Y-110994371D01*
X158927800Y-111381419D02*
X158927800Y-110607323D01*
D11*
X134765747Y-96477061D02*
X134554080Y-96174680D01*
X134402890Y-96477061D02*
X134402890Y-95842061D01*
X134644795Y-95842061D01*
X134705271Y-95872300D01*
X134735509Y-95902538D01*
X134765747Y-95963014D01*
X134765747Y-96053728D01*
X134735509Y-96114204D01*
X134705271Y-96144442D01*
X134644795Y-96174680D01*
X134402890Y-96174680D01*
D10*
X158540752Y-108962371D02*
X159314847Y-108962371D01*
D11*
X134684709Y-93357700D02*
X134624233Y-93327461D01*
X134533519Y-93327461D01*
X134442804Y-93357700D01*
X134382328Y-93418176D01*
X134352090Y-93478652D01*
X134321852Y-93599604D01*
X134321852Y-93690319D01*
X134352090Y-93811271D01*
X134382328Y-93871747D01*
X134442804Y-93932223D01*
X134533519Y-93962461D01*
X134593995Y-93962461D01*
X134684709Y-93932223D01*
X134714947Y-93901985D01*
X134714947Y-93690319D01*
X134593995Y-93690319D01*
D10*
X140298714Y-101069019D02*
X140298714Y-100053019D01*
X140685761Y-100053019D01*
X140782523Y-100101400D01*
X140830904Y-100149780D01*
X140879285Y-100246542D01*
X140879285Y-100391685D01*
X140830904Y-100488447D01*
X140782523Y-100536828D01*
X140685761Y-100585209D01*
X140298714Y-100585209D01*
X141895285Y-101069019D02*
X141556619Y-100585209D01*
X141314714Y-101069019D02*
X141314714Y-100053019D01*
X141701761Y-100053019D01*
X141798523Y-100101400D01*
X141846904Y-100149780D01*
X141895285Y-100246542D01*
X141895285Y-100391685D01*
X141846904Y-100488447D01*
X141798523Y-100536828D01*
X141701761Y-100585209D01*
X141314714Y-100585209D01*
X142524238Y-100053019D02*
X142717761Y-100053019D01*
X142814523Y-100101400D01*
X142911285Y-100198161D01*
X142959666Y-100391685D01*
X142959666Y-100730352D01*
X142911285Y-100923876D01*
X142814523Y-101020638D01*
X142717761Y-101069019D01*
X142524238Y-101069019D01*
X142427476Y-101020638D01*
X142330714Y-100923876D01*
X142282333Y-100730352D01*
X142282333Y-100391685D01*
X142330714Y-100198161D01*
X142427476Y-100101400D01*
X142524238Y-100053019D01*
X143927285Y-100101400D02*
X143830523Y-100053019D01*
X143685380Y-100053019D01*
X143540238Y-100101400D01*
X143443476Y-100198161D01*
X143395095Y-100294923D01*
X143346714Y-100488447D01*
X143346714Y-100633590D01*
X143395095Y-100827114D01*
X143443476Y-100923876D01*
X143540238Y-101020638D01*
X143685380Y-101069019D01*
X143782142Y-101069019D01*
X143927285Y-101020638D01*
X143975666Y-100972257D01*
X143975666Y-100633590D01*
X143782142Y-100633590D01*
D11*
X164577261Y-115803214D02*
X164274880Y-116014880D01*
X164577261Y-116166071D02*
X163942261Y-116166071D01*
X163942261Y-115924166D01*
X163972500Y-115863690D01*
X164002738Y-115833452D01*
X164063214Y-115803214D01*
X164153928Y-115803214D01*
X164214404Y-115833452D01*
X164244642Y-115863690D01*
X164274880Y-115924166D01*
X164274880Y-116166071D01*
X164577261Y-115198452D02*
X164577261Y-115561309D01*
X164577261Y-115379880D02*
X163942261Y-115379880D01*
X164032976Y-115440357D01*
X164093452Y-115500833D01*
X164123690Y-115561309D01*
X163942261Y-114986785D02*
X163942261Y-114593690D01*
X164184166Y-114805357D01*
X164184166Y-114714642D01*
X164214404Y-114654166D01*
X164244642Y-114623928D01*
X164305119Y-114593690D01*
X164456309Y-114593690D01*
X164516785Y-114623928D01*
X164547023Y-114654166D01*
X164577261Y-114714642D01*
X164577261Y-114896071D01*
X164547023Y-114956547D01*
X164516785Y-114986785D01*
X148436166Y-96251261D02*
X148224500Y-95948880D01*
X148073309Y-96251261D02*
X148073309Y-95616261D01*
X148315214Y-95616261D01*
X148375690Y-95646500D01*
X148405928Y-95676738D01*
X148436166Y-95737214D01*
X148436166Y-95827928D01*
X148405928Y-95888404D01*
X148375690Y-95918642D01*
X148315214Y-95948880D01*
X148073309Y-95948880D01*
X148738547Y-96251261D02*
X148859500Y-96251261D01*
X148919976Y-96221023D01*
X148950214Y-96190785D01*
X149010690Y-96100071D01*
X149040928Y-95979119D01*
X149040928Y-95737214D01*
X149010690Y-95676738D01*
X148980452Y-95646500D01*
X148919976Y-95616261D01*
X148799023Y-95616261D01*
X148738547Y-95646500D01*
X148708309Y-95676738D01*
X148678071Y-95737214D01*
X148678071Y-95888404D01*
X148708309Y-95948880D01*
X148738547Y-95979119D01*
X148799023Y-96009357D01*
X148919976Y-96009357D01*
X148980452Y-95979119D01*
X149010690Y-95948880D01*
X149040928Y-95888404D01*
X153133166Y-98029261D02*
X152921500Y-97726880D01*
X152770309Y-98029261D02*
X152770309Y-97394261D01*
X153012214Y-97394261D01*
X153072690Y-97424500D01*
X153102928Y-97454738D01*
X153133166Y-97515214D01*
X153133166Y-97605928D01*
X153102928Y-97666404D01*
X153072690Y-97696642D01*
X153012214Y-97726880D01*
X152770309Y-97726880D01*
X153707690Y-97394261D02*
X153405309Y-97394261D01*
X153375071Y-97696642D01*
X153405309Y-97666404D01*
X153465785Y-97636166D01*
X153616976Y-97636166D01*
X153677452Y-97666404D01*
X153707690Y-97696642D01*
X153737928Y-97757119D01*
X153737928Y-97908309D01*
X153707690Y-97968785D01*
X153677452Y-97999023D01*
X153616976Y-98029261D01*
X153465785Y-98029261D01*
X153405309Y-97999023D01*
X153375071Y-97968785D01*
X140513785Y-104633261D02*
X140302119Y-104330880D01*
X140150928Y-104633261D02*
X140150928Y-103998261D01*
X140392833Y-103998261D01*
X140453309Y-104028500D01*
X140483547Y-104058738D01*
X140513785Y-104119214D01*
X140513785Y-104209928D01*
X140483547Y-104270404D01*
X140453309Y-104300642D01*
X140392833Y-104330880D01*
X140150928Y-104330880D01*
X141118547Y-104633261D02*
X140755690Y-104633261D01*
X140937119Y-104633261D02*
X140937119Y-103998261D01*
X140876642Y-104088976D01*
X140816166Y-104149452D01*
X140755690Y-104179690D01*
X141330214Y-103998261D02*
X141753547Y-103998261D01*
X141481404Y-104633261D01*
X143815785Y-112882214D02*
X143846023Y-112912452D01*
X143876261Y-113003166D01*
X143876261Y-113063642D01*
X143846023Y-113154357D01*
X143785547Y-113214833D01*
X143725071Y-113245071D01*
X143604119Y-113275309D01*
X143513404Y-113275309D01*
X143392452Y-113245071D01*
X143331976Y-113214833D01*
X143271500Y-113154357D01*
X143241261Y-113063642D01*
X143241261Y-113003166D01*
X143271500Y-112912452D01*
X143301738Y-112882214D01*
X143241261Y-112670547D02*
X143241261Y-112277452D01*
X143483166Y-112489119D01*
X143483166Y-112398404D01*
X143513404Y-112337928D01*
X143543642Y-112307690D01*
X143604119Y-112277452D01*
X143755309Y-112277452D01*
X143815785Y-112307690D01*
X143846023Y-112337928D01*
X143876261Y-112398404D01*
X143876261Y-112579833D01*
X143846023Y-112640309D01*
X143815785Y-112670547D01*
X143241261Y-112065785D02*
X143241261Y-111642452D01*
X143876261Y-111914595D01*
X168347166Y-94031785D02*
X168316928Y-94062023D01*
X168226214Y-94092261D01*
X168165738Y-94092261D01*
X168075023Y-94062023D01*
X168014547Y-94001547D01*
X167984309Y-93941071D01*
X167954071Y-93820119D01*
X167954071Y-93729404D01*
X167984309Y-93608452D01*
X168014547Y-93547976D01*
X168075023Y-93487500D01*
X168165738Y-93457261D01*
X168226214Y-93457261D01*
X168316928Y-93487500D01*
X168347166Y-93517738D01*
X168558833Y-93457261D02*
X168951928Y-93457261D01*
X168740261Y-93699166D01*
X168830976Y-93699166D01*
X168891452Y-93729404D01*
X168921690Y-93759642D01*
X168951928Y-93820119D01*
X168951928Y-93971309D01*
X168921690Y-94031785D01*
X168891452Y-94062023D01*
X168830976Y-94092261D01*
X168649547Y-94092261D01*
X168589071Y-94062023D01*
X168558833Y-94031785D01*
X139035366Y-113876061D02*
X138823700Y-113573680D01*
X138672509Y-113876061D02*
X138672509Y-113241061D01*
X138914414Y-113241061D01*
X138974890Y-113271300D01*
X139005128Y-113301538D01*
X139035366Y-113362014D01*
X139035366Y-113452728D01*
X139005128Y-113513204D01*
X138974890Y-113543442D01*
X138914414Y-113573680D01*
X138672509Y-113573680D01*
X139247033Y-113241061D02*
X139640128Y-113241061D01*
X139428461Y-113482966D01*
X139519176Y-113482966D01*
X139579652Y-113513204D01*
X139609890Y-113543442D01*
X139640128Y-113603919D01*
X139640128Y-113755109D01*
X139609890Y-113815585D01*
X139579652Y-113845823D01*
X139519176Y-113876061D01*
X139337747Y-113876061D01*
X139277271Y-113845823D01*
X139247033Y-113815585D01*
X161849785Y-126858261D02*
X161638119Y-126555880D01*
X161486928Y-126858261D02*
X161486928Y-126223261D01*
X161728833Y-126223261D01*
X161789309Y-126253500D01*
X161819547Y-126283738D01*
X161849785Y-126344214D01*
X161849785Y-126434928D01*
X161819547Y-126495404D01*
X161789309Y-126525642D01*
X161728833Y-126555880D01*
X161486928Y-126555880D01*
X162091690Y-126283738D02*
X162121928Y-126253500D01*
X162182404Y-126223261D01*
X162333595Y-126223261D01*
X162394071Y-126253500D01*
X162424309Y-126283738D01*
X162454547Y-126344214D01*
X162454547Y-126404690D01*
X162424309Y-126495404D01*
X162061452Y-126858261D01*
X162454547Y-126858261D01*
X162696452Y-126283738D02*
X162726690Y-126253500D01*
X162787166Y-126223261D01*
X162938357Y-126223261D01*
X162998833Y-126253500D01*
X163029071Y-126283738D01*
X163059309Y-126344214D01*
X163059309Y-126404690D01*
X163029071Y-126495404D01*
X162666214Y-126858261D01*
X163059309Y-126858261D01*
X169055523Y-115361738D02*
X168995047Y-115331500D01*
X168934571Y-115271023D01*
X168843857Y-115180309D01*
X168783380Y-115150071D01*
X168722904Y-115150071D01*
X168753142Y-115301261D02*
X168692666Y-115271023D01*
X168632190Y-115210547D01*
X168601952Y-115089595D01*
X168601952Y-114877928D01*
X168632190Y-114756976D01*
X168692666Y-114696500D01*
X168753142Y-114666261D01*
X168874095Y-114666261D01*
X168934571Y-114696500D01*
X168995047Y-114756976D01*
X169025285Y-114877928D01*
X169025285Y-115089595D01*
X168995047Y-115210547D01*
X168934571Y-115271023D01*
X168874095Y-115301261D01*
X168753142Y-115301261D01*
X169630047Y-115301261D02*
X169267190Y-115301261D01*
X169448619Y-115301261D02*
X169448619Y-114666261D01*
X169388142Y-114756976D01*
X169327666Y-114817452D01*
X169267190Y-114847690D01*
X165473785Y-102591452D02*
X165504023Y-102621690D01*
X165534261Y-102712404D01*
X165534261Y-102772880D01*
X165504023Y-102863595D01*
X165443547Y-102924071D01*
X165383071Y-102954309D01*
X165262119Y-102984547D01*
X165171404Y-102984547D01*
X165050452Y-102954309D01*
X164989976Y-102924071D01*
X164929500Y-102863595D01*
X164899261Y-102772880D01*
X164899261Y-102712404D01*
X164929500Y-102621690D01*
X164959738Y-102591452D01*
X165534261Y-102319309D02*
X164899261Y-102319309D01*
X165534261Y-101956452D01*
X164899261Y-101956452D01*
X165534261Y-101321452D02*
X165534261Y-101684309D01*
X165534261Y-101502880D02*
X164899261Y-101502880D01*
X164989976Y-101563357D01*
X165050452Y-101623833D01*
X165080690Y-101684309D01*
X146355785Y-107802214D02*
X146386023Y-107832452D01*
X146416261Y-107923166D01*
X146416261Y-107983642D01*
X146386023Y-108074357D01*
X146325547Y-108134833D01*
X146265071Y-108165071D01*
X146144119Y-108195309D01*
X146053404Y-108195309D01*
X145932452Y-108165071D01*
X145871976Y-108134833D01*
X145811500Y-108074357D01*
X145781261Y-107983642D01*
X145781261Y-107923166D01*
X145811500Y-107832452D01*
X145841738Y-107802214D01*
X145992928Y-107257928D02*
X146416261Y-107257928D01*
X145751023Y-107409119D02*
X146204595Y-107560309D01*
X146204595Y-107167214D01*
X145781261Y-106985785D02*
X145781261Y-106592690D01*
X146023166Y-106804357D01*
X146023166Y-106713642D01*
X146053404Y-106653166D01*
X146083642Y-106622928D01*
X146144119Y-106592690D01*
X146295309Y-106592690D01*
X146355785Y-106622928D01*
X146386023Y-106653166D01*
X146416261Y-106713642D01*
X146416261Y-106895071D01*
X146386023Y-106955547D01*
X146355785Y-106985785D01*
X153594785Y-107935261D02*
X153383119Y-107632880D01*
X153231928Y-107935261D02*
X153231928Y-107300261D01*
X153473833Y-107300261D01*
X153534309Y-107330500D01*
X153564547Y-107360738D01*
X153594785Y-107421214D01*
X153594785Y-107511928D01*
X153564547Y-107572404D01*
X153534309Y-107602642D01*
X153473833Y-107632880D01*
X153231928Y-107632880D01*
X153806452Y-107300261D02*
X154199547Y-107300261D01*
X153987880Y-107542166D01*
X154078595Y-107542166D01*
X154139071Y-107572404D01*
X154169309Y-107602642D01*
X154199547Y-107663119D01*
X154199547Y-107814309D01*
X154169309Y-107874785D01*
X154139071Y-107905023D01*
X154078595Y-107935261D01*
X153897166Y-107935261D01*
X153836690Y-107905023D01*
X153806452Y-107874785D01*
X154743833Y-107300261D02*
X154622880Y-107300261D01*
X154562404Y-107330500D01*
X154532166Y-107360738D01*
X154471690Y-107451452D01*
X154441452Y-107572404D01*
X154441452Y-107814309D01*
X154471690Y-107874785D01*
X154501928Y-107905023D01*
X154562404Y-107935261D01*
X154683357Y-107935261D01*
X154743833Y-107905023D01*
X154774071Y-107874785D01*
X154804309Y-107814309D01*
X154804309Y-107663119D01*
X154774071Y-107602642D01*
X154743833Y-107572404D01*
X154683357Y-107542166D01*
X154562404Y-107542166D01*
X154501928Y-107572404D01*
X154471690Y-107602642D01*
X154441452Y-107663119D01*
X167625261Y-123090595D02*
X167625261Y-123392976D01*
X166990261Y-123392976D01*
X167292642Y-122878928D02*
X167292642Y-122667261D01*
X167625261Y-122576547D02*
X167625261Y-122878928D01*
X166990261Y-122878928D01*
X166990261Y-122576547D01*
X167625261Y-122304404D02*
X166990261Y-122304404D01*
X166990261Y-122153214D01*
X167020500Y-122062500D01*
X167080976Y-122002023D01*
X167141452Y-121971785D01*
X167262404Y-121941547D01*
X167353119Y-121941547D01*
X167474071Y-121971785D01*
X167534547Y-122002023D01*
X167595023Y-122062500D01*
X167625261Y-122153214D01*
X167625261Y-122304404D01*
X167050738Y-121699642D02*
X167020500Y-121669404D01*
X166990261Y-121608928D01*
X166990261Y-121457738D01*
X167020500Y-121397261D01*
X167050738Y-121367023D01*
X167111214Y-121336785D01*
X167171690Y-121336785D01*
X167262404Y-121367023D01*
X167625261Y-121729880D01*
X167625261Y-121336785D01*
X155847523Y-103931738D02*
X155787047Y-103901500D01*
X155726571Y-103841023D01*
X155635857Y-103750309D01*
X155575380Y-103720071D01*
X155514904Y-103720071D01*
X155545142Y-103871261D02*
X155484666Y-103841023D01*
X155424190Y-103780547D01*
X155393952Y-103659595D01*
X155393952Y-103447928D01*
X155424190Y-103326976D01*
X155484666Y-103266500D01*
X155545142Y-103236261D01*
X155666095Y-103236261D01*
X155726571Y-103266500D01*
X155787047Y-103326976D01*
X155817285Y-103447928D01*
X155817285Y-103659595D01*
X155787047Y-103780547D01*
X155726571Y-103841023D01*
X155666095Y-103871261D01*
X155545142Y-103871261D01*
X156391809Y-103236261D02*
X156089428Y-103236261D01*
X156059190Y-103538642D01*
X156089428Y-103508404D01*
X156149904Y-103478166D01*
X156301095Y-103478166D01*
X156361571Y-103508404D01*
X156391809Y-103538642D01*
X156422047Y-103599119D01*
X156422047Y-103750309D01*
X156391809Y-103810785D01*
X156361571Y-103841023D01*
X156301095Y-103871261D01*
X156149904Y-103871261D01*
X156089428Y-103841023D01*
X156059190Y-103810785D01*
X131430261Y-119740214D02*
X131127880Y-119951880D01*
X131430261Y-120103071D02*
X130795261Y-120103071D01*
X130795261Y-119861166D01*
X130825500Y-119800690D01*
X130855738Y-119770452D01*
X130916214Y-119740214D01*
X131006928Y-119740214D01*
X131067404Y-119770452D01*
X131097642Y-119800690D01*
X131127880Y-119861166D01*
X131127880Y-120103071D01*
X131430261Y-119135452D02*
X131430261Y-119498309D01*
X131430261Y-119316880D02*
X130795261Y-119316880D01*
X130885976Y-119377357D01*
X130946452Y-119437833D01*
X130976690Y-119498309D01*
X131430261Y-118530690D02*
X131430261Y-118893547D01*
X131430261Y-118712119D02*
X130795261Y-118712119D01*
X130885976Y-118772595D01*
X130946452Y-118833071D01*
X130976690Y-118893547D01*
X141656785Y-91491785D02*
X141626547Y-91522023D01*
X141535833Y-91552261D01*
X141475357Y-91552261D01*
X141384642Y-91522023D01*
X141324166Y-91461547D01*
X141293928Y-91401071D01*
X141263690Y-91280119D01*
X141263690Y-91189404D01*
X141293928Y-91068452D01*
X141324166Y-91007976D01*
X141384642Y-90947500D01*
X141475357Y-90917261D01*
X141535833Y-90917261D01*
X141626547Y-90947500D01*
X141656785Y-90977738D01*
X142201071Y-91128928D02*
X142201071Y-91552261D01*
X142049880Y-90887023D02*
X141898690Y-91340595D01*
X142291785Y-91340595D01*
X142866309Y-91552261D02*
X142503452Y-91552261D01*
X142684880Y-91552261D02*
X142684880Y-90917261D01*
X142624404Y-91007976D01*
X142563928Y-91068452D01*
X142503452Y-91098690D01*
X137390190Y-116571261D02*
X137390190Y-117085309D01*
X137420428Y-117145785D01*
X137450666Y-117176023D01*
X137511142Y-117206261D01*
X137632095Y-117206261D01*
X137692571Y-117176023D01*
X137722809Y-117145785D01*
X137753047Y-117085309D01*
X137753047Y-116571261D01*
X138357809Y-116571261D02*
X138055428Y-116571261D01*
X138025190Y-116873642D01*
X138055428Y-116843404D01*
X138115904Y-116813166D01*
X138267095Y-116813166D01*
X138327571Y-116843404D01*
X138357809Y-116873642D01*
X138388047Y-116934119D01*
X138388047Y-117085309D01*
X138357809Y-117145785D01*
X138327571Y-117176023D01*
X138267095Y-117206261D01*
X138115904Y-117206261D01*
X138055428Y-117176023D01*
X138025190Y-117145785D01*
X163500785Y-92308214D02*
X163531023Y-92338452D01*
X163561261Y-92429166D01*
X163561261Y-92489642D01*
X163531023Y-92580357D01*
X163470547Y-92640833D01*
X163410071Y-92671071D01*
X163289119Y-92701309D01*
X163198404Y-92701309D01*
X163077452Y-92671071D01*
X163016976Y-92640833D01*
X162956500Y-92580357D01*
X162926261Y-92489642D01*
X162926261Y-92429166D01*
X162956500Y-92338452D01*
X162986738Y-92308214D01*
X163561261Y-91703452D02*
X163561261Y-92066309D01*
X163561261Y-91884880D02*
X162926261Y-91884880D01*
X163016976Y-91945357D01*
X163077452Y-92005833D01*
X163107690Y-92066309D01*
X162926261Y-91128928D02*
X162926261Y-91431309D01*
X163228642Y-91461547D01*
X163198404Y-91431309D01*
X163168166Y-91370833D01*
X163168166Y-91219642D01*
X163198404Y-91159166D01*
X163228642Y-91128928D01*
X163289119Y-91098690D01*
X163440309Y-91098690D01*
X163500785Y-91128928D01*
X163531023Y-91159166D01*
X163561261Y-91219642D01*
X163561261Y-91370833D01*
X163531023Y-91431309D01*
X163500785Y-91461547D01*
X154737785Y-91618785D02*
X154707547Y-91649023D01*
X154616833Y-91679261D01*
X154556357Y-91679261D01*
X154465642Y-91649023D01*
X154405166Y-91588547D01*
X154374928Y-91528071D01*
X154344690Y-91407119D01*
X154344690Y-91316404D01*
X154374928Y-91195452D01*
X154405166Y-91134976D01*
X154465642Y-91074500D01*
X154556357Y-91044261D01*
X154616833Y-91044261D01*
X154707547Y-91074500D01*
X154737785Y-91104738D01*
X155342547Y-91679261D02*
X154979690Y-91679261D01*
X155161119Y-91679261D02*
X155161119Y-91044261D01*
X155100642Y-91134976D01*
X155040166Y-91195452D01*
X154979690Y-91225690D01*
X155735642Y-91044261D02*
X155796119Y-91044261D01*
X155856595Y-91074500D01*
X155886833Y-91104738D01*
X155917071Y-91165214D01*
X155947309Y-91286166D01*
X155947309Y-91437357D01*
X155917071Y-91558309D01*
X155886833Y-91618785D01*
X155856595Y-91649023D01*
X155796119Y-91679261D01*
X155735642Y-91679261D01*
X155675166Y-91649023D01*
X155644928Y-91618785D01*
X155614690Y-91558309D01*
X155584452Y-91437357D01*
X155584452Y-91286166D01*
X155614690Y-91165214D01*
X155644928Y-91104738D01*
X155675166Y-91074500D01*
X155735642Y-91044261D01*
X153594785Y-111264261D02*
X153383119Y-110961880D01*
X153231928Y-111264261D02*
X153231928Y-110629261D01*
X153473833Y-110629261D01*
X153534309Y-110659500D01*
X153564547Y-110689738D01*
X153594785Y-110750214D01*
X153594785Y-110840928D01*
X153564547Y-110901404D01*
X153534309Y-110931642D01*
X153473833Y-110961880D01*
X153231928Y-110961880D01*
X153806452Y-110629261D02*
X154199547Y-110629261D01*
X153987880Y-110871166D01*
X154078595Y-110871166D01*
X154139071Y-110901404D01*
X154169309Y-110931642D01*
X154199547Y-110992119D01*
X154199547Y-111143309D01*
X154169309Y-111203785D01*
X154139071Y-111234023D01*
X154078595Y-111264261D01*
X153897166Y-111264261D01*
X153836690Y-111234023D01*
X153806452Y-111203785D01*
X154774071Y-110629261D02*
X154471690Y-110629261D01*
X154441452Y-110931642D01*
X154471690Y-110901404D01*
X154532166Y-110871166D01*
X154683357Y-110871166D01*
X154743833Y-110901404D01*
X154774071Y-110931642D01*
X154804309Y-110992119D01*
X154804309Y-111143309D01*
X154774071Y-111203785D01*
X154743833Y-111234023D01*
X154683357Y-111264261D01*
X154532166Y-111264261D01*
X154471690Y-111234023D01*
X154441452Y-111203785D01*
X154737785Y-95422833D02*
X154768023Y-95453071D01*
X154798261Y-95543785D01*
X154798261Y-95604261D01*
X154768023Y-95694976D01*
X154707547Y-95755452D01*
X154647071Y-95785690D01*
X154526119Y-95815928D01*
X154435404Y-95815928D01*
X154314452Y-95785690D01*
X154253976Y-95755452D01*
X154193500Y-95694976D01*
X154163261Y-95604261D01*
X154163261Y-95543785D01*
X154193500Y-95453071D01*
X154223738Y-95422833D01*
X154163261Y-94878547D02*
X154163261Y-94999500D01*
X154193500Y-95059976D01*
X154223738Y-95090214D01*
X154314452Y-95150690D01*
X154435404Y-95180928D01*
X154677309Y-95180928D01*
X154737785Y-95150690D01*
X154768023Y-95120452D01*
X154798261Y-95059976D01*
X154798261Y-94939023D01*
X154768023Y-94878547D01*
X154737785Y-94848309D01*
X154677309Y-94818071D01*
X154526119Y-94818071D01*
X154465642Y-94848309D01*
X154435404Y-94878547D01*
X154405166Y-94939023D01*
X154405166Y-95059976D01*
X154435404Y-95120452D01*
X154465642Y-95150690D01*
X154526119Y-95180928D01*
X150690785Y-109580214D02*
X150721023Y-109610452D01*
X150751261Y-109701166D01*
X150751261Y-109761642D01*
X150721023Y-109852357D01*
X150660547Y-109912833D01*
X150600071Y-109943071D01*
X150479119Y-109973309D01*
X150388404Y-109973309D01*
X150267452Y-109943071D01*
X150206976Y-109912833D01*
X150146500Y-109852357D01*
X150116261Y-109761642D01*
X150116261Y-109701166D01*
X150146500Y-109610452D01*
X150176738Y-109580214D01*
X150327928Y-109035928D02*
X150751261Y-109035928D01*
X150086023Y-109187119D02*
X150539595Y-109338309D01*
X150539595Y-108945214D01*
X150116261Y-108763785D02*
X150116261Y-108340452D01*
X150751261Y-108612595D01*
X143561785Y-115295214D02*
X143592023Y-115325452D01*
X143622261Y-115416166D01*
X143622261Y-115476642D01*
X143592023Y-115567357D01*
X143531547Y-115627833D01*
X143471071Y-115658071D01*
X143350119Y-115688309D01*
X143259404Y-115688309D01*
X143138452Y-115658071D01*
X143077976Y-115627833D01*
X143017500Y-115567357D01*
X142987261Y-115476642D01*
X142987261Y-115416166D01*
X143017500Y-115325452D01*
X143047738Y-115295214D01*
X143622261Y-114690452D02*
X143622261Y-115053309D01*
X143622261Y-114871880D02*
X142987261Y-114871880D01*
X143077976Y-114932357D01*
X143138452Y-114992833D01*
X143168690Y-115053309D01*
X143198928Y-114146166D02*
X143622261Y-114146166D01*
X142957023Y-114297357D02*
X143410595Y-114448547D01*
X143410595Y-114055452D01*
X161976785Y-124318261D02*
X161765119Y-124015880D01*
X161613928Y-124318261D02*
X161613928Y-123683261D01*
X161855833Y-123683261D01*
X161916309Y-123713500D01*
X161946547Y-123743738D01*
X161976785Y-123804214D01*
X161976785Y-123894928D01*
X161946547Y-123955404D01*
X161916309Y-123985642D01*
X161855833Y-124015880D01*
X161613928Y-124015880D01*
X162218690Y-123743738D02*
X162248928Y-123713500D01*
X162309404Y-123683261D01*
X162460595Y-123683261D01*
X162521071Y-123713500D01*
X162551309Y-123743738D01*
X162581547Y-123804214D01*
X162581547Y-123864690D01*
X162551309Y-123955404D01*
X162188452Y-124318261D01*
X162581547Y-124318261D01*
X163125833Y-123683261D02*
X163004880Y-123683261D01*
X162944404Y-123713500D01*
X162914166Y-123743738D01*
X162853690Y-123834452D01*
X162823452Y-123955404D01*
X162823452Y-124197309D01*
X162853690Y-124257785D01*
X162883928Y-124288023D01*
X162944404Y-124318261D01*
X163065357Y-124318261D01*
X163125833Y-124288023D01*
X163156071Y-124257785D01*
X163186309Y-124197309D01*
X163186309Y-124046119D01*
X163156071Y-123985642D01*
X163125833Y-123955404D01*
X163065357Y-123925166D01*
X162944404Y-123925166D01*
X162883928Y-123955404D01*
X162853690Y-123985642D01*
X162823452Y-124046119D01*
X140513785Y-102601261D02*
X140302119Y-102298880D01*
X140150928Y-102601261D02*
X140150928Y-101966261D01*
X140392833Y-101966261D01*
X140453309Y-101996500D01*
X140483547Y-102026738D01*
X140513785Y-102087214D01*
X140513785Y-102177928D01*
X140483547Y-102238404D01*
X140453309Y-102268642D01*
X140392833Y-102298880D01*
X140150928Y-102298880D01*
X140755690Y-102026738D02*
X140785928Y-101996500D01*
X140846404Y-101966261D01*
X140997595Y-101966261D01*
X141058071Y-101996500D01*
X141088309Y-102026738D01*
X141118547Y-102087214D01*
X141118547Y-102147690D01*
X141088309Y-102238404D01*
X140725452Y-102601261D01*
X141118547Y-102601261D01*
X141481404Y-102238404D02*
X141420928Y-102208166D01*
X141390690Y-102177928D01*
X141360452Y-102117452D01*
X141360452Y-102087214D01*
X141390690Y-102026738D01*
X141420928Y-101996500D01*
X141481404Y-101966261D01*
X141602357Y-101966261D01*
X141662833Y-101996500D01*
X141693071Y-102026738D01*
X141723309Y-102087214D01*
X141723309Y-102117452D01*
X141693071Y-102177928D01*
X141662833Y-102208166D01*
X141602357Y-102238404D01*
X141481404Y-102238404D01*
X141420928Y-102268642D01*
X141390690Y-102298880D01*
X141360452Y-102359357D01*
X141360452Y-102480309D01*
X141390690Y-102540785D01*
X141420928Y-102571023D01*
X141481404Y-102601261D01*
X141602357Y-102601261D01*
X141662833Y-102571023D01*
X141693071Y-102540785D01*
X141723309Y-102480309D01*
X141723309Y-102359357D01*
X141693071Y-102298880D01*
X141662833Y-102268642D01*
X141602357Y-102238404D01*
X149403785Y-113970785D02*
X149373547Y-114001023D01*
X149282833Y-114031261D01*
X149222357Y-114031261D01*
X149131642Y-114001023D01*
X149071166Y-113940547D01*
X149040928Y-113880071D01*
X149010690Y-113759119D01*
X149010690Y-113668404D01*
X149040928Y-113547452D01*
X149071166Y-113486976D01*
X149131642Y-113426500D01*
X149222357Y-113396261D01*
X149282833Y-113396261D01*
X149373547Y-113426500D01*
X149403785Y-113456738D01*
X149615452Y-113396261D02*
X150008547Y-113396261D01*
X149796880Y-113638166D01*
X149887595Y-113638166D01*
X149948071Y-113668404D01*
X149978309Y-113698642D01*
X150008547Y-113759119D01*
X150008547Y-113910309D01*
X149978309Y-113970785D01*
X149948071Y-114001023D01*
X149887595Y-114031261D01*
X149706166Y-114031261D01*
X149645690Y-114001023D01*
X149615452Y-113970785D01*
X150552833Y-113396261D02*
X150431880Y-113396261D01*
X150371404Y-113426500D01*
X150341166Y-113456738D01*
X150280690Y-113547452D01*
X150250452Y-113668404D01*
X150250452Y-113910309D01*
X150280690Y-113970785D01*
X150310928Y-114001023D01*
X150371404Y-114031261D01*
X150492357Y-114031261D01*
X150552833Y-114001023D01*
X150583071Y-113970785D01*
X150613309Y-113910309D01*
X150613309Y-113759119D01*
X150583071Y-113698642D01*
X150552833Y-113668404D01*
X150492357Y-113638166D01*
X150371404Y-113638166D01*
X150310928Y-113668404D01*
X150280690Y-113698642D01*
X150250452Y-113759119D01*
X161069261Y-128271814D02*
X160766880Y-128483480D01*
X161069261Y-128634671D02*
X160434261Y-128634671D01*
X160434261Y-128392766D01*
X160464500Y-128332290D01*
X160494738Y-128302052D01*
X160555214Y-128271814D01*
X160645928Y-128271814D01*
X160706404Y-128302052D01*
X160736642Y-128332290D01*
X160766880Y-128392766D01*
X160766880Y-128634671D01*
X161069261Y-127667052D02*
X161069261Y-128029909D01*
X161069261Y-127848480D02*
X160434261Y-127848480D01*
X160524976Y-127908957D01*
X160585452Y-127969433D01*
X160615690Y-128029909D01*
X160706404Y-127304195D02*
X160676166Y-127364671D01*
X160645928Y-127394909D01*
X160585452Y-127425147D01*
X160555214Y-127425147D01*
X160494738Y-127394909D01*
X160464500Y-127364671D01*
X160434261Y-127304195D01*
X160434261Y-127183242D01*
X160464500Y-127122766D01*
X160494738Y-127092528D01*
X160555214Y-127062290D01*
X160585452Y-127062290D01*
X160645928Y-127092528D01*
X160676166Y-127122766D01*
X160706404Y-127183242D01*
X160706404Y-127304195D01*
X160736642Y-127364671D01*
X160766880Y-127394909D01*
X160827357Y-127425147D01*
X160948309Y-127425147D01*
X161008785Y-127394909D01*
X161039023Y-127364671D01*
X161069261Y-127304195D01*
X161069261Y-127183242D01*
X161039023Y-127122766D01*
X161008785Y-127092528D01*
X160948309Y-127062290D01*
X160827357Y-127062290D01*
X160766880Y-127092528D01*
X160736642Y-127122766D01*
X160706404Y-127183242D01*
X166796738Y-124218476D02*
X166766500Y-124278952D01*
X166706023Y-124339428D01*
X166615309Y-124430142D01*
X166585071Y-124490619D01*
X166585071Y-124551095D01*
X166736261Y-124520857D02*
X166706023Y-124581333D01*
X166645547Y-124641809D01*
X166524595Y-124672047D01*
X166312928Y-124672047D01*
X166191976Y-124641809D01*
X166131500Y-124581333D01*
X166101261Y-124520857D01*
X166101261Y-124399904D01*
X166131500Y-124339428D01*
X166191976Y-124278952D01*
X166312928Y-124248714D01*
X166524595Y-124248714D01*
X166645547Y-124278952D01*
X166706023Y-124339428D01*
X166736261Y-124399904D01*
X166736261Y-124520857D01*
X166101261Y-124037047D02*
X166101261Y-123643952D01*
X166343166Y-123855619D01*
X166343166Y-123764904D01*
X166373404Y-123704428D01*
X166403642Y-123674190D01*
X166464119Y-123643952D01*
X166615309Y-123643952D01*
X166675785Y-123674190D01*
X166706023Y-123704428D01*
X166736261Y-123764904D01*
X166736261Y-123946333D01*
X166706023Y-124006809D01*
X166675785Y-124037047D01*
X159944785Y-119359214D02*
X159975023Y-119389452D01*
X160005261Y-119480166D01*
X160005261Y-119540642D01*
X159975023Y-119631357D01*
X159914547Y-119691833D01*
X159854071Y-119722071D01*
X159733119Y-119752309D01*
X159642404Y-119752309D01*
X159521452Y-119722071D01*
X159460976Y-119691833D01*
X159400500Y-119631357D01*
X159370261Y-119540642D01*
X159370261Y-119480166D01*
X159400500Y-119389452D01*
X159430738Y-119359214D01*
X159430738Y-119117309D02*
X159400500Y-119087071D01*
X159370261Y-119026595D01*
X159370261Y-118875404D01*
X159400500Y-118814928D01*
X159430738Y-118784690D01*
X159491214Y-118754452D01*
X159551690Y-118754452D01*
X159642404Y-118784690D01*
X160005261Y-119147547D01*
X160005261Y-118754452D01*
X160005261Y-118452071D02*
X160005261Y-118331119D01*
X159975023Y-118270642D01*
X159944785Y-118240404D01*
X159854071Y-118179928D01*
X159733119Y-118149690D01*
X159491214Y-118149690D01*
X159430738Y-118179928D01*
X159400500Y-118210166D01*
X159370261Y-118270642D01*
X159370261Y-118391595D01*
X159400500Y-118452071D01*
X159430738Y-118482309D01*
X159491214Y-118512547D01*
X159642404Y-118512547D01*
X159702880Y-118482309D01*
X159733119Y-118452071D01*
X159763357Y-118391595D01*
X159763357Y-118270642D01*
X159733119Y-118210166D01*
X159702880Y-118179928D01*
X159642404Y-118149690D01*
X139721547Y-91618785D02*
X139691309Y-91649023D01*
X139600595Y-91679261D01*
X139540119Y-91679261D01*
X139449404Y-91649023D01*
X139388928Y-91588547D01*
X139358690Y-91528071D01*
X139328452Y-91407119D01*
X139328452Y-91316404D01*
X139358690Y-91195452D01*
X139388928Y-91134976D01*
X139449404Y-91074500D01*
X139540119Y-91044261D01*
X139600595Y-91044261D01*
X139691309Y-91074500D01*
X139721547Y-91104738D01*
X139993690Y-91679261D02*
X139993690Y-91044261D01*
X140356547Y-91679261D01*
X140356547Y-91044261D01*
X140598452Y-91044261D02*
X140991547Y-91044261D01*
X140779880Y-91286166D01*
X140870595Y-91286166D01*
X140931071Y-91316404D01*
X140961309Y-91346642D01*
X140991547Y-91407119D01*
X140991547Y-91558309D01*
X140961309Y-91618785D01*
X140931071Y-91649023D01*
X140870595Y-91679261D01*
X140689166Y-91679261D01*
X140628690Y-91649023D01*
X140598452Y-91618785D01*
X148514785Y-91110785D02*
X148484547Y-91141023D01*
X148393833Y-91171261D01*
X148333357Y-91171261D01*
X148242642Y-91141023D01*
X148182166Y-91080547D01*
X148151928Y-91020071D01*
X148121690Y-90899119D01*
X148121690Y-90808404D01*
X148151928Y-90687452D01*
X148182166Y-90626976D01*
X148242642Y-90566500D01*
X148333357Y-90536261D01*
X148393833Y-90536261D01*
X148484547Y-90566500D01*
X148514785Y-90596738D01*
X149059071Y-90747928D02*
X149059071Y-91171261D01*
X148907880Y-90506023D02*
X148756690Y-90959595D01*
X149149785Y-90959595D01*
X149694071Y-90536261D02*
X149391690Y-90536261D01*
X149361452Y-90838642D01*
X149391690Y-90808404D01*
X149452166Y-90778166D01*
X149603357Y-90778166D01*
X149663833Y-90808404D01*
X149694071Y-90838642D01*
X149724309Y-90899119D01*
X149724309Y-91050309D01*
X149694071Y-91110785D01*
X149663833Y-91141023D01*
X149603357Y-91171261D01*
X149452166Y-91171261D01*
X149391690Y-91141023D01*
X149361452Y-91110785D01*
X134267423Y-127643466D02*
X134297661Y-127552752D01*
X134297661Y-127401561D01*
X134267423Y-127341085D01*
X134237185Y-127310847D01*
X134176709Y-127280609D01*
X134116233Y-127280609D01*
X134055757Y-127310847D01*
X134025519Y-127341085D01*
X133995280Y-127401561D01*
X133965042Y-127522514D01*
X133934804Y-127582990D01*
X133904566Y-127613228D01*
X133844090Y-127643466D01*
X133783614Y-127643466D01*
X133723138Y-127613228D01*
X133692900Y-127582990D01*
X133662661Y-127522514D01*
X133662661Y-127371323D01*
X133692900Y-127280609D01*
X133662661Y-127068942D02*
X134297661Y-126917752D01*
X133844090Y-126796800D01*
X134297661Y-126675847D01*
X133662661Y-126524657D01*
X133723138Y-126312990D02*
X133692900Y-126282752D01*
X133662661Y-126222276D01*
X133662661Y-126071085D01*
X133692900Y-126010609D01*
X133723138Y-125980371D01*
X133783614Y-125950133D01*
X133844090Y-125950133D01*
X133934804Y-125980371D01*
X134297661Y-126343228D01*
X134297661Y-125950133D01*
X148436166Y-98537261D02*
X148224500Y-98234880D01*
X148073309Y-98537261D02*
X148073309Y-97902261D01*
X148315214Y-97902261D01*
X148375690Y-97932500D01*
X148405928Y-97962738D01*
X148436166Y-98023214D01*
X148436166Y-98113928D01*
X148405928Y-98174404D01*
X148375690Y-98204642D01*
X148315214Y-98234880D01*
X148073309Y-98234880D01*
X148647833Y-97902261D02*
X149071166Y-97902261D01*
X148799023Y-98537261D01*
X147752785Y-111485214D02*
X147783023Y-111515452D01*
X147813261Y-111606166D01*
X147813261Y-111666642D01*
X147783023Y-111757357D01*
X147722547Y-111817833D01*
X147662071Y-111848071D01*
X147541119Y-111878309D01*
X147450404Y-111878309D01*
X147329452Y-111848071D01*
X147268976Y-111817833D01*
X147208500Y-111757357D01*
X147178261Y-111666642D01*
X147178261Y-111606166D01*
X147208500Y-111515452D01*
X147238738Y-111485214D01*
X147178261Y-111273547D02*
X147178261Y-110880452D01*
X147420166Y-111092119D01*
X147420166Y-111001404D01*
X147450404Y-110940928D01*
X147480642Y-110910690D01*
X147541119Y-110880452D01*
X147692309Y-110880452D01*
X147752785Y-110910690D01*
X147783023Y-110940928D01*
X147813261Y-111001404D01*
X147813261Y-111182833D01*
X147783023Y-111243309D01*
X147752785Y-111273547D01*
X147450404Y-110517595D02*
X147420166Y-110578071D01*
X147389928Y-110608309D01*
X147329452Y-110638547D01*
X147299214Y-110638547D01*
X147238738Y-110608309D01*
X147208500Y-110578071D01*
X147178261Y-110517595D01*
X147178261Y-110396642D01*
X147208500Y-110336166D01*
X147238738Y-110305928D01*
X147299214Y-110275690D01*
X147329452Y-110275690D01*
X147389928Y-110305928D01*
X147420166Y-110336166D01*
X147450404Y-110396642D01*
X147450404Y-110517595D01*
X147480642Y-110578071D01*
X147510880Y-110608309D01*
X147571357Y-110638547D01*
X147692309Y-110638547D01*
X147752785Y-110608309D01*
X147783023Y-110578071D01*
X147813261Y-110517595D01*
X147813261Y-110396642D01*
X147783023Y-110336166D01*
X147752785Y-110305928D01*
X147692309Y-110275690D01*
X147571357Y-110275690D01*
X147510880Y-110305928D01*
X147480642Y-110336166D01*
X147450404Y-110396642D01*
X164516785Y-92259833D02*
X164547023Y-92290071D01*
X164577261Y-92380785D01*
X164577261Y-92441261D01*
X164547023Y-92531976D01*
X164486547Y-92592452D01*
X164426071Y-92622690D01*
X164305119Y-92652928D01*
X164214404Y-92652928D01*
X164093452Y-92622690D01*
X164032976Y-92592452D01*
X163972500Y-92531976D01*
X163942261Y-92441261D01*
X163942261Y-92380785D01*
X163972500Y-92290071D01*
X164002738Y-92259833D01*
X164153928Y-91715547D02*
X164577261Y-91715547D01*
X163912023Y-91866738D02*
X164365595Y-92017928D01*
X164365595Y-91624833D01*
X160579785Y-113928452D02*
X160610023Y-113958690D01*
X160640261Y-114049404D01*
X160640261Y-114109880D01*
X160610023Y-114200595D01*
X160549547Y-114261071D01*
X160489071Y-114291309D01*
X160368119Y-114321547D01*
X160277404Y-114321547D01*
X160156452Y-114291309D01*
X160095976Y-114261071D01*
X160035500Y-114200595D01*
X160005261Y-114109880D01*
X160005261Y-114049404D01*
X160035500Y-113958690D01*
X160065738Y-113928452D01*
X160640261Y-113656309D02*
X160005261Y-113656309D01*
X160640261Y-113293452D01*
X160005261Y-113293452D01*
X160005261Y-112688690D02*
X160005261Y-112991071D01*
X160307642Y-113021309D01*
X160277404Y-112991071D01*
X160247166Y-112930595D01*
X160247166Y-112779404D01*
X160277404Y-112718928D01*
X160307642Y-112688690D01*
X160368119Y-112658452D01*
X160519309Y-112658452D01*
X160579785Y-112688690D01*
X160610023Y-112718928D01*
X160640261Y-112779404D01*
X160640261Y-112930595D01*
X160610023Y-112991071D01*
X160579785Y-113021309D01*
X160159261Y-106786214D02*
X159856880Y-106997880D01*
X160159261Y-107149071D02*
X159524261Y-107149071D01*
X159524261Y-106907166D01*
X159554500Y-106846690D01*
X159584738Y-106816452D01*
X159645214Y-106786214D01*
X159735928Y-106786214D01*
X159796404Y-106816452D01*
X159826642Y-106846690D01*
X159856880Y-106907166D01*
X159856880Y-107149071D01*
X159524261Y-106574547D02*
X159524261Y-106181452D01*
X159766166Y-106393119D01*
X159766166Y-106302404D01*
X159796404Y-106241928D01*
X159826642Y-106211690D01*
X159887119Y-106181452D01*
X160038309Y-106181452D01*
X160098785Y-106211690D01*
X160129023Y-106241928D01*
X160159261Y-106302404D01*
X160159261Y-106483833D01*
X160129023Y-106544309D01*
X160098785Y-106574547D01*
X160159261Y-105576690D02*
X160159261Y-105939547D01*
X160159261Y-105758119D02*
X159524261Y-105758119D01*
X159614976Y-105818595D01*
X159675452Y-105879071D01*
X159705690Y-105939547D01*
X159690785Y-115748785D02*
X159660547Y-115779023D01*
X159569833Y-115809261D01*
X159509357Y-115809261D01*
X159418642Y-115779023D01*
X159358166Y-115718547D01*
X159327928Y-115658071D01*
X159297690Y-115537119D01*
X159297690Y-115446404D01*
X159327928Y-115325452D01*
X159358166Y-115264976D01*
X159418642Y-115204500D01*
X159509357Y-115174261D01*
X159569833Y-115174261D01*
X159660547Y-115204500D01*
X159690785Y-115234738D01*
X159902452Y-115174261D02*
X160295547Y-115174261D01*
X160083880Y-115416166D01*
X160174595Y-115416166D01*
X160235071Y-115446404D01*
X160265309Y-115476642D01*
X160295547Y-115537119D01*
X160295547Y-115688309D01*
X160265309Y-115748785D01*
X160235071Y-115779023D01*
X160174595Y-115809261D01*
X159993166Y-115809261D01*
X159932690Y-115779023D01*
X159902452Y-115748785D01*
X160688642Y-115174261D02*
X160749119Y-115174261D01*
X160809595Y-115204500D01*
X160839833Y-115234738D01*
X160870071Y-115295214D01*
X160900309Y-115416166D01*
X160900309Y-115567357D01*
X160870071Y-115688309D01*
X160839833Y-115748785D01*
X160809595Y-115779023D01*
X160749119Y-115809261D01*
X160688642Y-115809261D01*
X160628166Y-115779023D01*
X160597928Y-115748785D01*
X160567690Y-115688309D01*
X160537452Y-115567357D01*
X160537452Y-115416166D01*
X160567690Y-115295214D01*
X160597928Y-115234738D01*
X160628166Y-115204500D01*
X160688642Y-115174261D01*
X143688785Y-111303785D02*
X143658547Y-111334023D01*
X143567833Y-111364261D01*
X143507357Y-111364261D01*
X143416642Y-111334023D01*
X143356166Y-111273547D01*
X143325928Y-111213071D01*
X143295690Y-111092119D01*
X143295690Y-111001404D01*
X143325928Y-110880452D01*
X143356166Y-110819976D01*
X143416642Y-110759500D01*
X143507357Y-110729261D01*
X143567833Y-110729261D01*
X143658547Y-110759500D01*
X143688785Y-110789738D01*
X144233071Y-110940928D02*
X144233071Y-111364261D01*
X144081880Y-110699023D02*
X143930690Y-111152595D01*
X144323785Y-111152595D01*
X144535452Y-110789738D02*
X144565690Y-110759500D01*
X144626166Y-110729261D01*
X144777357Y-110729261D01*
X144837833Y-110759500D01*
X144868071Y-110789738D01*
X144898309Y-110850214D01*
X144898309Y-110910690D01*
X144868071Y-111001404D01*
X144505214Y-111364261D01*
X144898309Y-111364261D01*
X160259261Y-104881214D02*
X159956880Y-105092880D01*
X160259261Y-105244071D02*
X159624261Y-105244071D01*
X159624261Y-105002166D01*
X159654500Y-104941690D01*
X159684738Y-104911452D01*
X159745214Y-104881214D01*
X159835928Y-104881214D01*
X159896404Y-104911452D01*
X159926642Y-104941690D01*
X159956880Y-105002166D01*
X159956880Y-105244071D01*
X159624261Y-104669547D02*
X159624261Y-104276452D01*
X159866166Y-104488119D01*
X159866166Y-104397404D01*
X159896404Y-104336928D01*
X159926642Y-104306690D01*
X159987119Y-104276452D01*
X160138309Y-104276452D01*
X160198785Y-104306690D01*
X160229023Y-104336928D01*
X160259261Y-104397404D01*
X160259261Y-104578833D01*
X160229023Y-104639309D01*
X160198785Y-104669547D01*
X159624261Y-103883357D02*
X159624261Y-103822880D01*
X159654500Y-103762404D01*
X159684738Y-103732166D01*
X159745214Y-103701928D01*
X159866166Y-103671690D01*
X160017357Y-103671690D01*
X160138309Y-103701928D01*
X160198785Y-103732166D01*
X160229023Y-103762404D01*
X160259261Y-103822880D01*
X160259261Y-103883357D01*
X160229023Y-103943833D01*
X160198785Y-103974071D01*
X160138309Y-104004309D01*
X160017357Y-104034547D01*
X159866166Y-104034547D01*
X159745214Y-104004309D01*
X159684738Y-103974071D01*
X159654500Y-103943833D01*
X159624261Y-103883357D01*
X154737785Y-93771833D02*
X154768023Y-93802071D01*
X154798261Y-93892785D01*
X154798261Y-93953261D01*
X154768023Y-94043976D01*
X154707547Y-94104452D01*
X154647071Y-94134690D01*
X154526119Y-94164928D01*
X154435404Y-94164928D01*
X154314452Y-94134690D01*
X154253976Y-94104452D01*
X154193500Y-94043976D01*
X154163261Y-93953261D01*
X154163261Y-93892785D01*
X154193500Y-93802071D01*
X154223738Y-93771833D01*
X154163261Y-93197309D02*
X154163261Y-93499690D01*
X154465642Y-93529928D01*
X154435404Y-93499690D01*
X154405166Y-93439214D01*
X154405166Y-93288023D01*
X154435404Y-93227547D01*
X154465642Y-93197309D01*
X154526119Y-93167071D01*
X154677309Y-93167071D01*
X154737785Y-93197309D01*
X154768023Y-93227547D01*
X154798261Y-93288023D01*
X154798261Y-93439214D01*
X154768023Y-93499690D01*
X154737785Y-93529928D01*
X155687261Y-95688833D02*
X155384880Y-95900500D01*
X155687261Y-96051690D02*
X155052261Y-96051690D01*
X155052261Y-95809785D01*
X155082500Y-95749309D01*
X155112738Y-95719071D01*
X155173214Y-95688833D01*
X155263928Y-95688833D01*
X155324404Y-95719071D01*
X155354642Y-95749309D01*
X155384880Y-95809785D01*
X155384880Y-96051690D01*
X155263928Y-95144547D02*
X155687261Y-95144547D01*
X155022023Y-95295738D02*
X155475595Y-95446928D01*
X155475595Y-95053833D01*
X131392385Y-128531861D02*
X131180719Y-128229480D01*
X131029528Y-128531861D02*
X131029528Y-127896861D01*
X131271433Y-127896861D01*
X131331909Y-127927100D01*
X131362147Y-127957338D01*
X131392385Y-128017814D01*
X131392385Y-128108528D01*
X131362147Y-128169004D01*
X131331909Y-128199242D01*
X131271433Y-128229480D01*
X131029528Y-128229480D01*
X131634290Y-127957338D02*
X131664528Y-127927100D01*
X131725004Y-127896861D01*
X131876195Y-127896861D01*
X131936671Y-127927100D01*
X131966909Y-127957338D01*
X131997147Y-128017814D01*
X131997147Y-128078290D01*
X131966909Y-128169004D01*
X131604052Y-128531861D01*
X131997147Y-128531861D01*
X132541433Y-128108528D02*
X132541433Y-128531861D01*
X132390242Y-127866623D02*
X132239052Y-128320195D01*
X132632147Y-128320195D01*
X135240261Y-127565833D02*
X134937880Y-127777500D01*
X135240261Y-127928690D02*
X134605261Y-127928690D01*
X134605261Y-127686785D01*
X134635500Y-127626309D01*
X134665738Y-127596071D01*
X134726214Y-127565833D01*
X134816928Y-127565833D01*
X134877404Y-127596071D01*
X134907642Y-127626309D01*
X134937880Y-127686785D01*
X134937880Y-127928690D01*
X134605261Y-127021547D02*
X134605261Y-127142500D01*
X134635500Y-127202976D01*
X134665738Y-127233214D01*
X134756452Y-127293690D01*
X134877404Y-127323928D01*
X135119309Y-127323928D01*
X135179785Y-127293690D01*
X135210023Y-127263452D01*
X135240261Y-127202976D01*
X135240261Y-127082023D01*
X135210023Y-127021547D01*
X135179785Y-126991309D01*
X135119309Y-126961071D01*
X134968119Y-126961071D01*
X134907642Y-126991309D01*
X134877404Y-127021547D01*
X134847166Y-127082023D01*
X134847166Y-127202976D01*
X134877404Y-127263452D01*
X134907642Y-127293690D01*
X134968119Y-127323928D01*
X164389785Y-100514833D02*
X164420023Y-100545071D01*
X164450261Y-100635785D01*
X164450261Y-100696261D01*
X164420023Y-100786976D01*
X164359547Y-100847452D01*
X164299071Y-100877690D01*
X164178119Y-100907928D01*
X164087404Y-100907928D01*
X163966452Y-100877690D01*
X163905976Y-100847452D01*
X163845500Y-100786976D01*
X163815261Y-100696261D01*
X163815261Y-100635785D01*
X163845500Y-100545071D01*
X163875738Y-100514833D01*
X163815261Y-100303166D02*
X163815261Y-99879833D01*
X164450261Y-100151976D01*
X140282385Y-106938233D02*
X140312623Y-106968471D01*
X140342861Y-107059185D01*
X140342861Y-107119661D01*
X140312623Y-107210376D01*
X140252147Y-107270852D01*
X140191671Y-107301090D01*
X140070719Y-107331328D01*
X139980004Y-107331328D01*
X139859052Y-107301090D01*
X139798576Y-107270852D01*
X139738100Y-107210376D01*
X139707861Y-107119661D01*
X139707861Y-107059185D01*
X139738100Y-106968471D01*
X139768338Y-106938233D01*
X139980004Y-106575376D02*
X139949766Y-106635852D01*
X139919528Y-106666090D01*
X139859052Y-106696328D01*
X139828814Y-106696328D01*
X139768338Y-106666090D01*
X139738100Y-106635852D01*
X139707861Y-106575376D01*
X139707861Y-106454423D01*
X139738100Y-106393947D01*
X139768338Y-106363709D01*
X139828814Y-106333471D01*
X139859052Y-106333471D01*
X139919528Y-106363709D01*
X139949766Y-106393947D01*
X139980004Y-106454423D01*
X139980004Y-106575376D01*
X140010242Y-106635852D01*
X140040480Y-106666090D01*
X140100957Y-106696328D01*
X140221909Y-106696328D01*
X140282385Y-106666090D01*
X140312623Y-106635852D01*
X140342861Y-106575376D01*
X140342861Y-106454423D01*
X140312623Y-106393947D01*
X140282385Y-106363709D01*
X140221909Y-106333471D01*
X140100957Y-106333471D01*
X140040480Y-106363709D01*
X140010242Y-106393947D01*
X139980004Y-106454423D01*
X139370785Y-115930214D02*
X139401023Y-115960452D01*
X139431261Y-116051166D01*
X139431261Y-116111642D01*
X139401023Y-116202357D01*
X139340547Y-116262833D01*
X139280071Y-116293071D01*
X139159119Y-116323309D01*
X139068404Y-116323309D01*
X138947452Y-116293071D01*
X138886976Y-116262833D01*
X138826500Y-116202357D01*
X138796261Y-116111642D01*
X138796261Y-116051166D01*
X138826500Y-115960452D01*
X138856738Y-115930214D01*
X138856738Y-115688309D02*
X138826500Y-115658071D01*
X138796261Y-115597595D01*
X138796261Y-115446404D01*
X138826500Y-115385928D01*
X138856738Y-115355690D01*
X138917214Y-115325452D01*
X138977690Y-115325452D01*
X139068404Y-115355690D01*
X139431261Y-115718547D01*
X139431261Y-115325452D01*
X138796261Y-114781166D02*
X138796261Y-114902119D01*
X138826500Y-114962595D01*
X138856738Y-114992833D01*
X138947452Y-115053309D01*
X139068404Y-115083547D01*
X139310309Y-115083547D01*
X139370785Y-115053309D01*
X139401023Y-115023071D01*
X139431261Y-114962595D01*
X139431261Y-114841642D01*
X139401023Y-114781166D01*
X139370785Y-114750928D01*
X139310309Y-114720690D01*
X139159119Y-114720690D01*
X139098642Y-114750928D01*
X139068404Y-114781166D01*
X139038166Y-114841642D01*
X139038166Y-114962595D01*
X139068404Y-115023071D01*
X139098642Y-115053309D01*
X139159119Y-115083547D01*
X168592880Y-92202380D02*
X168895261Y-92202380D01*
X168260261Y-92414047D02*
X168592880Y-92202380D01*
X168260261Y-91990714D01*
X168895261Y-91446428D02*
X168895261Y-91809285D01*
X168895261Y-91627857D02*
X168260261Y-91627857D01*
X168350976Y-91688333D01*
X168411452Y-91748809D01*
X168441690Y-91809285D01*
X149574261Y-103954114D02*
X149271880Y-104165780D01*
X149574261Y-104316971D02*
X148939261Y-104316971D01*
X148939261Y-104075066D01*
X148969500Y-104014590D01*
X148999738Y-103984352D01*
X149060214Y-103954114D01*
X149150928Y-103954114D01*
X149211404Y-103984352D01*
X149241642Y-104014590D01*
X149271880Y-104075066D01*
X149271880Y-104316971D01*
X148939261Y-103742447D02*
X148939261Y-103349352D01*
X149181166Y-103561019D01*
X149181166Y-103470304D01*
X149211404Y-103409828D01*
X149241642Y-103379590D01*
X149302119Y-103349352D01*
X149453309Y-103349352D01*
X149513785Y-103379590D01*
X149544023Y-103409828D01*
X149574261Y-103470304D01*
X149574261Y-103651733D01*
X149544023Y-103712209D01*
X149513785Y-103742447D01*
X148999738Y-103107447D02*
X148969500Y-103077209D01*
X148939261Y-103016733D01*
X148939261Y-102865542D01*
X148969500Y-102805066D01*
X148999738Y-102774828D01*
X149060214Y-102744590D01*
X149120690Y-102744590D01*
X149211404Y-102774828D01*
X149574261Y-103137685D01*
X149574261Y-102744590D01*
X152197785Y-106985785D02*
X152167547Y-107016023D01*
X152076833Y-107046261D01*
X152016357Y-107046261D01*
X151925642Y-107016023D01*
X151865166Y-106955547D01*
X151834928Y-106895071D01*
X151804690Y-106774119D01*
X151804690Y-106683404D01*
X151834928Y-106562452D01*
X151865166Y-106501976D01*
X151925642Y-106441500D01*
X152016357Y-106411261D01*
X152076833Y-106411261D01*
X152167547Y-106441500D01*
X152197785Y-106471738D01*
X152742071Y-106622928D02*
X152742071Y-107046261D01*
X152590880Y-106381023D02*
X152439690Y-106834595D01*
X152832785Y-106834595D01*
X153195642Y-106411261D02*
X153256119Y-106411261D01*
X153316595Y-106441500D01*
X153346833Y-106471738D01*
X153377071Y-106532214D01*
X153407309Y-106653166D01*
X153407309Y-106804357D01*
X153377071Y-106925309D01*
X153346833Y-106985785D01*
X153316595Y-107016023D01*
X153256119Y-107046261D01*
X153195642Y-107046261D01*
X153135166Y-107016023D01*
X153104928Y-106985785D01*
X153074690Y-106925309D01*
X153044452Y-106804357D01*
X153044452Y-106653166D01*
X153074690Y-106532214D01*
X153104928Y-106471738D01*
X153135166Y-106441500D01*
X153195642Y-106411261D01*
X147377833Y-114968642D02*
X147166166Y-114968642D01*
X147166166Y-115301261D02*
X147166166Y-114666261D01*
X147468547Y-114666261D01*
X147922119Y-114968642D02*
X148012833Y-114998880D01*
X148043071Y-115029119D01*
X148073309Y-115089595D01*
X148073309Y-115180309D01*
X148043071Y-115240785D01*
X148012833Y-115271023D01*
X147952357Y-115301261D01*
X147710452Y-115301261D01*
X147710452Y-114666261D01*
X147922119Y-114666261D01*
X147982595Y-114696500D01*
X148012833Y-114726738D01*
X148043071Y-114787214D01*
X148043071Y-114847690D01*
X148012833Y-114908166D01*
X147982595Y-114938404D01*
X147922119Y-114968642D01*
X147710452Y-114968642D01*
X148678071Y-115301261D02*
X148315214Y-115301261D01*
X148496642Y-115301261D02*
X148496642Y-114666261D01*
X148436166Y-114756976D01*
X148375690Y-114817452D01*
X148315214Y-114847690D01*
X162282190Y-93330261D02*
X162282190Y-93844309D01*
X162312428Y-93904785D01*
X162342666Y-93935023D01*
X162403142Y-93965261D01*
X162524095Y-93965261D01*
X162584571Y-93935023D01*
X162614809Y-93904785D01*
X162645047Y-93844309D01*
X162645047Y-93330261D01*
X163280047Y-93965261D02*
X162917190Y-93965261D01*
X163098619Y-93965261D02*
X163098619Y-93330261D01*
X163038142Y-93420976D01*
X162977666Y-93481452D01*
X162917190Y-93511690D01*
X161520190Y-120254261D02*
X161520190Y-120768309D01*
X161550428Y-120828785D01*
X161580666Y-120859023D01*
X161641142Y-120889261D01*
X161762095Y-120889261D01*
X161822571Y-120859023D01*
X161852809Y-120828785D01*
X161883047Y-120768309D01*
X161883047Y-120254261D01*
X162457571Y-120254261D02*
X162336619Y-120254261D01*
X162276142Y-120284500D01*
X162245904Y-120314738D01*
X162185428Y-120405452D01*
X162155190Y-120526404D01*
X162155190Y-120768309D01*
X162185428Y-120828785D01*
X162215666Y-120859023D01*
X162276142Y-120889261D01*
X162397095Y-120889261D01*
X162457571Y-120859023D01*
X162487809Y-120828785D01*
X162518047Y-120768309D01*
X162518047Y-120617119D01*
X162487809Y-120556642D01*
X162457571Y-120526404D01*
X162397095Y-120496166D01*
X162276142Y-120496166D01*
X162215666Y-120526404D01*
X162185428Y-120556642D01*
X162155190Y-120617119D01*
X168199785Y-129271261D02*
X167988119Y-128968880D01*
X167836928Y-129271261D02*
X167836928Y-128636261D01*
X168078833Y-128636261D01*
X168139309Y-128666500D01*
X168169547Y-128696738D01*
X168199785Y-128757214D01*
X168199785Y-128847928D01*
X168169547Y-128908404D01*
X168139309Y-128938642D01*
X168078833Y-128968880D01*
X167836928Y-128968880D01*
X168441690Y-128696738D02*
X168471928Y-128666500D01*
X168532404Y-128636261D01*
X168683595Y-128636261D01*
X168744071Y-128666500D01*
X168774309Y-128696738D01*
X168804547Y-128757214D01*
X168804547Y-128817690D01*
X168774309Y-128908404D01*
X168411452Y-129271261D01*
X168804547Y-129271261D01*
X169379071Y-128636261D02*
X169076690Y-128636261D01*
X169046452Y-128938642D01*
X169076690Y-128908404D01*
X169137166Y-128878166D01*
X169288357Y-128878166D01*
X169348833Y-128908404D01*
X169379071Y-128938642D01*
X169409309Y-128999119D01*
X169409309Y-129150309D01*
X169379071Y-129210785D01*
X169348833Y-129241023D01*
X169288357Y-129271261D01*
X169137166Y-129271261D01*
X169076690Y-129241023D01*
X169046452Y-129210785D01*
X149767785Y-105859114D02*
X149798023Y-105889352D01*
X149828261Y-105980066D01*
X149828261Y-106040542D01*
X149798023Y-106131257D01*
X149737547Y-106191733D01*
X149677071Y-106221971D01*
X149556119Y-106252209D01*
X149465404Y-106252209D01*
X149344452Y-106221971D01*
X149283976Y-106191733D01*
X149223500Y-106131257D01*
X149193261Y-106040542D01*
X149193261Y-105980066D01*
X149223500Y-105889352D01*
X149253738Y-105859114D01*
X149193261Y-105647447D02*
X149193261Y-105254352D01*
X149435166Y-105466019D01*
X149435166Y-105375304D01*
X149465404Y-105314828D01*
X149495642Y-105284590D01*
X149556119Y-105254352D01*
X149707309Y-105254352D01*
X149767785Y-105284590D01*
X149798023Y-105314828D01*
X149828261Y-105375304D01*
X149828261Y-105556733D01*
X149798023Y-105617209D01*
X149767785Y-105647447D01*
X149193261Y-105042685D02*
X149193261Y-104649590D01*
X149435166Y-104861257D01*
X149435166Y-104770542D01*
X149465404Y-104710066D01*
X149495642Y-104679828D01*
X149556119Y-104649590D01*
X149707309Y-104649590D01*
X149767785Y-104679828D01*
X149798023Y-104710066D01*
X149828261Y-104770542D01*
X149828261Y-104951971D01*
X149798023Y-105012447D01*
X149767785Y-105042685D01*
X148895785Y-107493785D02*
X148865547Y-107524023D01*
X148774833Y-107554261D01*
X148714357Y-107554261D01*
X148623642Y-107524023D01*
X148563166Y-107463547D01*
X148532928Y-107403071D01*
X148502690Y-107282119D01*
X148502690Y-107191404D01*
X148532928Y-107070452D01*
X148563166Y-107009976D01*
X148623642Y-106949500D01*
X148714357Y-106919261D01*
X148774833Y-106919261D01*
X148865547Y-106949500D01*
X148895785Y-106979738D01*
X149107452Y-106919261D02*
X149500547Y-106919261D01*
X149288880Y-107161166D01*
X149379595Y-107161166D01*
X149440071Y-107191404D01*
X149470309Y-107221642D01*
X149500547Y-107282119D01*
X149500547Y-107433309D01*
X149470309Y-107493785D01*
X149440071Y-107524023D01*
X149379595Y-107554261D01*
X149198166Y-107554261D01*
X149137690Y-107524023D01*
X149107452Y-107493785D01*
X150075071Y-106919261D02*
X149772690Y-106919261D01*
X149742452Y-107221642D01*
X149772690Y-107191404D01*
X149833166Y-107161166D01*
X149984357Y-107161166D01*
X150044833Y-107191404D01*
X150075071Y-107221642D01*
X150105309Y-107282119D01*
X150105309Y-107433309D01*
X150075071Y-107493785D01*
X150044833Y-107524023D01*
X149984357Y-107554261D01*
X149833166Y-107554261D01*
X149772690Y-107524023D01*
X149742452Y-107493785D01*
X152705785Y-112501214D02*
X152736023Y-112531452D01*
X152766261Y-112622166D01*
X152766261Y-112682642D01*
X152736023Y-112773357D01*
X152675547Y-112833833D01*
X152615071Y-112864071D01*
X152494119Y-112894309D01*
X152403404Y-112894309D01*
X152282452Y-112864071D01*
X152221976Y-112833833D01*
X152161500Y-112773357D01*
X152131261Y-112682642D01*
X152131261Y-112622166D01*
X152161500Y-112531452D01*
X152191738Y-112501214D01*
X152342928Y-111956928D02*
X152766261Y-111956928D01*
X152101023Y-112108119D02*
X152554595Y-112259309D01*
X152554595Y-111866214D01*
X152342928Y-111352166D02*
X152766261Y-111352166D01*
X152101023Y-111503357D02*
X152554595Y-111654547D01*
X152554595Y-111261452D01*
X165357404Y-120381261D02*
X165055023Y-120381261D01*
X165055023Y-119746261D01*
X165569071Y-120048642D02*
X165780738Y-120048642D01*
X165871452Y-120381261D02*
X165569071Y-120381261D01*
X165569071Y-119746261D01*
X165871452Y-119746261D01*
X166143595Y-120381261D02*
X166143595Y-119746261D01*
X166294785Y-119746261D01*
X166385500Y-119776500D01*
X166445976Y-119836976D01*
X166476214Y-119897452D01*
X166506452Y-120018404D01*
X166506452Y-120109119D01*
X166476214Y-120230071D01*
X166445976Y-120290547D01*
X166385500Y-120351023D01*
X166294785Y-120381261D01*
X166143595Y-120381261D01*
X167111214Y-120381261D02*
X166748357Y-120381261D01*
X166929785Y-120381261D02*
X166929785Y-119746261D01*
X166869309Y-119836976D01*
X166808833Y-119897452D01*
X166748357Y-119927690D01*
X133274785Y-100635785D02*
X133244547Y-100666023D01*
X133153833Y-100696261D01*
X133093357Y-100696261D01*
X133002642Y-100666023D01*
X132942166Y-100605547D01*
X132911928Y-100545071D01*
X132881690Y-100424119D01*
X132881690Y-100333404D01*
X132911928Y-100212452D01*
X132942166Y-100151976D01*
X133002642Y-100091500D01*
X133093357Y-100061261D01*
X133153833Y-100061261D01*
X133244547Y-100091500D01*
X133274785Y-100121738D01*
X133516690Y-100121738D02*
X133546928Y-100091500D01*
X133607404Y-100061261D01*
X133758595Y-100061261D01*
X133819071Y-100091500D01*
X133849309Y-100121738D01*
X133879547Y-100182214D01*
X133879547Y-100242690D01*
X133849309Y-100333404D01*
X133486452Y-100696261D01*
X133879547Y-100696261D01*
X134091214Y-100061261D02*
X134514547Y-100061261D01*
X134242404Y-100696261D01*
X136449785Y-122032261D02*
X136238119Y-121729880D01*
X136086928Y-122032261D02*
X136086928Y-121397261D01*
X136328833Y-121397261D01*
X136389309Y-121427500D01*
X136419547Y-121457738D01*
X136449785Y-121518214D01*
X136449785Y-121608928D01*
X136419547Y-121669404D01*
X136389309Y-121699642D01*
X136328833Y-121729880D01*
X136086928Y-121729880D01*
X137054547Y-122032261D02*
X136691690Y-122032261D01*
X136873119Y-122032261D02*
X136873119Y-121397261D01*
X136812642Y-121487976D01*
X136752166Y-121548452D01*
X136691690Y-121578690D01*
X137296452Y-121457738D02*
X137326690Y-121427500D01*
X137387166Y-121397261D01*
X137538357Y-121397261D01*
X137598833Y-121427500D01*
X137629071Y-121457738D01*
X137659309Y-121518214D01*
X137659309Y-121578690D01*
X137629071Y-121669404D01*
X137266214Y-122032261D01*
X137659309Y-122032261D01*
X166421785Y-129271261D02*
X166210119Y-128968880D01*
X166058928Y-129271261D02*
X166058928Y-128636261D01*
X166300833Y-128636261D01*
X166361309Y-128666500D01*
X166391547Y-128696738D01*
X166421785Y-128757214D01*
X166421785Y-128847928D01*
X166391547Y-128908404D01*
X166361309Y-128938642D01*
X166300833Y-128968880D01*
X166058928Y-128968880D01*
X166663690Y-128696738D02*
X166693928Y-128666500D01*
X166754404Y-128636261D01*
X166905595Y-128636261D01*
X166966071Y-128666500D01*
X166996309Y-128696738D01*
X167026547Y-128757214D01*
X167026547Y-128817690D01*
X166996309Y-128908404D01*
X166633452Y-129271261D01*
X167026547Y-129271261D01*
X167631309Y-129271261D02*
X167268452Y-129271261D01*
X167449880Y-129271261D02*
X167449880Y-128636261D01*
X167389404Y-128726976D01*
X167328928Y-128787452D01*
X167268452Y-128817690D01*
X130958547Y-103048785D02*
X130928309Y-103079023D01*
X130837595Y-103109261D01*
X130777119Y-103109261D01*
X130686404Y-103079023D01*
X130625928Y-103018547D01*
X130595690Y-102958071D01*
X130565452Y-102837119D01*
X130565452Y-102746404D01*
X130595690Y-102625452D01*
X130625928Y-102564976D01*
X130686404Y-102504500D01*
X130777119Y-102474261D01*
X130837595Y-102474261D01*
X130928309Y-102504500D01*
X130958547Y-102534738D01*
X131230690Y-103109261D02*
X131230690Y-102474261D01*
X131593547Y-103109261D01*
X131593547Y-102474261D01*
X131865690Y-102534738D02*
X131895928Y-102504500D01*
X131956404Y-102474261D01*
X132107595Y-102474261D01*
X132168071Y-102504500D01*
X132198309Y-102534738D01*
X132228547Y-102595214D01*
X132228547Y-102655690D01*
X132198309Y-102746404D01*
X131835452Y-103109261D01*
X132228547Y-103109261D01*
X146736785Y-119812785D02*
X146706547Y-119843023D01*
X146615833Y-119873261D01*
X146555357Y-119873261D01*
X146464642Y-119843023D01*
X146404166Y-119782547D01*
X146373928Y-119722071D01*
X146343690Y-119601119D01*
X146343690Y-119510404D01*
X146373928Y-119389452D01*
X146404166Y-119328976D01*
X146464642Y-119268500D01*
X146555357Y-119238261D01*
X146615833Y-119238261D01*
X146706547Y-119268500D01*
X146736785Y-119298738D01*
X147341547Y-119873261D02*
X146978690Y-119873261D01*
X147160119Y-119873261D02*
X147160119Y-119238261D01*
X147099642Y-119328976D01*
X147039166Y-119389452D01*
X146978690Y-119419690D01*
X147643928Y-119873261D02*
X147764880Y-119873261D01*
X147825357Y-119843023D01*
X147855595Y-119812785D01*
X147916071Y-119722071D01*
X147946309Y-119601119D01*
X147946309Y-119359214D01*
X147916071Y-119298738D01*
X147885833Y-119268500D01*
X147825357Y-119238261D01*
X147704404Y-119238261D01*
X147643928Y-119268500D01*
X147613690Y-119298738D01*
X147583452Y-119359214D01*
X147583452Y-119510404D01*
X147613690Y-119570880D01*
X147643928Y-119601119D01*
X147704404Y-119631357D01*
X147825357Y-119631357D01*
X147885833Y-119601119D01*
X147916071Y-119570880D01*
X147946309Y-119510404D01*
X145565785Y-106350785D02*
X145535547Y-106381023D01*
X145444833Y-106411261D01*
X145384357Y-106411261D01*
X145293642Y-106381023D01*
X145233166Y-106320547D01*
X145202928Y-106260071D01*
X145172690Y-106139119D01*
X145172690Y-106048404D01*
X145202928Y-105927452D01*
X145233166Y-105866976D01*
X145293642Y-105806500D01*
X145384357Y-105776261D01*
X145444833Y-105776261D01*
X145535547Y-105806500D01*
X145565785Y-105836738D01*
X146110071Y-105987928D02*
X146110071Y-106411261D01*
X145958880Y-105746023D02*
X145807690Y-106199595D01*
X146200785Y-106199595D01*
X146714833Y-105776261D02*
X146593880Y-105776261D01*
X146533404Y-105806500D01*
X146503166Y-105836738D01*
X146442690Y-105927452D01*
X146412452Y-106048404D01*
X146412452Y-106290309D01*
X146442690Y-106350785D01*
X146472928Y-106381023D01*
X146533404Y-106411261D01*
X146654357Y-106411261D01*
X146714833Y-106381023D01*
X146745071Y-106350785D01*
X146775309Y-106290309D01*
X146775309Y-106139119D01*
X146745071Y-106078642D01*
X146714833Y-106048404D01*
X146654357Y-106018166D01*
X146533404Y-106018166D01*
X146472928Y-106048404D01*
X146442690Y-106078642D01*
X146412452Y-106139119D01*
X148436166Y-97394261D02*
X148224500Y-97091880D01*
X148073309Y-97394261D02*
X148073309Y-96759261D01*
X148315214Y-96759261D01*
X148375690Y-96789500D01*
X148405928Y-96819738D01*
X148436166Y-96880214D01*
X148436166Y-96970928D01*
X148405928Y-97031404D01*
X148375690Y-97061642D01*
X148315214Y-97091880D01*
X148073309Y-97091880D01*
X148799023Y-97031404D02*
X148738547Y-97001166D01*
X148708309Y-96970928D01*
X148678071Y-96910452D01*
X148678071Y-96880214D01*
X148708309Y-96819738D01*
X148738547Y-96789500D01*
X148799023Y-96759261D01*
X148919976Y-96759261D01*
X148980452Y-96789500D01*
X149010690Y-96819738D01*
X149040928Y-96880214D01*
X149040928Y-96910452D01*
X149010690Y-96970928D01*
X148980452Y-97001166D01*
X148919976Y-97031404D01*
X148799023Y-97031404D01*
X148738547Y-97061642D01*
X148708309Y-97091880D01*
X148678071Y-97152357D01*
X148678071Y-97273309D01*
X148708309Y-97333785D01*
X148738547Y-97364023D01*
X148799023Y-97394261D01*
X148919976Y-97394261D01*
X148980452Y-97364023D01*
X149010690Y-97333785D01*
X149040928Y-97273309D01*
X149040928Y-97152357D01*
X149010690Y-97091880D01*
X148980452Y-97061642D01*
X148919976Y-97031404D01*
X154080190Y-119877261D02*
X154080190Y-120391309D01*
X154110428Y-120451785D01*
X154140666Y-120482023D01*
X154201142Y-120512261D01*
X154322095Y-120512261D01*
X154382571Y-120482023D01*
X154412809Y-120451785D01*
X154443047Y-120391309D01*
X154443047Y-119877261D01*
X155017571Y-120088928D02*
X155017571Y-120512261D01*
X154866380Y-119847023D02*
X154715190Y-120300595D01*
X155108285Y-120300595D01*
X161849785Y-129652261D02*
X161638119Y-129349880D01*
X161486928Y-129652261D02*
X161486928Y-129017261D01*
X161728833Y-129017261D01*
X161789309Y-129047500D01*
X161819547Y-129077738D01*
X161849785Y-129138214D01*
X161849785Y-129228928D01*
X161819547Y-129289404D01*
X161789309Y-129319642D01*
X161728833Y-129349880D01*
X161486928Y-129349880D01*
X162454547Y-129652261D02*
X162091690Y-129652261D01*
X162273119Y-129652261D02*
X162273119Y-129017261D01*
X162212642Y-129107976D01*
X162152166Y-129168452D01*
X162091690Y-129198690D01*
X162756928Y-129652261D02*
X162877880Y-129652261D01*
X162938357Y-129622023D01*
X162968595Y-129591785D01*
X163029071Y-129501071D01*
X163059309Y-129380119D01*
X163059309Y-129138214D01*
X163029071Y-129077738D01*
X162998833Y-129047500D01*
X162938357Y-129017261D01*
X162817404Y-129017261D01*
X162756928Y-129047500D01*
X162726690Y-129077738D01*
X162696452Y-129138214D01*
X162696452Y-129289404D01*
X162726690Y-129349880D01*
X162756928Y-129380119D01*
X162817404Y-129410357D01*
X162938357Y-129410357D01*
X162998833Y-129380119D01*
X163029071Y-129349880D01*
X163059309Y-129289404D01*
X164389785Y-95809785D02*
X164359547Y-95840023D01*
X164268833Y-95870261D01*
X164208357Y-95870261D01*
X164117642Y-95840023D01*
X164057166Y-95779547D01*
X164026928Y-95719071D01*
X163996690Y-95598119D01*
X163996690Y-95507404D01*
X164026928Y-95386452D01*
X164057166Y-95325976D01*
X164117642Y-95265500D01*
X164208357Y-95235261D01*
X164268833Y-95235261D01*
X164359547Y-95265500D01*
X164389785Y-95295738D01*
X164994547Y-95870261D02*
X164631690Y-95870261D01*
X164813119Y-95870261D02*
X164813119Y-95235261D01*
X164752642Y-95325976D01*
X164692166Y-95386452D01*
X164631690Y-95416690D01*
X165206214Y-95235261D02*
X165629547Y-95235261D01*
X165357404Y-95870261D01*
X163848523Y-121203738D02*
X163788047Y-121173500D01*
X163727571Y-121113023D01*
X163636857Y-121022309D01*
X163576380Y-120992071D01*
X163515904Y-120992071D01*
X163546142Y-121143261D02*
X163485666Y-121113023D01*
X163425190Y-121052547D01*
X163394952Y-120931595D01*
X163394952Y-120719928D01*
X163425190Y-120598976D01*
X163485666Y-120538500D01*
X163546142Y-120508261D01*
X163667095Y-120508261D01*
X163727571Y-120538500D01*
X163788047Y-120598976D01*
X163818285Y-120719928D01*
X163818285Y-120931595D01*
X163788047Y-121052547D01*
X163727571Y-121113023D01*
X163667095Y-121143261D01*
X163546142Y-121143261D01*
X164362571Y-120719928D02*
X164362571Y-121143261D01*
X164211380Y-120478023D02*
X164060190Y-120931595D01*
X164453285Y-120931595D01*
X153769785Y-100611214D02*
X153800023Y-100641452D01*
X153830261Y-100732166D01*
X153830261Y-100792642D01*
X153800023Y-100883357D01*
X153739547Y-100943833D01*
X153679071Y-100974071D01*
X153558119Y-101004309D01*
X153467404Y-101004309D01*
X153346452Y-100974071D01*
X153285976Y-100943833D01*
X153225500Y-100883357D01*
X153195261Y-100792642D01*
X153195261Y-100732166D01*
X153225500Y-100641452D01*
X153255738Y-100611214D01*
X153830261Y-100006452D02*
X153830261Y-100369309D01*
X153830261Y-100187880D02*
X153195261Y-100187880D01*
X153285976Y-100248357D01*
X153346452Y-100308833D01*
X153376690Y-100369309D01*
X153195261Y-99794785D02*
X153195261Y-99401690D01*
X153437166Y-99613357D01*
X153437166Y-99522642D01*
X153467404Y-99462166D01*
X153497642Y-99431928D01*
X153558119Y-99401690D01*
X153709309Y-99401690D01*
X153769785Y-99431928D01*
X153800023Y-99462166D01*
X153830261Y-99522642D01*
X153830261Y-99704071D01*
X153800023Y-99764547D01*
X153769785Y-99794785D01*
X133373585Y-127154214D02*
X133403823Y-127184452D01*
X133434061Y-127275166D01*
X133434061Y-127335642D01*
X133403823Y-127426357D01*
X133343347Y-127486833D01*
X133282871Y-127517071D01*
X133161919Y-127547309D01*
X133071204Y-127547309D01*
X132950252Y-127517071D01*
X132889776Y-127486833D01*
X132829300Y-127426357D01*
X132799061Y-127335642D01*
X132799061Y-127275166D01*
X132829300Y-127184452D01*
X132859538Y-127154214D01*
X132799061Y-126942547D02*
X132799061Y-126549452D01*
X133040966Y-126761119D01*
X133040966Y-126670404D01*
X133071204Y-126609928D01*
X133101442Y-126579690D01*
X133161919Y-126549452D01*
X133313109Y-126549452D01*
X133373585Y-126579690D01*
X133403823Y-126609928D01*
X133434061Y-126670404D01*
X133434061Y-126851833D01*
X133403823Y-126912309D01*
X133373585Y-126942547D01*
X133434061Y-125944690D02*
X133434061Y-126307547D01*
X133434061Y-126126119D02*
X132799061Y-126126119D01*
X132889776Y-126186595D01*
X132950252Y-126247071D01*
X132980490Y-126307547D01*
X141402785Y-115676214D02*
X141433023Y-115706452D01*
X141463261Y-115797166D01*
X141463261Y-115857642D01*
X141433023Y-115948357D01*
X141372547Y-116008833D01*
X141312071Y-116039071D01*
X141191119Y-116069309D01*
X141100404Y-116069309D01*
X140979452Y-116039071D01*
X140918976Y-116008833D01*
X140858500Y-115948357D01*
X140828261Y-115857642D01*
X140828261Y-115797166D01*
X140858500Y-115706452D01*
X140888738Y-115676214D01*
X141463261Y-115071452D02*
X141463261Y-115434309D01*
X141463261Y-115252880D02*
X140828261Y-115252880D01*
X140918976Y-115313357D01*
X140979452Y-115373833D01*
X141009690Y-115434309D01*
X140828261Y-114527166D02*
X140828261Y-114648119D01*
X140858500Y-114708595D01*
X140888738Y-114738833D01*
X140979452Y-114799309D01*
X141100404Y-114829547D01*
X141342309Y-114829547D01*
X141402785Y-114799309D01*
X141433023Y-114769071D01*
X141463261Y-114708595D01*
X141463261Y-114587642D01*
X141433023Y-114527166D01*
X141402785Y-114496928D01*
X141342309Y-114466690D01*
X141191119Y-114466690D01*
X141130642Y-114496928D01*
X141100404Y-114527166D01*
X141070166Y-114587642D01*
X141070166Y-114708595D01*
X141100404Y-114769071D01*
X141130642Y-114799309D01*
X141191119Y-114829547D01*
X141402785Y-121802452D02*
X141433023Y-121832690D01*
X141463261Y-121923404D01*
X141463261Y-121983880D01*
X141433023Y-122074595D01*
X141372547Y-122135071D01*
X141312071Y-122165309D01*
X141191119Y-122195547D01*
X141100404Y-122195547D01*
X140979452Y-122165309D01*
X140918976Y-122135071D01*
X140858500Y-122074595D01*
X140828261Y-121983880D01*
X140828261Y-121923404D01*
X140858500Y-121832690D01*
X140888738Y-121802452D01*
X141463261Y-121530309D02*
X140828261Y-121530309D01*
X141463261Y-121167452D01*
X140828261Y-121167452D01*
X141039928Y-120592928D02*
X141463261Y-120592928D01*
X140798023Y-120744119D02*
X141251595Y-120895309D01*
X141251595Y-120502214D01*
X157912785Y-91491785D02*
X157882547Y-91522023D01*
X157791833Y-91552261D01*
X157731357Y-91552261D01*
X157640642Y-91522023D01*
X157580166Y-91461547D01*
X157549928Y-91401071D01*
X157519690Y-91280119D01*
X157519690Y-91189404D01*
X157549928Y-91068452D01*
X157580166Y-91007976D01*
X157640642Y-90947500D01*
X157731357Y-90917261D01*
X157791833Y-90917261D01*
X157882547Y-90947500D01*
X157912785Y-90977738D01*
X158517547Y-91552261D02*
X158154690Y-91552261D01*
X158336119Y-91552261D02*
X158336119Y-90917261D01*
X158275642Y-91007976D01*
X158215166Y-91068452D01*
X158154690Y-91098690D01*
X158880404Y-91189404D02*
X158819928Y-91159166D01*
X158789690Y-91128928D01*
X158759452Y-91068452D01*
X158759452Y-91038214D01*
X158789690Y-90977738D01*
X158819928Y-90947500D01*
X158880404Y-90917261D01*
X159001357Y-90917261D01*
X159061833Y-90947500D01*
X159092071Y-90977738D01*
X159122309Y-91038214D01*
X159122309Y-91068452D01*
X159092071Y-91128928D01*
X159061833Y-91159166D01*
X159001357Y-91189404D01*
X158880404Y-91189404D01*
X158819928Y-91219642D01*
X158789690Y-91249880D01*
X158759452Y-91310357D01*
X158759452Y-91431309D01*
X158789690Y-91491785D01*
X158819928Y-91522023D01*
X158880404Y-91552261D01*
X159001357Y-91552261D01*
X159061833Y-91522023D01*
X159092071Y-91491785D01*
X159122309Y-91431309D01*
X159122309Y-91310357D01*
X159092071Y-91249880D01*
X159061833Y-91219642D01*
X159001357Y-91189404D01*
X163373785Y-118476261D02*
X163162119Y-118173880D01*
X163010928Y-118476261D02*
X163010928Y-117841261D01*
X163252833Y-117841261D01*
X163313309Y-117871500D01*
X163343547Y-117901738D01*
X163373785Y-117962214D01*
X163373785Y-118052928D01*
X163343547Y-118113404D01*
X163313309Y-118143642D01*
X163252833Y-118173880D01*
X163010928Y-118173880D01*
X163585452Y-117841261D02*
X163978547Y-117841261D01*
X163766880Y-118083166D01*
X163857595Y-118083166D01*
X163918071Y-118113404D01*
X163948309Y-118143642D01*
X163978547Y-118204119D01*
X163978547Y-118355309D01*
X163948309Y-118415785D01*
X163918071Y-118446023D01*
X163857595Y-118476261D01*
X163676166Y-118476261D01*
X163615690Y-118446023D01*
X163585452Y-118415785D01*
X164341404Y-118113404D02*
X164280928Y-118083166D01*
X164250690Y-118052928D01*
X164220452Y-117992452D01*
X164220452Y-117962214D01*
X164250690Y-117901738D01*
X164280928Y-117871500D01*
X164341404Y-117841261D01*
X164462357Y-117841261D01*
X164522833Y-117871500D01*
X164553071Y-117901738D01*
X164583309Y-117962214D01*
X164583309Y-117992452D01*
X164553071Y-118052928D01*
X164522833Y-118083166D01*
X164462357Y-118113404D01*
X164341404Y-118113404D01*
X164280928Y-118143642D01*
X164250690Y-118173880D01*
X164220452Y-118234357D01*
X164220452Y-118355309D01*
X164250690Y-118415785D01*
X164280928Y-118446023D01*
X164341404Y-118476261D01*
X164462357Y-118476261D01*
X164522833Y-118446023D01*
X164553071Y-118415785D01*
X164583309Y-118355309D01*
X164583309Y-118234357D01*
X164553071Y-118173880D01*
X164522833Y-118143642D01*
X164462357Y-118113404D01*
X151541619Y-92634880D02*
X151541619Y-92937261D01*
X151329952Y-92302261D02*
X151541619Y-92634880D01*
X151753285Y-92302261D01*
X151934714Y-92362738D02*
X151964952Y-92332500D01*
X152025428Y-92302261D01*
X152176619Y-92302261D01*
X152237095Y-92332500D01*
X152267333Y-92362738D01*
X152297571Y-92423214D01*
X152297571Y-92483690D01*
X152267333Y-92574404D01*
X151904476Y-92937261D01*
X152297571Y-92937261D01*
X161148261Y-123042214D02*
X160845880Y-123253880D01*
X161148261Y-123405071D02*
X160513261Y-123405071D01*
X160513261Y-123163166D01*
X160543500Y-123102690D01*
X160573738Y-123072452D01*
X160634214Y-123042214D01*
X160724928Y-123042214D01*
X160785404Y-123072452D01*
X160815642Y-123102690D01*
X160845880Y-123163166D01*
X160845880Y-123405071D01*
X160573738Y-122800309D02*
X160543500Y-122770071D01*
X160513261Y-122709595D01*
X160513261Y-122558404D01*
X160543500Y-122497928D01*
X160573738Y-122467690D01*
X160634214Y-122437452D01*
X160694690Y-122437452D01*
X160785404Y-122467690D01*
X161148261Y-122830547D01*
X161148261Y-122437452D01*
X160513261Y-122225785D02*
X160513261Y-121832690D01*
X160755166Y-122044357D01*
X160755166Y-121953642D01*
X160785404Y-121893166D01*
X160815642Y-121862928D01*
X160876119Y-121832690D01*
X161027309Y-121832690D01*
X161087785Y-121862928D01*
X161118023Y-121893166D01*
X161148261Y-121953642D01*
X161148261Y-122135071D01*
X161118023Y-122195547D01*
X161087785Y-122225785D01*
X140513785Y-103617261D02*
X140302119Y-103314880D01*
X140150928Y-103617261D02*
X140150928Y-102982261D01*
X140392833Y-102982261D01*
X140453309Y-103012500D01*
X140483547Y-103042738D01*
X140513785Y-103103214D01*
X140513785Y-103193928D01*
X140483547Y-103254404D01*
X140453309Y-103284642D01*
X140392833Y-103314880D01*
X140150928Y-103314880D01*
X140755690Y-103042738D02*
X140785928Y-103012500D01*
X140846404Y-102982261D01*
X140997595Y-102982261D01*
X141058071Y-103012500D01*
X141088309Y-103042738D01*
X141118547Y-103103214D01*
X141118547Y-103163690D01*
X141088309Y-103254404D01*
X140725452Y-103617261D01*
X141118547Y-103617261D01*
X141420928Y-103617261D02*
X141541880Y-103617261D01*
X141602357Y-103587023D01*
X141632595Y-103556785D01*
X141693071Y-103466071D01*
X141723309Y-103345119D01*
X141723309Y-103103214D01*
X141693071Y-103042738D01*
X141662833Y-103012500D01*
X141602357Y-102982261D01*
X141481404Y-102982261D01*
X141420928Y-103012500D01*
X141390690Y-103042738D01*
X141360452Y-103103214D01*
X141360452Y-103254404D01*
X141390690Y-103314880D01*
X141420928Y-103345119D01*
X141481404Y-103375357D01*
X141602357Y-103375357D01*
X141662833Y-103345119D01*
X141693071Y-103314880D01*
X141723309Y-103254404D01*
X140513785Y-111436833D02*
X140544023Y-111467071D01*
X140574261Y-111557785D01*
X140574261Y-111618261D01*
X140544023Y-111708976D01*
X140483547Y-111769452D01*
X140423071Y-111799690D01*
X140302119Y-111829928D01*
X140211404Y-111829928D01*
X140090452Y-111799690D01*
X140029976Y-111769452D01*
X139969500Y-111708976D01*
X139939261Y-111618261D01*
X139939261Y-111557785D01*
X139969500Y-111467071D01*
X139999738Y-111436833D01*
X140574261Y-111134452D02*
X140574261Y-111013500D01*
X140544023Y-110953023D01*
X140513785Y-110922785D01*
X140423071Y-110862309D01*
X140302119Y-110832071D01*
X140060214Y-110832071D01*
X139999738Y-110862309D01*
X139969500Y-110892547D01*
X139939261Y-110953023D01*
X139939261Y-111073976D01*
X139969500Y-111134452D01*
X139999738Y-111164690D01*
X140060214Y-111194928D01*
X140211404Y-111194928D01*
X140271880Y-111164690D01*
X140302119Y-111134452D01*
X140332357Y-111073976D01*
X140332357Y-110953023D01*
X140302119Y-110892547D01*
X140271880Y-110862309D01*
X140211404Y-110832071D01*
X134163785Y-116764785D02*
X134133547Y-116795023D01*
X134042833Y-116825261D01*
X133982357Y-116825261D01*
X133891642Y-116795023D01*
X133831166Y-116734547D01*
X133800928Y-116674071D01*
X133770690Y-116553119D01*
X133770690Y-116462404D01*
X133800928Y-116341452D01*
X133831166Y-116280976D01*
X133891642Y-116220500D01*
X133982357Y-116190261D01*
X134042833Y-116190261D01*
X134133547Y-116220500D01*
X134163785Y-116250738D01*
X134405690Y-116250738D02*
X134435928Y-116220500D01*
X134496404Y-116190261D01*
X134647595Y-116190261D01*
X134708071Y-116220500D01*
X134738309Y-116250738D01*
X134768547Y-116311214D01*
X134768547Y-116371690D01*
X134738309Y-116462404D01*
X134375452Y-116825261D01*
X134768547Y-116825261D01*
X135161642Y-116190261D02*
X135222119Y-116190261D01*
X135282595Y-116220500D01*
X135312833Y-116250738D01*
X135343071Y-116311214D01*
X135373309Y-116432166D01*
X135373309Y-116583357D01*
X135343071Y-116704309D01*
X135312833Y-116764785D01*
X135282595Y-116795023D01*
X135222119Y-116825261D01*
X135161642Y-116825261D01*
X135101166Y-116795023D01*
X135070928Y-116764785D01*
X135040690Y-116704309D01*
X135010452Y-116583357D01*
X135010452Y-116432166D01*
X135040690Y-116311214D01*
X135070928Y-116250738D01*
X135101166Y-116220500D01*
X135161642Y-116190261D01*
X154737785Y-92761785D02*
X154707547Y-92792023D01*
X154616833Y-92822261D01*
X154556357Y-92822261D01*
X154465642Y-92792023D01*
X154405166Y-92731547D01*
X154374928Y-92671071D01*
X154344690Y-92550119D01*
X154344690Y-92459404D01*
X154374928Y-92338452D01*
X154405166Y-92277976D01*
X154465642Y-92217500D01*
X154556357Y-92187261D01*
X154616833Y-92187261D01*
X154707547Y-92217500D01*
X154737785Y-92247738D01*
X155342547Y-92822261D02*
X154979690Y-92822261D01*
X155161119Y-92822261D02*
X155161119Y-92187261D01*
X155100642Y-92277976D01*
X155040166Y-92338452D01*
X154979690Y-92368690D01*
X155947309Y-92822261D02*
X155584452Y-92822261D01*
X155765880Y-92822261D02*
X155765880Y-92187261D01*
X155705404Y-92277976D01*
X155644928Y-92338452D01*
X155584452Y-92368690D01*
X153975785Y-107046261D02*
X153764119Y-106743880D01*
X153612928Y-107046261D02*
X153612928Y-106411261D01*
X153854833Y-106411261D01*
X153915309Y-106441500D01*
X153945547Y-106471738D01*
X153975785Y-106532214D01*
X153975785Y-106622928D01*
X153945547Y-106683404D01*
X153915309Y-106713642D01*
X153854833Y-106743880D01*
X153612928Y-106743880D01*
X154187452Y-106411261D02*
X154580547Y-106411261D01*
X154368880Y-106653166D01*
X154459595Y-106653166D01*
X154520071Y-106683404D01*
X154550309Y-106713642D01*
X154580547Y-106774119D01*
X154580547Y-106925309D01*
X154550309Y-106985785D01*
X154520071Y-107016023D01*
X154459595Y-107046261D01*
X154278166Y-107046261D01*
X154217690Y-107016023D01*
X154187452Y-106985785D01*
X154792214Y-106411261D02*
X155185309Y-106411261D01*
X154973642Y-106653166D01*
X155064357Y-106653166D01*
X155124833Y-106683404D01*
X155155071Y-106713642D01*
X155185309Y-106774119D01*
X155185309Y-106925309D01*
X155155071Y-106985785D01*
X155124833Y-107016023D01*
X155064357Y-107046261D01*
X154882928Y-107046261D01*
X154822452Y-107016023D01*
X154792214Y-106985785D01*
X131242785Y-118089214D02*
X131273023Y-118119452D01*
X131303261Y-118210166D01*
X131303261Y-118270642D01*
X131273023Y-118361357D01*
X131212547Y-118421833D01*
X131152071Y-118452071D01*
X131031119Y-118482309D01*
X130940404Y-118482309D01*
X130819452Y-118452071D01*
X130758976Y-118421833D01*
X130698500Y-118361357D01*
X130668261Y-118270642D01*
X130668261Y-118210166D01*
X130698500Y-118119452D01*
X130728738Y-118089214D01*
X130728738Y-117847309D02*
X130698500Y-117817071D01*
X130668261Y-117756595D01*
X130668261Y-117605404D01*
X130698500Y-117544928D01*
X130728738Y-117514690D01*
X130789214Y-117484452D01*
X130849690Y-117484452D01*
X130940404Y-117514690D01*
X131303261Y-117877547D01*
X131303261Y-117484452D01*
X130728738Y-117242547D02*
X130698500Y-117212309D01*
X130668261Y-117151833D01*
X130668261Y-117000642D01*
X130698500Y-116940166D01*
X130728738Y-116909928D01*
X130789214Y-116879690D01*
X130849690Y-116879690D01*
X130940404Y-116909928D01*
X131303261Y-117272785D01*
X131303261Y-116879690D01*
X167818785Y-121143261D02*
X167607119Y-120840880D01*
X167455928Y-121143261D02*
X167455928Y-120508261D01*
X167697833Y-120508261D01*
X167758309Y-120538500D01*
X167788547Y-120568738D01*
X167818785Y-120629214D01*
X167818785Y-120719928D01*
X167788547Y-120780404D01*
X167758309Y-120810642D01*
X167697833Y-120840880D01*
X167455928Y-120840880D01*
X168060690Y-120568738D02*
X168090928Y-120538500D01*
X168151404Y-120508261D01*
X168302595Y-120508261D01*
X168363071Y-120538500D01*
X168393309Y-120568738D01*
X168423547Y-120629214D01*
X168423547Y-120689690D01*
X168393309Y-120780404D01*
X168030452Y-121143261D01*
X168423547Y-121143261D01*
X168635214Y-120508261D02*
X169058547Y-120508261D01*
X168786404Y-121143261D01*
X166669738Y-127393476D02*
X166639500Y-127453952D01*
X166579023Y-127514428D01*
X166488309Y-127605142D01*
X166458071Y-127665619D01*
X166458071Y-127726095D01*
X166609261Y-127695857D02*
X166579023Y-127756333D01*
X166518547Y-127816809D01*
X166397595Y-127847047D01*
X166185928Y-127847047D01*
X166064976Y-127816809D01*
X166004500Y-127756333D01*
X165974261Y-127695857D01*
X165974261Y-127574904D01*
X166004500Y-127514428D01*
X166064976Y-127453952D01*
X166185928Y-127423714D01*
X166397595Y-127423714D01*
X166518547Y-127453952D01*
X166579023Y-127514428D01*
X166609261Y-127574904D01*
X166609261Y-127695857D01*
X166034738Y-127181809D02*
X166004500Y-127151571D01*
X165974261Y-127091095D01*
X165974261Y-126939904D01*
X166004500Y-126879428D01*
X166034738Y-126849190D01*
X166095214Y-126818952D01*
X166155690Y-126818952D01*
X166246404Y-126849190D01*
X166609261Y-127212047D01*
X166609261Y-126818952D01*
X136265333Y-100725261D02*
X136265333Y-101178833D01*
X136235095Y-101269547D01*
X136174619Y-101330023D01*
X136083904Y-101360261D01*
X136023428Y-101360261D01*
X136900333Y-101360261D02*
X136537476Y-101360261D01*
X136718904Y-101360261D02*
X136718904Y-100725261D01*
X136658428Y-100815976D01*
X136597952Y-100876452D01*
X136537476Y-100906690D01*
X149455190Y-93330261D02*
X149455190Y-93844309D01*
X149485428Y-93904785D01*
X149515666Y-93935023D01*
X149576142Y-93965261D01*
X149697095Y-93965261D01*
X149757571Y-93935023D01*
X149787809Y-93904785D01*
X149818047Y-93844309D01*
X149818047Y-93330261D01*
X150150666Y-93965261D02*
X150271619Y-93965261D01*
X150332095Y-93935023D01*
X150362333Y-93904785D01*
X150422809Y-93814071D01*
X150453047Y-93693119D01*
X150453047Y-93451214D01*
X150422809Y-93390738D01*
X150392571Y-93360500D01*
X150332095Y-93330261D01*
X150211142Y-93330261D01*
X150150666Y-93360500D01*
X150120428Y-93390738D01*
X150090190Y-93451214D01*
X150090190Y-93602404D01*
X150120428Y-93662880D01*
X150150666Y-93693119D01*
X150211142Y-93723357D01*
X150332095Y-93723357D01*
X150392571Y-93693119D01*
X150422809Y-93662880D01*
X150453047Y-93602404D01*
X140596861Y-110189433D02*
X140294480Y-110401100D01*
X140596861Y-110552290D02*
X139961861Y-110552290D01*
X139961861Y-110310385D01*
X139992100Y-110249909D01*
X140022338Y-110219671D01*
X140082814Y-110189433D01*
X140173528Y-110189433D01*
X140234004Y-110219671D01*
X140264242Y-110249909D01*
X140294480Y-110310385D01*
X140294480Y-110552290D01*
X140022338Y-109947528D02*
X139992100Y-109917290D01*
X139961861Y-109856814D01*
X139961861Y-109705623D01*
X139992100Y-109645147D01*
X140022338Y-109614909D01*
X140082814Y-109584671D01*
X140143290Y-109584671D01*
X140234004Y-109614909D01*
X140596861Y-109977766D01*
X140596861Y-109584671D01*
X165454166Y-99580261D02*
X165151785Y-99580261D01*
X165151785Y-98945261D01*
X165998452Y-99580261D02*
X165635595Y-99580261D01*
X165817023Y-99580261D02*
X165817023Y-98945261D01*
X165756547Y-99035976D01*
X165696071Y-99096452D01*
X165635595Y-99126690D01*
X158547785Y-120375214D02*
X158578023Y-120405452D01*
X158608261Y-120496166D01*
X158608261Y-120556642D01*
X158578023Y-120647357D01*
X158517547Y-120707833D01*
X158457071Y-120738071D01*
X158336119Y-120768309D01*
X158245404Y-120768309D01*
X158124452Y-120738071D01*
X158063976Y-120707833D01*
X158003500Y-120647357D01*
X157973261Y-120556642D01*
X157973261Y-120496166D01*
X158003500Y-120405452D01*
X158033738Y-120375214D01*
X158033738Y-120133309D02*
X158003500Y-120103071D01*
X157973261Y-120042595D01*
X157973261Y-119891404D01*
X158003500Y-119830928D01*
X158033738Y-119800690D01*
X158094214Y-119770452D01*
X158154690Y-119770452D01*
X158245404Y-119800690D01*
X158608261Y-120163547D01*
X158608261Y-119770452D01*
X158245404Y-119407595D02*
X158215166Y-119468071D01*
X158184928Y-119498309D01*
X158124452Y-119528547D01*
X158094214Y-119528547D01*
X158033738Y-119498309D01*
X158003500Y-119468071D01*
X157973261Y-119407595D01*
X157973261Y-119286642D01*
X158003500Y-119226166D01*
X158033738Y-119195928D01*
X158094214Y-119165690D01*
X158124452Y-119165690D01*
X158184928Y-119195928D01*
X158215166Y-119226166D01*
X158245404Y-119286642D01*
X158245404Y-119407595D01*
X158275642Y-119468071D01*
X158305880Y-119498309D01*
X158366357Y-119528547D01*
X158487309Y-119528547D01*
X158547785Y-119498309D01*
X158578023Y-119468071D01*
X158608261Y-119407595D01*
X158608261Y-119286642D01*
X158578023Y-119226166D01*
X158547785Y-119195928D01*
X158487309Y-119165690D01*
X158366357Y-119165690D01*
X158305880Y-119195928D01*
X158275642Y-119226166D01*
X158245404Y-119286642D01*
X156515785Y-115295214D02*
X156546023Y-115325452D01*
X156576261Y-115416166D01*
X156576261Y-115476642D01*
X156546023Y-115567357D01*
X156485547Y-115627833D01*
X156425071Y-115658071D01*
X156304119Y-115688309D01*
X156213404Y-115688309D01*
X156092452Y-115658071D01*
X156031976Y-115627833D01*
X155971500Y-115567357D01*
X155941261Y-115476642D01*
X155941261Y-115416166D01*
X155971500Y-115325452D01*
X156001738Y-115295214D01*
X156001738Y-115053309D02*
X155971500Y-115023071D01*
X155941261Y-114962595D01*
X155941261Y-114811404D01*
X155971500Y-114750928D01*
X156001738Y-114720690D01*
X156062214Y-114690452D01*
X156122690Y-114690452D01*
X156213404Y-114720690D01*
X156576261Y-115083547D01*
X156576261Y-114690452D01*
X155941261Y-114115928D02*
X155941261Y-114418309D01*
X156243642Y-114448547D01*
X156213404Y-114418309D01*
X156183166Y-114357833D01*
X156183166Y-114206642D01*
X156213404Y-114146166D01*
X156243642Y-114115928D01*
X156304119Y-114085690D01*
X156455309Y-114085690D01*
X156515785Y-114115928D01*
X156546023Y-114146166D01*
X156576261Y-114206642D01*
X156576261Y-114357833D01*
X156546023Y-114418309D01*
X156515785Y-114448547D01*
X133274785Y-101839261D02*
X133063119Y-101536880D01*
X132911928Y-101839261D02*
X132911928Y-101204261D01*
X133153833Y-101204261D01*
X133214309Y-101234500D01*
X133244547Y-101264738D01*
X133274785Y-101325214D01*
X133274785Y-101415928D01*
X133244547Y-101476404D01*
X133214309Y-101506642D01*
X133153833Y-101536880D01*
X132911928Y-101536880D01*
X133879547Y-101839261D02*
X133516690Y-101839261D01*
X133698119Y-101839261D02*
X133698119Y-101204261D01*
X133637642Y-101294976D01*
X133577166Y-101355452D01*
X133516690Y-101385690D01*
X134423833Y-101415928D02*
X134423833Y-101839261D01*
X134272642Y-101174023D02*
X134121452Y-101627595D01*
X134514547Y-101627595D01*
X169469785Y-101530833D02*
X169500023Y-101561071D01*
X169530261Y-101651785D01*
X169530261Y-101712261D01*
X169500023Y-101802976D01*
X169439547Y-101863452D01*
X169379071Y-101893690D01*
X169258119Y-101923928D01*
X169167404Y-101923928D01*
X169046452Y-101893690D01*
X168985976Y-101863452D01*
X168925500Y-101802976D01*
X168895261Y-101712261D01*
X168895261Y-101651785D01*
X168925500Y-101561071D01*
X168955738Y-101530833D01*
X169530261Y-100926071D02*
X169530261Y-101288928D01*
X169530261Y-101107500D02*
X168895261Y-101107500D01*
X168985976Y-101167976D01*
X169046452Y-101228452D01*
X169076690Y-101288928D01*
X138025190Y-127239261D02*
X138025190Y-127753309D01*
X138055428Y-127813785D01*
X138085666Y-127844023D01*
X138146142Y-127874261D01*
X138267095Y-127874261D01*
X138327571Y-127844023D01*
X138357809Y-127813785D01*
X138388047Y-127753309D01*
X138388047Y-127239261D01*
X138629952Y-127239261D02*
X139023047Y-127239261D01*
X138811380Y-127481166D01*
X138902095Y-127481166D01*
X138962571Y-127511404D01*
X138992809Y-127541642D01*
X139023047Y-127602119D01*
X139023047Y-127753309D01*
X138992809Y-127813785D01*
X138962571Y-127844023D01*
X138902095Y-127874261D01*
X138720666Y-127874261D01*
X138660190Y-127844023D01*
X138629952Y-127813785D01*
X148895785Y-120066785D02*
X148865547Y-120097023D01*
X148774833Y-120127261D01*
X148714357Y-120127261D01*
X148623642Y-120097023D01*
X148563166Y-120036547D01*
X148532928Y-119976071D01*
X148502690Y-119855119D01*
X148502690Y-119764404D01*
X148532928Y-119643452D01*
X148563166Y-119582976D01*
X148623642Y-119522500D01*
X148714357Y-119492261D01*
X148774833Y-119492261D01*
X148865547Y-119522500D01*
X148895785Y-119552738D01*
X149137690Y-119552738D02*
X149167928Y-119522500D01*
X149228404Y-119492261D01*
X149379595Y-119492261D01*
X149440071Y-119522500D01*
X149470309Y-119552738D01*
X149500547Y-119613214D01*
X149500547Y-119673690D01*
X149470309Y-119764404D01*
X149107452Y-120127261D01*
X149500547Y-120127261D01*
X150105309Y-120127261D02*
X149742452Y-120127261D01*
X149923880Y-120127261D02*
X149923880Y-119492261D01*
X149863404Y-119582976D01*
X149802928Y-119643452D01*
X149742452Y-119673690D01*
X151995191Y-103236255D02*
X151995191Y-103750303D01*
X152025429Y-103810779D01*
X152055667Y-103841017D01*
X152116143Y-103871255D01*
X152237096Y-103871255D01*
X152297572Y-103841017D01*
X152327810Y-103810779D01*
X152358048Y-103750303D01*
X152358048Y-103236255D01*
X152599953Y-103236255D02*
X153023286Y-103236255D01*
X152751143Y-103871255D01*
X161148261Y-125709214D02*
X160845880Y-125920880D01*
X161148261Y-126072071D02*
X160513261Y-126072071D01*
X160513261Y-125830166D01*
X160543500Y-125769690D01*
X160573738Y-125739452D01*
X160634214Y-125709214D01*
X160724928Y-125709214D01*
X160785404Y-125739452D01*
X160815642Y-125769690D01*
X160845880Y-125830166D01*
X160845880Y-126072071D01*
X160573738Y-125467309D02*
X160543500Y-125437071D01*
X160513261Y-125376595D01*
X160513261Y-125225404D01*
X160543500Y-125164928D01*
X160573738Y-125134690D01*
X160634214Y-125104452D01*
X160694690Y-125104452D01*
X160785404Y-125134690D01*
X161148261Y-125497547D01*
X161148261Y-125104452D01*
X160513261Y-124711357D02*
X160513261Y-124650880D01*
X160543500Y-124590404D01*
X160573738Y-124560166D01*
X160634214Y-124529928D01*
X160755166Y-124499690D01*
X160906357Y-124499690D01*
X161027309Y-124529928D01*
X161087785Y-124560166D01*
X161118023Y-124590404D01*
X161148261Y-124650880D01*
X161148261Y-124711357D01*
X161118023Y-124771833D01*
X161087785Y-124802071D01*
X161027309Y-124832309D01*
X160906357Y-124862547D01*
X160755166Y-124862547D01*
X160634214Y-124832309D01*
X160573738Y-124802071D01*
X160543500Y-124771833D01*
X160513261Y-124711357D01*
X130550333Y-93935023D02*
X130641047Y-93965261D01*
X130792238Y-93965261D01*
X130852714Y-93935023D01*
X130882952Y-93904785D01*
X130913190Y-93844309D01*
X130913190Y-93783833D01*
X130882952Y-93723357D01*
X130852714Y-93693119D01*
X130792238Y-93662880D01*
X130671285Y-93632642D01*
X130610809Y-93602404D01*
X130580571Y-93572166D01*
X130550333Y-93511690D01*
X130550333Y-93451214D01*
X130580571Y-93390738D01*
X130610809Y-93360500D01*
X130671285Y-93330261D01*
X130822476Y-93330261D01*
X130913190Y-93360500D01*
X131124857Y-93330261D02*
X131276047Y-93965261D01*
X131397000Y-93511690D01*
X131517952Y-93965261D01*
X131669142Y-93330261D01*
X132243666Y-93965261D02*
X131880809Y-93965261D01*
X132062238Y-93965261D02*
X132062238Y-93330261D01*
X132001761Y-93420976D01*
X131941285Y-93481452D01*
X131880809Y-93511690D01*
X144372166Y-120127261D02*
X144069785Y-120127261D01*
X144069785Y-119492261D01*
X144553595Y-119552738D02*
X144583833Y-119522500D01*
X144644309Y-119492261D01*
X144795500Y-119492261D01*
X144855976Y-119522500D01*
X144886214Y-119552738D01*
X144916452Y-119613214D01*
X144916452Y-119673690D01*
X144886214Y-119764404D01*
X144523357Y-120127261D01*
X144916452Y-120127261D01*
X164770785Y-119365261D02*
X164559119Y-119062880D01*
X164407928Y-119365261D02*
X164407928Y-118730261D01*
X164649833Y-118730261D01*
X164710309Y-118760500D01*
X164740547Y-118790738D01*
X164770785Y-118851214D01*
X164770785Y-118941928D01*
X164740547Y-119002404D01*
X164710309Y-119032642D01*
X164649833Y-119062880D01*
X164407928Y-119062880D01*
X165375547Y-119365261D02*
X165012690Y-119365261D01*
X165194119Y-119365261D02*
X165194119Y-118730261D01*
X165133642Y-118820976D01*
X165073166Y-118881452D01*
X165012690Y-118911690D01*
X165950071Y-118730261D02*
X165647690Y-118730261D01*
X165617452Y-119032642D01*
X165647690Y-119002404D01*
X165708166Y-118972166D01*
X165859357Y-118972166D01*
X165919833Y-119002404D01*
X165950071Y-119032642D01*
X165980309Y-119093119D01*
X165980309Y-119244309D01*
X165950071Y-119304785D01*
X165919833Y-119335023D01*
X165859357Y-119365261D01*
X165708166Y-119365261D01*
X165647690Y-119335023D01*
X165617452Y-119304785D01*
X144433883Y-115174255D02*
X144433883Y-115688303D01*
X144464121Y-115748779D01*
X144494359Y-115779017D01*
X144554835Y-115809255D01*
X144675788Y-115809255D01*
X144736264Y-115779017D01*
X144766502Y-115748779D01*
X144796740Y-115688303D01*
X144796740Y-115174255D01*
X145068883Y-115234732D02*
X145099121Y-115204494D01*
X145159597Y-115174255D01*
X145310788Y-115174255D01*
X145371264Y-115204494D01*
X145401502Y-115234732D01*
X145431740Y-115295208D01*
X145431740Y-115355684D01*
X145401502Y-115446398D01*
X145038645Y-115809255D01*
X145431740Y-115809255D01*
X150292785Y-111430785D02*
X150262547Y-111461023D01*
X150171833Y-111491261D01*
X150111357Y-111491261D01*
X150020642Y-111461023D01*
X149960166Y-111400547D01*
X149929928Y-111340071D01*
X149899690Y-111219119D01*
X149899690Y-111128404D01*
X149929928Y-111007452D01*
X149960166Y-110946976D01*
X150020642Y-110886500D01*
X150111357Y-110856261D01*
X150171833Y-110856261D01*
X150262547Y-110886500D01*
X150292785Y-110916738D01*
X150504452Y-110856261D02*
X150897547Y-110856261D01*
X150685880Y-111098166D01*
X150776595Y-111098166D01*
X150837071Y-111128404D01*
X150867309Y-111158642D01*
X150897547Y-111219119D01*
X150897547Y-111370309D01*
X150867309Y-111430785D01*
X150837071Y-111461023D01*
X150776595Y-111491261D01*
X150595166Y-111491261D01*
X150534690Y-111461023D01*
X150504452Y-111430785D01*
X151199928Y-111491261D02*
X151320880Y-111491261D01*
X151381357Y-111461023D01*
X151411595Y-111430785D01*
X151472071Y-111340071D01*
X151502309Y-111219119D01*
X151502309Y-110977214D01*
X151472071Y-110916738D01*
X151441833Y-110886500D01*
X151381357Y-110856261D01*
X151260404Y-110856261D01*
X151199928Y-110886500D01*
X151169690Y-110916738D01*
X151139452Y-110977214D01*
X151139452Y-111128404D01*
X151169690Y-111188880D01*
X151199928Y-111219119D01*
X151260404Y-111249357D01*
X151381357Y-111249357D01*
X151441833Y-111219119D01*
X151472071Y-111188880D01*
X151502309Y-111128404D01*
X139304261Y-122153214D02*
X139001880Y-122364880D01*
X139304261Y-122516071D02*
X138669261Y-122516071D01*
X138669261Y-122274166D01*
X138699500Y-122213690D01*
X138729738Y-122183452D01*
X138790214Y-122153214D01*
X138880928Y-122153214D01*
X138941404Y-122183452D01*
X138971642Y-122213690D01*
X139001880Y-122274166D01*
X139001880Y-122516071D01*
X139304261Y-121548452D02*
X139304261Y-121911309D01*
X139304261Y-121729880D02*
X138669261Y-121729880D01*
X138759976Y-121790357D01*
X138820452Y-121850833D01*
X138850690Y-121911309D01*
X138669261Y-121155357D02*
X138669261Y-121094880D01*
X138699500Y-121034404D01*
X138729738Y-121004166D01*
X138790214Y-120973928D01*
X138911166Y-120943690D01*
X139062357Y-120943690D01*
X139183309Y-120973928D01*
X139243785Y-121004166D01*
X139274023Y-121034404D01*
X139304261Y-121094880D01*
X139304261Y-121155357D01*
X139274023Y-121215833D01*
X139243785Y-121246071D01*
X139183309Y-121276309D01*
X139062357Y-121306547D01*
X138911166Y-121306547D01*
X138790214Y-121276309D01*
X138729738Y-121246071D01*
X138699500Y-121215833D01*
X138669261Y-121155357D01*
X169244289Y-97892960D02*
X168880802Y-97828815D01*
X168987710Y-98149539D02*
X168538697Y-97700526D01*
X168709750Y-97529473D01*
X168773895Y-97508092D01*
X168816658Y-97508092D01*
X168880802Y-97529473D01*
X168944947Y-97593618D01*
X168966329Y-97657763D01*
X168966329Y-97700526D01*
X168944947Y-97764670D01*
X168773895Y-97935723D01*
X169671920Y-97465329D02*
X169415341Y-97721907D01*
X169543631Y-97593618D02*
X169094618Y-97144605D01*
X169116000Y-97251513D01*
X169116000Y-97337039D01*
X169094618Y-97401184D01*
X140513785Y-105649261D02*
X140302119Y-105346880D01*
X140150928Y-105649261D02*
X140150928Y-105014261D01*
X140392833Y-105014261D01*
X140453309Y-105044500D01*
X140483547Y-105074738D01*
X140513785Y-105135214D01*
X140513785Y-105225928D01*
X140483547Y-105286404D01*
X140453309Y-105316642D01*
X140392833Y-105346880D01*
X140150928Y-105346880D01*
X141118547Y-105649261D02*
X140755690Y-105649261D01*
X140937119Y-105649261D02*
X140937119Y-105014261D01*
X140876642Y-105104976D01*
X140816166Y-105165452D01*
X140755690Y-105195690D01*
X141662833Y-105014261D02*
X141541880Y-105014261D01*
X141481404Y-105044500D01*
X141451166Y-105074738D01*
X141390690Y-105165452D01*
X141360452Y-105286404D01*
X141360452Y-105528309D01*
X141390690Y-105588785D01*
X141420928Y-105619023D01*
X141481404Y-105649261D01*
X141602357Y-105649261D01*
X141662833Y-105619023D01*
X141693071Y-105588785D01*
X141723309Y-105528309D01*
X141723309Y-105377119D01*
X141693071Y-105316642D01*
X141662833Y-105286404D01*
X141602357Y-105256166D01*
X141481404Y-105256166D01*
X141420928Y-105286404D01*
X141390690Y-105316642D01*
X141360452Y-105377119D01*
X150927785Y-119613214D02*
X150958023Y-119643452D01*
X150988261Y-119734166D01*
X150988261Y-119794642D01*
X150958023Y-119885357D01*
X150897547Y-119945833D01*
X150837071Y-119976071D01*
X150716119Y-120006309D01*
X150625404Y-120006309D01*
X150504452Y-119976071D01*
X150443976Y-119945833D01*
X150383500Y-119885357D01*
X150353261Y-119794642D01*
X150353261Y-119734166D01*
X150383500Y-119643452D01*
X150413738Y-119613214D01*
X150413738Y-119371309D02*
X150383500Y-119341071D01*
X150353261Y-119280595D01*
X150353261Y-119129404D01*
X150383500Y-119068928D01*
X150413738Y-119038690D01*
X150474214Y-119008452D01*
X150534690Y-119008452D01*
X150625404Y-119038690D01*
X150988261Y-119401547D01*
X150988261Y-119008452D01*
X150353261Y-118796785D02*
X150353261Y-118403690D01*
X150595166Y-118615357D01*
X150595166Y-118524642D01*
X150625404Y-118464166D01*
X150655642Y-118433928D01*
X150716119Y-118403690D01*
X150867309Y-118403690D01*
X150927785Y-118433928D01*
X150958023Y-118464166D01*
X150988261Y-118524642D01*
X150988261Y-118706071D01*
X150958023Y-118766547D01*
X150927785Y-118796785D01*
X167310785Y-100260833D02*
X167341023Y-100291071D01*
X167371261Y-100381785D01*
X167371261Y-100442261D01*
X167341023Y-100532976D01*
X167280547Y-100593452D01*
X167220071Y-100623690D01*
X167099119Y-100653928D01*
X167008404Y-100653928D01*
X166887452Y-100623690D01*
X166826976Y-100593452D01*
X166766500Y-100532976D01*
X166736261Y-100442261D01*
X166736261Y-100381785D01*
X166766500Y-100291071D01*
X166796738Y-100260833D01*
X166796738Y-100018928D02*
X166766500Y-99988690D01*
X166736261Y-99928214D01*
X166736261Y-99777023D01*
X166766500Y-99716547D01*
X166796738Y-99686309D01*
X166857214Y-99656071D01*
X166917690Y-99656071D01*
X167008404Y-99686309D01*
X167371261Y-100049166D01*
X167371261Y-99656071D01*
X150734261Y-92435214D02*
X150431880Y-92646880D01*
X150734261Y-92798071D02*
X150099261Y-92798071D01*
X150099261Y-92556166D01*
X150129500Y-92495690D01*
X150159738Y-92465452D01*
X150220214Y-92435214D01*
X150310928Y-92435214D01*
X150371404Y-92465452D01*
X150401642Y-92495690D01*
X150431880Y-92556166D01*
X150431880Y-92798071D01*
X150099261Y-92223547D02*
X150099261Y-91830452D01*
X150341166Y-92042119D01*
X150341166Y-91951404D01*
X150371404Y-91890928D01*
X150401642Y-91860690D01*
X150462119Y-91830452D01*
X150613309Y-91830452D01*
X150673785Y-91860690D01*
X150704023Y-91890928D01*
X150734261Y-91951404D01*
X150734261Y-92132833D01*
X150704023Y-92193309D01*
X150673785Y-92223547D01*
X150099261Y-91618785D02*
X150099261Y-91195452D01*
X150734261Y-91467595D01*
X153848785Y-103871261D02*
X153637119Y-103568880D01*
X153485928Y-103871261D02*
X153485928Y-103236261D01*
X153727833Y-103236261D01*
X153788309Y-103266500D01*
X153818547Y-103296738D01*
X153848785Y-103357214D01*
X153848785Y-103447928D01*
X153818547Y-103508404D01*
X153788309Y-103538642D01*
X153727833Y-103568880D01*
X153485928Y-103568880D01*
X154060452Y-103236261D02*
X154453547Y-103236261D01*
X154241880Y-103478166D01*
X154332595Y-103478166D01*
X154393071Y-103508404D01*
X154423309Y-103538642D01*
X154453547Y-103599119D01*
X154453547Y-103750309D01*
X154423309Y-103810785D01*
X154393071Y-103841023D01*
X154332595Y-103871261D01*
X154151166Y-103871261D01*
X154090690Y-103841023D01*
X154060452Y-103810785D01*
X154997833Y-103447928D02*
X154997833Y-103871261D01*
X154846642Y-103206023D02*
X154695452Y-103659595D01*
X155088547Y-103659595D01*
X167056785Y-95301785D02*
X167026547Y-95332023D01*
X166935833Y-95362261D01*
X166875357Y-95362261D01*
X166784642Y-95332023D01*
X166724166Y-95271547D01*
X166693928Y-95211071D01*
X166663690Y-95090119D01*
X166663690Y-94999404D01*
X166693928Y-94878452D01*
X166724166Y-94817976D01*
X166784642Y-94757500D01*
X166875357Y-94727261D01*
X166935833Y-94727261D01*
X167026547Y-94757500D01*
X167056785Y-94787738D01*
X167661547Y-95362261D02*
X167298690Y-95362261D01*
X167480119Y-95362261D02*
X167480119Y-94727261D01*
X167419642Y-94817976D01*
X167359166Y-94878452D01*
X167298690Y-94908690D01*
X167903452Y-94787738D02*
X167933690Y-94757500D01*
X167994166Y-94727261D01*
X168145357Y-94727261D01*
X168205833Y-94757500D01*
X168236071Y-94787738D01*
X168266309Y-94848214D01*
X168266309Y-94908690D01*
X168236071Y-94999404D01*
X167873214Y-95362261D01*
X168266309Y-95362261D01*
X152250785Y-119308785D02*
X152220547Y-119339023D01*
X152129833Y-119369261D01*
X152069357Y-119369261D01*
X151978642Y-119339023D01*
X151918166Y-119278547D01*
X151887928Y-119218071D01*
X151857690Y-119097119D01*
X151857690Y-119006404D01*
X151887928Y-118885452D01*
X151918166Y-118824976D01*
X151978642Y-118764500D01*
X152069357Y-118734261D01*
X152129833Y-118734261D01*
X152220547Y-118764500D01*
X152250785Y-118794738D01*
X152492690Y-118794738D02*
X152522928Y-118764500D01*
X152583404Y-118734261D01*
X152734595Y-118734261D01*
X152795071Y-118764500D01*
X152825309Y-118794738D01*
X152855547Y-118855214D01*
X152855547Y-118915690D01*
X152825309Y-119006404D01*
X152462452Y-119369261D01*
X152855547Y-119369261D01*
X153399833Y-118945928D02*
X153399833Y-119369261D01*
X153248642Y-118704023D02*
X153097452Y-119157595D01*
X153490547Y-119157595D01*
D12*
X165559000Y-115241359D02*
X165559000Y-115548641D01*
X164799000Y-115241359D02*
X164799000Y-115548641D01*
X146864359Y-95584000D02*
X147171641Y-95584000D01*
X146864359Y-96344000D02*
X147171641Y-96344000D01*
X154865359Y-97362000D02*
X155172641Y-97362000D01*
X154865359Y-98122000D02*
X155172641Y-98122000D01*
X138990359Y-104726000D02*
X139297641Y-104726000D01*
X138990359Y-103966000D02*
X139297641Y-103966000D01*
X145761580Y-111837000D02*
X145480420Y-111837000D01*
X145761580Y-112857000D02*
X145480420Y-112857000D01*
X166694164Y-94292000D02*
X166909836Y-94292000D01*
X166694164Y-93572000D02*
X166909836Y-93572000D01*
X139878800Y-112876359D02*
X139878800Y-113183641D01*
X140638800Y-112876359D02*
X140638800Y-113183641D01*
X162386000Y-125147359D02*
X162386000Y-125454641D01*
X163146000Y-125147359D02*
X163146000Y-125454641D01*
X166785000Y-117063000D02*
X168195000Y-117063000D01*
X168195000Y-116403000D02*
X168195000Y-117063000D01*
X168195000Y-114743000D02*
X166165000Y-114743000D01*
X168195000Y-114743000D02*
X168195000Y-115403000D01*
D13*
X166819000Y-102066000D02*
X166819000Y-101866000D01*
X166819000Y-103341000D02*
X166819000Y-102791000D01*
X168594000Y-102041000D02*
X168594000Y-101566000D01*
X168594000Y-103316000D02*
X168594000Y-102841000D01*
D14*
X169019000Y-103141000D02*
G75*
G03*
X169019000Y-103141000I-100000J0D01*
G01*
D12*
X146489000Y-109406836D02*
X146489000Y-109191164D01*
X145769000Y-109406836D02*
X145769000Y-109191164D01*
X154156641Y-108917000D02*
X153849359Y-108917000D01*
X154156641Y-108157000D02*
X153849359Y-108157000D01*
X167034800Y-126320800D02*
X168914400Y-126320800D01*
X167034800Y-123679200D02*
X167034800Y-126320800D01*
X168914400Y-123679200D02*
X167034800Y-123679200D01*
X168914400Y-126320800D02*
X168914400Y-123679200D01*
D15*
X166810800Y-126117600D02*
G75*
G03*
X166810800Y-126117600I-80800J0D01*
G01*
D12*
X155637000Y-104251000D02*
X155637000Y-106281000D01*
X157297000Y-104251000D02*
X157957000Y-104251000D01*
X155637000Y-104251000D02*
X156297000Y-104251000D01*
X157957000Y-105661000D02*
X157957000Y-104251000D01*
X132640359Y-119079000D02*
X132947641Y-119079000D01*
X132640359Y-119839000D02*
X132947641Y-119839000D01*
X144491580Y-90755000D02*
X144210420Y-90755000D01*
X144491580Y-91775000D02*
X144210420Y-91775000D01*
D11*
X137469000Y-120451000D02*
X137469000Y-120151000D01*
X134469000Y-117451000D02*
X134469000Y-117751000D01*
X134469000Y-120451000D02*
X134469000Y-120151000D01*
X137469000Y-117451000D02*
X137169000Y-117451000D01*
X134469000Y-117451000D02*
X134769000Y-117451000D01*
X134469000Y-120451000D02*
X134769000Y-120451000D01*
X137469000Y-117451000D02*
X137469000Y-117751000D01*
X137469000Y-120451000D02*
X137169000Y-120451000D01*
D14*
X134799000Y-120830600D02*
G75*
G03*
X134799000Y-120830600I-100000J0D01*
G01*
D12*
X164142000Y-93785836D02*
X164142000Y-93570164D01*
X163422000Y-93785836D02*
X163422000Y-93570164D01*
X156414000Y-92294580D02*
X156414000Y-92013420D01*
X157434000Y-92294580D02*
X157434000Y-92013420D01*
X154156641Y-110187000D02*
X153849359Y-110187000D01*
X154156641Y-109427000D02*
X153849359Y-109427000D01*
X153135000Y-95678836D02*
X153135000Y-95463164D01*
X153855000Y-95678836D02*
X153855000Y-95463164D01*
X148944000Y-109064164D02*
X148944000Y-109279836D01*
X149664000Y-109064164D02*
X149664000Y-109279836D01*
X143822000Y-117026836D02*
X143822000Y-116811164D01*
X143102000Y-117026836D02*
X143102000Y-116811164D01*
X162386000Y-122480359D02*
X162386000Y-122787641D01*
X163146000Y-122480359D02*
X163146000Y-122787641D01*
X138990359Y-102694000D02*
X139297641Y-102694000D01*
X138990359Y-101934000D02*
X139297641Y-101934000D01*
X149163420Y-112984000D02*
X149444580Y-112984000D01*
X149163420Y-111964000D02*
X149444580Y-111964000D01*
X162130000Y-127994641D02*
X162130000Y-127687359D01*
X161370000Y-127994641D02*
X161370000Y-127687359D01*
X164372000Y-126588000D02*
X165782000Y-126588000D01*
X165782000Y-124268000D02*
X165782000Y-124928000D01*
X165782000Y-125928000D02*
X165782000Y-126588000D01*
X165782000Y-124268000D02*
X163752000Y-124268000D01*
X159951000Y-116938164D02*
X159951000Y-117153836D01*
X159231000Y-116938164D02*
X159231000Y-117153836D01*
D14*
X139185994Y-94248994D02*
X139185994Y-94248994D01*
X145705994Y-94248994D02*
X145705994Y-97678994D01*
X145705994Y-97678994D02*
X145705994Y-97678994D01*
X145705994Y-94248994D02*
X145705994Y-94248994D01*
X139185994Y-97678994D02*
X139185994Y-94248994D01*
X139185994Y-97678994D02*
X139185994Y-97678994D01*
X146370994Y-94744794D02*
G75*
G03*
X146370994Y-94744794I-100000J0D01*
G01*
D12*
X147037164Y-90651000D02*
X147252836Y-90651000D01*
X147037164Y-91371000D02*
X147252836Y-91371000D01*
D11*
X133570000Y-121250000D02*
X133570000Y-124750000D01*
X130400000Y-123850000D02*
X130400000Y-124750000D01*
X129900000Y-123850000D02*
X130400000Y-123850000D01*
X129900000Y-122150000D02*
X129900000Y-123850000D01*
X130400000Y-122150000D02*
X129900000Y-122150000D01*
X130400000Y-121250000D02*
X130400000Y-122150000D01*
D14*
X134182800Y-120968000D02*
G75*
G03*
X134182800Y-120968000I-100000J0D01*
G01*
D12*
X146866359Y-98630000D02*
X147173641Y-98630000D01*
X146866359Y-97870000D02*
X147173641Y-97870000D01*
X146918000Y-108737252D02*
X146918000Y-108214748D01*
X148388000Y-108737252D02*
X148388000Y-108214748D01*
X165539000Y-91919164D02*
X165539000Y-92134836D01*
X164819000Y-91919164D02*
X164819000Y-92134836D01*
D11*
X168817000Y-112200000D02*
X168817000Y-107800000D01*
X161217000Y-113950000D02*
X165217000Y-113950000D01*
X165217000Y-106050000D02*
X161217000Y-106050000D01*
X161217000Y-111900000D02*
X161217000Y-113950000D01*
X161217000Y-106050000D02*
X161217000Y-108100000D01*
D16*
X160317000Y-112150000D02*
G75*
G03*
X160317000Y-112150000I-100000J0D01*
G01*
D12*
X158322000Y-106224359D02*
X158322000Y-106531641D01*
X159082000Y-106224359D02*
X159082000Y-106531641D01*
X162652580Y-116032000D02*
X162371420Y-116032000D01*
X162652580Y-115012000D02*
X162371420Y-115012000D01*
X146236836Y-110717000D02*
X146021164Y-110717000D01*
X146236836Y-111437000D02*
X146021164Y-111437000D01*
X158322000Y-104499641D02*
X158322000Y-104192359D01*
X159082000Y-104499641D02*
X159082000Y-104192359D01*
X153135000Y-93431164D02*
X153135000Y-93646836D01*
X153855000Y-93431164D02*
X153855000Y-93646836D01*
X154865359Y-96346000D02*
X155172641Y-96346000D01*
X154865359Y-97106000D02*
X155172641Y-97106000D01*
X132081241Y-126975600D02*
X131773959Y-126975600D01*
X132081241Y-127735600D02*
X131773959Y-127735600D01*
X135589000Y-127613641D02*
X135589000Y-127306359D01*
X136349000Y-127613641D02*
X136349000Y-127306359D01*
X163676000Y-98523164D02*
X163676000Y-98738836D01*
X164396000Y-98523164D02*
X164396000Y-98738836D01*
X139400000Y-108015420D02*
X139400000Y-108296580D01*
X138380000Y-108015420D02*
X138380000Y-108296580D01*
X139654000Y-118202580D02*
X139654000Y-117921420D01*
X138634000Y-118202580D02*
X138634000Y-117921420D01*
X167880300Y-93170000D02*
X166000700Y-93170000D01*
X167880300Y-90884000D02*
X167880300Y-93170000D01*
X166000700Y-90884000D02*
X167880300Y-90884000D01*
X166000700Y-93170000D02*
X166000700Y-90884000D01*
D14*
X165690500Y-91027000D02*
G75*
G03*
X165690500Y-91027000I-100000J0D01*
G01*
D12*
X150837641Y-104052900D02*
X150530359Y-104052900D01*
X150837641Y-103292900D02*
X150530359Y-103292900D01*
X152839000Y-108263836D02*
X152839000Y-108048164D01*
X152119000Y-108263836D02*
X152119000Y-108048164D01*
X157158000Y-100471000D02*
X156608000Y-100471000D01*
X162278000Y-94251000D02*
X162828000Y-94251000D01*
X157158000Y-94251000D02*
X156608000Y-94251000D01*
X162278000Y-100471000D02*
X162828000Y-100471000D01*
X162828000Y-94251000D02*
X162828000Y-94801000D01*
X156608000Y-100471000D02*
X156608000Y-99921000D01*
X162828000Y-100471000D02*
X162828000Y-99921000D01*
X162258000Y-116629000D02*
X163058000Y-116629000D01*
X162258000Y-119749000D02*
X161458000Y-119749000D01*
X162258000Y-119749000D02*
X163058000Y-119749000D01*
X162258000Y-116629000D02*
X160458000Y-116629000D01*
X168861000Y-127306359D02*
X168861000Y-127613641D01*
X168101000Y-127306359D02*
X168101000Y-127613641D01*
X150790000Y-105089064D02*
X150790000Y-105304736D01*
X150070000Y-105089064D02*
X150070000Y-105304736D01*
X151062836Y-107373000D02*
X150847164Y-107373000D01*
X151062836Y-106653000D02*
X150847164Y-106653000D01*
X152839000Y-110080164D02*
X152839000Y-110295836D01*
X152119000Y-110080164D02*
X152119000Y-110295836D01*
X168735000Y-120309000D02*
X168735000Y-118024000D01*
X167265000Y-118024000D02*
X167265000Y-120309000D01*
X167265000Y-120309000D02*
X168735000Y-120309000D01*
X131797164Y-100049000D02*
X132012836Y-100049000D01*
X131797164Y-100769000D02*
X132012836Y-100769000D01*
X134672359Y-122125000D02*
X134979641Y-122125000D01*
X134672359Y-121365000D02*
X134979641Y-121365000D01*
X167718000Y-127306359D02*
X167718000Y-127613641D01*
X166958000Y-127306359D02*
X166958000Y-127613641D01*
D14*
X135140000Y-114470000D02*
X133930000Y-114470000D01*
X131210000Y-105530000D02*
X129720000Y-105530000D01*
X135140000Y-105530000D02*
X133930000Y-105530000D01*
X129720000Y-105530000D02*
X129720000Y-114470000D01*
X129720000Y-114470000D02*
X131210000Y-114470000D01*
X138330000Y-106220000D02*
G75*
G03*
X138330000Y-106220000I-100000J0D01*
G01*
D12*
X147782000Y-117694580D02*
X147782000Y-117413420D01*
X146762000Y-117694580D02*
X146762000Y-117413420D01*
X148141836Y-106484000D02*
X147926164Y-106484000D01*
X148141836Y-105764000D02*
X147926164Y-105764000D01*
X146864359Y-96727000D02*
X147171641Y-96727000D01*
X146864359Y-97487000D02*
X147171641Y-97487000D01*
X151868000Y-118283000D02*
X154868000Y-118283000D01*
X153368000Y-116063000D02*
X154868000Y-116063000D01*
X162386000Y-127687359D02*
X162386000Y-127994641D01*
X163146000Y-127687359D02*
X163146000Y-127994641D01*
X164905836Y-96239000D02*
X164690164Y-96239000D01*
X164905836Y-96959000D02*
X164690164Y-96959000D01*
X165782000Y-121474000D02*
X163752000Y-121474000D01*
X164372000Y-123794000D02*
X165782000Y-123794000D01*
X165782000Y-121474000D02*
X165782000Y-122134000D01*
X165782000Y-123134000D02*
X165782000Y-123794000D01*
X155047836Y-100817000D02*
X154832164Y-100817000D01*
X155047836Y-100097000D02*
X154832164Y-100097000D01*
X131797164Y-125957000D02*
X132012836Y-125957000D01*
X131797164Y-126677000D02*
X132012836Y-126677000D01*
X140441000Y-118196252D02*
X140441000Y-117673748D01*
X141911000Y-118196252D02*
X141911000Y-117673748D01*
D11*
X142167000Y-128616000D02*
X146167000Y-128616000D01*
X146167000Y-120716000D02*
X142167000Y-120716000D01*
X149767000Y-126866000D02*
X149767000Y-122466000D01*
X142167000Y-126566000D02*
X142167000Y-128616000D01*
X142167000Y-120716000D02*
X142167000Y-122766000D01*
D16*
X141267000Y-126816000D02*
G75*
G03*
X141267000Y-126816000I-100000J0D01*
G01*
D12*
X158681000Y-92554164D02*
X158681000Y-92769836D01*
X157961000Y-92554164D02*
X157961000Y-92769836D01*
X165559000Y-117273359D02*
X165559000Y-117580641D01*
X164799000Y-117273359D02*
X164799000Y-117580641D01*
X152758400Y-93234200D02*
X150929600Y-93234200D01*
X150929600Y-93234200D02*
X150929600Y-95875800D01*
X150980400Y-95875800D02*
X152758400Y-95875800D01*
X150929600Y-95875800D02*
X150980400Y-95875800D01*
X152758400Y-95875800D02*
X152758400Y-93234200D01*
X162130000Y-122480359D02*
X162130000Y-122787641D01*
X161370000Y-122480359D02*
X161370000Y-122787641D01*
X138990359Y-103710000D02*
X139297641Y-103710000D01*
X138990359Y-102950000D02*
X139297641Y-102950000D01*
X139400000Y-111598580D02*
X139400000Y-111317420D01*
X138380000Y-111598580D02*
X138380000Y-111317420D01*
X132815000Y-117700164D02*
X132815000Y-117915836D01*
X133535000Y-117700164D02*
X133535000Y-117915836D01*
X155167000Y-93824164D02*
X155167000Y-94039836D01*
X155887000Y-93824164D02*
X155887000Y-94039836D01*
X154139641Y-106084900D02*
X153832359Y-106084900D01*
X154139641Y-105324900D02*
X153832359Y-105324900D01*
X132392000Y-117700164D02*
X132392000Y-117915836D01*
X131672000Y-117700164D02*
X131672000Y-117915836D01*
X168101000Y-122533641D02*
X168101000Y-122226359D01*
X168861000Y-122533641D02*
X168861000Y-122226359D01*
X164372000Y-129382000D02*
X165782000Y-129382000D01*
X165782000Y-128722000D02*
X165782000Y-129382000D01*
X165782000Y-127062000D02*
X163752000Y-127062000D01*
X165782000Y-127062000D02*
X165782000Y-127722000D01*
X135147000Y-97473000D02*
X135147000Y-92333000D01*
X137807000Y-97473000D02*
X137807000Y-92333000D01*
X137807000Y-98743000D02*
X137807000Y-100073000D01*
X137807000Y-100073000D02*
X136477000Y-100073000D01*
X137807000Y-92333000D02*
X135147000Y-92333000D01*
X137807000Y-97473000D02*
X135147000Y-97473000D01*
X146271600Y-94084400D02*
X148608400Y-94084400D01*
X148608400Y-91747600D02*
X146271600Y-91747600D01*
X148608400Y-94084400D02*
X148608400Y-91747600D01*
X146271600Y-91747600D02*
X146271600Y-94084400D01*
D14*
X149061000Y-93589000D02*
G75*
G03*
X149061000Y-93589000I-100000J0D01*
G01*
D12*
X140689600Y-108355159D02*
X140689600Y-108662441D01*
X139929600Y-108355159D02*
X139929600Y-108662441D01*
X157684000Y-117413420D02*
X157684000Y-117694580D01*
X158704000Y-117413420D02*
X158704000Y-117694580D01*
X155832000Y-117417420D02*
X155832000Y-117698580D01*
X156852000Y-117417420D02*
X156852000Y-117698580D01*
X132058641Y-101045000D02*
X131751359Y-101045000D01*
X132058641Y-101805000D02*
X131751359Y-101805000D01*
X168842836Y-100049000D02*
X168627164Y-100049000D01*
X168842836Y-100769000D02*
X168627164Y-100769000D01*
D17*
X137848000Y-124412000D02*
X137848000Y-125912000D01*
X134598000Y-122912000D02*
X134598000Y-125912000D01*
D12*
X149941000Y-117667420D02*
X149941000Y-117948580D01*
X148921000Y-117667420D02*
X148921000Y-117948580D01*
X151090401Y-104282494D02*
X152868401Y-104282494D01*
X151090401Y-106111294D02*
X151090401Y-104282494D01*
X152868401Y-104282494D02*
X152868401Y-106111294D01*
X152868401Y-106111294D02*
X151090401Y-106111294D01*
D15*
X151323601Y-106416094D02*
G75*
G03*
X151323601Y-106416094I-80800J0D01*
G01*
D12*
X162130000Y-125147359D02*
X162130000Y-125454641D01*
X161370000Y-125147359D02*
X161370000Y-125454641D01*
D11*
X130400000Y-97850000D02*
X130400000Y-98750000D01*
X129900000Y-96150000D02*
X129900000Y-97850000D01*
X130400000Y-96150000D02*
X129900000Y-96150000D01*
X133570000Y-95250000D02*
X133570000Y-98750000D01*
X130400000Y-95250000D02*
X130400000Y-96150000D01*
X129900000Y-97850000D02*
X130400000Y-97850000D01*
D14*
X132900000Y-93500000D02*
G75*
G03*
X132900000Y-93500000I-100000J0D01*
G01*
D12*
X144640779Y-118187000D02*
X144315221Y-118187000D01*
X144640779Y-119207000D02*
X144315221Y-119207000D01*
X166956000Y-118469641D02*
X166956000Y-118162359D01*
X166196000Y-118469641D02*
X166196000Y-118162359D01*
X145679693Y-117680994D02*
X145679693Y-116156994D01*
X144155693Y-116156994D02*
X144155693Y-117680994D01*
X145679693Y-116156994D02*
X144155693Y-116156994D01*
X144155693Y-117680994D02*
X145679693Y-117680994D01*
D15*
X146116093Y-117376194D02*
G75*
G03*
X146116093Y-117376194I-80800J0D01*
G01*
D12*
X148688164Y-110844000D02*
X148903836Y-110844000D01*
X148688164Y-111564000D02*
X148903836Y-111564000D01*
X139412500Y-124174742D02*
X139412500Y-124649258D01*
X138367500Y-124174742D02*
X138367500Y-124649258D01*
X168447940Y-99008341D02*
X168230659Y-98791060D01*
X168985341Y-98470940D02*
X168768060Y-98253659D01*
X138990359Y-105742000D02*
X139297641Y-105742000D01*
X138990359Y-104982000D02*
X139297641Y-104982000D01*
X151061000Y-117192164D02*
X151061000Y-117407836D01*
X150341000Y-117192164D02*
X150341000Y-117407836D01*
X167444000Y-98523164D02*
X167444000Y-98738836D01*
X166724000Y-98523164D02*
X166724000Y-98738836D01*
X149725000Y-92307641D02*
X149725000Y-92000359D01*
X148965000Y-92307641D02*
X148965000Y-92000359D01*
X154139641Y-104308900D02*
X153832359Y-104308900D01*
X154139641Y-105068900D02*
X153832359Y-105068900D01*
X167605580Y-96855000D02*
X167324420Y-96855000D01*
X167605580Y-95835000D02*
X167324420Y-95835000D01*
X154671836Y-119442000D02*
X154456164Y-119442000D01*
X154671836Y-118722000D02*
X154456164Y-118722000D01*
%LPC*%
D18*
X146880000Y-93356000D02*
X146370000Y-93356000D01*
X146370000Y-93356000D02*
X146370000Y-92976000D01*
X146370000Y-92976000D02*
X146880000Y-92976000D01*
X146880000Y-92976000D02*
X146880000Y-93356000D01*
G36*
X146880000Y-93356000D02*
G01*
X146370000Y-93356000D01*
X146370000Y-92976000D01*
X146880000Y-92976000D01*
X146880000Y-93356000D01*
G37*
X146880000Y-93356000D02*
X146370000Y-93356000D01*
X146370000Y-92976000D01*
X146880000Y-92976000D01*
X146880000Y-93356000D01*
X148510000Y-92856000D02*
X148000000Y-92856000D01*
X148000000Y-92856000D02*
X148000000Y-92476000D01*
X148000000Y-92476000D02*
X148510000Y-92476000D01*
X148510000Y-92476000D02*
X148510000Y-92856000D01*
G36*
X148510000Y-92856000D02*
G01*
X148000000Y-92856000D01*
X148000000Y-92476000D01*
X148510000Y-92476000D01*
X148510000Y-92856000D01*
G37*
X148510000Y-92856000D02*
X148000000Y-92856000D01*
X148000000Y-92476000D01*
X148510000Y-92476000D01*
X148510000Y-92856000D01*
X147880000Y-92356000D02*
X147500000Y-92356000D01*
X147500000Y-92356000D02*
X147500000Y-91846000D01*
X147500000Y-91846000D02*
X147880000Y-91846000D01*
X147880000Y-91846000D02*
X147880000Y-92356000D01*
G36*
X147880000Y-92356000D02*
G01*
X147500000Y-92356000D01*
X147500000Y-91846000D01*
X147880000Y-91846000D01*
X147880000Y-92356000D01*
G37*
X147880000Y-92356000D02*
X147500000Y-92356000D01*
X147500000Y-91846000D01*
X147880000Y-91846000D01*
X147880000Y-92356000D01*
X147880000Y-93986000D02*
X147500000Y-93986000D01*
X147500000Y-93986000D02*
X147500000Y-93476000D01*
X147500000Y-93476000D02*
X147880000Y-93476000D01*
X147880000Y-93476000D02*
X147880000Y-93986000D01*
G36*
X147880000Y-93986000D02*
G01*
X147500000Y-93986000D01*
X147500000Y-93476000D01*
X147880000Y-93476000D01*
X147880000Y-93986000D01*
G37*
X147880000Y-93986000D02*
X147500000Y-93986000D01*
X147500000Y-93476000D01*
X147880000Y-93476000D01*
X147880000Y-93986000D01*
X147380000Y-92356000D02*
X147000000Y-92356000D01*
X147000000Y-92356000D02*
X147000000Y-91846000D01*
X147000000Y-91846000D02*
X147380000Y-91846000D01*
X147380000Y-91846000D02*
X147380000Y-92356000D01*
G36*
X147380000Y-92356000D02*
G01*
X147000000Y-92356000D01*
X147000000Y-91846000D01*
X147380000Y-91846000D01*
X147380000Y-92356000D01*
G37*
X147380000Y-92356000D02*
X147000000Y-92356000D01*
X147000000Y-91846000D01*
X147380000Y-91846000D01*
X147380000Y-92356000D01*
X147380000Y-93986000D02*
X147000000Y-93986000D01*
X147000000Y-93986000D02*
X147000000Y-93476000D01*
X147000000Y-93476000D02*
X147380000Y-93476000D01*
X147380000Y-93476000D02*
X147380000Y-93986000D01*
G36*
X147380000Y-93986000D02*
G01*
X147000000Y-93986000D01*
X147000000Y-93476000D01*
X147380000Y-93476000D01*
X147380000Y-93986000D01*
G37*
X147380000Y-93986000D02*
X147000000Y-93986000D01*
X147000000Y-93476000D01*
X147380000Y-93476000D01*
X147380000Y-93986000D01*
X146880000Y-92356000D02*
X146370000Y-92356000D01*
X146370000Y-92356000D02*
X146370000Y-91976000D01*
X146370000Y-91976000D02*
X146880000Y-91976000D01*
X146880000Y-91976000D02*
X146880000Y-92356000D01*
G36*
X146880000Y-92356000D02*
G01*
X146370000Y-92356000D01*
X146370000Y-91976000D01*
X146880000Y-91976000D01*
X146880000Y-92356000D01*
G37*
X146880000Y-92356000D02*
X146370000Y-92356000D01*
X146370000Y-91976000D01*
X146880000Y-91976000D01*
X146880000Y-92356000D01*
X148510000Y-93856000D02*
X148000000Y-93856000D01*
X148000000Y-93856000D02*
X148000000Y-93476000D01*
X148000000Y-93476000D02*
X148510000Y-93476000D01*
X148510000Y-93476000D02*
X148510000Y-93856000D01*
G36*
X148510000Y-93856000D02*
G01*
X148000000Y-93856000D01*
X148000000Y-93476000D01*
X148510000Y-93476000D01*
X148510000Y-93856000D01*
G37*
X148510000Y-93856000D02*
X148000000Y-93856000D01*
X148000000Y-93476000D01*
X148510000Y-93476000D01*
X148510000Y-93856000D01*
X146880000Y-93856000D02*
X146370000Y-93856000D01*
X146370000Y-93856000D02*
X146370000Y-93476000D01*
X146370000Y-93476000D02*
X146880000Y-93476000D01*
X146880000Y-93476000D02*
X146880000Y-93856000D01*
G36*
X146880000Y-93856000D02*
G01*
X146370000Y-93856000D01*
X146370000Y-93476000D01*
X146880000Y-93476000D01*
X146880000Y-93856000D01*
G37*
X146880000Y-93856000D02*
X146370000Y-93856000D01*
X146370000Y-93476000D01*
X146880000Y-93476000D01*
X146880000Y-93856000D01*
X148510000Y-93356000D02*
X148000000Y-93356000D01*
X148000000Y-93356000D02*
X148000000Y-92976000D01*
X148000000Y-92976000D02*
X148510000Y-92976000D01*
X148510000Y-92976000D02*
X148510000Y-93356000D01*
G36*
X148510000Y-93356000D02*
G01*
X148000000Y-93356000D01*
X148000000Y-92976000D01*
X148510000Y-92976000D01*
X148510000Y-93356000D01*
G37*
X148510000Y-93356000D02*
X148000000Y-93356000D01*
X148000000Y-92976000D01*
X148510000Y-92976000D01*
X148510000Y-93356000D01*
X148510000Y-92356000D02*
X148000000Y-92356000D01*
X148000000Y-92356000D02*
X148000000Y-91976000D01*
X148000000Y-91976000D02*
X148510000Y-91976000D01*
X148510000Y-91976000D02*
X148510000Y-92356000D01*
G36*
X148510000Y-92356000D02*
G01*
X148000000Y-92356000D01*
X148000000Y-91976000D01*
X148510000Y-91976000D01*
X148510000Y-92356000D01*
G37*
X148510000Y-92356000D02*
X148000000Y-92356000D01*
X148000000Y-91976000D01*
X148510000Y-91976000D01*
X148510000Y-92356000D01*
X146880000Y-92856000D02*
X146370000Y-92856000D01*
X146370000Y-92856000D02*
X146370000Y-92476000D01*
X146370000Y-92476000D02*
X146880000Y-92476000D01*
X146880000Y-92476000D02*
X146880000Y-92856000D01*
G36*
X146880000Y-92856000D02*
G01*
X146370000Y-92856000D01*
X146370000Y-92476000D01*
X146880000Y-92476000D01*
X146880000Y-92856000D01*
G37*
X146880000Y-92856000D02*
X146370000Y-92856000D01*
X146370000Y-92476000D01*
X146880000Y-92476000D01*
X146880000Y-92856000D01*
D19*
X165179000Y-114885000D03*
X165179000Y-115905000D03*
D20*
X146508000Y-95964000D03*
X147528000Y-95964000D03*
X154509000Y-97742000D03*
X155529000Y-97742000D03*
X138634000Y-104346000D03*
X139654000Y-104346000D03*
D21*
X146396000Y-112347000D03*
X144846000Y-112347000D03*
D22*
X166322000Y-93932000D03*
X167282000Y-93932000D03*
D19*
X140258800Y-112520000D03*
X140258800Y-113540000D03*
X162766000Y-124791000D03*
X162766000Y-125811000D03*
D23*
X166465000Y-115253000D03*
X166465000Y-116553000D03*
X168465000Y-115903000D03*
D24*
X168719000Y-102441000D03*
D25*
X167719000Y-103401000D03*
D26*
X166719000Y-102441000D03*
D25*
X167719000Y-101481000D03*
D27*
X146129000Y-109779000D03*
X146129000Y-108819000D03*
D28*
X154513000Y-108537000D03*
X153493000Y-108537000D03*
D29*
X167550000Y-125800000D03*
X168450000Y-125800000D03*
X168450000Y-124200000D03*
X167550000Y-124200000D03*
D30*
X156147000Y-105981000D03*
X157447000Y-105981000D03*
X156797000Y-103981000D03*
D20*
X132284000Y-119459000D03*
X133304000Y-119459000D03*
D21*
X145126000Y-91265000D03*
X143576000Y-91265000D03*
D31*
X135219000Y-120386000D03*
X135719000Y-120386000D03*
X136219000Y-120386000D03*
X136719000Y-120386000D03*
D32*
X137404000Y-119701000D03*
X137404000Y-119201000D03*
X137404000Y-118701000D03*
X137404000Y-118201000D03*
D31*
X136719000Y-117516000D03*
X136219000Y-117516000D03*
X135719000Y-117516000D03*
X135219000Y-117516000D03*
D32*
X134534000Y-118201000D03*
X134534000Y-118701000D03*
X134534000Y-119201000D03*
X134534000Y-119701000D03*
D33*
X135969000Y-118951000D03*
D27*
X163782000Y-94158000D03*
X163782000Y-93198000D03*
D34*
X156924000Y-92929000D03*
X156924000Y-91379000D03*
D28*
X154513000Y-109807000D03*
X153493000Y-109807000D03*
D27*
X153495000Y-96051000D03*
X153495000Y-95091000D03*
D35*
X149304000Y-108692000D03*
X149304000Y-109652000D03*
D27*
X143462000Y-117399000D03*
X143462000Y-116439000D03*
D19*
X162766000Y-122124000D03*
X162766000Y-123144000D03*
D20*
X138634000Y-102314000D03*
X139654000Y-102314000D03*
D36*
X148529000Y-112474000D03*
X150079000Y-112474000D03*
D37*
X161750000Y-128351000D03*
X161750000Y-127331000D03*
D23*
X164052000Y-124778000D03*
X164052000Y-126078000D03*
X166052000Y-125428000D03*
D35*
X159591000Y-116566000D03*
X159591000Y-117526000D03*
D38*
X144985994Y-93928994D03*
X144985994Y-97998994D03*
X143715994Y-93928994D03*
X143715994Y-97998994D03*
X142445994Y-93928994D03*
X142445994Y-97998994D03*
X141175994Y-93928994D03*
X141175994Y-97998994D03*
X139905994Y-93928994D03*
X139905994Y-97998994D03*
D22*
X146665000Y-91011000D03*
X147625000Y-91011000D03*
D39*
X132900000Y-123000000D03*
X131100000Y-123000000D03*
D40*
X132725000Y-121200000D03*
X131275000Y-121200000D03*
X131275000Y-124800000D03*
X132725000Y-124800000D03*
D20*
X146510000Y-98250000D03*
X147530000Y-98250000D03*
D41*
X147653000Y-109426000D03*
X147653000Y-107526000D03*
D35*
X165179000Y-91547000D03*
X165179000Y-92507000D03*
D42*
X161567000Y-111000000D03*
X161567000Y-109000000D03*
D43*
X167317001Y-106649999D03*
X167317001Y-113350001D03*
D19*
X158702000Y-105868000D03*
X158702000Y-106888000D03*
D21*
X163287000Y-115522000D03*
X161737000Y-115522000D03*
D44*
X146609000Y-111077000D03*
X145649000Y-111077000D03*
D37*
X158702000Y-104856000D03*
X158702000Y-103836000D03*
D35*
X153495000Y-93059000D03*
X153495000Y-94019000D03*
D20*
X154509000Y-96726000D03*
X155529000Y-96726000D03*
D28*
X132437600Y-127355600D03*
X131417600Y-127355600D03*
D37*
X135969000Y-127970000D03*
X135969000Y-126950000D03*
D35*
X164036000Y-98151000D03*
X164036000Y-99111000D03*
D45*
X138890000Y-107381000D03*
X138890000Y-108931000D03*
D34*
X139144000Y-118837000D03*
X139144000Y-117287000D03*
D46*
X166440500Y-91352000D03*
X166440500Y-92702000D03*
X167440500Y-92702000D03*
X167440500Y-91352000D03*
D28*
X151194000Y-103672900D03*
X150174000Y-103672900D03*
D27*
X152479000Y-108636000D03*
X152479000Y-107676000D03*
D47*
X147295000Y-113871000D03*
X148265000Y-113871000D03*
D48*
X156768000Y-95161000D03*
X156768000Y-95561000D03*
X156768000Y-95961000D03*
X156768000Y-96361000D03*
X156768000Y-96761000D03*
X156768000Y-97161000D03*
X156768000Y-97561000D03*
X156768000Y-97961000D03*
X156768000Y-98361000D03*
X156768000Y-98761000D03*
X156768000Y-99161000D03*
X156768000Y-99561000D03*
D49*
X157518000Y-100311000D03*
X157918000Y-100311000D03*
X158318000Y-100311000D03*
X158718000Y-100311000D03*
X159118000Y-100311000D03*
X159518000Y-100311000D03*
X159918000Y-100311000D03*
X160318000Y-100311000D03*
X160718000Y-100311000D03*
X161118000Y-100311000D03*
X161518000Y-100311000D03*
X161918000Y-100311000D03*
D48*
X162668000Y-99561000D03*
X162668000Y-99161000D03*
X162668000Y-98761000D03*
X162668000Y-98361000D03*
X162668000Y-97961000D03*
X162668000Y-97561000D03*
X162668000Y-97161000D03*
X162668000Y-96761000D03*
X162668000Y-96361000D03*
X162668000Y-95961000D03*
X162668000Y-95561000D03*
X162668000Y-95161000D03*
D49*
X161918000Y-94411000D03*
X161518000Y-94411000D03*
X161118000Y-94411000D03*
X160718000Y-94411000D03*
X160318000Y-94411000D03*
X159918000Y-94411000D03*
X159518000Y-94411000D03*
X159118000Y-94411000D03*
X158718000Y-94411000D03*
X158318000Y-94411000D03*
X157918000Y-94411000D03*
X157518000Y-94411000D03*
D50*
X159718000Y-97361000D03*
D51*
X161120500Y-117239000D03*
X161120500Y-118189000D03*
X161120500Y-119139000D03*
X163395500Y-119139000D03*
X163395500Y-117239000D03*
D19*
X168481000Y-126950000D03*
X168481000Y-127970000D03*
D35*
X150430000Y-104716900D03*
X150430000Y-105676900D03*
D44*
X151435000Y-107013000D03*
X150475000Y-107013000D03*
D35*
X152479000Y-109708000D03*
X152479000Y-110668000D03*
D52*
X168000000Y-119611500D03*
X168000000Y-118036500D03*
D22*
X131425000Y-100409000D03*
X132385000Y-100409000D03*
D20*
X134316000Y-121745000D03*
X135336000Y-121745000D03*
D19*
X167338000Y-126950000D03*
X167338000Y-127970000D03*
D53*
X136000000Y-107110000D03*
X136000000Y-112890000D03*
D54*
X137075000Y-106800000D03*
X137075000Y-107600000D03*
D55*
X137075000Y-108750000D03*
X137075000Y-109750000D03*
X137075000Y-110250000D03*
X137075000Y-111250000D03*
D54*
X137075000Y-113200000D03*
X137075000Y-112400000D03*
D55*
X137075000Y-111750000D03*
X137075000Y-110750000D03*
X137075000Y-109250000D03*
X137075000Y-108250000D03*
D56*
X132570000Y-115110000D03*
X136500000Y-115110000D03*
X136500000Y-104890000D03*
X132570000Y-104890000D03*
D34*
X147272000Y-118329000D03*
X147272000Y-116779000D03*
D44*
X148514000Y-106124000D03*
X147554000Y-106124000D03*
D20*
X146508000Y-97107000D03*
X147528000Y-97107000D03*
D57*
X151918000Y-116423000D03*
X151918000Y-116923000D03*
X151918000Y-117423000D03*
X151918000Y-117923000D03*
X154818000Y-117923000D03*
X154818000Y-117423000D03*
X154818000Y-116923000D03*
X154818000Y-116423000D03*
D58*
X153368000Y-117173000D03*
D19*
X162766000Y-127331000D03*
X162766000Y-128351000D03*
D44*
X165278000Y-96599000D03*
X164318000Y-96599000D03*
D23*
X164052000Y-121984000D03*
X164052000Y-123284000D03*
X166052000Y-122634000D03*
D44*
X155420000Y-100457000D03*
X154460000Y-100457000D03*
D22*
X131425000Y-126317000D03*
X132385000Y-126317000D03*
D41*
X141176000Y-118885000D03*
X141176000Y-116985000D03*
D42*
X142517000Y-125666000D03*
X142517000Y-123666000D03*
D43*
X148267001Y-128016001D03*
X148267001Y-121315999D03*
D35*
X158321000Y-92182000D03*
X158321000Y-93142000D03*
D19*
X165179000Y-116917000D03*
X165179000Y-117937000D03*
D59*
X151844000Y-95305000D03*
X151844000Y-93805000D03*
D19*
X161750000Y-122124000D03*
X161750000Y-123144000D03*
D20*
X138634000Y-103330000D03*
X139654000Y-103330000D03*
D34*
X138890000Y-112233000D03*
X138890000Y-110683000D03*
D35*
X133175000Y-117328000D03*
X133175000Y-118288000D03*
X155527000Y-93452000D03*
X155527000Y-94412000D03*
D28*
X154496000Y-105704900D03*
X153476000Y-105704900D03*
D35*
X132032000Y-117328000D03*
X132032000Y-118288000D03*
D37*
X168481000Y-122890000D03*
X168481000Y-121870000D03*
D23*
X164052000Y-127572000D03*
X164052000Y-128872000D03*
X166052000Y-128222000D03*
D60*
X136477000Y-98743000D03*
D61*
X136477000Y-96203000D03*
X136477000Y-93663000D03*
D19*
X140309600Y-107998800D03*
X140309600Y-109018800D03*
D62*
X166045000Y-98123000D03*
X165075000Y-98123000D03*
D45*
X158194000Y-116779000D03*
X158194000Y-118329000D03*
X156342000Y-116783000D03*
X156342000Y-118333000D03*
D28*
X132415000Y-101425000D03*
X131395000Y-101425000D03*
D44*
X169215000Y-100409000D03*
X168255000Y-100409000D03*
D63*
X136973000Y-123012000D03*
X136473000Y-123012000D03*
X135973000Y-123012000D03*
X135473000Y-123012000D03*
X135473000Y-125812000D03*
X135973000Y-125812000D03*
X136473000Y-125812000D03*
X136973000Y-125812000D03*
D64*
X136223000Y-124412000D03*
D45*
X149431000Y-117033000D03*
X149431000Y-118583000D03*
D65*
X151429001Y-105666794D03*
X151779000Y-105666794D03*
X152129002Y-105666794D03*
X152479001Y-105666794D03*
X152479001Y-104726994D03*
X152129002Y-104726994D03*
X151779000Y-104726994D03*
X151429001Y-104726994D03*
D19*
X161750000Y-124791000D03*
X161750000Y-125811000D03*
D39*
X131100000Y-97000000D03*
X132900000Y-97000000D03*
D40*
X132725000Y-95200000D03*
X131275000Y-95200000D03*
X131275000Y-98800000D03*
X132725000Y-98800000D03*
D66*
X145265500Y-118697000D03*
X143690500Y-118697000D03*
D37*
X166576000Y-118826000D03*
X166576000Y-117806000D03*
D67*
X145317693Y-117318994D03*
X144917693Y-117318994D03*
X144517693Y-117318994D03*
X145317693Y-116918994D03*
X144917693Y-116918994D03*
X144517693Y-116918994D03*
X145317693Y-116518994D03*
X144917693Y-116518994D03*
X144517693Y-116518994D03*
D22*
X148316000Y-111204000D03*
X149276000Y-111204000D03*
D68*
X138890000Y-123587000D03*
X138890000Y-125237000D03*
D69*
X168968624Y-98991624D03*
X168247376Y-98270376D03*
D20*
X138634000Y-105362000D03*
X139654000Y-105362000D03*
D35*
X150701000Y-116820000D03*
X150701000Y-117780000D03*
X167084000Y-98151000D03*
X167084000Y-99111000D03*
D37*
X149345000Y-92664000D03*
X149345000Y-91644000D03*
D28*
X154496000Y-104688900D03*
X153476000Y-104688900D03*
D21*
X168240000Y-96345000D03*
X166690000Y-96345000D03*
D44*
X155044000Y-119082000D03*
X154084000Y-119082000D03*
M02*
