M48
; DRILL file {KiCad (6.0.0)} date Sat Jun 18 15:13:52 2022
; FORMAT={-:-/ absolute / metric / decimal}
; #@! TF.CreationDate,2022-06-18T15:13:52-07:00
; #@! TF.GenerationSoftware,Kicad,Pcbnew,(6.0.0)
; #@! TF.FileFunction,Plated,1,4,PTH
FMAT,2
METRIC
; #@! TA.AperFunction,Plated,PTH,ViaDrill
T1C0.200
; #@! TA.AperFunction,Plated,PTH,ComponentDrill
T2C1.000
%
G90
G05
T1
X130.708Y-92.151
X130.708Y-100.025
X130.708Y-117.45
X130.81Y-112.116
X130.861Y-103.734
X130.861Y-107.594
X130.962Y-129.083
X131.369Y-91.491
X131.524Y-118.316
X131.778Y-119.459
X131.877Y-110.642
X131.978Y-90.83
X132.232Y-92.151
X132.74Y-127.914
X132.794Y-118.824
X132.893Y-126.34
X133.35Y-111.608
X133.502Y-120.65
X133.502Y-125.07
X133.858Y-112.827
X134.315Y-122.377
X134.468Y-102.311
X134.569Y-100.635
X134.569Y-128.829
X135.026Y-98.908
X135.331Y-107.696
X135.334Y-123.904
X135.334Y-124.92
X135.433Y-127.864
X135.461Y-118.443
X135.461Y-119.459
X135.992Y-108.966
X136.093Y-111.557
X136.469Y-122.126
X136.477Y-118.443
X136.477Y-119.459
X136.754Y-127.406
X137.112Y-120.094
X137.112Y-123.904
X137.112Y-124.92
X137.264Y-117.529
X137.566Y-126.34
X137.871Y-90.78
X137.973Y-92.1
X138.074Y-114.452
X138.227Y-95.961
X138.255Y-118.697
X138.278Y-129.337
X138.379Y-99.822
X138.43Y-98.044
X138.887Y-109.779
X138.938Y-90.83
X139.09Y-113.436
X139.144Y-116.538
X139.652Y-105.87
X139.852Y-96.063
X139.903Y-92.202
X139.903Y-123.342
X140.106Y-99.822
X140.106Y-118.008
X140.16Y-116.919
X140.259Y-124.663
X140.36Y-115.57
X140.922Y-100.224
X141.122Y-116.18
X141.224Y-126.441
X141.376Y-119.837
X141.557Y-104.854
X141.63Y-100.635
X141.834Y-120.752
X142.189Y-129.032
X142.192Y-103.203
X142.494Y-95.656
X142.951Y-91.796
X142.951Y-127.203
X143.002Y-102.464
X143.462Y-115.903
X143.612Y-114.96
X143.713Y-102.819
X143.713Y-119.837
X144.018Y-92.253
X144.069Y-122.276
X144.17Y-105.308
X144.17Y-107.798
X144.17Y-111.1
X144.17Y-113.64
X144.221Y-103.53
X144.605Y-125.682
X144.678Y-114.757
X144.678Y-120.396
X144.729Y-115.773
X144.831Y-106.629
X144.831Y-109.88
X144.831Y-129.184
X145.085Y-92.202
X145.694Y-104.292
X145.847Y-119.634
X146.129Y-116.919
X146.129Y-118.697
X146.383Y-108.156
X146.637Y-110.569
X146.71Y-115.011
X147.066Y-94.945
X147.653Y-94.313
X147.78Y-110.823
X147.93Y-99.111
X147.933Y-110.241
X148.031Y-116.738
X148.161Y-95.583
X148.336Y-103.53
X148.539Y-90.83
X148.669Y-96.091
X148.796Y-93.297
X148.796Y-107.013
X148.895Y-92.304
X149.149Y-114.046
X149.177Y-100.028
X149.352Y-103.53
X149.431Y-119.332
X149.685Y-108.283
X149.957Y-97.384
X149.962Y-95.047
X150.012Y-109.474
X150.317Y-102.768
X150.368Y-129.134
X150.447Y-106.251
X150.574Y-100.536
X150.774Y-91.44
X151.079Y-120.345
X151.082Y-105.616
X151.209Y-117.935
X151.435Y-102.646
X151.717Y-100.028
X151.971Y-109.807
X151.994Y-113.944
X152.044Y-91.999
X152.098Y-108.791
X152.11Y-103.064
X152.245Y-103.711
X152.4Y-98.631
X152.86Y-117.173
X152.987Y-96.472
X153.01Y-103.835
X153.035Y-100.203
X153.06Y-107.798
X153.114Y-104.727
X153.467Y-106.426
X153.495Y-92.408
X153.622Y-119.586
X153.772Y-110.541
X153.876Y-96.98
X153.876Y-117.173
X153.924Y-100.076
X154.638Y-98.25
X154.686Y-102.362
X155.019Y-93.043
X155.346Y-111.912
X155.4Y-103.965
X155.448Y-104.851
X155.448Y-129.083
X155.527Y-98.504
X155.702Y-128.219
X155.804Y-110.49
X155.854Y-99.67
X155.866Y-102.229
X155.978Y-98.922
X156.159Y-125.628
X156.21Y-121.209
X156.261Y-115.672
X156.289Y-91.9
X156.289Y-119.078
X156.362Y-93.726
X156.82Y-106.02
X156.87Y-100.127
X157.175Y-116.027
X157.175Y-120.447
X157.813Y-95.456
X157.813Y-97.361
X157.813Y-99.266
X157.937Y-104.648
X158.039Y-121.666
X158.09Y-125.984
X158.194Y-119.078
X158.445Y-114.91
X158.902Y-101.651
X159.011Y-93.015
X159.106Y-111.963
X159.161Y-105.301
X159.207Y-110.642
X159.233Y-107.209
X159.315Y-104.441
X159.563Y-91.144
X159.587Y-101.677
X159.591Y-118.062
X159.664Y-129.235
X159.718Y-95.456
X159.718Y-97.361
X159.718Y-99.266
X159.984Y-101.194
X160.02Y-91.694
X160.226Y-118.316
X160.274Y-104.86
X160.376Y-93.269
X160.63Y-101.702
X160.685Y-92.753
X160.884Y-104.343
X160.985Y-91.491
X161.087Y-119.99
X161.29Y-101.397
X161.623Y-95.456
X161.623Y-97.361
X161.623Y-99.266
X161.696Y-103.53
X161.696Y-121.361
X161.739Y-92.913
X161.9Y-101.651
X162.204Y-91.135
X162.306Y-103.48
X162.687Y-100.028
X163.017Y-103.429
X163.364Y-101.143
X163.401Y-123.142
X163.401Y-125.936
X163.401Y-128.73
X163.678Y-106.832
X163.779Y-102.311
X163.782Y-92.662
X163.909Y-113.871
X163.982Y-108.001
X163.982Y-125.425
X164.036Y-99.647
X164.186Y-115.722
X164.287Y-102.921
X164.389Y-100.432
X164.49Y-128.219
X164.541Y-93.37
X164.541Y-119.888
X164.671Y-97.361
X164.671Y-113.236
X164.798Y-91.011
X165.052Y-99.012
X165.1Y-108.763
X165.1Y-112.624
X165.1Y-129.337
X165.151Y-122.072
X165.179Y-118.443
X165.252Y-124.206
X165.941Y-94.44
X165.941Y-97.361
X166.195Y-99.012
X166.218Y-126.441
X166.37Y-103.378
X166.675Y-108.356
X166.929Y-95.352
X167.084Y-97.361
X167.084Y-116.284
X167.437Y-104.961
X167.592Y-123.523
X167.699Y-121.31
X167.973Y-99.393
X168.046Y-105.207
X168.227Y-97.361
X168.504Y-104.546
X169.012Y-91.288
X169.012Y-128.93
X169.062Y-114.808
X169.113Y-93.878
X169.164Y-104.445
X169.215Y-96.063
X169.215Y-116.586
X169.215Y-118.161
X169.215Y-124.308
X169.243Y-98.123
X169.243Y-103.203
X169.266Y-123.546
T2
X136.477Y-93.663
X136.477Y-96.203
X136.477Y-98.743
T0
M30
