G04 #@! TF.GenerationSoftware,KiCad,Pcbnew,(6.0.0)*
G04 #@! TF.CreationDate,2022-06-18T15:13:31-07:00*
G04 #@! TF.ProjectId,max86141_Rev_A,6d617838-3631-4343-915f-5265765f412e,A*
G04 #@! TF.SameCoordinates,Original*
G04 #@! TF.FileFunction,Copper,L2,Inr*
G04 #@! TF.FilePolarity,Positive*
%FSLAX46Y46*%
G04 Gerber Fmt 4.6, Leading zero omitted, Abs format (unit mm)*
G04 Created by KiCad (PCBNEW (6.0.0)) date 2022-06-18 15:13:31*
%MOMM*%
%LPD*%
G01*
G04 APERTURE LIST*
G04 #@! TA.AperFunction,ComponentPad*
%ADD10R,1.700000X1.700000*%
G04 #@! TD*
G04 #@! TA.AperFunction,ComponentPad*
%ADD11O,1.700000X1.700000*%
G04 #@! TD*
G04 #@! TA.AperFunction,ViaPad*
%ADD12C,0.450000*%
G04 #@! TD*
G04 APERTURE END LIST*
D10*
X136477000Y-98743000D03*
D11*
X136477000Y-96203000D03*
X136477000Y-93663000D03*
D12*
X150368000Y-129133600D03*
X169243000Y-98123000D03*
X131524000Y-118316000D03*
X163782000Y-92662000D03*
X161696400Y-121361200D03*
X160985200Y-91490800D03*
X143462000Y-115903000D03*
X133858000Y-112826800D03*
X149148800Y-114046000D03*
X158038800Y-121666000D03*
X165179000Y-118443000D03*
X144170400Y-107797600D03*
X132794000Y-118824000D03*
X151993600Y-113944400D03*
X163401000Y-125936000D03*
X168227000Y-97361000D03*
X159718000Y-97361000D03*
X157813000Y-99266000D03*
X144068800Y-122275600D03*
X141833600Y-120751600D03*
X161623000Y-99266000D03*
X130708400Y-92151200D03*
X130708400Y-100025200D03*
X137112000Y-120094000D03*
X169214800Y-96062800D03*
X138277600Y-129336800D03*
X148031200Y-116738400D03*
X153495000Y-92408000D03*
X161623000Y-97361000D03*
X132892800Y-126339600D03*
X138379200Y-99822000D03*
X130860800Y-103733600D03*
X134569200Y-100634800D03*
X156159200Y-125628400D03*
X144170400Y-113639600D03*
X137871200Y-90779600D03*
X169011600Y-128930400D03*
X144729200Y-115773200D03*
X156210000Y-121208800D03*
X169011600Y-91287600D03*
X157937200Y-104648000D03*
X134315200Y-122377200D03*
X161086800Y-119989600D03*
X141224000Y-126441200D03*
X159010900Y-93014800D03*
X156362400Y-93726000D03*
X166370000Y-103378000D03*
X158194000Y-119078000D03*
X132232400Y-92151200D03*
X146710400Y-115011200D03*
X156260800Y-115671600D03*
X137112000Y-124920000D03*
X156289000Y-119078000D03*
X147066000Y-94945200D03*
X136477000Y-118443000D03*
X140160000Y-116919000D03*
X169214800Y-116586000D03*
X157813000Y-97361000D03*
X159718000Y-95456000D03*
X151209000Y-117935000D03*
X135334000Y-124920000D03*
X141122400Y-116179600D03*
X169214800Y-124307600D03*
X158089600Y-125984000D03*
X143713200Y-119837200D03*
X135991600Y-108966000D03*
X134467600Y-102311200D03*
X147929600Y-99110800D03*
X165150800Y-122072400D03*
X135331200Y-107696000D03*
X153924000Y-100076000D03*
X165941000Y-94440000D03*
X153622000Y-119586000D03*
X166195000Y-99012000D03*
X140106400Y-118008400D03*
X144170400Y-105308400D03*
X142494000Y-95656400D03*
X135026400Y-98907600D03*
X136093200Y-111556800D03*
X166928800Y-95351600D03*
X164490400Y-128219200D03*
X133502400Y-125069600D03*
X165052000Y-99012000D03*
X135334000Y-123904000D03*
X133502400Y-120650000D03*
X144170400Y-111099600D03*
X130962400Y-129082800D03*
X149961600Y-95046800D03*
X140258800Y-124663200D03*
X159591000Y-118062000D03*
X150447000Y-106251000D03*
X130810000Y-112115600D03*
X165941000Y-97361000D03*
X131778000Y-119459000D03*
X138887200Y-109778800D03*
X139852400Y-96062800D03*
X155448000Y-129082800D03*
X149431000Y-119332000D03*
X136477000Y-119459000D03*
X164036000Y-99647000D03*
X150774400Y-91440000D03*
X133350000Y-111607600D03*
X156819600Y-106019600D03*
X138226800Y-95961200D03*
X163982400Y-125425200D03*
X151082000Y-105616000D03*
X139144000Y-116538000D03*
X167973000Y-99393000D03*
X164798000Y-91011000D03*
X137112000Y-123904000D03*
X140360400Y-115570000D03*
X135461000Y-118443000D03*
X155448000Y-104851200D03*
X136753600Y-127406400D03*
X169243000Y-103203000D03*
X139903200Y-92202000D03*
X149352000Y-103530400D03*
X144018000Y-92252800D03*
X167084000Y-97361000D03*
X163017200Y-103428800D03*
X153876000Y-117173000D03*
X137972800Y-92100400D03*
X164541200Y-119888000D03*
X163401000Y-123142000D03*
X169113200Y-93878400D03*
X155019000Y-93043000D03*
X145694400Y-104292400D03*
X142951200Y-91795600D03*
X145846800Y-119634000D03*
X152860000Y-117173000D03*
X155346400Y-111912400D03*
X169214800Y-118160800D03*
X139903200Y-123342400D03*
X138430000Y-98044000D03*
X135461000Y-119459000D03*
X157813000Y-95456000D03*
X144830800Y-129184400D03*
X141376400Y-119837200D03*
X144605000Y-125682000D03*
X137566400Y-126339600D03*
X134569200Y-128828800D03*
X164671000Y-97361000D03*
X131978400Y-90830400D03*
X159664400Y-129235200D03*
X160226000Y-118316000D03*
X166217600Y-126441200D03*
X161623000Y-95456000D03*
X159105600Y-111963200D03*
X159718000Y-99266000D03*
X164541200Y-93370400D03*
X139090400Y-113436400D03*
X163401000Y-128730000D03*
X167084000Y-116284000D03*
X152987000Y-96472000D03*
X130860800Y-107594400D03*
X156289000Y-91900000D03*
X144830800Y-106629200D03*
X157175200Y-120446800D03*
X145084800Y-92202000D03*
X158445200Y-114909600D03*
X156870400Y-100126800D03*
X147933450Y-110240986D03*
X155702000Y-128219200D03*
X135432800Y-127863600D03*
X160685276Y-92752673D03*
X169265600Y-123545600D03*
X157175200Y-116027200D03*
X132740400Y-127914400D03*
X159161247Y-105300761D03*
X148894800Y-92303600D03*
X167592000Y-123523000D03*
X144830800Y-109880400D03*
X144678400Y-114757200D03*
X151079200Y-120345200D03*
X160629600Y-101701600D03*
X143611600Y-114960400D03*
X148336000Y-103530400D03*
X149957500Y-97383600D03*
X155978433Y-98922233D03*
X138074400Y-114452400D03*
X144221200Y-103530400D03*
X130708400Y-117449600D03*
X131876800Y-110642400D03*
X148539200Y-90830400D03*
X138938000Y-90830400D03*
X162204400Y-91135200D03*
X163364200Y-101142800D03*
X131368800Y-91490800D03*
X144678400Y-120396000D03*
X146637000Y-110569000D03*
X164185600Y-115722400D03*
X166674800Y-108356400D03*
X147780000Y-110823000D03*
X152098000Y-108791000D03*
X151971000Y-109807000D03*
X148796000Y-107013000D03*
X146383000Y-108156000D03*
X149685000Y-108283000D03*
X146129000Y-116919000D03*
X146129000Y-118697000D03*
X159207200Y-110642400D03*
X150012400Y-109474000D03*
X153771600Y-110540800D03*
X155803600Y-110490000D03*
X153060400Y-107797600D03*
X155400000Y-103965000D03*
X155527000Y-98504000D03*
X147653000Y-94313000D03*
X152244799Y-103711000D03*
X136469100Y-122126000D03*
X141630400Y-100634800D03*
X142192000Y-103203000D03*
X148161000Y-95583000D03*
X153035000Y-100203000D03*
X153876000Y-96980000D03*
X164287200Y-102920800D03*
X164388800Y-100431600D03*
X151434800Y-102646280D03*
X151717000Y-100028000D03*
X155865800Y-102229200D03*
X163779200Y-102311200D03*
X155854400Y-99669600D03*
X162687000Y-100028000D03*
X152109923Y-103064189D03*
X161290000Y-101396800D03*
X161696400Y-103530400D03*
X152400000Y-98631000D03*
X160375600Y-93268800D03*
X143713200Y-102819200D03*
X150317200Y-102768400D03*
X142951200Y-127203200D03*
X154686000Y-102362000D03*
X142189200Y-129032000D03*
X154638000Y-98250000D03*
X143002000Y-102463600D03*
X148669000Y-96091000D03*
X148796000Y-93297000D03*
X153009600Y-103835200D03*
X159562800Y-91143800D03*
X149177000Y-100028000D03*
X139652000Y-105870000D03*
X137263688Y-117529312D03*
X140106400Y-99822000D03*
X141557000Y-104854000D03*
X140922000Y-100224300D03*
X150574000Y-100536000D03*
X160020000Y-91694000D03*
X138255000Y-118697000D03*
X161899600Y-101650800D03*
X169062400Y-114808000D03*
X169164000Y-104444800D03*
X162306000Y-103479600D03*
X158902400Y-101650800D03*
X159315255Y-104440573D03*
X165100000Y-129336800D03*
X168046400Y-105206800D03*
X167436800Y-104961400D03*
X159587371Y-101677029D03*
X160274000Y-104859811D03*
X165252400Y-124206000D03*
X168503600Y-104546400D03*
X159983800Y-101193600D03*
X160883600Y-104343200D03*
X167699400Y-121310400D03*
X163909000Y-113871000D03*
X153466800Y-106426000D03*
X163982400Y-108000800D03*
X153114000Y-104727000D03*
X163677600Y-106832400D03*
X164671000Y-113236000D03*
X165100000Y-108762800D03*
X165100000Y-112623600D03*
X159232600Y-107209300D03*
X161738600Y-92913200D03*
X152044400Y-91998800D03*
G04 #@! TA.AperFunction,Conductor*
G36*
X138724080Y-90398593D02*
G01*
X138749800Y-90443142D01*
X138740867Y-90493800D01*
X138719946Y-90517036D01*
X138718378Y-90518175D01*
X138713107Y-90520861D01*
X138628461Y-90605507D01*
X138574115Y-90712167D01*
X138555389Y-90830400D01*
X138574115Y-90948633D01*
X138628461Y-91055293D01*
X138713107Y-91139939D01*
X138718383Y-91142627D01*
X138718384Y-91142628D01*
X138732160Y-91149647D01*
X138819767Y-91194285D01*
X138938000Y-91213011D01*
X139056233Y-91194285D01*
X139143840Y-91149647D01*
X139157616Y-91142628D01*
X139157617Y-91142627D01*
X139162893Y-91139939D01*
X139247539Y-91055293D01*
X139301885Y-90948633D01*
X139320611Y-90830400D01*
X139301885Y-90712167D01*
X139247539Y-90605507D01*
X139162893Y-90520861D01*
X139157622Y-90518175D01*
X139156054Y-90517036D01*
X139127291Y-90474389D01*
X139132670Y-90423231D01*
X139169675Y-90387500D01*
X139200258Y-90381000D01*
X148276942Y-90381000D01*
X148325280Y-90398593D01*
X148351000Y-90443142D01*
X148342067Y-90493800D01*
X148321146Y-90517036D01*
X148319578Y-90518175D01*
X148314307Y-90520861D01*
X148229661Y-90605507D01*
X148175315Y-90712167D01*
X148156589Y-90830400D01*
X148175315Y-90948633D01*
X148229661Y-91055293D01*
X148314307Y-91139939D01*
X148319583Y-91142627D01*
X148319584Y-91142628D01*
X148333360Y-91149647D01*
X148420967Y-91194285D01*
X148539200Y-91213011D01*
X148657433Y-91194285D01*
X148745040Y-91149647D01*
X148756516Y-91143800D01*
X159180189Y-91143800D01*
X159198915Y-91262033D01*
X159224063Y-91311389D01*
X159233605Y-91330115D01*
X159253261Y-91368693D01*
X159337907Y-91453339D01*
X159444567Y-91507685D01*
X159450414Y-91508611D01*
X159556953Y-91525485D01*
X159562800Y-91526411D01*
X159568647Y-91525485D01*
X159574564Y-91525485D01*
X159574564Y-91528163D01*
X159614815Y-91535997D01*
X159647178Y-91575981D01*
X159650343Y-91612211D01*
X159637389Y-91694000D01*
X159656115Y-91812233D01*
X159710461Y-91918893D01*
X159795107Y-92003539D01*
X159901767Y-92057885D01*
X159907614Y-92058811D01*
X160006779Y-92074517D01*
X160020000Y-92076611D01*
X160033222Y-92074517D01*
X160132386Y-92058811D01*
X160138233Y-92057885D01*
X160244893Y-92003539D01*
X160329539Y-91918893D01*
X160383885Y-91812233D01*
X160402611Y-91694000D01*
X160383885Y-91575767D01*
X160349667Y-91508611D01*
X160332228Y-91474384D01*
X160332227Y-91474383D01*
X160329539Y-91469107D01*
X160244893Y-91384461D01*
X160205292Y-91364283D01*
X160186711Y-91354816D01*
X160138233Y-91330115D01*
X160020000Y-91311389D01*
X160014153Y-91312315D01*
X160008236Y-91312315D01*
X160008236Y-91309637D01*
X159967985Y-91301803D01*
X159935622Y-91261819D01*
X159932457Y-91225589D01*
X159944485Y-91149647D01*
X159945411Y-91143800D01*
X159944049Y-91135200D01*
X161821789Y-91135200D01*
X161840515Y-91253433D01*
X161843202Y-91258706D01*
X161880956Y-91332802D01*
X161894861Y-91360093D01*
X161979507Y-91444739D01*
X161984783Y-91447427D01*
X161984784Y-91447428D01*
X162027332Y-91469107D01*
X162086167Y-91499085D01*
X162204400Y-91517811D01*
X162322633Y-91499085D01*
X162381468Y-91469107D01*
X162424016Y-91447428D01*
X162424017Y-91447427D01*
X162429293Y-91444739D01*
X162513939Y-91360093D01*
X162527845Y-91332802D01*
X162565598Y-91258706D01*
X162568285Y-91253433D01*
X162587011Y-91135200D01*
X162568285Y-91016967D01*
X162513939Y-90910307D01*
X162429293Y-90825661D01*
X162322633Y-90771315D01*
X162204400Y-90752589D01*
X162086167Y-90771315D01*
X161979507Y-90825661D01*
X161894861Y-90910307D01*
X161840515Y-91016967D01*
X161821789Y-91135200D01*
X159944049Y-91135200D01*
X159926685Y-91025567D01*
X159872339Y-90918907D01*
X159787693Y-90834261D01*
X159780116Y-90830400D01*
X159737987Y-90808935D01*
X159681033Y-90779915D01*
X159562800Y-90761189D01*
X159444567Y-90779915D01*
X159387613Y-90808935D01*
X159345485Y-90830400D01*
X159337907Y-90834261D01*
X159253261Y-90918907D01*
X159198915Y-91025567D01*
X159180189Y-91143800D01*
X148756516Y-91143800D01*
X148758816Y-91142628D01*
X148758817Y-91142627D01*
X148764093Y-91139939D01*
X148848739Y-91055293D01*
X148903085Y-90948633D01*
X148921811Y-90830400D01*
X148903085Y-90712167D01*
X148848739Y-90605507D01*
X148764093Y-90520861D01*
X148758822Y-90518175D01*
X148757254Y-90517036D01*
X148728491Y-90474389D01*
X148733870Y-90423231D01*
X148770875Y-90387500D01*
X148801458Y-90381000D01*
X168964099Y-90381000D01*
X168975862Y-90381926D01*
X169000000Y-90385749D01*
X169007457Y-90384568D01*
X169027640Y-90384114D01*
X169129324Y-90395571D01*
X169145735Y-90399316D01*
X169214079Y-90423231D01*
X169260575Y-90439501D01*
X169275746Y-90446807D01*
X169319644Y-90474389D01*
X169378769Y-90511540D01*
X169391934Y-90522040D01*
X169477960Y-90608066D01*
X169488460Y-90621231D01*
X169553193Y-90724253D01*
X169560499Y-90739425D01*
X169575608Y-90782602D01*
X169600683Y-90854262D01*
X169604429Y-90870676D01*
X169615886Y-90972360D01*
X169615432Y-90992543D01*
X169614251Y-91000000D01*
X169615177Y-91005846D01*
X169618074Y-91024137D01*
X169619000Y-91035901D01*
X169619000Y-104192159D01*
X169601407Y-104240497D01*
X169556858Y-104266217D01*
X169506200Y-104257284D01*
X169480046Y-104229724D01*
X169479706Y-104229971D01*
X169477828Y-104227387D01*
X169476797Y-104226300D01*
X169476230Y-104225187D01*
X169476228Y-104225184D01*
X169473539Y-104219907D01*
X169388893Y-104135261D01*
X169282233Y-104080915D01*
X169223117Y-104071552D01*
X169169847Y-104063115D01*
X169164000Y-104062189D01*
X169158153Y-104063115D01*
X169104883Y-104071552D01*
X169045767Y-104080915D01*
X168939107Y-104135261D01*
X168854461Y-104219907D01*
X168851772Y-104225184D01*
X168848294Y-104229971D01*
X168846470Y-104228646D01*
X168815597Y-104257443D01*
X168764228Y-104260142D01*
X168737697Y-104244202D01*
X168737463Y-104244524D01*
X168733788Y-104241854D01*
X168733031Y-104241399D01*
X168728493Y-104236861D01*
X168712371Y-104228646D01*
X168636313Y-104189893D01*
X168621833Y-104182515D01*
X168503600Y-104163789D01*
X168385367Y-104182515D01*
X168370887Y-104189893D01*
X168294830Y-104228646D01*
X168278707Y-104236861D01*
X168194061Y-104321507D01*
X168191373Y-104326783D01*
X168191372Y-104326784D01*
X168189830Y-104329811D01*
X168139715Y-104428167D01*
X168120989Y-104546400D01*
X168121915Y-104552247D01*
X168128938Y-104596589D01*
X168139715Y-104664633D01*
X168169338Y-104722771D01*
X168175607Y-104773827D01*
X168147591Y-104816968D01*
X168098399Y-104832008D01*
X168090575Y-104831186D01*
X168046400Y-104824189D01*
X168040553Y-104825115D01*
X168002228Y-104831185D01*
X167928167Y-104842915D01*
X167922894Y-104845602D01*
X167922893Y-104845602D01*
X167893862Y-104860394D01*
X167842805Y-104866663D01*
X167799664Y-104838646D01*
X167792718Y-104827530D01*
X167749028Y-104741784D01*
X167749027Y-104741783D01*
X167746339Y-104736507D01*
X167661693Y-104651861D01*
X167628441Y-104634918D01*
X167608812Y-104624917D01*
X167555033Y-104597515D01*
X167436800Y-104578789D01*
X167318567Y-104597515D01*
X167264788Y-104624917D01*
X167245160Y-104634918D01*
X167211907Y-104651861D01*
X167127261Y-104736507D01*
X167124573Y-104741783D01*
X167124572Y-104741784D01*
X167107402Y-104775483D01*
X167072915Y-104843167D01*
X167071989Y-104849014D01*
X167056531Y-104946616D01*
X167054189Y-104961400D01*
X167072915Y-105079633D01*
X167127261Y-105186293D01*
X167211907Y-105270939D01*
X167318567Y-105325285D01*
X167436800Y-105344011D01*
X167555033Y-105325285D01*
X167567003Y-105319186D01*
X167589338Y-105307806D01*
X167640395Y-105301537D01*
X167683536Y-105329554D01*
X167690482Y-105340670D01*
X167733077Y-105424267D01*
X167736861Y-105431693D01*
X167821507Y-105516339D01*
X167826783Y-105519027D01*
X167826784Y-105519028D01*
X167848012Y-105529844D01*
X167928167Y-105570685D01*
X168046400Y-105589411D01*
X168164633Y-105570685D01*
X168244788Y-105529844D01*
X168266016Y-105519028D01*
X168266017Y-105519027D01*
X168271293Y-105516339D01*
X168355939Y-105431693D01*
X168362410Y-105418994D01*
X168401087Y-105343085D01*
X168410285Y-105325033D01*
X168423516Y-105241496D01*
X168428085Y-105212647D01*
X168429011Y-105206800D01*
X168423506Y-105172039D01*
X168411211Y-105094414D01*
X168410285Y-105088567D01*
X168380662Y-105030428D01*
X168374393Y-104979373D01*
X168402409Y-104936232D01*
X168451601Y-104921192D01*
X168459425Y-104922014D01*
X168503600Y-104929011D01*
X168621833Y-104910285D01*
X168707446Y-104866663D01*
X168723216Y-104858628D01*
X168723217Y-104858627D01*
X168728493Y-104855939D01*
X168813139Y-104771293D01*
X168815828Y-104766016D01*
X168819306Y-104761229D01*
X168821130Y-104762554D01*
X168852003Y-104733757D01*
X168903372Y-104731058D01*
X168929903Y-104746998D01*
X168930137Y-104746676D01*
X168933812Y-104749346D01*
X168934569Y-104749801D01*
X168939107Y-104754339D01*
X168944383Y-104757027D01*
X168944384Y-104757028D01*
X168972381Y-104771293D01*
X169045767Y-104808685D01*
X169164000Y-104827411D01*
X169282233Y-104808685D01*
X169355619Y-104771293D01*
X169383616Y-104757028D01*
X169383617Y-104757027D01*
X169388893Y-104754339D01*
X169473539Y-104669693D01*
X169476228Y-104664416D01*
X169476230Y-104664413D01*
X169476797Y-104663300D01*
X169477546Y-104662601D01*
X169479706Y-104659629D01*
X169480284Y-104660049D01*
X169514418Y-104628219D01*
X169565787Y-104625527D01*
X169606869Y-104656485D01*
X169619000Y-104697441D01*
X169619000Y-123183020D01*
X169601407Y-123231358D01*
X169556858Y-123257078D01*
X169506200Y-123248145D01*
X169499812Y-123243243D01*
X169499463Y-123243724D01*
X169494682Y-123240250D01*
X169490493Y-123236061D01*
X169383833Y-123181715D01*
X169265600Y-123162989D01*
X169147367Y-123181715D01*
X169040707Y-123236061D01*
X168956061Y-123320707D01*
X168901715Y-123427367D01*
X168882989Y-123545600D01*
X168901715Y-123663833D01*
X168904402Y-123669106D01*
X168946681Y-123752083D01*
X168956061Y-123770493D01*
X169040707Y-123855139D01*
X169147367Y-123909485D01*
X169265600Y-123928211D01*
X169383833Y-123909485D01*
X169490493Y-123855139D01*
X169494683Y-123850949D01*
X169499463Y-123847476D01*
X169501313Y-123850022D01*
X169537246Y-123833266D01*
X169586933Y-123846580D01*
X169616438Y-123888717D01*
X169619000Y-123908180D01*
X169619000Y-128964099D01*
X169618074Y-128975862D01*
X169614251Y-129000000D01*
X169615177Y-129005847D01*
X169615432Y-129007456D01*
X169615886Y-129027640D01*
X169606864Y-129107717D01*
X169604430Y-129129321D01*
X169600684Y-129145735D01*
X169563634Y-129251616D01*
X169560499Y-129260575D01*
X169553193Y-129275746D01*
X169510164Y-129344228D01*
X169488460Y-129378769D01*
X169477960Y-129391934D01*
X169391934Y-129477960D01*
X169378769Y-129488460D01*
X169275747Y-129553193D01*
X169260575Y-129560499D01*
X169145735Y-129600684D01*
X169129324Y-129604429D01*
X169027640Y-129615886D01*
X169007457Y-129615432D01*
X169000000Y-129614251D01*
X168975863Y-129618074D01*
X168964099Y-129619000D01*
X165503055Y-129619000D01*
X165454717Y-129601407D01*
X165428997Y-129556858D01*
X165436051Y-129509660D01*
X165461198Y-129460306D01*
X165463885Y-129455033D01*
X165482611Y-129336800D01*
X165463885Y-129218567D01*
X165409539Y-129111907D01*
X165324893Y-129027261D01*
X165218233Y-128972915D01*
X165100000Y-128954189D01*
X164981767Y-128972915D01*
X164875107Y-129027261D01*
X164790461Y-129111907D01*
X164736115Y-129218567D01*
X164717389Y-129336800D01*
X164736115Y-129455033D01*
X164738802Y-129460306D01*
X164763949Y-129509660D01*
X164770218Y-129560716D01*
X164742202Y-129603857D01*
X164696945Y-129619000D01*
X131035901Y-129619000D01*
X131024137Y-129618074D01*
X131000000Y-129614251D01*
X130992543Y-129615432D01*
X130972360Y-129615886D01*
X130870676Y-129604429D01*
X130854265Y-129600684D01*
X130739425Y-129560499D01*
X130724253Y-129553193D01*
X130621231Y-129488460D01*
X130608066Y-129477960D01*
X130522040Y-129391934D01*
X130511540Y-129378769D01*
X130489837Y-129344228D01*
X130446807Y-129275746D01*
X130439501Y-129260575D01*
X130436366Y-129251616D01*
X130399316Y-129145735D01*
X130395570Y-129129321D01*
X130393136Y-129107717D01*
X130384605Y-129032000D01*
X141806589Y-129032000D01*
X141825315Y-129150233D01*
X141879661Y-129256893D01*
X141964307Y-129341539D01*
X142070967Y-129395885D01*
X142189200Y-129414611D01*
X142307433Y-129395885D01*
X142414093Y-129341539D01*
X142498739Y-129256893D01*
X142553085Y-129150233D01*
X142571811Y-129032000D01*
X142553085Y-128913767D01*
X142498739Y-128807107D01*
X142414093Y-128722461D01*
X142307433Y-128668115D01*
X142189200Y-128649389D01*
X142070967Y-128668115D01*
X141964307Y-128722461D01*
X141879661Y-128807107D01*
X141825315Y-128913767D01*
X141806589Y-129032000D01*
X130384605Y-129032000D01*
X130384114Y-129027640D01*
X130384568Y-129007456D01*
X130384823Y-129005847D01*
X130385749Y-129000000D01*
X130381926Y-128975862D01*
X130381000Y-128964099D01*
X130381000Y-127914400D01*
X132357789Y-127914400D01*
X132376515Y-128032633D01*
X132430861Y-128139293D01*
X132515507Y-128223939D01*
X132520783Y-128226627D01*
X132520784Y-128226628D01*
X132557401Y-128245285D01*
X132622167Y-128278285D01*
X132740400Y-128297011D01*
X132858633Y-128278285D01*
X132923399Y-128245285D01*
X132960016Y-128226628D01*
X132960017Y-128226627D01*
X132965293Y-128223939D01*
X133049939Y-128139293D01*
X133104285Y-128032633D01*
X133123011Y-127914400D01*
X133114965Y-127863600D01*
X135050189Y-127863600D01*
X135068915Y-127981833D01*
X135123261Y-128088493D01*
X135207907Y-128173139D01*
X135314567Y-128227485D01*
X135432800Y-128246211D01*
X135551033Y-128227485D01*
X135567293Y-128219200D01*
X155319389Y-128219200D01*
X155338115Y-128337433D01*
X155392461Y-128444093D01*
X155477107Y-128528739D01*
X155583767Y-128583085D01*
X155702000Y-128601811D01*
X155820233Y-128583085D01*
X155926893Y-128528739D01*
X156011539Y-128444093D01*
X156065885Y-128337433D01*
X156084611Y-128219200D01*
X156065885Y-128100967D01*
X156011539Y-127994307D01*
X155926893Y-127909661D01*
X155820233Y-127855315D01*
X155702000Y-127836589D01*
X155583767Y-127855315D01*
X155477107Y-127909661D01*
X155392461Y-127994307D01*
X155338115Y-128100967D01*
X155319389Y-128219200D01*
X135567293Y-128219200D01*
X135657693Y-128173139D01*
X135742339Y-128088493D01*
X135796685Y-127981833D01*
X135815411Y-127863600D01*
X135796685Y-127745367D01*
X135742339Y-127638707D01*
X135657693Y-127554061D01*
X135648917Y-127549589D01*
X135576594Y-127512739D01*
X135551033Y-127499715D01*
X135432800Y-127480989D01*
X135314567Y-127499715D01*
X135289006Y-127512739D01*
X135216684Y-127549589D01*
X135207907Y-127554061D01*
X135123261Y-127638707D01*
X135068915Y-127745367D01*
X135050189Y-127863600D01*
X133114965Y-127863600D01*
X133104285Y-127796167D01*
X133049939Y-127689507D01*
X132965293Y-127604861D01*
X132858633Y-127550515D01*
X132740400Y-127531789D01*
X132622167Y-127550515D01*
X132515507Y-127604861D01*
X132430861Y-127689507D01*
X132376515Y-127796167D01*
X132357789Y-127914400D01*
X130381000Y-127914400D01*
X130381000Y-127203200D01*
X142568589Y-127203200D01*
X142587315Y-127321433D01*
X142641661Y-127428093D01*
X142726307Y-127512739D01*
X142832967Y-127567085D01*
X142951200Y-127585811D01*
X143069433Y-127567085D01*
X143176093Y-127512739D01*
X143260739Y-127428093D01*
X143315085Y-127321433D01*
X143333811Y-127203200D01*
X143315085Y-127084967D01*
X143260739Y-126978307D01*
X143176093Y-126893661D01*
X143069433Y-126839315D01*
X142951200Y-126820589D01*
X142832967Y-126839315D01*
X142726307Y-126893661D01*
X142641661Y-126978307D01*
X142587315Y-127084967D01*
X142568589Y-127203200D01*
X130381000Y-127203200D01*
X130381000Y-124206000D01*
X164869789Y-124206000D01*
X164888515Y-124324233D01*
X164942861Y-124430893D01*
X165027507Y-124515539D01*
X165134167Y-124569885D01*
X165252400Y-124588611D01*
X165370633Y-124569885D01*
X165477293Y-124515539D01*
X165561939Y-124430893D01*
X165616285Y-124324233D01*
X165635011Y-124206000D01*
X165616285Y-124087767D01*
X165561939Y-123981107D01*
X165477293Y-123896461D01*
X165460317Y-123887811D01*
X165396194Y-123855139D01*
X165370633Y-123842115D01*
X165252400Y-123823389D01*
X165134167Y-123842115D01*
X165108606Y-123855139D01*
X165044484Y-123887811D01*
X165027507Y-123896461D01*
X164942861Y-123981107D01*
X164888515Y-124087767D01*
X164869789Y-124206000D01*
X130381000Y-124206000D01*
X130381000Y-123523000D01*
X167209389Y-123523000D01*
X167228115Y-123641233D01*
X167282461Y-123747893D01*
X167367107Y-123832539D01*
X167372383Y-123835227D01*
X167372384Y-123835228D01*
X167401419Y-123850022D01*
X167473767Y-123886885D01*
X167592000Y-123905611D01*
X167710233Y-123886885D01*
X167782581Y-123850022D01*
X167811616Y-123835228D01*
X167811617Y-123835227D01*
X167816893Y-123832539D01*
X167901539Y-123747893D01*
X167955885Y-123641233D01*
X167974611Y-123523000D01*
X167955885Y-123404767D01*
X167913054Y-123320707D01*
X167904228Y-123303384D01*
X167904227Y-123303383D01*
X167901539Y-123298107D01*
X167816893Y-123213461D01*
X167805118Y-123207461D01*
X167767187Y-123188135D01*
X167710233Y-123159115D01*
X167592000Y-123140389D01*
X167473767Y-123159115D01*
X167416813Y-123188135D01*
X167378883Y-123207461D01*
X167367107Y-123213461D01*
X167282461Y-123298107D01*
X167279773Y-123303383D01*
X167279772Y-123303384D01*
X167270946Y-123320707D01*
X167228115Y-123404767D01*
X167209389Y-123523000D01*
X130381000Y-123523000D01*
X130381000Y-123068953D01*
X130596630Y-123068953D01*
X130636215Y-123207461D01*
X130639071Y-123211987D01*
X130639072Y-123211990D01*
X130693408Y-123298107D01*
X130713084Y-123329291D01*
X130717097Y-123332835D01*
X130817041Y-123421103D01*
X130817044Y-123421105D01*
X130821057Y-123424649D01*
X130951454Y-123485871D01*
X130956744Y-123486695D01*
X130956745Y-123486695D01*
X130987089Y-123491419D01*
X131060825Y-123502900D01*
X131136107Y-123502900D01*
X131176743Y-123497080D01*
X131237296Y-123488409D01*
X131237300Y-123488408D01*
X131242599Y-123487649D01*
X131247473Y-123485433D01*
X131247476Y-123485432D01*
X131362323Y-123433214D01*
X131373734Y-123428026D01*
X131377794Y-123424528D01*
X131478810Y-123337487D01*
X131478813Y-123337484D01*
X131482864Y-123333993D01*
X131488847Y-123324763D01*
X131558303Y-123217604D01*
X131558303Y-123217603D01*
X131561215Y-123213111D01*
X131602490Y-123075098D01*
X131602528Y-123068953D01*
X132396630Y-123068953D01*
X132436215Y-123207461D01*
X132439071Y-123211987D01*
X132439072Y-123211990D01*
X132493408Y-123298107D01*
X132513084Y-123329291D01*
X132517097Y-123332835D01*
X132617041Y-123421103D01*
X132617044Y-123421105D01*
X132621057Y-123424649D01*
X132751454Y-123485871D01*
X132756744Y-123486695D01*
X132756745Y-123486695D01*
X132787089Y-123491419D01*
X132860825Y-123502900D01*
X132936107Y-123502900D01*
X132976743Y-123497080D01*
X133037296Y-123488409D01*
X133037300Y-123488408D01*
X133042599Y-123487649D01*
X133047473Y-123485433D01*
X133047476Y-123485432D01*
X133162323Y-123433214D01*
X133173734Y-123428026D01*
X133177794Y-123424528D01*
X133278810Y-123337487D01*
X133278813Y-123337484D01*
X133282864Y-123333993D01*
X133288847Y-123324763D01*
X133358303Y-123217604D01*
X133358303Y-123217603D01*
X133361215Y-123213111D01*
X133402490Y-123075098D01*
X133402561Y-123063598D01*
X133403337Y-122936402D01*
X133403370Y-122931047D01*
X133363785Y-122792539D01*
X133360929Y-122788013D01*
X133360928Y-122788010D01*
X133289773Y-122675237D01*
X133286916Y-122670709D01*
X133267693Y-122653732D01*
X133182959Y-122578897D01*
X133182956Y-122578895D01*
X133178943Y-122575351D01*
X133048546Y-122514129D01*
X133043256Y-122513305D01*
X133043255Y-122513305D01*
X133012911Y-122508581D01*
X132939175Y-122497100D01*
X132863893Y-122497100D01*
X132823257Y-122502920D01*
X132762704Y-122511591D01*
X132762700Y-122511592D01*
X132757401Y-122512351D01*
X132752527Y-122514567D01*
X132752524Y-122514568D01*
X132675128Y-122549758D01*
X132626266Y-122571974D01*
X132622208Y-122575471D01*
X132622206Y-122575472D01*
X132521190Y-122662513D01*
X132521187Y-122662516D01*
X132517136Y-122666007D01*
X132438785Y-122786889D01*
X132397510Y-122924902D01*
X132397477Y-122930257D01*
X132397477Y-122930259D01*
X132397079Y-122995476D01*
X132396630Y-123068953D01*
X131602528Y-123068953D01*
X131602561Y-123063598D01*
X131603337Y-122936402D01*
X131603370Y-122931047D01*
X131563785Y-122792539D01*
X131560929Y-122788013D01*
X131560928Y-122788010D01*
X131489773Y-122675237D01*
X131486916Y-122670709D01*
X131467693Y-122653732D01*
X131382959Y-122578897D01*
X131382956Y-122578895D01*
X131378943Y-122575351D01*
X131248546Y-122514129D01*
X131243256Y-122513305D01*
X131243255Y-122513305D01*
X131212911Y-122508581D01*
X131139175Y-122497100D01*
X131063893Y-122497100D01*
X131023257Y-122502920D01*
X130962704Y-122511591D01*
X130962700Y-122511592D01*
X130957401Y-122512351D01*
X130952527Y-122514567D01*
X130952524Y-122514568D01*
X130875128Y-122549758D01*
X130826266Y-122571974D01*
X130822208Y-122575471D01*
X130822206Y-122575472D01*
X130721190Y-122662513D01*
X130721187Y-122662516D01*
X130717136Y-122666007D01*
X130638785Y-122786889D01*
X130597510Y-122924902D01*
X130597477Y-122930257D01*
X130597477Y-122930259D01*
X130597079Y-122995476D01*
X130596630Y-123068953D01*
X130381000Y-123068953D01*
X130381000Y-122126000D01*
X136086489Y-122126000D01*
X136105215Y-122244233D01*
X136159561Y-122350893D01*
X136244207Y-122435539D01*
X136350867Y-122489885D01*
X136469100Y-122508611D01*
X136587333Y-122489885D01*
X136693993Y-122435539D01*
X136778639Y-122350893D01*
X136832985Y-122244233D01*
X136851711Y-122126000D01*
X136832985Y-122007767D01*
X136778639Y-121901107D01*
X136693993Y-121816461D01*
X136587333Y-121762115D01*
X136469100Y-121743389D01*
X136350867Y-121762115D01*
X136244207Y-121816461D01*
X136159561Y-121901107D01*
X136105215Y-122007767D01*
X136086489Y-122126000D01*
X130381000Y-122126000D01*
X130381000Y-121310400D01*
X167316789Y-121310400D01*
X167335515Y-121428633D01*
X167389861Y-121535293D01*
X167474507Y-121619939D01*
X167581167Y-121674285D01*
X167699400Y-121693011D01*
X167817633Y-121674285D01*
X167924293Y-121619939D01*
X168008939Y-121535293D01*
X168063285Y-121428633D01*
X168082011Y-121310400D01*
X168063285Y-121192167D01*
X168008939Y-121085507D01*
X167924293Y-121000861D01*
X167817633Y-120946515D01*
X167699400Y-120927789D01*
X167581167Y-120946515D01*
X167474507Y-121000861D01*
X167389861Y-121085507D01*
X167335515Y-121192167D01*
X167316789Y-121310400D01*
X130381000Y-121310400D01*
X130381000Y-120396000D01*
X144295789Y-120396000D01*
X144314515Y-120514233D01*
X144368861Y-120620893D01*
X144453507Y-120705539D01*
X144458783Y-120708227D01*
X144458784Y-120708228D01*
X144495401Y-120726885D01*
X144560167Y-120759885D01*
X144678400Y-120778611D01*
X144796633Y-120759885D01*
X144861399Y-120726885D01*
X144898016Y-120708228D01*
X144898017Y-120708227D01*
X144903293Y-120705539D01*
X144987939Y-120620893D01*
X145042285Y-120514233D01*
X145061011Y-120396000D01*
X145052965Y-120345200D01*
X150696589Y-120345200D01*
X150715315Y-120463433D01*
X150718002Y-120468706D01*
X150764104Y-120559186D01*
X150769661Y-120570093D01*
X150854307Y-120654739D01*
X150960967Y-120709085D01*
X151079200Y-120727811D01*
X151197433Y-120709085D01*
X151304093Y-120654739D01*
X151388739Y-120570093D01*
X151394297Y-120559186D01*
X151440398Y-120468706D01*
X151443085Y-120463433D01*
X151445719Y-120446800D01*
X156792589Y-120446800D01*
X156793515Y-120452647D01*
X156801952Y-120505917D01*
X156811315Y-120565033D01*
X156814002Y-120570306D01*
X156858393Y-120657428D01*
X156865661Y-120671693D01*
X156950307Y-120756339D01*
X156955583Y-120759027D01*
X156955584Y-120759028D01*
X156992201Y-120777685D01*
X157056967Y-120810685D01*
X157175200Y-120829411D01*
X157293433Y-120810685D01*
X157358199Y-120777685D01*
X157394816Y-120759028D01*
X157394817Y-120759027D01*
X157400093Y-120756339D01*
X157484739Y-120671693D01*
X157492008Y-120657428D01*
X157536398Y-120570306D01*
X157539085Y-120565033D01*
X157548448Y-120505917D01*
X157556885Y-120452647D01*
X157557811Y-120446800D01*
X157539085Y-120328567D01*
X157510065Y-120271613D01*
X157487428Y-120227184D01*
X157487427Y-120227183D01*
X157484739Y-120221907D01*
X157400093Y-120137261D01*
X157293433Y-120082915D01*
X157175200Y-120064189D01*
X157056967Y-120082915D01*
X156950307Y-120137261D01*
X156865661Y-120221907D01*
X156862973Y-120227183D01*
X156862972Y-120227184D01*
X156840335Y-120271613D01*
X156811315Y-120328567D01*
X156792589Y-120446800D01*
X151445719Y-120446800D01*
X151461811Y-120345200D01*
X151458342Y-120323294D01*
X151444011Y-120232814D01*
X151443085Y-120226967D01*
X151412488Y-120166917D01*
X151391428Y-120125584D01*
X151391427Y-120125583D01*
X151388739Y-120120307D01*
X151304093Y-120035661D01*
X151295317Y-120031189D01*
X151254387Y-120010335D01*
X151197433Y-119981315D01*
X151079200Y-119962589D01*
X150960967Y-119981315D01*
X150904013Y-120010335D01*
X150863084Y-120031189D01*
X150854307Y-120035661D01*
X150769661Y-120120307D01*
X150766973Y-120125583D01*
X150766972Y-120125584D01*
X150745912Y-120166917D01*
X150715315Y-120226967D01*
X150714389Y-120232814D01*
X150700059Y-120323294D01*
X150696589Y-120345200D01*
X145052965Y-120345200D01*
X145042285Y-120277767D01*
X144987939Y-120171107D01*
X144903293Y-120086461D01*
X144894517Y-120081989D01*
X144853587Y-120061135D01*
X144796633Y-120032115D01*
X144678400Y-120013389D01*
X144560167Y-120032115D01*
X144503213Y-120061135D01*
X144462284Y-120081989D01*
X144453507Y-120086461D01*
X144368861Y-120171107D01*
X144314515Y-120277767D01*
X144295789Y-120396000D01*
X130381000Y-120396000D01*
X130381000Y-118697000D01*
X137872389Y-118697000D01*
X137891115Y-118815233D01*
X137945461Y-118921893D01*
X138030107Y-119006539D01*
X138136767Y-119060885D01*
X138255000Y-119079611D01*
X138373233Y-119060885D01*
X138479893Y-119006539D01*
X138564539Y-118921893D01*
X138618885Y-118815233D01*
X138637611Y-118697000D01*
X145746389Y-118697000D01*
X145765115Y-118815233D01*
X145819461Y-118921893D01*
X145904107Y-119006539D01*
X146010767Y-119060885D01*
X146129000Y-119079611D01*
X146247233Y-119060885D01*
X146353893Y-119006539D01*
X146438539Y-118921893D01*
X146492885Y-118815233D01*
X146511611Y-118697000D01*
X146492885Y-118578767D01*
X146438539Y-118472107D01*
X146353893Y-118387461D01*
X146247233Y-118333115D01*
X146129000Y-118314389D01*
X146010767Y-118333115D01*
X145904107Y-118387461D01*
X145819461Y-118472107D01*
X145765115Y-118578767D01*
X145746389Y-118697000D01*
X138637611Y-118697000D01*
X138618885Y-118578767D01*
X138564539Y-118472107D01*
X138479893Y-118387461D01*
X138373233Y-118333115D01*
X138255000Y-118314389D01*
X138136767Y-118333115D01*
X138030107Y-118387461D01*
X137945461Y-118472107D01*
X137891115Y-118578767D01*
X137872389Y-118697000D01*
X130381000Y-118697000D01*
X130381000Y-117829625D01*
X130398593Y-117781287D01*
X130443142Y-117755567D01*
X130490340Y-117762621D01*
X130584893Y-117810798D01*
X130590167Y-117813485D01*
X130708400Y-117832211D01*
X130826633Y-117813485D01*
X130889825Y-117781287D01*
X130928016Y-117761828D01*
X130928017Y-117761827D01*
X130933293Y-117759139D01*
X131017939Y-117674493D01*
X131072285Y-117567833D01*
X131078386Y-117529312D01*
X136881077Y-117529312D01*
X136899803Y-117647545D01*
X136954149Y-117754205D01*
X137038795Y-117838851D01*
X137145455Y-117893197D01*
X137263688Y-117911923D01*
X137381921Y-117893197D01*
X137488581Y-117838851D01*
X137573227Y-117754205D01*
X137627573Y-117647545D01*
X137646299Y-117529312D01*
X137627573Y-117411079D01*
X137573227Y-117304419D01*
X137488581Y-117219773D01*
X137381921Y-117165427D01*
X137263688Y-117146701D01*
X137145455Y-117165427D01*
X137038795Y-117219773D01*
X136954149Y-117304419D01*
X136899803Y-117411079D01*
X136881077Y-117529312D01*
X131078386Y-117529312D01*
X131091011Y-117449600D01*
X131072285Y-117331367D01*
X131017939Y-117224707D01*
X130933293Y-117140061D01*
X130926460Y-117136579D01*
X130883587Y-117114735D01*
X130826633Y-117085715D01*
X130708400Y-117066989D01*
X130590167Y-117085715D01*
X130584894Y-117088402D01*
X130584893Y-117088402D01*
X130490340Y-117136579D01*
X130439283Y-117142848D01*
X130396142Y-117114831D01*
X130381000Y-117069575D01*
X130381000Y-116919000D01*
X145746389Y-116919000D01*
X145765115Y-117037233D01*
X145819461Y-117143893D01*
X145904107Y-117228539D01*
X146010767Y-117282885D01*
X146129000Y-117301611D01*
X146247233Y-117282885D01*
X146353893Y-117228539D01*
X146438539Y-117143893D01*
X146492885Y-117037233D01*
X146511611Y-116919000D01*
X146492885Y-116800767D01*
X146438539Y-116694107D01*
X146353893Y-116609461D01*
X146247233Y-116555115D01*
X146129000Y-116536389D01*
X146010767Y-116555115D01*
X145904107Y-116609461D01*
X145819461Y-116694107D01*
X145765115Y-116800767D01*
X145746389Y-116919000D01*
X130381000Y-116919000D01*
X130381000Y-116027200D01*
X156792589Y-116027200D01*
X156811315Y-116145433D01*
X156865661Y-116252093D01*
X156950307Y-116336739D01*
X157056967Y-116391085D01*
X157175200Y-116409811D01*
X157293433Y-116391085D01*
X157400093Y-116336739D01*
X157484739Y-116252093D01*
X157539085Y-116145433D01*
X157557811Y-116027200D01*
X157539085Y-115908967D01*
X157484739Y-115802307D01*
X157404832Y-115722400D01*
X163802989Y-115722400D01*
X163821715Y-115840633D01*
X163876061Y-115947293D01*
X163960707Y-116031939D01*
X164067367Y-116086285D01*
X164185600Y-116105011D01*
X164303833Y-116086285D01*
X164410493Y-116031939D01*
X164495139Y-115947293D01*
X164549485Y-115840633D01*
X164568211Y-115722400D01*
X164549485Y-115604167D01*
X164495139Y-115497507D01*
X164410493Y-115412861D01*
X164303833Y-115358515D01*
X164185600Y-115339789D01*
X164067367Y-115358515D01*
X163960707Y-115412861D01*
X163876061Y-115497507D01*
X163821715Y-115604167D01*
X163802989Y-115722400D01*
X157404832Y-115722400D01*
X157400093Y-115717661D01*
X157293433Y-115663315D01*
X157175200Y-115644589D01*
X157056967Y-115663315D01*
X156950307Y-115717661D01*
X156865661Y-115802307D01*
X156811315Y-115908967D01*
X156792589Y-116027200D01*
X130381000Y-116027200D01*
X130381000Y-114960400D01*
X143228989Y-114960400D01*
X143247715Y-115078633D01*
X143302061Y-115185293D01*
X143386707Y-115269939D01*
X143391983Y-115272627D01*
X143391984Y-115272628D01*
X143428601Y-115291285D01*
X143493367Y-115324285D01*
X143611600Y-115343011D01*
X143729833Y-115324285D01*
X143794599Y-115291285D01*
X143831216Y-115272628D01*
X143831217Y-115272627D01*
X143836493Y-115269939D01*
X143921139Y-115185293D01*
X143975485Y-115078633D01*
X143994211Y-114960400D01*
X143987874Y-114920386D01*
X143976411Y-114848014D01*
X143975485Y-114842167D01*
X143932192Y-114757200D01*
X144295789Y-114757200D01*
X144296715Y-114763047D01*
X144302909Y-114802153D01*
X144314515Y-114875433D01*
X144368861Y-114982093D01*
X144453507Y-115066739D01*
X144560167Y-115121085D01*
X144678400Y-115139811D01*
X144796633Y-115121085D01*
X144903293Y-115066739D01*
X144987939Y-114982093D01*
X145024876Y-114909600D01*
X158062589Y-114909600D01*
X158063515Y-114915447D01*
X158069709Y-114954553D01*
X158081315Y-115027833D01*
X158084002Y-115033106D01*
X158128393Y-115120228D01*
X158135661Y-115134493D01*
X158220307Y-115219139D01*
X158326967Y-115273485D01*
X158445200Y-115292211D01*
X158563433Y-115273485D01*
X158670093Y-115219139D01*
X158754739Y-115134493D01*
X158762008Y-115120228D01*
X158806398Y-115033106D01*
X158809085Y-115027833D01*
X158820691Y-114954553D01*
X158826885Y-114915447D01*
X158827811Y-114909600D01*
X158821474Y-114869586D01*
X158811719Y-114808000D01*
X168679789Y-114808000D01*
X168680715Y-114813847D01*
X168689152Y-114867116D01*
X168698515Y-114926233D01*
X168701202Y-114931506D01*
X168747304Y-115021986D01*
X168752861Y-115032893D01*
X168837507Y-115117539D01*
X168842783Y-115120227D01*
X168842784Y-115120228D01*
X168860424Y-115129216D01*
X168944167Y-115171885D01*
X169062400Y-115190611D01*
X169180633Y-115171885D01*
X169264376Y-115129216D01*
X169282016Y-115120228D01*
X169282017Y-115120227D01*
X169287293Y-115117539D01*
X169371939Y-115032893D01*
X169377497Y-115021986D01*
X169423598Y-114931506D01*
X169426285Y-114926233D01*
X169435648Y-114867116D01*
X169444085Y-114813847D01*
X169445011Y-114808000D01*
X169441542Y-114786094D01*
X169427211Y-114695614D01*
X169426285Y-114689767D01*
X169397265Y-114632813D01*
X169374628Y-114588384D01*
X169374627Y-114588383D01*
X169371939Y-114583107D01*
X169287293Y-114498461D01*
X169180633Y-114444115D01*
X169062400Y-114425389D01*
X168944167Y-114444115D01*
X168837507Y-114498461D01*
X168752861Y-114583107D01*
X168750173Y-114588383D01*
X168750172Y-114588384D01*
X168727535Y-114632813D01*
X168698515Y-114689767D01*
X168697589Y-114695614D01*
X168683259Y-114786094D01*
X168679789Y-114808000D01*
X158811719Y-114808000D01*
X158810011Y-114797214D01*
X158809085Y-114791367D01*
X158778488Y-114731317D01*
X158757428Y-114689984D01*
X158757427Y-114689983D01*
X158754739Y-114684707D01*
X158670093Y-114600061D01*
X158661317Y-114595589D01*
X158600862Y-114564786D01*
X158563433Y-114545715D01*
X158445200Y-114526989D01*
X158326967Y-114545715D01*
X158289538Y-114564786D01*
X158229084Y-114595589D01*
X158220307Y-114600061D01*
X158135661Y-114684707D01*
X158132973Y-114689983D01*
X158132972Y-114689984D01*
X158111912Y-114731317D01*
X158081315Y-114791367D01*
X158080389Y-114797214D01*
X158068927Y-114869586D01*
X158062589Y-114909600D01*
X145024876Y-114909600D01*
X145042285Y-114875433D01*
X145053891Y-114802153D01*
X145060085Y-114763047D01*
X145061011Y-114757200D01*
X145042285Y-114638967D01*
X144987939Y-114532307D01*
X144903293Y-114447661D01*
X144894517Y-114443189D01*
X144853587Y-114422335D01*
X144796633Y-114393315D01*
X144678400Y-114374589D01*
X144560167Y-114393315D01*
X144503213Y-114422335D01*
X144462284Y-114443189D01*
X144453507Y-114447661D01*
X144368861Y-114532307D01*
X144314515Y-114638967D01*
X144295789Y-114757200D01*
X143932192Y-114757200D01*
X143921139Y-114735507D01*
X143836493Y-114650861D01*
X143729833Y-114596515D01*
X143611600Y-114577789D01*
X143493367Y-114596515D01*
X143386707Y-114650861D01*
X143302061Y-114735507D01*
X143247715Y-114842167D01*
X143246789Y-114848014D01*
X143235327Y-114920386D01*
X143228989Y-114960400D01*
X130381000Y-114960400D01*
X130381000Y-114452400D01*
X137691789Y-114452400D01*
X137710515Y-114570633D01*
X137764861Y-114677293D01*
X137849507Y-114761939D01*
X137956167Y-114816285D01*
X138074400Y-114835011D01*
X138192633Y-114816285D01*
X138299293Y-114761939D01*
X138383939Y-114677293D01*
X138438285Y-114570633D01*
X138457011Y-114452400D01*
X138438285Y-114334167D01*
X138388170Y-114235811D01*
X138386628Y-114232784D01*
X138386627Y-114232783D01*
X138383939Y-114227507D01*
X138299293Y-114142861D01*
X138192633Y-114088515D01*
X138074400Y-114069789D01*
X137956167Y-114088515D01*
X137849507Y-114142861D01*
X137764861Y-114227507D01*
X137762173Y-114232783D01*
X137762172Y-114232784D01*
X137760630Y-114235811D01*
X137710515Y-114334167D01*
X137691789Y-114452400D01*
X130381000Y-114452400D01*
X130381000Y-113871000D01*
X163526389Y-113871000D01*
X163545115Y-113989233D01*
X163547802Y-113994506D01*
X163595702Y-114088515D01*
X163599461Y-114095893D01*
X163684107Y-114180539D01*
X163790767Y-114234885D01*
X163909000Y-114253611D01*
X164027233Y-114234885D01*
X164133893Y-114180539D01*
X164218539Y-114095893D01*
X164222299Y-114088515D01*
X164270198Y-113994506D01*
X164272885Y-113989233D01*
X164291611Y-113871000D01*
X164272885Y-113752767D01*
X164218539Y-113646107D01*
X164133893Y-113561461D01*
X164102645Y-113545539D01*
X164084187Y-113536135D01*
X164027233Y-113507115D01*
X163909000Y-113488389D01*
X163790767Y-113507115D01*
X163733813Y-113536135D01*
X163715356Y-113545539D01*
X163684107Y-113561461D01*
X163599461Y-113646107D01*
X163545115Y-113752767D01*
X163526389Y-113871000D01*
X130381000Y-113871000D01*
X130381000Y-112955525D01*
X135521653Y-112955525D01*
X135559271Y-113087148D01*
X135632319Y-113202921D01*
X135734924Y-113293539D01*
X135739771Y-113295815D01*
X135739773Y-113295816D01*
X135746485Y-113298967D01*
X135858839Y-113351717D01*
X135904890Y-113358887D01*
X135959906Y-113367454D01*
X135959911Y-113367454D01*
X135962773Y-113367900D01*
X136034312Y-113367900D01*
X136072981Y-113362362D01*
X136130207Y-113354167D01*
X136130211Y-113354166D01*
X136135510Y-113353407D01*
X136140384Y-113351191D01*
X136140387Y-113351190D01*
X136213652Y-113317878D01*
X136260126Y-113296748D01*
X136323842Y-113241847D01*
X136330628Y-113236000D01*
X164288389Y-113236000D01*
X164307115Y-113354233D01*
X164361461Y-113460893D01*
X164446107Y-113545539D01*
X164451383Y-113548227D01*
X164451384Y-113548228D01*
X164485579Y-113565651D01*
X164552767Y-113599885D01*
X164671000Y-113618611D01*
X164789233Y-113599885D01*
X164856421Y-113565651D01*
X164890616Y-113548228D01*
X164890617Y-113548227D01*
X164895893Y-113545539D01*
X164980539Y-113460893D01*
X165034885Y-113354233D01*
X165053611Y-113236000D01*
X165034885Y-113117767D01*
X165032198Y-113112493D01*
X165030369Y-113106864D01*
X165032256Y-113106251D01*
X165027015Y-113063570D01*
X165055030Y-113020428D01*
X165098317Y-113005944D01*
X165100000Y-113006211D01*
X165218233Y-112987485D01*
X165324893Y-112933139D01*
X165409539Y-112848493D01*
X165414289Y-112839172D01*
X165458017Y-112753349D01*
X165463885Y-112741833D01*
X165482611Y-112623600D01*
X165463885Y-112505367D01*
X165434865Y-112448413D01*
X165412228Y-112403984D01*
X165412227Y-112403983D01*
X165409539Y-112398707D01*
X165324893Y-112314061D01*
X165218233Y-112259715D01*
X165100000Y-112240989D01*
X164981767Y-112259715D01*
X164875107Y-112314061D01*
X164790461Y-112398707D01*
X164787773Y-112403983D01*
X164787772Y-112403984D01*
X164765135Y-112448413D01*
X164736115Y-112505367D01*
X164717389Y-112623600D01*
X164736115Y-112741833D01*
X164738802Y-112747106D01*
X164740631Y-112752736D01*
X164738744Y-112753349D01*
X164743985Y-112796030D01*
X164715970Y-112839172D01*
X164672683Y-112853656D01*
X164671000Y-112853389D01*
X164552767Y-112872115D01*
X164446107Y-112926461D01*
X164361461Y-113011107D01*
X164358773Y-113016383D01*
X164358772Y-113016384D01*
X164336135Y-113060813D01*
X164307115Y-113117767D01*
X164288389Y-113236000D01*
X136330628Y-113236000D01*
X136359777Y-113210884D01*
X136359780Y-113210881D01*
X136363831Y-113207390D01*
X136438288Y-113092517D01*
X136464376Y-113005285D01*
X136475976Y-112966498D01*
X136475976Y-112966495D01*
X136477511Y-112961364D01*
X136477580Y-112950171D01*
X136478200Y-112848493D01*
X136478347Y-112824475D01*
X136440729Y-112692852D01*
X136367681Y-112577079D01*
X136265076Y-112486461D01*
X136260229Y-112484185D01*
X136260227Y-112484184D01*
X136207183Y-112459280D01*
X136141161Y-112428283D01*
X136095110Y-112421113D01*
X136040094Y-112412546D01*
X136040089Y-112412546D01*
X136037227Y-112412100D01*
X135965688Y-112412100D01*
X135927019Y-112417638D01*
X135869793Y-112425833D01*
X135869789Y-112425834D01*
X135864490Y-112426593D01*
X135859616Y-112428809D01*
X135859613Y-112428810D01*
X135786348Y-112462122D01*
X135739874Y-112483252D01*
X135707423Y-112511214D01*
X135640223Y-112569116D01*
X135640220Y-112569119D01*
X135636169Y-112572610D01*
X135561712Y-112687483D01*
X135558567Y-112698000D01*
X135529250Y-112796030D01*
X135522489Y-112818636D01*
X135522456Y-112823991D01*
X135522456Y-112823993D01*
X135522281Y-112852683D01*
X135521653Y-112955525D01*
X130381000Y-112955525D01*
X130381000Y-110642400D01*
X131494189Y-110642400D01*
X131495115Y-110648247D01*
X131500364Y-110681386D01*
X131512915Y-110760633D01*
X131515602Y-110765906D01*
X131559993Y-110853028D01*
X131567261Y-110867293D01*
X131651907Y-110951939D01*
X131758567Y-111006285D01*
X131876800Y-111025011D01*
X131995033Y-111006285D01*
X132101693Y-110951939D01*
X132186339Y-110867293D01*
X132193608Y-110853028D01*
X132237998Y-110765906D01*
X132240685Y-110760633D01*
X132253236Y-110681386D01*
X132258485Y-110648247D01*
X132259411Y-110642400D01*
X132253074Y-110602386D01*
X132247786Y-110569000D01*
X146254389Y-110569000D01*
X146273115Y-110687233D01*
X146327461Y-110793893D01*
X146412107Y-110878539D01*
X146518767Y-110932885D01*
X146637000Y-110951611D01*
X146755233Y-110932885D01*
X146861893Y-110878539D01*
X146917432Y-110823000D01*
X147397389Y-110823000D01*
X147416115Y-110941233D01*
X147470461Y-111047893D01*
X147555107Y-111132539D01*
X147661767Y-111186885D01*
X147780000Y-111205611D01*
X147898233Y-111186885D01*
X148004893Y-111132539D01*
X148089539Y-111047893D01*
X148143885Y-110941233D01*
X148162611Y-110823000D01*
X148143885Y-110704767D01*
X148118613Y-110655168D01*
X148112344Y-110604112D01*
X148140360Y-110560971D01*
X148151472Y-110554027D01*
X148153062Y-110553217D01*
X148153067Y-110553213D01*
X148158343Y-110550525D01*
X148168068Y-110540800D01*
X153388989Y-110540800D01*
X153407715Y-110659033D01*
X153422084Y-110687233D01*
X153456504Y-110754786D01*
X153462061Y-110765693D01*
X153546707Y-110850339D01*
X153551983Y-110853027D01*
X153551984Y-110853028D01*
X153569624Y-110862016D01*
X153653367Y-110904685D01*
X153771600Y-110923411D01*
X153889833Y-110904685D01*
X153973576Y-110862016D01*
X153991216Y-110853028D01*
X153991217Y-110853027D01*
X153996493Y-110850339D01*
X154081139Y-110765693D01*
X154086697Y-110754786D01*
X154121116Y-110687233D01*
X154135485Y-110659033D01*
X154154211Y-110540800D01*
X154150742Y-110518894D01*
X154146166Y-110490000D01*
X155420989Y-110490000D01*
X155421915Y-110495847D01*
X155428109Y-110534953D01*
X155439715Y-110608233D01*
X155442402Y-110613506D01*
X155488902Y-110704767D01*
X155494061Y-110714893D01*
X155578707Y-110799539D01*
X155685367Y-110853885D01*
X155803600Y-110872611D01*
X155921833Y-110853885D01*
X156028493Y-110799539D01*
X156113139Y-110714893D01*
X156118299Y-110704767D01*
X156150076Y-110642400D01*
X158824589Y-110642400D01*
X158825515Y-110648247D01*
X158830764Y-110681386D01*
X158843315Y-110760633D01*
X158846002Y-110765906D01*
X158890393Y-110853028D01*
X158897661Y-110867293D01*
X158982307Y-110951939D01*
X159088967Y-111006285D01*
X159207200Y-111025011D01*
X159325433Y-111006285D01*
X159432093Y-110951939D01*
X159516739Y-110867293D01*
X159524008Y-110853028D01*
X159568398Y-110765906D01*
X159571085Y-110760633D01*
X159583636Y-110681386D01*
X159588885Y-110648247D01*
X159589811Y-110642400D01*
X159583474Y-110602386D01*
X159572011Y-110530014D01*
X159571085Y-110524167D01*
X159530999Y-110445494D01*
X159519428Y-110422784D01*
X159519427Y-110422783D01*
X159516739Y-110417507D01*
X159432093Y-110332861D01*
X159325433Y-110278515D01*
X159207200Y-110259789D01*
X159088967Y-110278515D01*
X158982307Y-110332861D01*
X158897661Y-110417507D01*
X158894973Y-110422783D01*
X158894972Y-110422784D01*
X158883401Y-110445494D01*
X158843315Y-110524167D01*
X158842389Y-110530014D01*
X158830927Y-110602386D01*
X158824589Y-110642400D01*
X156150076Y-110642400D01*
X156164798Y-110613506D01*
X156167485Y-110608233D01*
X156179091Y-110534953D01*
X156185285Y-110495847D01*
X156186211Y-110490000D01*
X156167485Y-110371767D01*
X156113139Y-110265107D01*
X156028493Y-110180461D01*
X156019717Y-110175989D01*
X155978787Y-110155135D01*
X155921833Y-110126115D01*
X155834917Y-110112349D01*
X155809447Y-110108315D01*
X155803600Y-110107389D01*
X155797753Y-110108315D01*
X155772283Y-110112349D01*
X155685367Y-110126115D01*
X155628413Y-110155135D01*
X155587484Y-110175989D01*
X155578707Y-110180461D01*
X155494061Y-110265107D01*
X155439715Y-110371767D01*
X155420989Y-110490000D01*
X154146166Y-110490000D01*
X154136411Y-110428414D01*
X154135485Y-110422567D01*
X154093373Y-110339917D01*
X154083828Y-110321184D01*
X154083827Y-110321183D01*
X154081139Y-110315907D01*
X153996493Y-110231261D01*
X153889833Y-110176915D01*
X153771600Y-110158189D01*
X153653367Y-110176915D01*
X153546707Y-110231261D01*
X153462061Y-110315907D01*
X153459373Y-110321183D01*
X153459372Y-110321184D01*
X153449827Y-110339917D01*
X153407715Y-110422567D01*
X153406789Y-110428414D01*
X153392459Y-110518894D01*
X153388989Y-110540800D01*
X148168068Y-110540800D01*
X148242989Y-110465879D01*
X148297335Y-110359219D01*
X148316061Y-110240986D01*
X148297335Y-110122753D01*
X148268315Y-110065799D01*
X148245678Y-110021370D01*
X148245677Y-110021369D01*
X148242989Y-110016093D01*
X148158343Y-109931447D01*
X148146148Y-109925233D01*
X148069633Y-109886247D01*
X148051683Y-109877101D01*
X147933450Y-109858375D01*
X147815217Y-109877101D01*
X147797267Y-109886247D01*
X147720753Y-109925233D01*
X147708557Y-109931447D01*
X147623911Y-110016093D01*
X147621223Y-110021369D01*
X147621222Y-110021370D01*
X147598585Y-110065799D01*
X147569565Y-110122753D01*
X147550839Y-110240986D01*
X147569565Y-110359219D01*
X147572252Y-110364492D01*
X147594837Y-110408818D01*
X147601106Y-110459874D01*
X147573090Y-110503015D01*
X147561978Y-110509959D01*
X147560388Y-110510769D01*
X147560383Y-110510773D01*
X147555107Y-110513461D01*
X147470461Y-110598107D01*
X147467773Y-110603383D01*
X147467772Y-110603384D01*
X147462615Y-110613506D01*
X147416115Y-110704767D01*
X147397389Y-110823000D01*
X146917432Y-110823000D01*
X146946539Y-110793893D01*
X147000885Y-110687233D01*
X147019611Y-110569000D01*
X147000885Y-110450767D01*
X146963612Y-110377614D01*
X146949228Y-110349384D01*
X146949227Y-110349383D01*
X146946539Y-110344107D01*
X146861893Y-110259461D01*
X146832109Y-110244285D01*
X146801270Y-110228572D01*
X146755233Y-110205115D01*
X146637000Y-110186389D01*
X146518767Y-110205115D01*
X146472730Y-110228572D01*
X146441892Y-110244285D01*
X146412107Y-110259461D01*
X146327461Y-110344107D01*
X146324773Y-110349383D01*
X146324772Y-110349384D01*
X146310388Y-110377614D01*
X146273115Y-110450767D01*
X146254389Y-110569000D01*
X132247786Y-110569000D01*
X132241611Y-110530014D01*
X132240685Y-110524167D01*
X132200599Y-110445494D01*
X132189028Y-110422784D01*
X132189027Y-110422783D01*
X132186339Y-110417507D01*
X132101693Y-110332861D01*
X131995033Y-110278515D01*
X131876800Y-110259789D01*
X131758567Y-110278515D01*
X131651907Y-110332861D01*
X131567261Y-110417507D01*
X131564573Y-110422783D01*
X131564572Y-110422784D01*
X131553001Y-110445494D01*
X131512915Y-110524167D01*
X131511989Y-110530014D01*
X131500527Y-110602386D01*
X131494189Y-110642400D01*
X130381000Y-110642400D01*
X130381000Y-109880400D01*
X144448189Y-109880400D01*
X144466915Y-109998633D01*
X144521261Y-110105293D01*
X144605907Y-110189939D01*
X144611183Y-110192627D01*
X144611184Y-110192628D01*
X144640965Y-110207802D01*
X144712567Y-110244285D01*
X144718414Y-110245211D01*
X144817579Y-110260917D01*
X144830800Y-110263011D01*
X144844022Y-110260917D01*
X144943186Y-110245211D01*
X144949033Y-110244285D01*
X145020635Y-110207802D01*
X145050416Y-110192628D01*
X145050417Y-110192627D01*
X145055693Y-110189939D01*
X145140339Y-110105293D01*
X145194685Y-109998633D01*
X145213411Y-109880400D01*
X145194685Y-109762167D01*
X145140339Y-109655507D01*
X145055693Y-109570861D01*
X144949033Y-109516515D01*
X144830800Y-109497789D01*
X144712567Y-109516515D01*
X144605907Y-109570861D01*
X144521261Y-109655507D01*
X144466915Y-109762167D01*
X144448189Y-109880400D01*
X130381000Y-109880400D01*
X130381000Y-109474000D01*
X149629789Y-109474000D01*
X149648515Y-109592233D01*
X149651202Y-109597506D01*
X149697702Y-109688767D01*
X149702861Y-109698893D01*
X149787507Y-109783539D01*
X149894167Y-109837885D01*
X150012400Y-109856611D01*
X150130633Y-109837885D01*
X150191248Y-109807000D01*
X151588389Y-109807000D01*
X151607115Y-109925233D01*
X151609802Y-109930506D01*
X151651276Y-110011903D01*
X151661461Y-110031893D01*
X151746107Y-110116539D01*
X151751383Y-110119227D01*
X151751384Y-110119228D01*
X151764901Y-110126115D01*
X151852767Y-110170885D01*
X151971000Y-110189611D01*
X152089233Y-110170885D01*
X152177099Y-110126115D01*
X152190616Y-110119228D01*
X152190617Y-110119227D01*
X152195893Y-110116539D01*
X152280539Y-110031893D01*
X152290725Y-110011903D01*
X152332198Y-109930506D01*
X152334885Y-109925233D01*
X152353611Y-109807000D01*
X152334885Y-109688767D01*
X152288385Y-109597506D01*
X152283228Y-109587384D01*
X152283227Y-109587383D01*
X152280539Y-109582107D01*
X152195893Y-109497461D01*
X152089233Y-109443115D01*
X151971000Y-109424389D01*
X151852767Y-109443115D01*
X151746107Y-109497461D01*
X151661461Y-109582107D01*
X151658773Y-109587383D01*
X151658772Y-109587384D01*
X151653615Y-109597506D01*
X151607115Y-109688767D01*
X151588389Y-109807000D01*
X150191248Y-109807000D01*
X150237293Y-109783539D01*
X150321939Y-109698893D01*
X150327099Y-109688767D01*
X150373598Y-109597506D01*
X150376285Y-109592233D01*
X150395011Y-109474000D01*
X150376285Y-109355767D01*
X150321939Y-109249107D01*
X150237293Y-109164461D01*
X150220317Y-109155811D01*
X150157880Y-109123998D01*
X150130633Y-109110115D01*
X150012400Y-109091389D01*
X149894167Y-109110115D01*
X149866920Y-109123998D01*
X149804484Y-109155811D01*
X149787507Y-109164461D01*
X149702861Y-109249107D01*
X149648515Y-109355767D01*
X149629789Y-109474000D01*
X130381000Y-109474000D01*
X130381000Y-108791000D01*
X151715389Y-108791000D01*
X151734115Y-108909233D01*
X151788461Y-109015893D01*
X151873107Y-109100539D01*
X151878383Y-109103227D01*
X151878384Y-109103228D01*
X151891901Y-109110115D01*
X151979767Y-109154885D01*
X152098000Y-109173611D01*
X152216233Y-109154885D01*
X152304099Y-109110115D01*
X152317616Y-109103228D01*
X152317617Y-109103227D01*
X152322893Y-109100539D01*
X152407539Y-109015893D01*
X152461885Y-108909233D01*
X152480611Y-108791000D01*
X152476145Y-108762800D01*
X164717389Y-108762800D01*
X164736115Y-108881033D01*
X164790461Y-108987693D01*
X164875107Y-109072339D01*
X164981767Y-109126685D01*
X165100000Y-109145411D01*
X165218233Y-109126685D01*
X165324893Y-109072339D01*
X165409539Y-108987693D01*
X165463885Y-108881033D01*
X165482611Y-108762800D01*
X165463885Y-108644567D01*
X165409539Y-108537907D01*
X165324893Y-108453261D01*
X165218233Y-108398915D01*
X165100000Y-108380189D01*
X164981767Y-108398915D01*
X164875107Y-108453261D01*
X164790461Y-108537907D01*
X164736115Y-108644567D01*
X164717389Y-108762800D01*
X152476145Y-108762800D01*
X152461885Y-108672767D01*
X152407539Y-108566107D01*
X152322893Y-108481461D01*
X152309493Y-108474633D01*
X152262270Y-108450572D01*
X152216233Y-108427115D01*
X152098000Y-108408389D01*
X151979767Y-108427115D01*
X151933730Y-108450572D01*
X151886508Y-108474633D01*
X151873107Y-108481461D01*
X151788461Y-108566107D01*
X151734115Y-108672767D01*
X151715389Y-108791000D01*
X130381000Y-108791000D01*
X130381000Y-108156000D01*
X146000389Y-108156000D01*
X146001315Y-108161847D01*
X146002704Y-108170614D01*
X146019115Y-108274233D01*
X146021802Y-108279506D01*
X146065203Y-108364685D01*
X146073461Y-108380893D01*
X146158107Y-108465539D01*
X146163383Y-108468227D01*
X146163384Y-108468228D01*
X146197579Y-108485651D01*
X146264767Y-108519885D01*
X146383000Y-108538611D01*
X146501233Y-108519885D01*
X146568421Y-108485651D01*
X146602616Y-108468228D01*
X146602617Y-108468227D01*
X146607893Y-108465539D01*
X146692539Y-108380893D01*
X146700798Y-108364685D01*
X146742418Y-108283000D01*
X149302389Y-108283000D01*
X149321115Y-108401233D01*
X149375461Y-108507893D01*
X149460107Y-108592539D01*
X149566767Y-108646885D01*
X149685000Y-108665611D01*
X149803233Y-108646885D01*
X149909893Y-108592539D01*
X149994539Y-108507893D01*
X150048885Y-108401233D01*
X150067611Y-108283000D01*
X150066223Y-108274233D01*
X150049811Y-108170614D01*
X150048885Y-108164767D01*
X149994539Y-108058107D01*
X149909893Y-107973461D01*
X149803233Y-107919115D01*
X149685000Y-107900389D01*
X149566767Y-107919115D01*
X149460107Y-107973461D01*
X149375461Y-108058107D01*
X149321115Y-108164767D01*
X149320189Y-108170614D01*
X149303778Y-108274233D01*
X149302389Y-108283000D01*
X146742418Y-108283000D01*
X146744198Y-108279506D01*
X146746885Y-108274233D01*
X146763296Y-108170614D01*
X146764685Y-108161847D01*
X146765611Y-108156000D01*
X146746885Y-108037767D01*
X146692539Y-107931107D01*
X146607893Y-107846461D01*
X146511998Y-107797600D01*
X152677789Y-107797600D01*
X152696515Y-107915833D01*
X152706986Y-107936384D01*
X152736956Y-107995202D01*
X152750861Y-108022493D01*
X152835507Y-108107139D01*
X152840783Y-108109827D01*
X152840784Y-108109828D01*
X152883332Y-108131507D01*
X152942167Y-108161485D01*
X153060400Y-108180211D01*
X153178633Y-108161485D01*
X153237468Y-108131507D01*
X153280016Y-108109828D01*
X153280017Y-108109827D01*
X153285293Y-108107139D01*
X153369939Y-108022493D01*
X153380993Y-108000800D01*
X163599789Y-108000800D01*
X163618515Y-108119033D01*
X163672861Y-108225693D01*
X163757507Y-108310339D01*
X163864167Y-108364685D01*
X163870014Y-108365611D01*
X163966502Y-108380893D01*
X163982400Y-108383411D01*
X163998299Y-108380893D01*
X164094786Y-108365611D01*
X164100633Y-108364685D01*
X164116893Y-108356400D01*
X166292189Y-108356400D01*
X166310915Y-108474633D01*
X166365261Y-108581293D01*
X166449907Y-108665939D01*
X166455183Y-108668627D01*
X166455184Y-108668628D01*
X166474783Y-108678614D01*
X166556567Y-108720285D01*
X166674800Y-108739011D01*
X166793033Y-108720285D01*
X166874817Y-108678614D01*
X166894416Y-108668628D01*
X166894417Y-108668627D01*
X166899693Y-108665939D01*
X166984339Y-108581293D01*
X167038685Y-108474633D01*
X167057411Y-108356400D01*
X167038685Y-108238167D01*
X166998599Y-108159494D01*
X166987028Y-108136784D01*
X166987027Y-108136783D01*
X166984339Y-108131507D01*
X166899693Y-108046861D01*
X166893321Y-108043614D01*
X166841511Y-108017216D01*
X166793033Y-107992515D01*
X166674800Y-107973789D01*
X166556567Y-107992515D01*
X166508089Y-108017216D01*
X166456280Y-108043614D01*
X166449907Y-108046861D01*
X166365261Y-108131507D01*
X166362573Y-108136783D01*
X166362572Y-108136784D01*
X166351001Y-108159494D01*
X166310915Y-108238167D01*
X166292189Y-108356400D01*
X164116893Y-108356400D01*
X164207293Y-108310339D01*
X164291939Y-108225693D01*
X164346285Y-108119033D01*
X164365011Y-108000800D01*
X164346285Y-107882567D01*
X164302992Y-107797600D01*
X164294628Y-107781184D01*
X164294627Y-107781183D01*
X164291939Y-107775907D01*
X164207293Y-107691261D01*
X164100633Y-107636915D01*
X163982400Y-107618189D01*
X163864167Y-107636915D01*
X163757507Y-107691261D01*
X163672861Y-107775907D01*
X163670173Y-107781183D01*
X163670172Y-107781184D01*
X163661808Y-107797600D01*
X163618515Y-107882567D01*
X163599789Y-108000800D01*
X153380993Y-108000800D01*
X153383845Y-107995202D01*
X153413814Y-107936384D01*
X153424285Y-107915833D01*
X153443011Y-107797600D01*
X153424285Y-107679367D01*
X153369939Y-107572707D01*
X153285293Y-107488061D01*
X153178633Y-107433715D01*
X153110481Y-107422921D01*
X153066247Y-107415915D01*
X153060400Y-107414989D01*
X153054553Y-107415915D01*
X153010319Y-107422921D01*
X152942167Y-107433715D01*
X152835507Y-107488061D01*
X152750861Y-107572707D01*
X152696515Y-107679367D01*
X152677789Y-107797600D01*
X146511998Y-107797600D01*
X146501233Y-107792115D01*
X146432216Y-107781184D01*
X146388847Y-107774315D01*
X146383000Y-107773389D01*
X146377153Y-107774315D01*
X146333784Y-107781184D01*
X146264767Y-107792115D01*
X146158107Y-107846461D01*
X146073461Y-107931107D01*
X146019115Y-108037767D01*
X146000389Y-108156000D01*
X130381000Y-108156000D01*
X130381000Y-107175525D01*
X135521653Y-107175525D01*
X135559271Y-107307148D01*
X135614503Y-107394685D01*
X135627899Y-107415915D01*
X135632319Y-107422921D01*
X135734924Y-107513539D01*
X135739771Y-107515815D01*
X135739773Y-107515816D01*
X135792817Y-107540720D01*
X135858839Y-107571717D01*
X135904890Y-107578887D01*
X135959906Y-107587454D01*
X135959911Y-107587454D01*
X135962773Y-107587900D01*
X136034312Y-107587900D01*
X136072981Y-107582362D01*
X136130207Y-107574167D01*
X136130211Y-107574166D01*
X136135510Y-107573407D01*
X136140384Y-107571191D01*
X136140387Y-107571190D01*
X136213652Y-107537878D01*
X136260126Y-107516748D01*
X136306659Y-107476653D01*
X136359777Y-107430884D01*
X136359780Y-107430881D01*
X136363831Y-107427390D01*
X136398308Y-107374198D01*
X136435376Y-107317010D01*
X136435377Y-107317009D01*
X136438288Y-107312517D01*
X136460605Y-107237893D01*
X136475976Y-107186498D01*
X136475976Y-107186495D01*
X136477511Y-107181364D01*
X136477580Y-107170171D01*
X136478243Y-107061483D01*
X136478347Y-107044475D01*
X136469351Y-107013000D01*
X148413389Y-107013000D01*
X148432115Y-107131233D01*
X148486461Y-107237893D01*
X148571107Y-107322539D01*
X148677767Y-107376885D01*
X148796000Y-107395611D01*
X148914233Y-107376885D01*
X149020893Y-107322539D01*
X149105539Y-107237893D01*
X149120108Y-107209300D01*
X158849989Y-107209300D01*
X158868715Y-107327533D01*
X158871402Y-107332806D01*
X158919595Y-107427390D01*
X158923061Y-107434193D01*
X159007707Y-107518839D01*
X159114367Y-107573185D01*
X159144667Y-107577984D01*
X159204870Y-107587519D01*
X159232600Y-107591911D01*
X159260331Y-107587519D01*
X159320533Y-107577984D01*
X159350833Y-107573185D01*
X159457493Y-107518839D01*
X159542139Y-107434193D01*
X159545606Y-107427390D01*
X159593798Y-107332806D01*
X159596485Y-107327533D01*
X159615211Y-107209300D01*
X159596485Y-107091067D01*
X159553729Y-107007153D01*
X159544828Y-106989684D01*
X159544827Y-106989683D01*
X159542139Y-106984407D01*
X159457493Y-106899761D01*
X159350833Y-106845415D01*
X159291717Y-106836052D01*
X159268659Y-106832400D01*
X163294989Y-106832400D01*
X163313715Y-106950633D01*
X163368061Y-107057293D01*
X163452707Y-107141939D01*
X163559367Y-107196285D01*
X163565214Y-107197211D01*
X163641542Y-107209300D01*
X163677600Y-107215011D01*
X163713659Y-107209300D01*
X163789986Y-107197211D01*
X163795833Y-107196285D01*
X163902493Y-107141939D01*
X163987139Y-107057293D01*
X164041485Y-106950633D01*
X164060211Y-106832400D01*
X164041485Y-106714167D01*
X163987139Y-106607507D01*
X163902493Y-106522861D01*
X163795833Y-106468515D01*
X163677600Y-106449789D01*
X163559367Y-106468515D01*
X163452707Y-106522861D01*
X163368061Y-106607507D01*
X163313715Y-106714167D01*
X163294989Y-106832400D01*
X159268659Y-106832400D01*
X159238447Y-106827615D01*
X159232600Y-106826689D01*
X159226753Y-106827615D01*
X159173483Y-106836052D01*
X159114367Y-106845415D01*
X159007707Y-106899761D01*
X158923061Y-106984407D01*
X158920373Y-106989683D01*
X158920372Y-106989684D01*
X158911471Y-107007153D01*
X158868715Y-107091067D01*
X158849989Y-107209300D01*
X149120108Y-107209300D01*
X149159885Y-107131233D01*
X149178611Y-107013000D01*
X149175604Y-106994011D01*
X149160811Y-106900614D01*
X149159885Y-106894767D01*
X149115986Y-106808611D01*
X149108228Y-106793384D01*
X149108227Y-106793383D01*
X149105539Y-106788107D01*
X149020893Y-106703461D01*
X148914233Y-106649115D01*
X148796000Y-106630389D01*
X148677767Y-106649115D01*
X148571107Y-106703461D01*
X148486461Y-106788107D01*
X148483773Y-106793383D01*
X148483772Y-106793384D01*
X148476014Y-106808611D01*
X148432115Y-106894767D01*
X148431189Y-106900614D01*
X148416397Y-106994011D01*
X148413389Y-107013000D01*
X136469351Y-107013000D01*
X136440729Y-106912852D01*
X136367681Y-106797079D01*
X136265076Y-106706461D01*
X136260229Y-106704185D01*
X136260227Y-106704184D01*
X136207183Y-106679280D01*
X136141161Y-106648283D01*
X136095110Y-106641113D01*
X136040094Y-106632546D01*
X136040089Y-106632546D01*
X136037227Y-106632100D01*
X135965688Y-106632100D01*
X135927019Y-106637638D01*
X135869793Y-106645833D01*
X135869789Y-106645834D01*
X135864490Y-106646593D01*
X135859616Y-106648809D01*
X135859613Y-106648810D01*
X135786348Y-106682122D01*
X135739874Y-106703252D01*
X135727207Y-106714167D01*
X135640223Y-106789116D01*
X135640220Y-106789119D01*
X135636169Y-106792610D01*
X135633258Y-106797101D01*
X135606589Y-106838247D01*
X135561712Y-106907483D01*
X135551560Y-106941428D01*
X135530156Y-107013000D01*
X135522489Y-107038636D01*
X135522456Y-107043991D01*
X135522456Y-107043993D01*
X135522407Y-107052016D01*
X135521653Y-107175525D01*
X130381000Y-107175525D01*
X130381000Y-106629200D01*
X144448189Y-106629200D01*
X144449115Y-106635047D01*
X144451211Y-106648283D01*
X144466915Y-106747433D01*
X144488154Y-106789116D01*
X144516368Y-106844489D01*
X144521261Y-106854093D01*
X144605907Y-106938739D01*
X144712567Y-106993085D01*
X144830800Y-107011811D01*
X144949033Y-106993085D01*
X145055693Y-106938739D01*
X145140339Y-106854093D01*
X145145233Y-106844489D01*
X145173446Y-106789116D01*
X145194685Y-106747433D01*
X145210389Y-106648283D01*
X145212485Y-106635047D01*
X145213411Y-106629200D01*
X145194685Y-106510967D01*
X145151392Y-106426000D01*
X153084189Y-106426000D01*
X153102915Y-106544233D01*
X153105602Y-106549506D01*
X153147880Y-106632481D01*
X153157261Y-106650893D01*
X153241907Y-106735539D01*
X153348567Y-106789885D01*
X153466800Y-106808611D01*
X153585033Y-106789885D01*
X153691693Y-106735539D01*
X153776339Y-106650893D01*
X153785721Y-106632481D01*
X153827998Y-106549506D01*
X153830685Y-106544233D01*
X153849411Y-106426000D01*
X153830685Y-106307767D01*
X153776339Y-106201107D01*
X153691693Y-106116461D01*
X153649364Y-106094893D01*
X153639007Y-106089616D01*
X153585033Y-106062115D01*
X153466800Y-106043389D01*
X153348567Y-106062115D01*
X153294593Y-106089616D01*
X153284237Y-106094893D01*
X153241907Y-106116461D01*
X153157261Y-106201107D01*
X153102915Y-106307767D01*
X153084189Y-106426000D01*
X145151392Y-106426000D01*
X145140339Y-106404307D01*
X145055693Y-106319661D01*
X144949033Y-106265315D01*
X144868822Y-106252611D01*
X144836647Y-106247515D01*
X144830800Y-106246589D01*
X144824953Y-106247515D01*
X144792778Y-106252611D01*
X144712567Y-106265315D01*
X144605907Y-106319661D01*
X144521261Y-106404307D01*
X144466915Y-106510967D01*
X144448189Y-106629200D01*
X130381000Y-106629200D01*
X130381000Y-105870000D01*
X139269389Y-105870000D01*
X139288115Y-105988233D01*
X139342461Y-106094893D01*
X139427107Y-106179539D01*
X139432383Y-106182227D01*
X139432384Y-106182228D01*
X139476813Y-106204865D01*
X139533767Y-106233885D01*
X139539614Y-106234811D01*
X139619825Y-106247515D01*
X139652000Y-106252611D01*
X139684176Y-106247515D01*
X139764386Y-106234811D01*
X139770233Y-106233885D01*
X139827187Y-106204865D01*
X139871616Y-106182228D01*
X139871617Y-106182227D01*
X139876893Y-106179539D01*
X139961539Y-106094893D01*
X140015885Y-105988233D01*
X140034611Y-105870000D01*
X140015885Y-105751767D01*
X139980564Y-105682446D01*
X139964228Y-105650384D01*
X139964227Y-105650383D01*
X139961539Y-105645107D01*
X139876893Y-105560461D01*
X139770233Y-105506115D01*
X139652000Y-105487389D01*
X139533767Y-105506115D01*
X139427107Y-105560461D01*
X139342461Y-105645107D01*
X139339773Y-105650383D01*
X139339772Y-105650384D01*
X139323436Y-105682446D01*
X139288115Y-105751767D01*
X139269389Y-105870000D01*
X130381000Y-105870000D01*
X130381000Y-105300761D01*
X158778636Y-105300761D01*
X158797362Y-105418994D01*
X158826382Y-105475948D01*
X158841281Y-105505189D01*
X158851708Y-105525654D01*
X158936354Y-105610300D01*
X159043014Y-105664646D01*
X159161247Y-105683372D01*
X159279480Y-105664646D01*
X159386140Y-105610300D01*
X159470786Y-105525654D01*
X159481214Y-105505189D01*
X159496112Y-105475948D01*
X159525132Y-105418994D01*
X159543858Y-105300761D01*
X159525132Y-105182528D01*
X159480236Y-105094414D01*
X159473475Y-105081145D01*
X159473474Y-105081144D01*
X159470786Y-105075868D01*
X159386140Y-104991222D01*
X159367859Y-104981907D01*
X159323959Y-104959539D01*
X159288877Y-104921918D01*
X159286185Y-104870548D01*
X159294276Y-104859811D01*
X159891389Y-104859811D01*
X159892315Y-104865658D01*
X159893127Y-104870786D01*
X159910115Y-104978044D01*
X159964461Y-105084704D01*
X160049107Y-105169350D01*
X160054383Y-105172038D01*
X160054384Y-105172039D01*
X160086446Y-105188375D01*
X160155767Y-105223696D01*
X160274000Y-105242422D01*
X160392233Y-105223696D01*
X160461554Y-105188375D01*
X160493616Y-105172039D01*
X160493617Y-105172038D01*
X160498893Y-105169350D01*
X160583539Y-105084704D01*
X160637885Y-104978044D01*
X160654873Y-104870786D01*
X160655685Y-104865658D01*
X160656611Y-104859811D01*
X160643839Y-104779171D01*
X160653654Y-104728676D01*
X160693630Y-104696304D01*
X160745062Y-104697202D01*
X160752252Y-104700402D01*
X160765367Y-104707085D01*
X160883600Y-104725811D01*
X161001833Y-104707085D01*
X161085150Y-104664633D01*
X161103216Y-104655428D01*
X161103217Y-104655427D01*
X161108493Y-104652739D01*
X161193139Y-104568093D01*
X161200085Y-104554462D01*
X161226505Y-104502608D01*
X161247485Y-104461433D01*
X161263057Y-104363115D01*
X161265285Y-104349047D01*
X161266211Y-104343200D01*
X161247485Y-104224967D01*
X161204472Y-104140549D01*
X161195828Y-104123584D01*
X161195827Y-104123583D01*
X161193139Y-104118307D01*
X161108493Y-104033661D01*
X161001833Y-103979315D01*
X160942716Y-103969952D01*
X160889447Y-103961515D01*
X160883600Y-103960589D01*
X160877753Y-103961515D01*
X160824484Y-103969952D01*
X160765367Y-103979315D01*
X160658707Y-104033661D01*
X160574061Y-104118307D01*
X160571373Y-104123583D01*
X160571372Y-104123584D01*
X160562728Y-104140549D01*
X160519715Y-104224967D01*
X160500989Y-104343200D01*
X160501915Y-104349047D01*
X160513761Y-104423840D01*
X160503946Y-104474335D01*
X160463970Y-104506707D01*
X160412538Y-104505809D01*
X160405347Y-104502608D01*
X160404364Y-104502107D01*
X160392233Y-104495926D01*
X160274000Y-104477200D01*
X160155767Y-104495926D01*
X160098813Y-104524946D01*
X160060512Y-104544461D01*
X160049107Y-104550272D01*
X159964461Y-104634918D01*
X159961773Y-104640194D01*
X159961772Y-104640195D01*
X159949320Y-104664633D01*
X159910115Y-104741578D01*
X159891389Y-104859811D01*
X159294276Y-104859811D01*
X159317142Y-104829467D01*
X159346335Y-104818262D01*
X159433488Y-104804458D01*
X159540148Y-104750112D01*
X159624794Y-104665466D01*
X159679140Y-104558806D01*
X159697866Y-104440573D01*
X159694206Y-104417461D01*
X159680066Y-104328187D01*
X159679140Y-104322340D01*
X159638130Y-104241854D01*
X159627483Y-104220957D01*
X159627482Y-104220956D01*
X159624794Y-104215680D01*
X159540148Y-104131034D01*
X159433488Y-104076688D01*
X159315255Y-104057962D01*
X159197022Y-104076688D01*
X159090362Y-104131034D01*
X159005716Y-104215680D01*
X159003028Y-104220956D01*
X159003027Y-104220957D01*
X158992380Y-104241854D01*
X158951370Y-104322340D01*
X158950444Y-104328187D01*
X158936305Y-104417461D01*
X158932644Y-104440573D01*
X158951370Y-104558806D01*
X159005716Y-104665466D01*
X159090362Y-104750112D01*
X159095638Y-104752800D01*
X159095639Y-104752801D01*
X159152543Y-104781795D01*
X159187625Y-104819416D01*
X159190317Y-104870786D01*
X159159360Y-104911867D01*
X159130167Y-104923072D01*
X159043014Y-104936876D01*
X159005318Y-104956083D01*
X158954636Y-104981907D01*
X158936354Y-104991222D01*
X158851708Y-105075868D01*
X158849020Y-105081144D01*
X158849019Y-105081145D01*
X158842258Y-105094414D01*
X158797362Y-105182528D01*
X158778636Y-105300761D01*
X130381000Y-105300761D01*
X130381000Y-104854000D01*
X141174389Y-104854000D01*
X141193115Y-104972233D01*
X141247461Y-105078893D01*
X141332107Y-105163539D01*
X141337383Y-105166227D01*
X141337384Y-105166228D01*
X141369375Y-105182528D01*
X141438767Y-105217885D01*
X141557000Y-105236611D01*
X141675233Y-105217885D01*
X141744625Y-105182528D01*
X141776616Y-105166228D01*
X141776617Y-105166227D01*
X141781893Y-105163539D01*
X141866539Y-105078893D01*
X141920885Y-104972233D01*
X141939611Y-104854000D01*
X141938223Y-104845233D01*
X141921811Y-104741614D01*
X141920885Y-104735767D01*
X141866539Y-104629107D01*
X141781893Y-104544461D01*
X141774224Y-104540553D01*
X141709125Y-104507384D01*
X141675233Y-104490115D01*
X141557000Y-104471389D01*
X141438767Y-104490115D01*
X141404875Y-104507384D01*
X141339777Y-104540553D01*
X141332107Y-104544461D01*
X141247461Y-104629107D01*
X141193115Y-104735767D01*
X141192189Y-104741614D01*
X141175778Y-104845233D01*
X141174389Y-104854000D01*
X130381000Y-104854000D01*
X130381000Y-103203000D01*
X141809389Y-103203000D01*
X141810315Y-103208847D01*
X141814145Y-103233028D01*
X141828115Y-103321233D01*
X141852728Y-103369538D01*
X141867623Y-103398771D01*
X141882461Y-103427893D01*
X141967107Y-103512539D01*
X142073767Y-103566885D01*
X142192000Y-103585611D01*
X142310233Y-103566885D01*
X142416893Y-103512539D01*
X142501539Y-103427893D01*
X142516378Y-103398771D01*
X142531272Y-103369538D01*
X142555885Y-103321233D01*
X142569855Y-103233028D01*
X142573685Y-103208847D01*
X142574611Y-103203000D01*
X142571604Y-103184011D01*
X142556811Y-103090614D01*
X142555885Y-103084767D01*
X142501539Y-102978107D01*
X142416893Y-102893461D01*
X142403493Y-102886633D01*
X142362794Y-102865896D01*
X142310233Y-102839115D01*
X142192000Y-102820389D01*
X142073767Y-102839115D01*
X142021206Y-102865896D01*
X141980508Y-102886633D01*
X141967107Y-102893461D01*
X141882461Y-102978107D01*
X141828115Y-103084767D01*
X141827189Y-103090614D01*
X141812397Y-103184011D01*
X141809389Y-103203000D01*
X130381000Y-103203000D01*
X130381000Y-102463600D01*
X142619389Y-102463600D01*
X142620315Y-102469447D01*
X142622996Y-102486374D01*
X142638115Y-102581833D01*
X142640802Y-102587106D01*
X142688938Y-102681578D01*
X142692461Y-102688493D01*
X142777107Y-102773139D01*
X142883767Y-102827485D01*
X143002000Y-102846211D01*
X143120233Y-102827485D01*
X143223872Y-102774678D01*
X143274929Y-102768409D01*
X143318070Y-102796426D01*
X143332287Y-102829918D01*
X143349315Y-102937433D01*
X143372728Y-102983384D01*
X143398104Y-103033186D01*
X143403661Y-103044093D01*
X143488307Y-103128739D01*
X143493583Y-103131427D01*
X143493584Y-103131428D01*
X143511224Y-103140416D01*
X143594967Y-103183085D01*
X143713200Y-103201811D01*
X143831433Y-103183085D01*
X143835708Y-103180907D01*
X143886603Y-103182685D01*
X143924830Y-103217105D01*
X143931989Y-103268045D01*
X143919268Y-103296613D01*
X143915849Y-103301319D01*
X143911661Y-103305507D01*
X143857315Y-103412167D01*
X143838589Y-103530400D01*
X143857315Y-103648633D01*
X143911661Y-103755293D01*
X143996307Y-103839939D01*
X144001583Y-103842627D01*
X144001584Y-103842628D01*
X144021183Y-103852614D01*
X144102967Y-103894285D01*
X144221200Y-103913011D01*
X144339433Y-103894285D01*
X144421217Y-103852614D01*
X144440816Y-103842628D01*
X144440817Y-103842627D01*
X144446093Y-103839939D01*
X144530739Y-103755293D01*
X144585085Y-103648633D01*
X144603811Y-103530400D01*
X147953389Y-103530400D01*
X147972115Y-103648633D01*
X148026461Y-103755293D01*
X148111107Y-103839939D01*
X148116383Y-103842627D01*
X148116384Y-103842628D01*
X148135983Y-103852614D01*
X148217767Y-103894285D01*
X148336000Y-103913011D01*
X148454233Y-103894285D01*
X148536017Y-103852614D01*
X148555616Y-103842628D01*
X148555617Y-103842627D01*
X148560893Y-103839939D01*
X148645539Y-103755293D01*
X148699885Y-103648633D01*
X148718611Y-103530400D01*
X148699885Y-103412167D01*
X148645539Y-103305507D01*
X148560893Y-103220861D01*
X148553522Y-103217105D01*
X148485452Y-103182422D01*
X148454233Y-103166515D01*
X148350497Y-103150085D01*
X148341847Y-103148715D01*
X148336000Y-103147789D01*
X148330153Y-103148715D01*
X148321503Y-103150085D01*
X148217767Y-103166515D01*
X148186548Y-103182422D01*
X148118479Y-103217105D01*
X148111107Y-103220861D01*
X148026461Y-103305507D01*
X147972115Y-103412167D01*
X147953389Y-103530400D01*
X144603811Y-103530400D01*
X144585085Y-103412167D01*
X144530739Y-103305507D01*
X144446093Y-103220861D01*
X144438722Y-103217105D01*
X144370652Y-103182422D01*
X144339433Y-103166515D01*
X144235697Y-103150085D01*
X144227047Y-103148715D01*
X144221200Y-103147789D01*
X144215353Y-103148715D01*
X144206703Y-103150085D01*
X144102967Y-103166515D01*
X144098692Y-103168693D01*
X144047797Y-103166915D01*
X144009570Y-103132495D01*
X144002411Y-103081555D01*
X144015132Y-103052987D01*
X144018551Y-103048281D01*
X144022739Y-103044093D01*
X144077085Y-102937433D01*
X144092657Y-102839115D01*
X144094885Y-102825047D01*
X144095811Y-102819200D01*
X144092342Y-102797294D01*
X144087766Y-102768400D01*
X149934589Y-102768400D01*
X149935515Y-102774247D01*
X149941709Y-102813353D01*
X149953315Y-102886633D01*
X149956002Y-102891906D01*
X149998764Y-102975831D01*
X150007661Y-102993293D01*
X150092307Y-103077939D01*
X150097583Y-103080627D01*
X150097584Y-103080628D01*
X150117183Y-103090614D01*
X150198967Y-103132285D01*
X150317200Y-103151011D01*
X150435433Y-103132285D01*
X150517217Y-103090614D01*
X150536816Y-103080628D01*
X150536817Y-103080627D01*
X150542093Y-103077939D01*
X150626739Y-102993293D01*
X150635637Y-102975831D01*
X150678398Y-102891906D01*
X150681085Y-102886633D01*
X150692691Y-102813353D01*
X150698885Y-102774247D01*
X150699811Y-102768400D01*
X150681085Y-102650167D01*
X150679104Y-102646280D01*
X151052189Y-102646280D01*
X151070915Y-102764513D01*
X151093284Y-102808414D01*
X151111708Y-102844573D01*
X151125261Y-102871173D01*
X151209907Y-102955819D01*
X151316567Y-103010165D01*
X151434800Y-103028891D01*
X151553033Y-103010165D01*
X151620417Y-102975831D01*
X151671473Y-102969562D01*
X151714614Y-102997578D01*
X151729654Y-103046771D01*
X151728832Y-103054595D01*
X151727312Y-103064189D01*
X151746038Y-103182422D01*
X151755917Y-103201811D01*
X151796775Y-103281998D01*
X151800384Y-103289082D01*
X151885030Y-103373728D01*
X151890308Y-103376417D01*
X151890309Y-103376418D01*
X151903661Y-103383221D01*
X151938743Y-103420841D01*
X151941437Y-103472210D01*
X151934660Y-103485801D01*
X151935260Y-103486107D01*
X151880914Y-103592767D01*
X151862188Y-103711000D01*
X151880914Y-103829233D01*
X151935260Y-103935893D01*
X152019906Y-104020539D01*
X152126566Y-104074885D01*
X152244799Y-104093611D01*
X152363032Y-104074885D01*
X152469692Y-104020539D01*
X152535763Y-103954468D01*
X152582383Y-103932728D01*
X152632070Y-103946042D01*
X152655940Y-103973501D01*
X152700061Y-104060093D01*
X152784707Y-104144739D01*
X152891367Y-104199085D01*
X152897214Y-104200011D01*
X152993588Y-104215275D01*
X153038578Y-104240213D01*
X153057013Y-104288236D01*
X153040265Y-104336874D01*
X153005061Y-104361069D01*
X153001614Y-104362189D01*
X152995767Y-104363115D01*
X152889107Y-104417461D01*
X152804461Y-104502107D01*
X152750115Y-104608767D01*
X152749189Y-104614614D01*
X152734397Y-104708011D01*
X152731389Y-104727000D01*
X152732315Y-104732847D01*
X152735055Y-104750149D01*
X152750115Y-104845233D01*
X152752802Y-104850506D01*
X152798179Y-104939563D01*
X152804461Y-104951893D01*
X152889107Y-105036539D01*
X152995767Y-105090885D01*
X153114000Y-105109611D01*
X153232233Y-105090885D01*
X153338893Y-105036539D01*
X153423539Y-104951893D01*
X153429822Y-104939563D01*
X153475198Y-104850506D01*
X153477885Y-104845233D01*
X153492945Y-104750149D01*
X153495685Y-104732847D01*
X153496611Y-104727000D01*
X153493604Y-104708011D01*
X153478811Y-104614614D01*
X153477885Y-104608767D01*
X153423539Y-104502107D01*
X153338893Y-104417461D01*
X153232233Y-104363115D01*
X153130012Y-104346925D01*
X153085022Y-104321987D01*
X153066587Y-104273964D01*
X153083335Y-104225326D01*
X153118539Y-104201131D01*
X153121986Y-104200011D01*
X153127833Y-104199085D01*
X153234493Y-104144739D01*
X153319139Y-104060093D01*
X153367591Y-103965000D01*
X155017389Y-103965000D01*
X155036115Y-104083233D01*
X155062606Y-104135224D01*
X155086702Y-104182515D01*
X155090461Y-104189893D01*
X155175107Y-104274539D01*
X155281767Y-104328885D01*
X155287614Y-104329811D01*
X155372150Y-104343200D01*
X155400000Y-104347611D01*
X155427851Y-104343200D01*
X155512386Y-104329811D01*
X155518233Y-104328885D01*
X155624893Y-104274539D01*
X155709539Y-104189893D01*
X155713299Y-104182515D01*
X155737394Y-104135224D01*
X155763885Y-104083233D01*
X155782611Y-103965000D01*
X155763885Y-103846767D01*
X155709539Y-103740107D01*
X155624893Y-103655461D01*
X155611493Y-103648633D01*
X155536273Y-103610307D01*
X155518233Y-103601115D01*
X155400000Y-103582389D01*
X155281767Y-103601115D01*
X155263727Y-103610307D01*
X155188508Y-103648633D01*
X155175107Y-103655461D01*
X155090461Y-103740107D01*
X155036115Y-103846767D01*
X155017389Y-103965000D01*
X153367591Y-103965000D01*
X153373485Y-103953433D01*
X153392211Y-103835200D01*
X153373485Y-103716967D01*
X153319139Y-103610307D01*
X153239232Y-103530400D01*
X161313789Y-103530400D01*
X161332515Y-103648633D01*
X161386861Y-103755293D01*
X161471507Y-103839939D01*
X161476783Y-103842627D01*
X161476784Y-103842628D01*
X161496383Y-103852614D01*
X161578167Y-103894285D01*
X161696400Y-103913011D01*
X161814633Y-103894285D01*
X161896417Y-103852614D01*
X161916016Y-103842628D01*
X161916017Y-103842627D01*
X161921293Y-103839939D01*
X161973426Y-103787806D01*
X162020046Y-103766066D01*
X162069733Y-103779380D01*
X162072836Y-103781984D01*
X162076917Y-103784949D01*
X162081107Y-103789139D01*
X162187767Y-103843485D01*
X162306000Y-103862211D01*
X162424233Y-103843485D01*
X162530893Y-103789139D01*
X162615539Y-103704493D01*
X162669885Y-103597833D01*
X162688611Y-103479600D01*
X162669885Y-103361367D01*
X162629487Y-103282081D01*
X162618228Y-103259984D01*
X162618227Y-103259983D01*
X162615539Y-103254707D01*
X162530893Y-103170061D01*
X162522117Y-103165589D01*
X162458571Y-103133211D01*
X162424233Y-103115715D01*
X162306000Y-103096989D01*
X162187767Y-103115715D01*
X162153429Y-103133211D01*
X162089884Y-103165589D01*
X162081107Y-103170061D01*
X162028974Y-103222194D01*
X161982354Y-103243934D01*
X161932667Y-103230620D01*
X161929564Y-103228016D01*
X161925482Y-103225050D01*
X161921293Y-103220861D01*
X161913922Y-103217105D01*
X161845852Y-103182422D01*
X161814633Y-103166515D01*
X161710897Y-103150085D01*
X161702247Y-103148715D01*
X161696400Y-103147789D01*
X161690553Y-103148715D01*
X161681903Y-103150085D01*
X161578167Y-103166515D01*
X161546948Y-103182422D01*
X161478879Y-103217105D01*
X161471507Y-103220861D01*
X161386861Y-103305507D01*
X161332515Y-103412167D01*
X161313789Y-103530400D01*
X153239232Y-103530400D01*
X153234493Y-103525661D01*
X153127833Y-103471315D01*
X153009600Y-103452589D01*
X152891367Y-103471315D01*
X152784707Y-103525661D01*
X152718636Y-103591732D01*
X152672016Y-103613472D01*
X152622329Y-103600158D01*
X152598458Y-103572698D01*
X152557027Y-103491384D01*
X152557026Y-103491383D01*
X152554338Y-103486107D01*
X152469692Y-103401461D01*
X152451061Y-103391968D01*
X152415979Y-103354348D01*
X152413285Y-103302979D01*
X152420062Y-103289388D01*
X152419462Y-103289082D01*
X152463929Y-103201811D01*
X152473808Y-103182422D01*
X152492534Y-103064189D01*
X152473808Y-102945956D01*
X152435704Y-102871173D01*
X152422151Y-102844573D01*
X152422150Y-102844572D01*
X152419462Y-102839296D01*
X152334816Y-102754650D01*
X152315114Y-102744611D01*
X152280179Y-102726811D01*
X152228156Y-102700304D01*
X152109923Y-102681578D01*
X151991690Y-102700304D01*
X151939667Y-102726811D01*
X151924306Y-102734638D01*
X151873250Y-102740907D01*
X151830109Y-102712891D01*
X151815069Y-102663698D01*
X151815892Y-102655869D01*
X151816485Y-102652125D01*
X151817411Y-102646280D01*
X151798685Y-102528047D01*
X151763433Y-102458861D01*
X151747028Y-102426664D01*
X151747027Y-102426663D01*
X151744339Y-102421387D01*
X151684952Y-102362000D01*
X154303389Y-102362000D01*
X154322115Y-102480233D01*
X154347888Y-102530816D01*
X154370904Y-102575986D01*
X154376461Y-102586893D01*
X154461107Y-102671539D01*
X154466383Y-102674227D01*
X154466384Y-102674228D01*
X154501927Y-102692338D01*
X154567767Y-102725885D01*
X154573614Y-102726811D01*
X154662614Y-102740907D01*
X154686000Y-102744611D01*
X154709387Y-102740907D01*
X154798386Y-102726811D01*
X154804233Y-102725885D01*
X154870073Y-102692338D01*
X154905616Y-102674228D01*
X154905617Y-102674227D01*
X154910893Y-102671539D01*
X154995539Y-102586893D01*
X155001097Y-102575986D01*
X155024112Y-102530816D01*
X155049885Y-102480233D01*
X155068611Y-102362000D01*
X155065142Y-102340094D01*
X155050811Y-102249614D01*
X155049885Y-102243767D01*
X155042463Y-102229200D01*
X155483189Y-102229200D01*
X155484115Y-102235047D01*
X155486422Y-102249614D01*
X155501915Y-102347433D01*
X155521458Y-102385789D01*
X155537462Y-102417197D01*
X155556261Y-102454093D01*
X155640907Y-102538739D01*
X155646183Y-102541427D01*
X155646184Y-102541428D01*
X155674762Y-102555989D01*
X155747567Y-102593085D01*
X155865800Y-102611811D01*
X155984033Y-102593085D01*
X156056838Y-102555989D01*
X156085416Y-102541428D01*
X156085417Y-102541427D01*
X156090693Y-102538739D01*
X156175339Y-102454093D01*
X156194139Y-102417197D01*
X156210142Y-102385789D01*
X156229685Y-102347433D01*
X156235424Y-102311200D01*
X163396589Y-102311200D01*
X163397515Y-102317047D01*
X163402927Y-102351215D01*
X163415315Y-102429433D01*
X163427880Y-102454093D01*
X163462875Y-102522774D01*
X163469661Y-102536093D01*
X163554307Y-102620739D01*
X163660967Y-102675085D01*
X163666814Y-102676011D01*
X163769900Y-102692338D01*
X163779200Y-102693811D01*
X163785047Y-102692885D01*
X163785048Y-102692885D01*
X163850474Y-102682523D01*
X163900968Y-102692338D01*
X163933340Y-102732315D01*
X163932442Y-102783747D01*
X163929240Y-102790938D01*
X163923315Y-102802567D01*
X163922389Y-102808414D01*
X163910927Y-102880786D01*
X163904589Y-102920800D01*
X163905515Y-102926647D01*
X163908573Y-102945956D01*
X163923315Y-103039033D01*
X163936133Y-103064189D01*
X163970393Y-103131428D01*
X163977661Y-103145693D01*
X164062307Y-103230339D01*
X164067583Y-103233027D01*
X164067584Y-103233028D01*
X164110132Y-103254707D01*
X164168967Y-103284685D01*
X164174814Y-103285611D01*
X164273979Y-103301317D01*
X164287200Y-103303411D01*
X164300422Y-103301317D01*
X164399586Y-103285611D01*
X164405433Y-103284685D01*
X164464268Y-103254707D01*
X164506816Y-103233028D01*
X164506817Y-103233027D01*
X164512093Y-103230339D01*
X164596739Y-103145693D01*
X164604008Y-103131428D01*
X164638267Y-103064189D01*
X164651085Y-103039033D01*
X164665827Y-102945956D01*
X164668885Y-102926647D01*
X164669811Y-102920800D01*
X164663474Y-102880786D01*
X164652011Y-102808414D01*
X164651085Y-102802567D01*
X164612014Y-102725885D01*
X164599428Y-102701184D01*
X164599427Y-102701183D01*
X164596739Y-102695907D01*
X164512093Y-102611261D01*
X164472492Y-102591083D01*
X164442862Y-102575986D01*
X164405433Y-102556915D01*
X164307651Y-102541428D01*
X164293047Y-102539115D01*
X164287200Y-102538189D01*
X164281353Y-102539115D01*
X164281352Y-102539115D01*
X164215926Y-102549477D01*
X164165432Y-102539662D01*
X164133060Y-102499685D01*
X164133958Y-102448253D01*
X164137160Y-102441062D01*
X164140397Y-102434709D01*
X164140398Y-102434706D01*
X164143085Y-102429433D01*
X164155473Y-102351215D01*
X164160885Y-102317047D01*
X164161811Y-102311200D01*
X164143085Y-102192967D01*
X164088739Y-102086307D01*
X164004093Y-102001661D01*
X163995317Y-101997189D01*
X163922994Y-101960339D01*
X163897433Y-101947315D01*
X163838317Y-101937952D01*
X163785047Y-101929515D01*
X163779200Y-101928589D01*
X163773353Y-101929515D01*
X163720083Y-101937952D01*
X163660967Y-101947315D01*
X163635406Y-101960339D01*
X163563084Y-101997189D01*
X163554307Y-102001661D01*
X163469661Y-102086307D01*
X163415315Y-102192967D01*
X163396589Y-102311200D01*
X156235424Y-102311200D01*
X156245178Y-102249614D01*
X156247485Y-102235047D01*
X156248411Y-102229200D01*
X156229685Y-102110967D01*
X156190168Y-102033411D01*
X156178028Y-102009584D01*
X156178027Y-102009583D01*
X156175339Y-102004307D01*
X156090693Y-101919661D01*
X156069839Y-101909035D01*
X155994044Y-101870416D01*
X155984033Y-101865315D01*
X155865800Y-101846589D01*
X155747567Y-101865315D01*
X155737556Y-101870416D01*
X155661762Y-101909035D01*
X155640907Y-101919661D01*
X155556261Y-102004307D01*
X155553573Y-102009583D01*
X155553572Y-102009584D01*
X155541432Y-102033411D01*
X155501915Y-102110967D01*
X155483189Y-102229200D01*
X155042463Y-102229200D01*
X155020865Y-102186813D01*
X154998228Y-102142384D01*
X154998227Y-102142383D01*
X154995539Y-102137107D01*
X154910893Y-102052461D01*
X154804233Y-101998115D01*
X154686000Y-101979389D01*
X154567767Y-101998115D01*
X154461107Y-102052461D01*
X154376461Y-102137107D01*
X154373773Y-102142383D01*
X154373772Y-102142384D01*
X154351135Y-102186813D01*
X154322115Y-102243767D01*
X154321189Y-102249614D01*
X154306859Y-102340094D01*
X154303389Y-102362000D01*
X151684952Y-102362000D01*
X151659693Y-102336741D01*
X151553033Y-102282395D01*
X151434800Y-102263669D01*
X151316567Y-102282395D01*
X151209907Y-102336741D01*
X151125261Y-102421387D01*
X151122573Y-102426663D01*
X151122572Y-102426664D01*
X151106167Y-102458861D01*
X151070915Y-102528047D01*
X151052189Y-102646280D01*
X150679104Y-102646280D01*
X150626739Y-102543507D01*
X150542093Y-102458861D01*
X150533317Y-102454389D01*
X150468546Y-102421387D01*
X150435433Y-102404515D01*
X150317200Y-102385789D01*
X150198967Y-102404515D01*
X150165854Y-102421387D01*
X150101084Y-102454389D01*
X150092307Y-102458861D01*
X150007661Y-102543507D01*
X149953315Y-102650167D01*
X149934589Y-102768400D01*
X144087766Y-102768400D01*
X144080606Y-102723198D01*
X144077085Y-102700967D01*
X144034072Y-102616549D01*
X144025428Y-102599584D01*
X144025427Y-102599583D01*
X144022739Y-102594307D01*
X143938093Y-102509661D01*
X143831433Y-102455315D01*
X143713200Y-102436589D01*
X143594967Y-102455315D01*
X143557538Y-102474386D01*
X143491327Y-102508122D01*
X143440271Y-102514391D01*
X143397130Y-102486374D01*
X143382913Y-102452881D01*
X143380480Y-102437515D01*
X143365885Y-102345367D01*
X143324258Y-102263669D01*
X143314228Y-102243984D01*
X143314227Y-102243983D01*
X143311539Y-102238707D01*
X143226893Y-102154061D01*
X143120233Y-102099715D01*
X143002000Y-102080989D01*
X142883767Y-102099715D01*
X142777107Y-102154061D01*
X142692461Y-102238707D01*
X142689773Y-102243983D01*
X142689772Y-102243984D01*
X142679742Y-102263669D01*
X142638115Y-102345367D01*
X142637189Y-102351214D01*
X142621731Y-102448816D01*
X142619389Y-102463600D01*
X130381000Y-102463600D01*
X130381000Y-101650800D01*
X158519789Y-101650800D01*
X158538515Y-101769033D01*
X158554566Y-101800535D01*
X158578504Y-101847515D01*
X158592861Y-101875693D01*
X158677507Y-101960339D01*
X158784167Y-102014685D01*
X158902400Y-102033411D01*
X159020633Y-102014685D01*
X159127293Y-101960339D01*
X159178597Y-101909035D01*
X159225217Y-101887295D01*
X159274904Y-101900609D01*
X159284945Y-101909035D01*
X159362478Y-101986568D01*
X159367754Y-101989256D01*
X159367755Y-101989257D01*
X159397293Y-102004307D01*
X159469138Y-102040914D01*
X159587371Y-102059640D01*
X159705604Y-102040914D01*
X159777449Y-102004307D01*
X159806987Y-101989257D01*
X159806988Y-101989256D01*
X159812264Y-101986568D01*
X159896910Y-101901922D01*
X159908140Y-101879883D01*
X159938736Y-101819833D01*
X159951256Y-101795262D01*
X159969982Y-101677029D01*
X159966507Y-101655086D01*
X159976322Y-101604591D01*
X160016299Y-101572220D01*
X160029015Y-101569050D01*
X160102033Y-101557485D01*
X160153041Y-101531495D01*
X160204097Y-101525226D01*
X160247238Y-101553242D01*
X160262278Y-101602435D01*
X160261455Y-101610263D01*
X160247915Y-101695753D01*
X160246989Y-101701600D01*
X160265715Y-101819833D01*
X160320061Y-101926493D01*
X160404707Y-102011139D01*
X160409983Y-102013827D01*
X160409984Y-102013828D01*
X160446601Y-102032485D01*
X160511367Y-102065485D01*
X160517214Y-102066411D01*
X160616379Y-102082117D01*
X160629600Y-102084211D01*
X160642822Y-102082117D01*
X160741986Y-102066411D01*
X160747833Y-102065485D01*
X160812599Y-102032485D01*
X160849216Y-102013828D01*
X160849217Y-102013827D01*
X160854493Y-102011139D01*
X160939139Y-101926493D01*
X160993485Y-101819833D01*
X160999275Y-101783276D01*
X161024213Y-101738286D01*
X161072236Y-101719851D01*
X161107689Y-101728036D01*
X161166493Y-101757998D01*
X161171767Y-101760685D01*
X161177614Y-101761611D01*
X161280094Y-101777842D01*
X161290000Y-101779411D01*
X161299907Y-101777842D01*
X161402386Y-101761611D01*
X161408233Y-101760685D01*
X161413508Y-101757997D01*
X161413509Y-101757997D01*
X161439058Y-101744979D01*
X161490115Y-101738709D01*
X161533256Y-101766725D01*
X161540203Y-101777842D01*
X161584301Y-101864389D01*
X161590061Y-101875693D01*
X161674707Y-101960339D01*
X161781367Y-102014685D01*
X161899600Y-102033411D01*
X162017833Y-102014685D01*
X162124493Y-101960339D01*
X162209139Y-101875693D01*
X162223497Y-101847515D01*
X162247434Y-101800535D01*
X162263485Y-101769033D01*
X162282211Y-101650800D01*
X162263485Y-101532567D01*
X162209139Y-101425907D01*
X162124493Y-101341261D01*
X162115717Y-101336789D01*
X162060963Y-101308891D01*
X162017833Y-101286915D01*
X161931832Y-101273294D01*
X161905447Y-101269115D01*
X161899600Y-101268189D01*
X161893753Y-101269115D01*
X161867368Y-101273294D01*
X161781367Y-101286915D01*
X161776092Y-101289603D01*
X161776091Y-101289603D01*
X161750542Y-101302621D01*
X161699485Y-101308891D01*
X161656344Y-101280875D01*
X161649397Y-101269758D01*
X161602228Y-101177184D01*
X161602227Y-101177183D01*
X161599539Y-101171907D01*
X161570432Y-101142800D01*
X162981589Y-101142800D01*
X163000315Y-101261033D01*
X163009249Y-101278567D01*
X163040756Y-101340402D01*
X163054661Y-101367693D01*
X163139307Y-101452339D01*
X163245967Y-101506685D01*
X163364200Y-101525411D01*
X163482433Y-101506685D01*
X163589093Y-101452339D01*
X163673739Y-101367693D01*
X163687645Y-101340402D01*
X163719151Y-101278567D01*
X163728085Y-101261033D01*
X163746811Y-101142800D01*
X163728085Y-101024567D01*
X163673739Y-100917907D01*
X163589093Y-100833261D01*
X163580317Y-100828789D01*
X163509680Y-100792798D01*
X163482433Y-100778915D01*
X163364200Y-100760189D01*
X163245967Y-100778915D01*
X163218720Y-100792798D01*
X163148084Y-100828789D01*
X163139307Y-100833261D01*
X163054661Y-100917907D01*
X163000315Y-101024567D01*
X162981589Y-101142800D01*
X161570432Y-101142800D01*
X161514893Y-101087261D01*
X161408233Y-101032915D01*
X161290000Y-101014189D01*
X161171767Y-101032915D01*
X161065107Y-101087261D01*
X160980461Y-101171907D01*
X160926115Y-101278567D01*
X160922972Y-101298409D01*
X160920325Y-101315124D01*
X160895387Y-101360114D01*
X160847364Y-101378549D01*
X160811911Y-101370364D01*
X160753107Y-101340402D01*
X160753106Y-101340402D01*
X160747833Y-101337715D01*
X160629600Y-101318989D01*
X160511367Y-101337715D01*
X160462889Y-101362416D01*
X160460359Y-101363705D01*
X160409303Y-101369974D01*
X160366162Y-101341958D01*
X160351122Y-101292765D01*
X160351945Y-101284937D01*
X160365485Y-101199447D01*
X160366411Y-101193600D01*
X160347685Y-101075367D01*
X160308614Y-100998685D01*
X160296028Y-100973984D01*
X160296027Y-100973983D01*
X160293339Y-100968707D01*
X160208693Y-100884061D01*
X160169092Y-100863883D01*
X160124866Y-100841349D01*
X160102033Y-100829715D01*
X159983800Y-100810989D01*
X159865567Y-100829715D01*
X159842734Y-100841349D01*
X159798509Y-100863883D01*
X159758907Y-100884061D01*
X159674261Y-100968707D01*
X159671573Y-100973983D01*
X159671572Y-100973984D01*
X159658986Y-100998685D01*
X159619915Y-101075367D01*
X159601189Y-101193600D01*
X159602115Y-101199447D01*
X159602115Y-101199448D01*
X159604664Y-101215543D01*
X159594849Y-101266038D01*
X159554872Y-101298409D01*
X159542156Y-101301579D01*
X159469138Y-101313144D01*
X159362478Y-101367490D01*
X159311174Y-101418794D01*
X159264554Y-101440534D01*
X159214867Y-101427220D01*
X159204826Y-101418794D01*
X159127293Y-101341261D01*
X159118517Y-101336789D01*
X159063763Y-101308891D01*
X159020633Y-101286915D01*
X158934632Y-101273294D01*
X158908247Y-101269115D01*
X158902400Y-101268189D01*
X158896553Y-101269115D01*
X158870168Y-101273294D01*
X158784167Y-101286915D01*
X158741037Y-101308891D01*
X158686284Y-101336789D01*
X158677507Y-101341261D01*
X158592861Y-101425907D01*
X158538515Y-101532567D01*
X158519789Y-101650800D01*
X130381000Y-101650800D01*
X130381000Y-100224300D01*
X140539389Y-100224300D01*
X140558115Y-100342533D01*
X140564917Y-100355883D01*
X140607282Y-100439028D01*
X140612461Y-100449193D01*
X140697107Y-100533839D01*
X140702383Y-100536527D01*
X140702384Y-100536528D01*
X140728497Y-100549833D01*
X140803767Y-100588185D01*
X140922000Y-100606911D01*
X141040233Y-100588185D01*
X141045507Y-100585498D01*
X141142539Y-100536058D01*
X141193596Y-100529789D01*
X141236737Y-100557806D01*
X141251776Y-100606998D01*
X141250954Y-100614815D01*
X141247789Y-100634800D01*
X141266515Y-100753033D01*
X141269202Y-100758306D01*
X141306956Y-100832402D01*
X141320861Y-100859693D01*
X141405507Y-100944339D01*
X141410783Y-100947027D01*
X141410784Y-100947028D01*
X141453332Y-100968707D01*
X141512167Y-100998685D01*
X141630400Y-101017411D01*
X141748633Y-100998685D01*
X141807468Y-100968707D01*
X141850016Y-100947028D01*
X141850017Y-100947027D01*
X141855293Y-100944339D01*
X141939939Y-100859693D01*
X141953845Y-100832402D01*
X141991598Y-100758306D01*
X141994285Y-100753033D01*
X142013011Y-100634800D01*
X141997363Y-100536000D01*
X150191389Y-100536000D01*
X150210115Y-100654233D01*
X150264461Y-100760893D01*
X150349107Y-100845539D01*
X150455767Y-100899885D01*
X150574000Y-100918611D01*
X150692233Y-100899885D01*
X150798893Y-100845539D01*
X150883539Y-100760893D01*
X150937885Y-100654233D01*
X150956611Y-100536000D01*
X150937885Y-100417767D01*
X150892886Y-100329451D01*
X150886228Y-100316384D01*
X150886227Y-100316383D01*
X150883539Y-100311107D01*
X150798893Y-100226461D01*
X150783177Y-100218453D01*
X150741373Y-100197153D01*
X150692233Y-100172115D01*
X150574000Y-100153389D01*
X150455767Y-100172115D01*
X150406627Y-100197153D01*
X150364824Y-100218453D01*
X150349107Y-100226461D01*
X150264461Y-100311107D01*
X150261773Y-100316383D01*
X150261772Y-100316384D01*
X150255114Y-100329451D01*
X150210115Y-100417767D01*
X150191389Y-100536000D01*
X141997363Y-100536000D01*
X141994285Y-100516567D01*
X141959956Y-100449193D01*
X141942628Y-100415184D01*
X141942627Y-100415183D01*
X141939939Y-100409907D01*
X141855293Y-100325261D01*
X141835913Y-100315386D01*
X141805587Y-100299935D01*
X141748633Y-100270915D01*
X141630400Y-100252189D01*
X141512167Y-100270915D01*
X141506894Y-100273602D01*
X141506893Y-100273602D01*
X141409861Y-100323042D01*
X141358804Y-100329311D01*
X141315663Y-100301294D01*
X141300624Y-100252102D01*
X141301446Y-100244285D01*
X141304611Y-100224300D01*
X141301238Y-100203000D01*
X141292247Y-100146233D01*
X141285885Y-100106067D01*
X141253046Y-100041616D01*
X141246108Y-100028000D01*
X148794389Y-100028000D01*
X148795315Y-100033847D01*
X148797381Y-100046893D01*
X148813115Y-100146233D01*
X148867461Y-100252893D01*
X148952107Y-100337539D01*
X149058767Y-100391885D01*
X149177000Y-100410611D01*
X149295233Y-100391885D01*
X149401893Y-100337539D01*
X149486539Y-100252893D01*
X149540885Y-100146233D01*
X149556619Y-100046893D01*
X149558685Y-100033847D01*
X149559611Y-100028000D01*
X151334389Y-100028000D01*
X151335315Y-100033847D01*
X151337381Y-100046893D01*
X151353115Y-100146233D01*
X151407461Y-100252893D01*
X151492107Y-100337539D01*
X151598767Y-100391885D01*
X151717000Y-100410611D01*
X151835233Y-100391885D01*
X151941893Y-100337539D01*
X152026539Y-100252893D01*
X152051961Y-100203000D01*
X152652389Y-100203000D01*
X152653315Y-100208847D01*
X152656105Y-100226461D01*
X152671115Y-100321233D01*
X152684655Y-100347806D01*
X152720302Y-100417767D01*
X152725461Y-100427893D01*
X152810107Y-100512539D01*
X152815383Y-100515227D01*
X152815384Y-100515228D01*
X152843687Y-100529649D01*
X152916767Y-100566885D01*
X153035000Y-100585611D01*
X153153233Y-100566885D01*
X153226313Y-100529649D01*
X153254616Y-100515228D01*
X153254617Y-100515227D01*
X153259893Y-100512539D01*
X153344539Y-100427893D01*
X153349699Y-100417767D01*
X153385345Y-100347806D01*
X153398885Y-100321233D01*
X153413895Y-100226461D01*
X153416685Y-100208847D01*
X153417611Y-100203000D01*
X153405542Y-100126800D01*
X156487789Y-100126800D01*
X156506515Y-100245033D01*
X156509202Y-100250306D01*
X156553215Y-100336686D01*
X156560861Y-100351693D01*
X156645507Y-100436339D01*
X156650783Y-100439027D01*
X156650784Y-100439028D01*
X156670734Y-100449193D01*
X156752167Y-100490685D01*
X156758014Y-100491611D01*
X156863695Y-100508349D01*
X156870400Y-100509411D01*
X156877106Y-100508349D01*
X156982786Y-100491611D01*
X156988633Y-100490685D01*
X157070066Y-100449193D01*
X157090016Y-100439028D01*
X157090017Y-100439027D01*
X157095293Y-100436339D01*
X157100032Y-100431600D01*
X164006189Y-100431600D01*
X164024915Y-100549833D01*
X164079261Y-100656493D01*
X164163907Y-100741139D01*
X164169183Y-100743827D01*
X164169184Y-100743828D01*
X164197599Y-100758306D01*
X164270567Y-100795485D01*
X164388800Y-100814211D01*
X164507033Y-100795485D01*
X164580001Y-100758306D01*
X164608416Y-100743828D01*
X164608417Y-100743827D01*
X164613693Y-100741139D01*
X164698339Y-100656493D01*
X164752685Y-100549833D01*
X164771411Y-100431600D01*
X164752685Y-100313367D01*
X164698339Y-100206707D01*
X164613693Y-100122061D01*
X164593779Y-100111914D01*
X164540499Y-100084767D01*
X164507033Y-100067715D01*
X164403297Y-100051285D01*
X164394647Y-100049915D01*
X164388800Y-100048989D01*
X164382953Y-100049915D01*
X164374303Y-100051285D01*
X164270567Y-100067715D01*
X164237101Y-100084767D01*
X164183822Y-100111914D01*
X164163907Y-100122061D01*
X164079261Y-100206707D01*
X164024915Y-100313367D01*
X164006189Y-100431600D01*
X157100032Y-100431600D01*
X157179939Y-100351693D01*
X157187586Y-100336686D01*
X157231598Y-100250306D01*
X157234285Y-100245033D01*
X157253011Y-100126800D01*
X157237363Y-100028000D01*
X162304389Y-100028000D01*
X162305315Y-100033847D01*
X162307381Y-100046893D01*
X162323115Y-100146233D01*
X162377461Y-100252893D01*
X162462107Y-100337539D01*
X162568767Y-100391885D01*
X162687000Y-100410611D01*
X162805233Y-100391885D01*
X162911893Y-100337539D01*
X162996539Y-100252893D01*
X163050885Y-100146233D01*
X163066619Y-100046893D01*
X163068685Y-100033847D01*
X163069611Y-100028000D01*
X163050885Y-99909767D01*
X163009145Y-99827847D01*
X162999228Y-99808384D01*
X162999227Y-99808383D01*
X162996539Y-99803107D01*
X162911893Y-99718461D01*
X162883055Y-99703767D01*
X162827473Y-99675447D01*
X162805233Y-99664115D01*
X162687000Y-99645389D01*
X162568767Y-99664115D01*
X162546527Y-99675447D01*
X162490946Y-99703767D01*
X162462107Y-99718461D01*
X162377461Y-99803107D01*
X162374773Y-99808383D01*
X162374772Y-99808384D01*
X162364855Y-99827847D01*
X162323115Y-99909767D01*
X162304389Y-100028000D01*
X157237363Y-100028000D01*
X157234285Y-100008567D01*
X157196488Y-99934386D01*
X157182628Y-99907184D01*
X157182627Y-99907183D01*
X157179939Y-99901907D01*
X157095293Y-99817261D01*
X156988633Y-99762915D01*
X156870400Y-99744189D01*
X156752167Y-99762915D01*
X156645507Y-99817261D01*
X156560861Y-99901907D01*
X156558173Y-99907183D01*
X156558172Y-99907184D01*
X156544312Y-99934386D01*
X156506515Y-100008567D01*
X156487789Y-100126800D01*
X153405542Y-100126800D01*
X153398885Y-100084767D01*
X153358081Y-100004684D01*
X153347228Y-99983384D01*
X153347227Y-99983383D01*
X153344539Y-99978107D01*
X153259893Y-99893461D01*
X153153233Y-99839115D01*
X153045172Y-99822000D01*
X153040847Y-99821315D01*
X153035000Y-99820389D01*
X153029153Y-99821315D01*
X153024828Y-99822000D01*
X152916767Y-99839115D01*
X152810107Y-99893461D01*
X152725461Y-99978107D01*
X152722773Y-99983383D01*
X152722772Y-99983384D01*
X152711919Y-100004684D01*
X152671115Y-100084767D01*
X152652389Y-100203000D01*
X152051961Y-100203000D01*
X152080885Y-100146233D01*
X152096619Y-100046893D01*
X152098685Y-100033847D01*
X152099611Y-100028000D01*
X152080885Y-99909767D01*
X152039145Y-99827847D01*
X152029228Y-99808384D01*
X152029227Y-99808383D01*
X152026539Y-99803107D01*
X151941893Y-99718461D01*
X151913055Y-99703767D01*
X151857473Y-99675447D01*
X151835233Y-99664115D01*
X151717000Y-99645389D01*
X151598767Y-99664115D01*
X151576527Y-99675447D01*
X151520946Y-99703767D01*
X151492107Y-99718461D01*
X151407461Y-99803107D01*
X151404773Y-99808383D01*
X151404772Y-99808384D01*
X151394855Y-99827847D01*
X151353115Y-99909767D01*
X151334389Y-100028000D01*
X149559611Y-100028000D01*
X149540885Y-99909767D01*
X149499145Y-99827847D01*
X149489228Y-99808384D01*
X149489227Y-99808383D01*
X149486539Y-99803107D01*
X149401893Y-99718461D01*
X149373055Y-99703767D01*
X149317473Y-99675447D01*
X149295233Y-99664115D01*
X149177000Y-99645389D01*
X149058767Y-99664115D01*
X149036527Y-99675447D01*
X148980946Y-99703767D01*
X148952107Y-99718461D01*
X148867461Y-99803107D01*
X148864773Y-99808383D01*
X148864772Y-99808384D01*
X148854855Y-99827847D01*
X148813115Y-99909767D01*
X148794389Y-100028000D01*
X141246108Y-100028000D01*
X141234228Y-100004684D01*
X141234227Y-100004683D01*
X141231539Y-99999407D01*
X141146893Y-99914761D01*
X141132023Y-99907184D01*
X141096758Y-99889216D01*
X141040233Y-99860415D01*
X140922000Y-99841689D01*
X140803767Y-99860415D01*
X140747242Y-99889216D01*
X140711978Y-99907184D01*
X140697107Y-99914761D01*
X140612461Y-99999407D01*
X140609773Y-100004683D01*
X140609772Y-100004684D01*
X140590954Y-100041616D01*
X140558115Y-100106067D01*
X140551753Y-100146233D01*
X140542763Y-100203000D01*
X140539389Y-100224300D01*
X130381000Y-100224300D01*
X130381000Y-99822000D01*
X139723789Y-99822000D01*
X139742515Y-99940233D01*
X139745202Y-99945506D01*
X139787235Y-100028000D01*
X139796861Y-100046893D01*
X139881507Y-100131539D01*
X139886783Y-100134227D01*
X139886784Y-100134228D01*
X139920694Y-100151506D01*
X139988167Y-100185885D01*
X139994014Y-100186811D01*
X140093179Y-100202517D01*
X140106400Y-100204611D01*
X140119622Y-100202517D01*
X140218786Y-100186811D01*
X140224633Y-100185885D01*
X140292106Y-100151506D01*
X140326016Y-100134228D01*
X140326017Y-100134227D01*
X140331293Y-100131539D01*
X140415939Y-100046893D01*
X140425566Y-100028000D01*
X140467598Y-99945506D01*
X140470285Y-99940233D01*
X140489011Y-99822000D01*
X140486855Y-99808384D01*
X140471211Y-99709614D01*
X140470285Y-99703767D01*
X140440540Y-99645389D01*
X140418628Y-99602384D01*
X140418627Y-99602383D01*
X140415939Y-99597107D01*
X140331293Y-99512461D01*
X140224633Y-99458115D01*
X140106400Y-99439389D01*
X139988167Y-99458115D01*
X139881507Y-99512461D01*
X139796861Y-99597107D01*
X139794173Y-99602383D01*
X139794172Y-99602384D01*
X139772260Y-99645389D01*
X139742515Y-99703767D01*
X139741589Y-99709614D01*
X139725946Y-99808384D01*
X139723789Y-99822000D01*
X130381000Y-99822000D01*
X130381000Y-97877943D01*
X135474100Y-97877943D01*
X135474101Y-99608056D01*
X135482972Y-99652658D01*
X135516766Y-99703234D01*
X135522923Y-99707348D01*
X135561183Y-99732913D01*
X135561184Y-99732914D01*
X135567342Y-99737028D01*
X135574606Y-99738473D01*
X135607997Y-99745115D01*
X135611943Y-99745900D01*
X136476882Y-99745900D01*
X137342056Y-99745899D01*
X137386658Y-99737028D01*
X137437234Y-99703234D01*
X137463615Y-99663753D01*
X137466913Y-99658817D01*
X137466914Y-99658816D01*
X137471028Y-99652658D01*
X137479900Y-99608057D01*
X137479899Y-98631000D01*
X152017389Y-98631000D01*
X152036115Y-98749233D01*
X152090461Y-98855893D01*
X152175107Y-98940539D01*
X152281767Y-98994885D01*
X152400000Y-99013611D01*
X152518233Y-98994885D01*
X152624893Y-98940539D01*
X152709539Y-98855893D01*
X152763885Y-98749233D01*
X152782611Y-98631000D01*
X152781223Y-98622233D01*
X152764811Y-98518614D01*
X152763885Y-98512767D01*
X152709539Y-98406107D01*
X152624893Y-98321461D01*
X152518233Y-98267115D01*
X152410172Y-98250000D01*
X154255389Y-98250000D01*
X154274115Y-98368233D01*
X154328461Y-98474893D01*
X154413107Y-98559539D01*
X154519767Y-98613885D01*
X154638000Y-98632611D01*
X154756233Y-98613885D01*
X154862893Y-98559539D01*
X154918432Y-98504000D01*
X155144389Y-98504000D01*
X155145315Y-98509847D01*
X155146704Y-98518614D01*
X155163115Y-98622233D01*
X155217461Y-98728893D01*
X155302107Y-98813539D01*
X155408767Y-98867885D01*
X155467884Y-98877248D01*
X155521153Y-98885685D01*
X155527000Y-98886611D01*
X155527942Y-98886462D01*
X155574145Y-98903278D01*
X155600081Y-98949121D01*
X155614548Y-99040466D01*
X155668894Y-99147126D01*
X155723472Y-99201704D01*
X155745212Y-99248324D01*
X155731898Y-99298011D01*
X155704439Y-99321881D01*
X155629507Y-99360061D01*
X155544861Y-99444707D01*
X155490515Y-99551367D01*
X155471789Y-99669600D01*
X155472715Y-99675447D01*
X155479102Y-99715772D01*
X155490515Y-99787833D01*
X155517956Y-99841689D01*
X155527026Y-99859489D01*
X155544861Y-99894493D01*
X155629507Y-99979139D01*
X155736167Y-100033485D01*
X155854400Y-100052211D01*
X155972633Y-100033485D01*
X156079293Y-99979139D01*
X156163939Y-99894493D01*
X156181775Y-99859489D01*
X156190844Y-99841689D01*
X156218285Y-99787833D01*
X156229698Y-99715772D01*
X156236085Y-99675447D01*
X156237011Y-99669600D01*
X156218285Y-99551367D01*
X156163939Y-99444707D01*
X156109361Y-99390129D01*
X156087621Y-99343509D01*
X156100935Y-99293822D01*
X156128394Y-99269952D01*
X156203326Y-99231772D01*
X156287972Y-99147126D01*
X156342318Y-99040466D01*
X156361044Y-98922233D01*
X156342318Y-98804000D01*
X156287972Y-98697340D01*
X156203326Y-98612694D01*
X156096666Y-98558348D01*
X155978433Y-98539622D01*
X155977491Y-98539771D01*
X155931288Y-98522955D01*
X155905352Y-98477111D01*
X155891811Y-98391615D01*
X155891811Y-98391614D01*
X155890885Y-98385767D01*
X155836539Y-98279107D01*
X155751893Y-98194461D01*
X155645233Y-98140115D01*
X155527000Y-98121389D01*
X155408767Y-98140115D01*
X155302107Y-98194461D01*
X155217461Y-98279107D01*
X155163115Y-98385767D01*
X155144389Y-98504000D01*
X154918432Y-98504000D01*
X154947539Y-98474893D01*
X155001885Y-98368233D01*
X155020611Y-98250000D01*
X155001885Y-98131767D01*
X154947539Y-98025107D01*
X154862893Y-97940461D01*
X154756233Y-97886115D01*
X154638000Y-97867389D01*
X154519767Y-97886115D01*
X154413107Y-97940461D01*
X154328461Y-98025107D01*
X154274115Y-98131767D01*
X154255389Y-98250000D01*
X152410172Y-98250000D01*
X152400000Y-98248389D01*
X152281767Y-98267115D01*
X152175107Y-98321461D01*
X152090461Y-98406107D01*
X152036115Y-98512767D01*
X152035189Y-98518614D01*
X152018778Y-98622233D01*
X152017389Y-98631000D01*
X137479899Y-98631000D01*
X137479899Y-97877944D01*
X137471028Y-97833342D01*
X137437234Y-97782766D01*
X137392818Y-97753088D01*
X137392816Y-97753086D01*
X137386658Y-97748972D01*
X137342057Y-97740100D01*
X136477118Y-97740100D01*
X135611944Y-97740101D01*
X135567342Y-97748972D01*
X135516766Y-97782766D01*
X135482972Y-97833342D01*
X135474100Y-97877943D01*
X130381000Y-97877943D01*
X130381000Y-97068953D01*
X130596630Y-97068953D01*
X130636215Y-97207461D01*
X130639071Y-97211987D01*
X130639072Y-97211990D01*
X130688002Y-97289539D01*
X130713084Y-97329291D01*
X130717097Y-97332835D01*
X130817041Y-97421103D01*
X130817044Y-97421105D01*
X130821057Y-97424649D01*
X130951454Y-97485871D01*
X130956744Y-97486695D01*
X130956745Y-97486695D01*
X130987089Y-97491419D01*
X131060825Y-97502900D01*
X131136107Y-97502900D01*
X131184385Y-97495986D01*
X131237296Y-97488409D01*
X131237300Y-97488408D01*
X131242599Y-97487649D01*
X131247473Y-97485433D01*
X131247476Y-97485432D01*
X131324872Y-97450242D01*
X131373734Y-97428026D01*
X131377794Y-97424528D01*
X131478810Y-97337487D01*
X131478813Y-97337484D01*
X131482864Y-97333993D01*
X131488847Y-97324763D01*
X131558303Y-97217604D01*
X131558303Y-97217603D01*
X131561215Y-97213111D01*
X131602490Y-97075098D01*
X131602528Y-97068953D01*
X132396630Y-97068953D01*
X132436215Y-97207461D01*
X132439071Y-97211987D01*
X132439072Y-97211990D01*
X132488002Y-97289539D01*
X132513084Y-97329291D01*
X132517097Y-97332835D01*
X132617041Y-97421103D01*
X132617044Y-97421105D01*
X132621057Y-97424649D01*
X132751454Y-97485871D01*
X132756744Y-97486695D01*
X132756745Y-97486695D01*
X132787089Y-97491419D01*
X132860825Y-97502900D01*
X132936107Y-97502900D01*
X132984385Y-97495986D01*
X133037296Y-97488409D01*
X133037300Y-97488408D01*
X133042599Y-97487649D01*
X133047473Y-97485433D01*
X133047476Y-97485432D01*
X133124872Y-97450242D01*
X133173734Y-97428026D01*
X133177794Y-97424528D01*
X133225293Y-97383600D01*
X149574889Y-97383600D01*
X149593615Y-97501833D01*
X149647961Y-97608493D01*
X149732607Y-97693139D01*
X149839267Y-97747485D01*
X149957500Y-97766211D01*
X150075733Y-97747485D01*
X150182393Y-97693139D01*
X150267039Y-97608493D01*
X150321385Y-97501833D01*
X150340111Y-97383600D01*
X150321385Y-97265367D01*
X150267039Y-97158707D01*
X150182393Y-97074061D01*
X150161859Y-97063598D01*
X150092264Y-97028138D01*
X150075733Y-97019715D01*
X149957500Y-97000989D01*
X149839267Y-97019715D01*
X149822736Y-97028138D01*
X149753142Y-97063598D01*
X149732607Y-97074061D01*
X149647961Y-97158707D01*
X149593615Y-97265367D01*
X149574889Y-97383600D01*
X133225293Y-97383600D01*
X133278810Y-97337487D01*
X133278813Y-97337484D01*
X133282864Y-97333993D01*
X133288847Y-97324763D01*
X133358303Y-97217604D01*
X133358303Y-97217603D01*
X133361215Y-97213111D01*
X133402490Y-97075098D01*
X133402561Y-97063598D01*
X133403337Y-96936402D01*
X133403370Y-96931047D01*
X133363785Y-96792539D01*
X133360929Y-96788013D01*
X133360928Y-96788010D01*
X133289773Y-96675237D01*
X133286916Y-96670709D01*
X133267693Y-96653732D01*
X133182959Y-96578897D01*
X133182956Y-96578895D01*
X133178943Y-96575351D01*
X133048546Y-96514129D01*
X133043256Y-96513305D01*
X133043255Y-96513305D01*
X133012911Y-96508581D01*
X132939175Y-96497100D01*
X132863893Y-96497100D01*
X132823257Y-96502920D01*
X132762704Y-96511591D01*
X132762700Y-96511592D01*
X132757401Y-96512351D01*
X132752527Y-96514567D01*
X132752524Y-96514568D01*
X132675128Y-96549758D01*
X132626266Y-96571974D01*
X132622208Y-96575471D01*
X132622206Y-96575472D01*
X132521190Y-96662513D01*
X132521187Y-96662516D01*
X132517136Y-96666007D01*
X132514225Y-96670498D01*
X132455965Y-96760384D01*
X132438785Y-96786889D01*
X132435555Y-96797690D01*
X132403336Y-96905423D01*
X132397510Y-96924902D01*
X132397477Y-96930257D01*
X132397477Y-96930259D01*
X132397209Y-96974153D01*
X132396630Y-97068953D01*
X131602528Y-97068953D01*
X131602561Y-97063598D01*
X131603337Y-96936402D01*
X131603370Y-96931047D01*
X131563785Y-96792539D01*
X131560929Y-96788013D01*
X131560928Y-96788010D01*
X131489773Y-96675237D01*
X131486916Y-96670709D01*
X131467693Y-96653732D01*
X131382959Y-96578897D01*
X131382956Y-96578895D01*
X131378943Y-96575351D01*
X131248546Y-96514129D01*
X131243256Y-96513305D01*
X131243255Y-96513305D01*
X131212911Y-96508581D01*
X131139175Y-96497100D01*
X131063893Y-96497100D01*
X131023257Y-96502920D01*
X130962704Y-96511591D01*
X130962700Y-96511592D01*
X130957401Y-96512351D01*
X130952527Y-96514567D01*
X130952524Y-96514568D01*
X130875128Y-96549758D01*
X130826266Y-96571974D01*
X130822208Y-96575471D01*
X130822206Y-96575472D01*
X130721190Y-96662513D01*
X130721187Y-96662516D01*
X130717136Y-96666007D01*
X130714225Y-96670498D01*
X130655965Y-96760384D01*
X130638785Y-96786889D01*
X130635555Y-96797690D01*
X130603336Y-96905423D01*
X130597510Y-96924902D01*
X130597477Y-96930257D01*
X130597477Y-96930259D01*
X130597209Y-96974153D01*
X130596630Y-97068953D01*
X130381000Y-97068953D01*
X130381000Y-96188930D01*
X135469345Y-96188930D01*
X135469653Y-96192598D01*
X135469653Y-96192601D01*
X135480358Y-96320083D01*
X135485803Y-96384919D01*
X135540015Y-96573979D01*
X135541697Y-96577251D01*
X135541697Y-96577252D01*
X135552046Y-96597389D01*
X135629916Y-96748908D01*
X135752083Y-96903044D01*
X135754877Y-96905422D01*
X135754878Y-96905423D01*
X135789691Y-96935051D01*
X135901862Y-97030516D01*
X135905063Y-97032305D01*
X135905066Y-97032307D01*
X135970637Y-97068953D01*
X136073547Y-97126467D01*
X136077044Y-97127603D01*
X136077048Y-97127605D01*
X136159876Y-97154517D01*
X136260600Y-97187244D01*
X136364353Y-97199616D01*
X136452237Y-97210096D01*
X136452239Y-97210096D01*
X136455895Y-97210532D01*
X136651994Y-97195443D01*
X136766061Y-97163595D01*
X136837883Y-97143542D01*
X136837885Y-97143541D01*
X136841428Y-97142552D01*
X136976932Y-97074104D01*
X137013697Y-97055533D01*
X137013698Y-97055532D01*
X137016981Y-97053874D01*
X137111535Y-96980000D01*
X153493389Y-96980000D01*
X153512115Y-97098233D01*
X153526501Y-97126467D01*
X153561790Y-97195725D01*
X153566461Y-97204893D01*
X153651107Y-97289539D01*
X153757767Y-97343885D01*
X153876000Y-97362611D01*
X153994233Y-97343885D01*
X154100893Y-97289539D01*
X154185539Y-97204893D01*
X154190211Y-97195725D01*
X154225499Y-97126467D01*
X154239885Y-97098233D01*
X154258611Y-96980000D01*
X154239885Y-96861767D01*
X154200210Y-96783901D01*
X154188228Y-96760384D01*
X154188227Y-96760383D01*
X154185539Y-96755107D01*
X154100893Y-96670461D01*
X154094425Y-96667165D01*
X154051187Y-96645135D01*
X153994233Y-96616115D01*
X153876000Y-96597389D01*
X153757767Y-96616115D01*
X153700813Y-96645135D01*
X153657576Y-96667165D01*
X153651107Y-96670461D01*
X153566461Y-96755107D01*
X153563773Y-96760383D01*
X153563772Y-96760384D01*
X153551790Y-96783901D01*
X153512115Y-96861767D01*
X153493389Y-96980000D01*
X137111535Y-96980000D01*
X137171966Y-96932786D01*
X137300480Y-96783901D01*
X137366451Y-96667772D01*
X137395810Y-96616091D01*
X137395812Y-96616088D01*
X137397628Y-96612890D01*
X137436020Y-96497481D01*
X137458548Y-96429760D01*
X137458549Y-96429757D01*
X137459710Y-96426266D01*
X137484360Y-96231138D01*
X137484753Y-96203000D01*
X137484548Y-96200907D01*
X137465921Y-96010927D01*
X137465920Y-96010922D01*
X137465561Y-96007260D01*
X137408714Y-95818975D01*
X137316379Y-95645318D01*
X137265554Y-95583000D01*
X147778389Y-95583000D01*
X147797115Y-95701233D01*
X147851461Y-95807893D01*
X147936107Y-95892539D01*
X148042767Y-95946885D01*
X148161000Y-95965611D01*
X148166847Y-95964685D01*
X148166848Y-95964685D01*
X148207757Y-95958206D01*
X148258251Y-95968021D01*
X148290623Y-96007998D01*
X148293794Y-96044243D01*
X148286389Y-96091000D01*
X148305115Y-96209233D01*
X148359461Y-96315893D01*
X148444107Y-96400539D01*
X148550767Y-96454885D01*
X148669000Y-96473611D01*
X148787233Y-96454885D01*
X148893893Y-96400539D01*
X148978539Y-96315893D01*
X149032885Y-96209233D01*
X149051611Y-96091000D01*
X149032885Y-95972767D01*
X148978539Y-95866107D01*
X148893893Y-95781461D01*
X148787233Y-95727115D01*
X148669000Y-95708389D01*
X148663153Y-95709315D01*
X148663152Y-95709315D01*
X148622243Y-95715794D01*
X148571749Y-95705979D01*
X148539377Y-95666002D01*
X148536206Y-95629757D01*
X148542685Y-95588848D01*
X148542685Y-95588847D01*
X148543611Y-95583000D01*
X148524885Y-95464767D01*
X148470539Y-95358107D01*
X148385893Y-95273461D01*
X148279233Y-95219115D01*
X148161000Y-95200389D01*
X148042767Y-95219115D01*
X147936107Y-95273461D01*
X147851461Y-95358107D01*
X147797115Y-95464767D01*
X147778389Y-95583000D01*
X137265554Y-95583000D01*
X137192072Y-95492903D01*
X137040528Y-95367535D01*
X136867520Y-95273990D01*
X136679637Y-95215830D01*
X136541532Y-95201315D01*
X136487690Y-95195656D01*
X136487689Y-95195656D01*
X136484035Y-95195272D01*
X136417632Y-95201315D01*
X136291824Y-95212764D01*
X136291823Y-95212764D01*
X136288166Y-95213097D01*
X136284641Y-95214134D01*
X136284638Y-95214135D01*
X136103019Y-95267589D01*
X136099489Y-95268628D01*
X135925192Y-95359748D01*
X135922328Y-95362051D01*
X135801133Y-95459494D01*
X135771912Y-95482988D01*
X135645489Y-95633653D01*
X135643718Y-95636875D01*
X135643717Y-95636876D01*
X135561928Y-95785651D01*
X135550739Y-95806004D01*
X135491269Y-95993476D01*
X135469345Y-96188930D01*
X130381000Y-96188930D01*
X130381000Y-93797918D01*
X135482359Y-93797918D01*
X135485990Y-93841161D01*
X135487312Y-93848363D01*
X135539470Y-94030261D01*
X135542164Y-94037063D01*
X135628657Y-94205363D01*
X135632623Y-94211518D01*
X135750164Y-94359817D01*
X135755240Y-94365074D01*
X135899355Y-94487725D01*
X135905353Y-94491894D01*
X136070537Y-94584211D01*
X136077250Y-94587144D01*
X136257210Y-94645616D01*
X136264358Y-94647188D01*
X136336833Y-94655830D01*
X136347357Y-94653361D01*
X136350000Y-94649829D01*
X136350000Y-94645375D01*
X136604000Y-94645375D01*
X136607697Y-94655532D01*
X136612003Y-94658018D01*
X136648239Y-94655230D01*
X136655447Y-94653959D01*
X136837701Y-94603073D01*
X136844534Y-94600422D01*
X137013428Y-94515108D01*
X137019611Y-94511184D01*
X137168720Y-94394687D01*
X137174023Y-94389637D01*
X137240174Y-94313000D01*
X147270389Y-94313000D01*
X147289115Y-94431233D01*
X147343461Y-94537893D01*
X147428107Y-94622539D01*
X147534767Y-94676885D01*
X147653000Y-94695611D01*
X147771233Y-94676885D01*
X147877893Y-94622539D01*
X147962539Y-94537893D01*
X148016885Y-94431233D01*
X148035611Y-94313000D01*
X148016885Y-94194767D01*
X147962539Y-94088107D01*
X147877893Y-94003461D01*
X147771233Y-93949115D01*
X147653000Y-93930389D01*
X147534767Y-93949115D01*
X147428107Y-94003461D01*
X147343461Y-94088107D01*
X147289115Y-94194767D01*
X147270389Y-94313000D01*
X137240174Y-94313000D01*
X137297664Y-94246397D01*
X137301886Y-94240412D01*
X137395354Y-94075880D01*
X137398328Y-94069200D01*
X137458059Y-93889641D01*
X137459680Y-93882507D01*
X137469704Y-93803154D01*
X137467310Y-93792615D01*
X137463865Y-93790000D01*
X136617259Y-93790000D01*
X136607102Y-93793697D01*
X136604000Y-93799069D01*
X136604000Y-94645375D01*
X136350000Y-94645375D01*
X136350000Y-93803259D01*
X136346303Y-93793102D01*
X136340931Y-93790000D01*
X135494953Y-93790000D01*
X135484796Y-93793697D01*
X135482359Y-93797918D01*
X130381000Y-93797918D01*
X130381000Y-93522821D01*
X135483994Y-93522821D01*
X135486537Y-93533330D01*
X135490158Y-93536000D01*
X136336741Y-93536000D01*
X136346898Y-93532303D01*
X136350000Y-93526931D01*
X136350000Y-93522741D01*
X136604000Y-93522741D01*
X136607697Y-93532898D01*
X136613069Y-93536000D01*
X137458539Y-93536000D01*
X137468696Y-93532303D01*
X137471038Y-93528247D01*
X137465426Y-93471015D01*
X137464004Y-93463836D01*
X137413633Y-93297000D01*
X148413389Y-93297000D01*
X148432115Y-93415233D01*
X148486461Y-93521893D01*
X148571107Y-93606539D01*
X148677767Y-93660885D01*
X148796000Y-93679611D01*
X148914233Y-93660885D01*
X149020893Y-93606539D01*
X149105539Y-93521893D01*
X149159885Y-93415233D01*
X149178611Y-93297000D01*
X149175604Y-93278011D01*
X149174145Y-93268800D01*
X159992989Y-93268800D01*
X160011715Y-93387033D01*
X160066061Y-93493693D01*
X160150707Y-93578339D01*
X160257367Y-93632685D01*
X160375600Y-93651411D01*
X160493833Y-93632685D01*
X160600493Y-93578339D01*
X160685139Y-93493693D01*
X160739485Y-93387033D01*
X160758211Y-93268800D01*
X160747396Y-93200517D01*
X160757211Y-93150023D01*
X160798231Y-93117394D01*
X160803509Y-93116558D01*
X160890749Y-93072107D01*
X160904892Y-93064901D01*
X160904893Y-93064900D01*
X160910169Y-93062212D01*
X160994815Y-92977566D01*
X161027611Y-92913200D01*
X161355989Y-92913200D01*
X161356915Y-92919047D01*
X161359143Y-92933115D01*
X161374715Y-93031433D01*
X161429061Y-93138093D01*
X161513707Y-93222739D01*
X161620367Y-93277085D01*
X161738600Y-93295811D01*
X161856833Y-93277085D01*
X161963493Y-93222739D01*
X162048139Y-93138093D01*
X162102485Y-93031433D01*
X162118057Y-92933115D01*
X162120285Y-92919047D01*
X162121211Y-92913200D01*
X162102485Y-92794967D01*
X162048139Y-92688307D01*
X161963493Y-92603661D01*
X161856833Y-92549315D01*
X161754183Y-92533057D01*
X161744447Y-92531515D01*
X161738600Y-92530589D01*
X161732753Y-92531515D01*
X161723017Y-92533057D01*
X161620367Y-92549315D01*
X161513707Y-92603661D01*
X161429061Y-92688307D01*
X161374715Y-92794967D01*
X161355989Y-92913200D01*
X161027611Y-92913200D01*
X161049161Y-92870906D01*
X161067887Y-92752673D01*
X161049161Y-92634440D01*
X161014702Y-92566811D01*
X160997504Y-92533057D01*
X160997503Y-92533056D01*
X160994815Y-92527780D01*
X160910169Y-92443134D01*
X160868364Y-92421833D01*
X160856888Y-92415986D01*
X160803509Y-92388788D01*
X160685276Y-92370062D01*
X160567043Y-92388788D01*
X160513664Y-92415986D01*
X160502189Y-92421833D01*
X160460383Y-92443134D01*
X160375737Y-92527780D01*
X160373049Y-92533056D01*
X160373048Y-92533057D01*
X160355850Y-92566811D01*
X160321391Y-92634440D01*
X160302665Y-92752673D01*
X160308529Y-92789694D01*
X160313480Y-92820955D01*
X160303665Y-92871450D01*
X160262645Y-92904079D01*
X160257367Y-92904915D01*
X160203839Y-92932189D01*
X160167097Y-92950910D01*
X160150707Y-92959261D01*
X160066061Y-93043907D01*
X160011715Y-93150567D01*
X159992989Y-93268800D01*
X149174145Y-93268800D01*
X149160811Y-93184614D01*
X149159885Y-93178767D01*
X149105539Y-93072107D01*
X149020893Y-92987461D01*
X149009697Y-92981756D01*
X148959361Y-92956109D01*
X148914233Y-92933115D01*
X148796000Y-92914389D01*
X148677767Y-92933115D01*
X148632639Y-92956109D01*
X148582304Y-92981756D01*
X148571107Y-92987461D01*
X148486461Y-93072107D01*
X148432115Y-93178767D01*
X148431189Y-93184614D01*
X148416397Y-93278011D01*
X148413389Y-93297000D01*
X137413633Y-93297000D01*
X137409312Y-93282688D01*
X137406524Y-93275922D01*
X137317684Y-93108839D01*
X137313639Y-93102751D01*
X137194041Y-92956109D01*
X137188878Y-92950910D01*
X137043078Y-92830294D01*
X137037016Y-92826205D01*
X136870557Y-92736201D01*
X136863813Y-92733366D01*
X136683047Y-92677410D01*
X136675880Y-92675939D01*
X136617186Y-92669770D01*
X136606700Y-92672384D01*
X136604000Y-92676100D01*
X136604000Y-93522741D01*
X136350000Y-93522741D01*
X136350000Y-92681231D01*
X136346303Y-92671074D01*
X136342166Y-92668685D01*
X136291927Y-92673257D01*
X136284728Y-92674631D01*
X136103208Y-92728055D01*
X136096421Y-92730797D01*
X135928721Y-92818468D01*
X135922603Y-92822472D01*
X135775128Y-92941044D01*
X135769903Y-92946161D01*
X135648266Y-93091122D01*
X135644132Y-93097160D01*
X135552975Y-93262975D01*
X135550088Y-93269711D01*
X135492874Y-93450074D01*
X135491351Y-93457239D01*
X135483994Y-93522821D01*
X130381000Y-93522821D01*
X130381000Y-92202000D01*
X144702189Y-92202000D01*
X144720915Y-92320233D01*
X144723602Y-92325506D01*
X144769704Y-92415986D01*
X144775261Y-92426893D01*
X144859907Y-92511539D01*
X144966567Y-92565885D01*
X145084800Y-92584611D01*
X145203033Y-92565885D01*
X145309693Y-92511539D01*
X145394339Y-92426893D01*
X145399897Y-92415986D01*
X145445998Y-92325506D01*
X145448685Y-92320233D01*
X145451319Y-92303600D01*
X148512189Y-92303600D01*
X148513115Y-92309447D01*
X148521121Y-92359998D01*
X148530915Y-92421833D01*
X148543903Y-92447324D01*
X148577993Y-92514228D01*
X148585261Y-92528493D01*
X148669907Y-92613139D01*
X148675183Y-92615827D01*
X148675184Y-92615828D01*
X148719613Y-92638465D01*
X148776567Y-92667485D01*
X148821686Y-92674631D01*
X148881579Y-92684117D01*
X148894800Y-92686211D01*
X148908022Y-92684117D01*
X148967914Y-92674631D01*
X149013033Y-92667485D01*
X149069987Y-92638465D01*
X149114416Y-92615828D01*
X149114417Y-92615827D01*
X149119693Y-92613139D01*
X149204339Y-92528493D01*
X149211608Y-92514228D01*
X149245697Y-92447324D01*
X149258685Y-92421833D01*
X149268479Y-92359998D01*
X149276485Y-92309447D01*
X149277411Y-92303600D01*
X149258685Y-92185367D01*
X149220888Y-92111186D01*
X149207028Y-92083984D01*
X149207027Y-92083983D01*
X149204339Y-92078707D01*
X149124432Y-91998800D01*
X151661789Y-91998800D01*
X151680515Y-92117033D01*
X151734861Y-92223693D01*
X151819507Y-92308339D01*
X151926167Y-92362685D01*
X152044400Y-92381411D01*
X152162633Y-92362685D01*
X152269293Y-92308339D01*
X152353939Y-92223693D01*
X152408285Y-92117033D01*
X152427011Y-91998800D01*
X152408285Y-91880567D01*
X152353939Y-91773907D01*
X152269293Y-91689261D01*
X152162633Y-91634915D01*
X152044400Y-91616189D01*
X151926167Y-91634915D01*
X151819507Y-91689261D01*
X151734861Y-91773907D01*
X151680515Y-91880567D01*
X151661789Y-91998800D01*
X149124432Y-91998800D01*
X149119693Y-91994061D01*
X149013033Y-91939715D01*
X148953916Y-91930352D01*
X148900647Y-91921915D01*
X148894800Y-91920989D01*
X148888953Y-91921915D01*
X148835684Y-91930352D01*
X148776567Y-91939715D01*
X148669907Y-91994061D01*
X148585261Y-92078707D01*
X148582573Y-92083983D01*
X148582572Y-92083984D01*
X148568712Y-92111186D01*
X148530915Y-92185367D01*
X148512189Y-92303600D01*
X145451319Y-92303600D01*
X145467411Y-92202000D01*
X145463942Y-92180094D01*
X145449611Y-92089614D01*
X145448685Y-92083767D01*
X145405392Y-91998800D01*
X145397028Y-91982384D01*
X145397027Y-91982383D01*
X145394339Y-91977107D01*
X145309693Y-91892461D01*
X145203033Y-91838115D01*
X145084800Y-91819389D01*
X144966567Y-91838115D01*
X144859907Y-91892461D01*
X144775261Y-91977107D01*
X144772573Y-91982383D01*
X144772572Y-91982384D01*
X144764208Y-91998800D01*
X144720915Y-92083767D01*
X144719989Y-92089614D01*
X144705659Y-92180094D01*
X144702189Y-92202000D01*
X130381000Y-92202000D01*
X130381000Y-91490800D01*
X130986189Y-91490800D01*
X131004915Y-91609033D01*
X131059261Y-91715693D01*
X131143907Y-91800339D01*
X131250567Y-91854685D01*
X131368800Y-91873411D01*
X131487033Y-91854685D01*
X131593693Y-91800339D01*
X131678339Y-91715693D01*
X131732685Y-91609033D01*
X131751411Y-91490800D01*
X131732685Y-91372567D01*
X131678339Y-91265907D01*
X131593693Y-91181261D01*
X131487033Y-91126915D01*
X131368800Y-91108189D01*
X131250567Y-91126915D01*
X131143907Y-91181261D01*
X131059261Y-91265907D01*
X131004915Y-91372567D01*
X130986189Y-91490800D01*
X130381000Y-91490800D01*
X130381000Y-91035901D01*
X130381926Y-91024137D01*
X130384823Y-91005846D01*
X130385749Y-91000000D01*
X130384568Y-90992543D01*
X130384114Y-90972360D01*
X130395571Y-90870676D01*
X130399317Y-90854262D01*
X130424393Y-90782602D01*
X130439501Y-90739425D01*
X130446807Y-90724253D01*
X130511540Y-90621231D01*
X130522040Y-90608066D01*
X130608066Y-90522040D01*
X130621231Y-90511540D01*
X130680357Y-90474389D01*
X130724254Y-90446807D01*
X130739425Y-90439501D01*
X130785921Y-90423231D01*
X130854265Y-90399316D01*
X130870676Y-90395571D01*
X130972360Y-90384114D01*
X130992543Y-90384568D01*
X131000000Y-90385749D01*
X131024138Y-90381926D01*
X131035901Y-90381000D01*
X138675742Y-90381000D01*
X138724080Y-90398593D01*
G37*
G04 #@! TD.AperFunction*
M02*
